<svg width="3337" height="1923" xmlns="http://www.w3.org/2000/svg" xmlns:xlink="http://www.w3.org/1999/xlink" xml:space="preserve" overflow="hidden"><defs><linearGradient x1="2456.11" y1="462.544" x2="1453.89" y2="2198.46" gradientUnits="userSpaceOnUse" spreadMethod="reflect" id="fill0"><stop offset="0" stop-color="#33CC33" stop-opacity="0.2"/><stop offset="0.39" stop-color="#33CC33" stop-opacity="0.2"/><stop offset="0.99" stop-color="#33CC33" stop-opacity="0"/><stop offset="1" stop-color="#33CC33" stop-opacity="0"/></linearGradient></defs><g transform="translate(-733 -277)"><path d="M2953.01 420.042C2932.66 421.891 2879.75 432.243 2878.18 413.479 2876.61 394.715 2923.23 309.308 2943.58 307.458 2963.92 305.609 2999.96 383.704 3000.25 402.383 3000.55 421.063 2973.35 418.192 2953.01 420.042Z" fill="#FF5050" fill-rule="evenodd"/><path d="M1221 1330.5C1221 925.399 1549.62 597 1955 597 2169.1 597 2383.19 627.55 2597.29 688.651 2658.43 902.601 2689 1116.55 2689 1330.5 2689 1735.6 2360.38 2064 1955 2064 1549.62 2064 1221 1735.6 1221 1330.5Z" fill="url(#fill0)" fill-rule="evenodd"/><path d="M2254 1436.5C2254 1399.77 2283.77 1370 2320.5 1370 2357.23 1370 2387 1399.77 2387 1436.5 2387 1473.23 2357.23 1503 2320.5 1503 2283.77 1503 2254 1473.23 2254 1436.5Z" fill="#6699FF" fill-rule="evenodd"/><path d="M1512 1385.5C1512 1348.77 1542 1319 1579 1319 1616 1319 1646 1348.77 1646 1385.5 1646 1422.23 1616 1452 1579 1452 1542 1452 1512 1422.23 1512 1385.5Z" fill="#6699FF" fill-rule="evenodd"/><path d="M1745 1599.5C1745 1562.77 1774.77 1533 1811.5 1533 1848.23 1533 1878 1562.77 1878 1599.5 1878 1636.23 1848.23 1666 1811.5 1666 1774.77 1666 1745 1636.23 1745 1599.5Z" fill="#6699FF" fill-rule="evenodd"/><path d="M1947 967C1947 929.997 1976.77 900 2013.5 900 2050.23 900 2080 929.997 2080 967 2080 1004 2050.23 1034 2013.5 1034 1976.77 1034 1947 1004 1947 967Z" fill="#6699FF" fill-rule="evenodd"/><path d="M1097 1330.5C1097 858.02 1480.02 475 1952.5 475 2424.98 475 2808 858.02 2808 1330.5 2808 1802.98 2424.98 2186 1952.5 2186 1480.02 2186 1097 1802.98 1097 1330.5Z" stroke="#000000" stroke-width="27.5" stroke-miterlimit="8" fill="none" fill-rule="evenodd"/><path d="M-4.23275 74.1751 21.2053 54.3002 34.4651 44.6424 48.2419 35.429 62.7079 26.8173 78.0129 18.9818 94.3008 12.0992 111.698 6.34885 130.236 1.8584 149.755-1.48025 170.102-3.84207 191.135-5.39793 212.713-6.31379 234.702-6.7526 265.616-6.81201C269.412-6.8193 272.496-3.74718 272.504 0.0497694 272.511 3.84672 269.439 6.93067 265.642 6.93797L234.791 6.99726 234.915 6.9959 213.064 7.43193 213.219 7.42712 191.826 8.33512 192.042 8.32258 171.259 9.85988 171.545 9.83276 151.524 12.1567 151.891 12.1041 132.786 15.372 133.245 15.2772 115.208 19.6463 115.747 19.4922 98.8791 25.0675 99.3976 24.8727 83.5973 31.5493 84.0543 31.3361 69.1692 38.9566 69.5529 38.7445 55.4305 47.1516 55.7355 46.959 42.2232 55.9955 42.449 55.8379 29.3943 65.3463 29.5794 65.2066 4.23275 85.0102C1.24073 87.3478-3.07983 86.8174-5.41752 83.8254-7.7552 80.8334-7.22476 76.5128-4.23275 74.1751ZM227.785-29.8653 279.273 0.0367606 227.901 30.1365C224.624 32.056 220.413 30.9563 218.493 27.6802 216.574 24.4042 217.673 20.1924 220.95 18.2729L262.153-5.86883 262.176 6.00811 220.88-17.9751C217.596-19.8819 216.481-24.0895 218.387-27.3729 220.294-30.6563 224.502-31.7722 227.785-29.8653Z" fill="#C00000" transform="matrix(0.883016 0.469342 0.469342 -0.883016 1275.13 1218.16)"/><path d="M-4.47444 74.373 18.7173 54.4923 30.8191 44.8215 43.3998 35.5905 56.6205 26.9554 70.6205 19.0915 85.5328 12.1778 101.471 6.39808 118.45 1.88548 136.313-1.46681 154.917-3.83615 174.133-5.39574 193.834-6.3132 213.902-6.75257 240.883-6.80946C244.68-6.81747 247.765-3.74592 247.773 0.0510275 247.781 3.84798 244.709 6.9325 240.912 6.94051L213.999 6.99725 214.135 6.99562 194.22 7.43165 194.389 7.42586 174.891 8.33387 175.127 8.31878 156.185 9.85608 156.498 9.82353 138.251 12.1475 138.65 12.0846 121.237 15.3525 121.735 15.2398 105.295 19.6089 105.873 19.4277 90.4993 25.003 91.0472 24.7771 76.6463 31.4537 77.1214 31.2106 63.5546 38.8311 63.9472 38.593 51.0755 47.0002 51.3831 46.7871 39.0675 55.8236 39.2923 55.6514 27.3938 65.1599 27.5763 65.0088 4.47444 84.8123C1.5917 87.2835-2.7485 86.9498-5.21967 84.0671-7.69084 81.1843-7.35719 76.8441-4.47444 74.373ZM203.049-29.8557 254.542 0.0367547 203.175 30.1461C199.9 32.0662 195.688 30.9673 193.768 27.6916 191.847 24.4159 192.946 20.2039 196.222 18.2838L237.421-5.86564 237.446 6.01129 196.146-17.9642C192.862-19.8704 191.745-24.0778 193.651-27.3615 195.558-30.6453 199.765-31.762 203.049-29.8557Z" fill="#FF5050" transform="matrix(-0.170175 -0.985414 -0.985414 0.170175 2061.66 1281.2)"/><path d="M1922.74 1283.71 1918.36 1256.02 1916.58 1241.81 1915.32 1227.33 1914.76 1212.48 1915.08 1197.2 1916.47 1181.44 1919.09 1165.16 1923.06 1148.37 1928.23 1131.16 1934.42 1113.59 1941.46 1095.73 1949.17 1077.63 1957.38 1059.35 1968.81 1034.93C1970.42 1031.49 1974.51 1030 1977.95 1031.61 1981.39 1033.22 1982.87 1037.32 1981.26 1040.76L1969.85 1065.13 1969.9 1065.03 1961.74 1083.2 1961.79 1083.08 1954.15 1101.03 1954.22 1100.86 1947.26 1118.52 1947.35 1118.28 1941.25 1135.58 1941.35 1135.27 1936.29 1152.13 1936.39 1151.73 1932.53 1168.08 1932.63 1167.6 1930.08 1183.39 1930.14 1182.9 1928.8 1198.18 1928.82 1197.72 1928.51 1212.56 1928.51 1212.16 1929.06 1226.64 1929.03 1226.3 1930.27 1240.49 1930.24 1240.23 1931.99 1254.21 1931.96 1253.99 1936.32 1281.56C1936.91 1285.31 1934.35 1288.83 1930.6 1289.43 1926.85 1290.02 1923.33 1287.46 1922.74 1283.71ZM1931.85 1059.35 1980.82 1025.48 1986.19 1084.78C1986.53 1088.56 1983.75 1091.91 1979.96 1092.25 1976.18 1092.59 1972.84 1089.8 1972.5 1086.02L1968.19 1038.46 1978.95 1043.5 1939.67 1070.66C1936.54 1072.82 1932.26 1072.03 1930.1 1068.91 1927.94 1065.79 1928.72 1061.51 1931.85 1059.35Z" fill="#FF5050"/><path d="M1904.56 1305.88 1873.92 1300.23 1858.54 1296.83 1843.26 1292.78 1828.11 1287.84 1813.16 1281.78 1798.49 1274.4 1784.2 1265.48 1770.38 1254.92 1757.06 1242.93 1744.17 1229.73 1731.62 1215.54 1719.35 1200.56 1707.28 1185 1691.68 1163.96C1689.42 1160.91 1690.06 1156.6 1693.11 1154.34 1696.16 1152.08 1700.47 1152.72 1702.73 1155.77L1718.28 1176.75 1718.19 1176.63 1730.16 1192.07 1730.04 1191.92 1742.17 1206.73 1742 1206.53 1754.35 1220.5 1754.12 1220.25 1766.74 1233.16 1766.43 1232.86 1779.38 1244.52 1778.95 1244.17 1792.29 1254.36 1791.75 1253.99 1805.51 1262.57 1804.96 1262.26 1819.09 1269.38 1818.58 1269.15 1833.05 1275 1832.6 1274.84 1847.34 1279.65 1846.97 1279.54 1861.93 1283.51 1861.65 1283.44 1876.77 1286.78 1876.54 1286.73 1907.06 1292.36C1910.79 1293.05 1913.26 1296.63 1912.57 1300.37 1911.88 1304.1 1908.3 1306.57 1904.56 1305.88ZM1695.6 1208.08 1689.08 1148.9 1743.81 1172.35C1747.3 1173.85 1748.92 1177.89 1747.42 1181.38 1745.92 1184.87 1741.88 1186.49 1738.39 1184.99L1694.5 1166.18 1704.04 1159.11 1709.27 1206.58C1709.69 1210.35 1706.97 1213.75 1703.19 1214.16 1699.42 1214.58 1696.02 1211.86 1695.6 1208.08Z" fill="#FF5050"/><path d="M-1.7102 9.84075 14.3289 5.72143 22.6787 3.72229 31.3403 1.81821 40.4139 0.0426121 49.9883-1.56865 60.1517-2.98038 70.9894-4.15789 82.5428-5.07782 94.7328-5.76323 107.468-6.24916 120.657-6.56987 134.209-6.75895 148.035-6.84964 162.483-6.85877C166.28-6.86117 169.36-3.78507 169.362 0.0118892 169.365 3.80885 166.288 6.88883 162.491 6.89123L148.064 6.90034 148.104 6.9002 134.325 6.99059 134.376 6.99007 120.885 7.1783 120.956 7.17694 107.849 7.49562 107.944 7.49265 95.319 7.97441 95.4429 7.96856 83.3946 8.646 83.5543 8.63515 72.1793 9.54088 72.3763 9.52234 61.7387 10.6781 61.942 10.653 51.9778 12.037 52.1728 12.0071 42.7857 13.5868 42.9651 13.5542 34.059 15.297 34.2148 15.2646 25.6934 17.1379 25.8181 17.1093 17.5853 19.0804 17.6947 19.0532 1.7102 23.1585C-1.96741 24.1031-5.71438 21.8874-6.65889 18.2098-7.60341 14.5322-5.3878 10.7853-1.7102 9.84075ZM124.682-29.9609 176.131 0.00761238 124.72 30.0411C121.442 31.9563 117.231 30.8512 115.316 27.5726 113.401 24.2941 114.506 20.0837 117.784 18.1685L159.019-5.92006 159.027 5.9569 117.762-18.0795C114.481-19.9906 113.37-24.1996 115.281-27.4806 117.192-30.7615 121.401-31.872 124.682-29.9609Z" fill="#C00000" transform="matrix(0.988739 -0.14965 -0.14965 -0.988739 1401.7 1138.41)"/><path d="M1325.6 1054.73 1329.44 1032.57 1333.53 1010.55 1338.14 988.89 1343.5 967.872 1346.56 957.584 1349.91 947.565 1353.58 937.802 1357.6 928.324 1362.03 919.159 1366.88 910.339 1372.2 901.896 1378.02 893.869 1384.35 886.304 1391.14 879.205 1398.35 872.546 1405.94 866.297 1413.88 860.426 1422.14 854.902 1430.68 849.692 1439.5 844.74 1457.65 835.628 1476.48 827.235 1495.7 819.346 1502.4 816.709C1505.94 815.319 1509.93 817.057 1511.32 820.59 1512.71 824.123 1510.97 828.114 1507.44 829.505L1500.78 832.123 1500.87 832.086 1481.8 839.916 1481.98 839.836 1463.39 848.122 1463.68 847.987 1445.82 856.957 1446.09 856.81 1437.51 861.623 1437.73 861.495 1429.42 866.565 1429.66 866.41 1421.66 871.765 1421.92 871.58 1414.26 877.248 1414.54 877.028 1407.23 883.038 1407.53 882.78 1400.62 889.16 1400.93 888.861 1394.44 895.641 1394.75 895.3 1388.72 902.507 1389.01 902.133 1383.47 909.787 1383.72 909.417 1378.62 917.498 1378.83 917.147 1374.16 925.628 1374.33 925.301 1370.06 934.152 1370.19 933.853 1366.29 943.046 1366.4 942.775 1362.82 952.282 1362.91 952.04 1359.64 961.832 1359.71 961.618 1356.71 971.666 1356.79 971.401 1351.5 992.153 1351.56 991.885 1347 1013.32 1347.04 1013.15 1342.96 1035.04 1342.98 1034.95 1339.15 1057.07C1338.5 1060.82 1334.95 1063.32 1331.2 1062.68 1327.46 1062.03 1324.96 1058.47 1325.6 1054.73ZM1458.77 809.024 1517.62 818.111 1480.74 864.86C1478.39 867.841 1474.07 868.351 1471.09 866 1468.1 863.648 1467.59 859.325 1469.95 856.344L1499.52 818.849 1503.87 829.901 1456.67 822.613C1452.92 822.034 1450.35 818.522 1450.93 814.769 1451.51 811.017 1455.02 808.445 1458.77 809.024Z" fill="#C00000"/><path d="M1562.51 781.638 1560.16 800.077 1557.53 818.581 1554.39 837.123 1550.45 855.67 1545.45 874.187 1539.14 892.633 1531.26 910.891 1526.61 920.057 1521.49 929.108 1515.87 938.089 1509.74 947.036 1496.32 964.559 1481.38 981.882 1465.22 998.997 1448.08 1015.94 1430.22 1032.76 1411.9 1049.49 1403.49 1057.05C1400.66 1059.58 1396.31 1059.35 1393.78 1056.53 1391.24 1053.7 1391.47 1049.36 1394.3 1046.82L1402.69 1039.28 1402.65 1039.31 1420.91 1022.64 1420.84 1022.72 1438.59 1005.99 1438.47 1006.11 1455.47 989.302 1455.3 989.47 1471.28 972.553 1471.07 972.784 1485.78 955.73 1485.53 956.041 1498.71 938.822 1498.5 939.119 1504.44 930.439 1504.29 930.675 1509.75 921.943 1509.59 922.207 1514.56 913.422 1514.42 913.691 1518.91 904.854 1518.72 905.247 1526.41 887.433 1526.21 887.928 1532.37 869.948 1532.24 870.385 1537.12 852.269 1537.04 852.631 1540.91 834.404 1540.85 834.682 1543.96 816.373 1543.93 816.56 1546.53 798.196 1546.52 798.29 1548.87 779.898C1549.35 776.132 1552.79 773.468 1556.56 773.949 1560.32 774.429 1562.99 777.872 1562.51 781.638ZM1447.05 1048.99 1388.74 1061.05 1406.94 1004.36C1408.1 1000.75 1411.98 998.757 1415.59 999.917 1419.21 1001.08 1421.2 1004.95 1420.03 1008.57L1405.44 1054.03 1397.5 1045.2 1444.26 1035.53C1447.98 1034.76 1451.62 1037.15 1452.39 1040.87 1453.16 1044.58 1450.77 1048.22 1447.05 1048.99Z" fill="#FF5050"/><path d="M1893.95 746.74 1891.29 769.647 1888.32 792.537 1884.73 815.258 1880.22 837.658 1874.48 859.479 1871 870.295 1867.11 880.849 1862.75 891.2 1857.86 901.323 1852.42 911.193 1846.38 920.776 1839.74 930.024 1832.54 938.921 1824.84 947.487 1816.69 955.744 1808.11 963.718 1799.09 971.483 1780.27 986.176 1760.3 1000.18 1739.57 1013.63 1718.35 1026.68 1714.45 1029.02C1709.57 1031.94 1703.23 1030.36 1700.3 1025.47 1697.38 1020.59 1698.96 1014.25 1703.85 1011.33L1707.69 1009.02 1707.59 1009.08 1728.66 996.124 1728.45 996.254 1748.93 982.979 1748.61 983.19 1768.21 969.443 1767.79 969.756 1786.21 955.378 1785.82 955.693 1794.5 948.219 1794.21 948.479 1802.48 940.788 1802.17 941.093 1810 933.165 1809.67 933.519 1817.02 925.335 1816.67 925.744 1823.51 917.284 1823.16 917.751 1829.45 908.996 1829.1 909.513 1834.81 900.449 1834.51 900.967 1839.67 891.607 1839.41 892.107 1844.06 882.471 1843.85 882.945 1848.02 873.054 1847.84 873.496 1851.57 863.368 1851.43 863.776 1854.76 853.431 1854.6 853.966 1860.19 832.705 1860.06 833.288 1864.47 811.396 1864.39 811.826 1867.92 789.461 1867.88 789.742 1870.83 767.062 1870.81 767.201 1873.46 744.363C1874.12 738.705 1879.23 734.651 1884.89 735.308 1890.55 735.964 1894.6 741.082 1893.95 746.74ZM1780.9 1029.63 1691.6 1030.69 1734.63 952.434C1737.37 947.443 1743.64 945.622 1748.64 948.366 1753.63 951.111 1755.45 957.381 1752.7 962.372L1718.19 1025.14 1709.03 1009.86 1780.66 1009.01C1786.35 1008.94 1791.02 1013.5 1791.09 1019.2 1791.16 1024.89 1786.6 1029.56 1780.9 1029.63Z" fill="#FFC000"/><path d="M2224.65 662.719 2256.53 671.994 2272.58 677.249 2288.59 683.201 2304.55 690.087 2320.41 698.137 2336.13 707.576 2351.63 718.617 2366.84 731.367 2381.76 745.632 2396.42 761.179 2410.88 777.79 2425.16 795.244 2439.33 813.333 2459.19 839.598C2461.47 842.627 2460.88 846.938 2457.85 849.228 2454.82 851.517 2450.51 850.918 2448.22 847.889L2428.4 821.671 2428.47 821.765 2414.39 803.782 2414.48 803.897 2400.3 786.58 2400.43 786.738 2386.14 770.309 2386.32 770.513 2371.88 755.194 2372.13 755.446 2357.5 741.46 2357.84 741.761 2343 729.329 2343.43 729.66 2328.37 718.931 2328.82 719.224 2313.54 710.05 2313.97 710.287 2298.52 702.445 2298.91 702.627 2283.31 695.896 2283.64 696.028 2267.91 690.184 2268.17 690.274 2252.36 685.097 2252.58 685.164 2220.81 675.921C2217.16 674.86 2215.07 671.045 2216.13 667.399 2217.19 663.753 2221 661.658 2224.65 662.719ZM2454.85 795.509 2461.93 854.628 2406.98 831.689C2403.48 830.226 2401.82 826.2 2403.29 822.696 2404.75 819.192 2408.78 817.538 2412.28 819.001L2456.35 837.399 2446.87 844.561 2441.2 797.144C2440.75 793.374 2443.44 789.952 2447.21 789.5 2450.98 789.049 2454.4 791.739 2454.85 795.509Z" fill="#C00000"/><path d="M2424.83 915.86 2408.99 911.099 2393.18 906.112 2377.55 900.693 2362.21 894.632 2347.3 887.716 2332.96 879.728 2319.42 870.506 2312.86 865.266 2306.61 859.68 2300.64 853.697 2294.9 847.295 2284.33 833.704 2274.58 818.93 2265.57 803.245 2257.13 786.846 2249.13 769.927 2241.42 752.682 2239.29 747.792C2237.78 744.309 2239.38 740.26 2242.86 738.747 2246.34 737.234 2250.39 738.831 2251.91 742.314L2254.01 747.17 2253.99 747.104 2261.65 764.248 2261.59 764.114 2269.51 780.862 2269.41 780.657 2277.72 796.812 2277.57 796.531 2286.4 811.895 2286.18 811.536 2295.66 825.91 2295.34 825.474 2305.6 838.661 2305.29 838.291 2310.75 844.378 2310.5 844.113 2316.21 849.829 2315.92 849.56 2321.88 854.889 2321.59 854.643 2327.8 859.601 2327.37 859.289 2340.44 868.19 2339.92 867.866 2353.77 875.58 2353.32 875.35 2367.81 882.075 2367.45 881.917 2382.46 887.851 2382.19 887.749 2397.6 893.089 2397.41 893.029 2413.08 897.973 2412.99 897.945 2428.78 902.691C2432.42 903.784 2434.48 907.618 2433.39 911.254 2432.3 914.89 2428.46 916.952 2424.83 915.86ZM2233.14 791.663 2240.16 732.538 2288.17 767.757C2291.23 770.003 2291.89 774.306 2289.65 777.367 2287.4 780.429 2283.1 781.09 2280.04 778.844L2241.53 750.596 2252.43 745.864 2246.79 793.286C2246.34 797.056 2242.92 799.75 2239.15 799.302 2235.38 798.853 2232.69 795.434 2233.14 791.663Z" fill="#FF5050"/><path d="M-4.64233 53.8498 11.4596 39.1088 19.9077 31.8989 28.7082 25.0028 37.9812 18.5345 47.8258 12.629 58.3348 7.42578 69.5793 3.07092 81.5431-0.324715 94.09-2.83939 107.118-4.61134 120.541-5.77476 134.273-6.45771 148.241-6.78431 162.792-6.81707C166.589-6.82562 169.674-3.75452 169.683 0.0424293 169.691 3.83938 166.62 6.92434 162.823 6.93289L148.344 6.9655 148.489 6.96363 134.685 7.28642 134.866 7.27981 121.35 7.95199 121.602 7.9348 108.472 9.07283 108.805 9.03579 96.1565 10.7561 96.5809 10.6848 84.5107 13.1039 85.0368 12.9768 73.6412 16.2112 74.2469 16.0084 63.59 20.1357 64.1577 19.8858 54.1753 24.8284 54.6614 24.5628 45.2572 30.2041 45.6538 29.9473 36.7315 36.1709 37.0387 35.9437 28.5018 42.6332 28.7244 42.4512 20.4766 49.4901 20.6559 49.3315 4.64233 63.9917C1.84174 66.5556-2.50704 66.3637-5.07093 63.5631-7.63482 60.7625-7.44293 56.4137-4.64233 53.8498ZM124.954-29.8579 176.452 0.0271874 125.089 30.1439C121.814 32.0645 117.602 30.9661 115.681 27.6907 113.761 24.4153 114.859 20.2031 118.134 18.2826L159.33-5.87276 159.357 6.00417 118.053-17.9654C114.769-19.8712 113.651-24.0784 115.557-27.3624 117.463-30.6464 121.67-31.7637 124.954-29.8579Z" fill="#FF5050" transform="matrix(0.986686 -0.16264 -0.16264 -0.986686 2411.67 1254.31)"/><path d="M2400.75 1132.37 2424.21 1125.29 2436.18 1122.14 2448.27 1119.5 2460.52 1117.55 2472.94 1116.49 2485.54 1116.52 2498.3 1117.84 2511.12 1120.54 2523.92 1124.49 2536.67 1129.47 2549.4 1135.3 2562.09 1141.79 2574.76 1148.78 2588.16 1156.61C2591.44 1158.53 2592.55 1162.74 2590.63 1166.01 2588.71 1169.29 2584.5 1170.4 2581.23 1168.48L2567.9 1160.69 2568.05 1160.78 2555.54 1153.88 2555.73 1153.98 2543.27 1147.61 2543.53 1147.74 2531.13 1142.05 2531.49 1142.21 2519.15 1137.39 2519.62 1137.56 2507.37 1133.78 2507.97 1133.93 2495.81 1131.37 2496.53 1131.48 2484.47 1130.24 2485.16 1130.27 2473.21 1130.24 2473.8 1130.22 2461.93 1131.23 2462.43 1131.17 2450.62 1133.04 2451.01 1132.97 2439.26 1135.54 2439.54 1135.47 2427.84 1138.56 2428.07 1138.49 2404.72 1145.53C2401.09 1146.63 2397.25 1144.57 2396.15 1140.93 2395.06 1137.3 2397.12 1133.46 2400.75 1132.37ZM2567.21 1117.58 2596.47 1169.43 2536.93 1169.38C2533.14 1169.38 2530.06 1166.3 2530.06 1162.5 2530.07 1158.71 2533.15 1155.63 2536.94 1155.63L2584.7 1155.67 2578.71 1165.93 2555.23 1124.34C2553.37 1121.03 2554.53 1116.84 2557.84 1114.97 2561.15 1113.11 2565.34 1114.27 2567.21 1117.58Z" fill="#FF5050"/><path d="M-6.19973 300.535 12.0566 262.443 30.5578 224.903 39.9871 206.495 49.5595 188.456 59.3112 170.845 69.2722 153.739 79.4729 137.209 89.945 121.33 100.721 106.176 111.833 91.8207 123.317 78.3405 135.207 65.8119 147.54 54.3138 160.347 43.9321 173.627 34.7429 187.332 26.7178 201.418 19.7861 215.848 13.8713 230.585 8.89461 245.596 4.7761 260.849 1.43515 276.313-1.20875 291.962-3.23572 307.766-4.7252 323.7-5.75589 339.76-6.40675 371.994-6.87184 390.747-6.79228C394.544-6.77617 397.609-3.6851 397.593 0.111827 397.577 3.90875 394.486 6.97371 390.689 6.9576L372 6.87831 372.129 6.87765 340.048 7.34052 340.227 7.3356 324.339 7.97948 324.505 7.97078 308.754 8.9896 308.956 8.97361 293.371 10.4424 293.609 10.4157 278.218 12.4094 278.493 12.3681 263.323 14.9617 263.635 14.9008 248.713 18.1693 249.061 18.0835 234.415 22.1019 234.796 21.9856 220.453 26.8288 220.861 26.6765 206.85 32.4197 207.278 32.227 193.626 38.945 194.065 38.7091 180.799 46.477 181.237 46.1978 168.385 55.0905 168.803 54.7776 156.383 64.8452 156.742 64.5332 144.737 75.7256 145.036 75.4297 133.417 87.672 133.664 87.3977 122.404 100.615 122.607 100.365 111.679 114.482 111.845 114.258 101.221 129.2 101.357 129.001 91.0085 144.692 91.1198 144.518 81.0197 160.885 81.1103 160.734 71.231 177.7 71.3042 177.571 61.6182 195.063 61.6767 194.955 52.1563 212.896 52.2023 212.808 42.82 231.125 42.8677 231.03 24.4068 268.488 24.4398 268.42 6.19973 306.478C4.5587 309.902 0.452661 311.347-2.97136 309.706-6.39537 308.065-7.84077 303.959-6.19973 300.535ZM353.06-30.0784 404.362 0.140546 352.805 29.9231C349.517 31.8223 345.312 30.6966 343.413 27.4088 341.514 24.121 342.64 19.9161 345.927 18.0168L387.279-5.87046 387.229 6.00639 346.081-18.2309C342.81-20.158 341.72-24.3723 343.647-27.6439 345.574-30.9155 349.788-32.0054 353.06-30.0784Z" fill="#FF5050" transform="matrix(0.197887 0.980225 0.980225 -0.197887 2045.5 1183.18)"/><path d="M1719.91 1977.39 1691.91 1976.16 1677.63 1975.07 1663.18 1973.42 1648.52 1971.01 1633.61 1967.65 1618.45 1963.15 1603.02 1957.33 1587.35 1950.09 1571.52 1941.59 1555.54 1932.02 1539.44 1921.56 1523.24 1910.4 1506.96 1898.71 1485.31 1882.64C1482.26 1880.38 1481.62 1876.07 1483.88 1873.02 1486.15 1869.97 1490.45 1869.33 1493.5 1871.6L1515.11 1887.64 1515.03 1887.57 1531.2 1899.19 1531.09 1899.12 1547.16 1910.19 1547.01 1910.08 1562.92 1920.42 1562.71 1920.29 1578.44 1929.71 1578.16 1929.55 1593.67 1937.88 1593.31 1937.7 1608.56 1944.74 1608.1 1944.55 1623.07 1950.19 1622.59 1950.04 1637.3 1954.4 1636.86 1954.28 1651.34 1957.55 1650.95 1957.47 1665.24 1959.82 1664.91 1959.78 1679.06 1961.4 1678.8 1961.37 1692.84 1962.44 1692.62 1962.43 1720.51 1963.65C1724.31 1963.82 1727.25 1967.03 1727.08 1970.82 1726.91 1974.62 1723.7 1977.56 1719.91 1977.39ZM1501.87 1923.73 1478.45 1868.99 1537.63 1875.55C1541.4 1875.97 1544.12 1879.36 1543.7 1883.14 1543.28 1886.91 1539.89 1889.63 1536.11 1889.21L1488.65 1883.95 1495.73 1874.41 1514.51 1918.32C1516 1921.81 1514.38 1925.85 1510.89 1927.35 1507.4 1928.84 1503.36 1927.22 1501.87 1923.73Z" fill="#FF5050"/><path d="M6.10266 63.0242 18.8532 52.4704 30.9788 43.1141 43.5833 34.1841 56.8271 25.8317 70.8486 18.227 85.7799 11.5428 101.734 5.95622 118.731 1.59471 136.613-1.64572 155.24-3.93635 174.484-5.44438 194.216-6.33162 214.317-6.75657 254.986-6.83936C258.783-6.84709 261.867-3.77532 261.875 0.0216265 261.882 3.81858 258.811 6.90288 255.014 6.91061L214.41 6.99327 214.541 6.99175 194.588 7.41358 194.751 7.40817 175.216 8.2866 175.444 8.27253 156.466 9.75976 156.768 9.72937 138.486 11.9776 138.872 11.9188 121.426 15.0803 121.909 14.9747 105.437 19.2015 106.001 19.031 90.597 24.4247 91.134 24.2109 76.7054 30.67 77.174 30.4384 63.5811 37.8107 63.9708 37.5825 51.0744 45.7158 51.3814 45.5105 39.0421 54.2526 39.2676 54.0858 27.3462 63.2845 27.5299 63.1377 14.87 73.6165C11.945 76.0375 7.61125 75.629 5.19021 72.704 2.76917 69.779 3.17769 65.4452 6.10266 63.0242ZM58.724 67.3382-0.024547 77.0203 20.4652 21.1159C21.7718 17.5509 25.7211 15.7201 29.2862 17.0267 32.8512 18.3334 34.682 22.2826 33.3754 25.8477L16.9414 70.6862 9.36838 61.5368 56.488 53.7712C60.2345 53.1538 63.7721 55.6904 64.3895 59.4368 65.0069 63.1832 62.4704 66.7208 58.724 67.3382Z" fill="#FF5050" transform="matrix(-1 1.22465e-16 1.22465e-16 1 1734 1813)"/><path d="M1388.93 1803.07 1366.78 1782.23 1355.86 1771.25 1345.24 1759.71 1335.05 1747.42 1325.41 1734.21 1316.46 1719.92 1308.34 1704.4 1301.15 1687.6 1294.82 1669.68 1289.23 1650.83 1284.24 1631.2 1279.73 1610.94 1275.57 1590.22 1270.33 1561.52C1269.65 1557.79 1272.12 1554.21 1275.86 1553.53 1279.59 1552.84 1283.17 1555.32 1283.86 1559.05L1289.09 1587.69 1289.07 1587.58 1293.19 1608.17 1293.16 1608.03 1297.64 1628.11 1297.59 1627.91 1302.52 1647.31 1302.45 1647.05 1307.95 1665.6 1307.84 1665.27 1314.04 1682.81 1313.87 1682.39 1320.87 1698.74 1320.64 1698.26 1328.52 1713.3 1328.25 1712.84 1336.94 1726.7 1336.66 1726.3 1346.03 1739.14 1345.77 1738.8 1355.71 1750.8 1355.48 1750.53 1365.89 1761.85 1365.7 1761.65 1376.45 1772.45 1376.28 1772.3 1398.35 1793.06C1401.12 1795.66 1401.25 1800.01 1398.65 1802.77 1396.05 1805.54 1391.7 1805.67 1388.93 1803.07ZM1254.37 1602.85 1274.64 1546.87 1313.4 1592.07C1315.87 1594.95 1315.54 1599.29 1312.65 1601.76 1309.77 1604.23 1305.43 1603.9 1302.96 1601.02L1271.88 1564.76 1283.56 1562.63 1267.3 1607.53C1266.01 1611.1 1262.07 1612.95 1258.5 1611.66 1254.93 1610.36 1253.08 1606.42 1254.37 1602.85Z" fill="#FF5050"/><path d="M-4.82152 90.0712 7.31762 78.1286 19.6734 66.3077 32.3973 54.7999 45.6428 43.8005 59.564 33.5098 74.3127 24.1338 89.9589 15.9241 98.2978 12.2584 106.857 8.98676 115.699 6.10201 124.854 3.57424 143.637-0.415265 163.276-3.24597 183.556-5.10879 204.343-6.20433 225.497-6.72853 246.879-6.87399 254.733-6.85828C258.53-6.85068 261.602-3.76649 261.595 0.0304596 261.587 3.82741 258.503 6.89929 254.706 6.89169L246.882 6.87604 246.942 6.8759 225.652 7.02074 225.776 7.01879 204.779 7.53907 204.971 7.53165 184.414 8.61511 184.681 8.59582 164.71 10.4302 165.062 10.3887 145.824 13.1616 146.272 13.0819 127.913 16.9813 128.314 16.8833 119.511 19.314 119.813 19.2229 111.284 22.0056 111.607 21.8915 103.365 25.0418 103.677 24.9137 95.7097 28.416 96.1373 28.2101 80.9543 36.1768 81.4483 35.8908 67.1447 44.9839 67.5431 44.7105 53.9723 54.7422 54.2778 54.5027 41.2933 65.2853 41.5127 65.0951 28.968 76.4409 29.1091 76.3097 16.8576 88.0309 16.9264 87.964 4.82152 99.873C2.11484 102.536-2.23802 102.5-4.90087 99.7936-7.56373 97.0869-7.5282 92.7341-4.82152 90.0712ZM216.994-30.0598 268.364 0.0440014 216.874 29.942C213.59 31.8487 209.383 30.7324 207.476 27.4489 205.57 24.1653 206.686 19.9579 209.969 18.0512L251.267-5.92869 251.244 5.94825 210.042-18.1967C206.766-20.1165 205.667-24.3283 207.586-27.6042 209.506-30.8801 213.718-31.9795 216.994-30.0598Z" fill="#FF5050" transform="matrix(-0.801222 -0.598367 -0.598367 0.801222 1526.87 1674.48)"/><path d="M1237.75 1417.52 1230.28 1390.02 1226.96 1375.92 1224.2 1361.57 1222.18 1346.89 1221.11 1331.82 1221.18 1316.31 1222.59 1300.35 1225.46 1283.96 1229.64 1267.25 1234.92 1250.26 1241.11 1233.05 1248.03 1215.65 1255.48 1198.12 1265.66 1175.39C1267.21 1171.92 1271.28 1170.37 1274.74 1171.92 1278.21 1173.47 1279.76 1177.54 1278.21 1181.01L1268.06 1203.68 1268.11 1203.56 1260.71 1220.96 1260.77 1220.81 1253.93 1238.02 1254.01 1237.81 1247.91 1254.77 1248.01 1254.49 1242.83 1271.14 1242.93 1270.77 1238.86 1287.06 1238.96 1286.58 1236.19 1302.43 1236.26 1301.85 1234.9 1317.24 1234.93 1316.67 1234.86 1331.62 1234.84 1331.1 1235.88 1345.69 1235.83 1345.24 1237.8 1359.52 1237.74 1359.15 1240.44 1373.19 1240.38 1372.91 1243.64 1386.76 1243.58 1386.53 1251.02 1413.92C1252.01 1417.59 1249.85 1421.36 1246.18 1422.36 1242.52 1423.35 1238.74 1421.19 1237.75 1417.52ZM1229.11 1200.43 1277.51 1165.74 1283.87 1224.94C1284.28 1228.72 1281.55 1232.11 1277.77 1232.51 1274 1232.92 1270.61 1230.19 1270.2 1226.41L1265.1 1178.93 1275.94 1183.79 1237.12 1211.6C1234.03 1213.81 1229.74 1213.1 1227.53 1210.02 1225.31 1206.93 1226.02 1202.64 1229.11 1200.43Z" fill="#FF5050"/><path d="M-5.05437 73.5562 12.9714 54.0065 22.4013 44.4725 32.22 35.3577 42.5637 26.8102 53.5504 19.0024 65.2931 12.1146 77.8793 6.33993 91.2913 1.83028 105.367-1.51188 119.985-3.86719 135.043-5.41335 150.444-6.32075 166.106-6.75459 184.057-6.80248C187.854-6.81261 190.941-3.74279 190.951 0.0541576 190.961 3.8511 187.891 6.93734 184.094 6.94747L166.229 6.99513 166.401 6.99252 150.932 7.42101 151.146 7.41175 136.001 8.30406 136.299 8.28 121.586 9.79073 121.977 9.73914 107.804 12.0229 108.298 11.9245 94.7731 15.1358 95.376 14.9633 82.6065 19.2569 83.2824 18.9891 71.3408 24.468 71.9522 24.1495 60.7664 30.7106 61.2706 30.3845 50.7327 37.8733 51.1295 37.569 41.1316 45.8308 41.4296 45.5697 31.8636 54.45 32.0741 54.246 22.8321 63.59 22.9985 63.4158 5.05437 82.8769C2.48052 85.6684-1.86892 85.8448-4.66037 83.2709-7.45182 80.6971-7.62821 76.3477-5.05437 73.5562ZM146.21-29.8276 197.72 0.0361016 146.37 30.1742C143.095 32.0961 138.883 30.9995 136.961 27.7249 135.039 24.4503 136.135 20.2376 139.41 18.3157L180.596-5.85672 180.627 6.0202 139.313-17.9322C136.029-19.8366 134.91-24.0433 136.814-27.3281 138.718-30.613 142.925-31.732 146.21-29.8276Z" fill="#FF5050" transform="matrix(0.782983 -0.622043 -0.622043 -0.782983 1363.49 1534.2)"/><path d="M1611.91 1392.86 1635.9 1400.93 1647.81 1405.4 1659.48 1410.36 1670.81 1415.96 1681.68 1422.39 1691.97 1429.81 1701.52 1438.36 1710.18 1448.07 1717.97 1458.77 1725.01 1470.27 1731.43 1482.42 1737.37 1495.07 1742.95 1508.11 1753.45 1534.61C1754.85 1538.14 1753.12 1542.13 1749.59 1543.53 1746.06 1544.93 1742.07 1543.2 1740.67 1539.67L1730.21 1513.26 1730.28 1513.43 1724.78 1500.59 1724.87 1500.81 1719.05 1488.41 1719.2 1488.7 1712.95 1476.89 1713.17 1477.26 1706.38 1466.18 1706.69 1466.64 1699.26 1456.44 1699.69 1456.97 1691.52 1447.79 1692.06 1448.34 1683.07 1440.3 1683.64 1440.75 1673.89 1433.73 1674.41 1434.07 1664.03 1427.93 1664.48 1428.17 1653.56 1422.77 1653.92 1422.93 1642.57 1418.11 1642.84 1418.22 1631.18 1413.84 1631.4 1413.92 1607.53 1405.9C1603.93 1404.69 1601.99 1400.79 1603.2 1397.19 1604.41 1393.59 1608.31 1391.65 1611.91 1392.86ZM1766.24 1529.54C1770.43 1540.13 1765.25 1552.12 1754.66 1556.32 1744.07 1560.51 1732.08 1555.33 1727.88 1544.74 1723.69 1534.15 1728.87 1522.16 1739.46 1517.96 1750.05 1513.77 1762.04 1518.95 1766.24 1529.54Z" fill="#6699FF"/><path d="M1605.27 755.794 1615.7 767.685 1625.99 779.741 1635.92 792.061 1645.28 804.748 1653.86 817.905 1661.43 831.637 1667.71 845.953 1670.36 853.515 1672.57 861.193 1674.36 869.049 1675.75 877.129 1677.36 893.429 1677.7 910.254 1676.97 927.43 1675.41 944.876 1673.23 962.511 1670.64 980.251 1669.96 984.561C1669.38 988.312 1665.86 990.876 1662.11 990.288 1658.36 989.7 1655.79 986.182 1656.38 982.431L1657.05 978.157 1657.04 978.229 1659.61 960.6 1659.59 960.748 1661.75 943.303 1661.73 943.534 1663.26 926.365 1663.24 926.688 1663.95 909.887 1663.95 910.314 1663.62 893.975 1663.66 894.517 1662.09 878.73 1662.15 879.214 1660.84 871.557 1660.91 871.919 1659.21 864.434 1659.31 864.815 1657.2 857.511 1657.32 857.876 1654.82 850.745 1655.01 851.237 1648.96 837.447 1649.24 838.002 1641.94 824.764 1642.2 825.201 1633.87 812.424 1634.1 812.752 1624.94 800.344 1625.12 800.576 1615.34 788.444 1615.47 788.592 1605.27 776.645 1605.34 776.716 1594.94 764.861C1592.43 762.007 1592.72 757.663 1595.57 755.159 1598.42 752.655 1602.77 752.939 1605.27 755.794ZM1698.67 950.816 1661.06 996.976 1639.39 941.518C1638.01 937.981 1639.75 933.994 1643.29 932.612 1646.83 931.23 1650.81 932.977 1652.2 936.514L1669.58 980.994 1657.84 979.154 1688.01 942.131C1690.4 939.187 1694.74 938.745 1697.68 941.143 1700.62 943.542 1701.06 947.872 1698.67 950.816Z" fill="#FF5050"/><path d="M1572.97 714.158 1585.29 704.247 1597.78 694.488 1610.51 685.095 1623.59 676.285 1637.1 668.279 1651.15 661.308 1665.72 655.645 1673.39 653.326 1681.16 651.442 1689.08 649.994 1697.21 648.955 1713.57 648.038 1730.39 648.425 1747.52 649.887 1764.88 652.196 1782.41 655.133 1800.02 658.481 1804.3 659.341C1808.02 660.09 1810.43 663.715 1809.68 667.437 1808.93 671.16 1805.31 673.57 1801.59 672.821L1797.35 671.968 1797.42 671.982 1779.91 668.656 1780.06 668.682 1762.73 665.777 1762.96 665.811 1745.87 663.538 1746.19 663.573 1729.44 662.143 1729.86 662.166 1713.52 661.79 1714.07 661.781 1698.23 662.67 1698.71 662.625 1691.01 663.609 1691.37 663.553 1683.82 664.932 1684.21 664.851 1676.82 666.643 1677.19 666.542 1669.96 668.73 1670.46 668.557 1656.42 674.012 1656.98 673.762 1643.45 680.482 1643.89 680.239 1630.77 688.013 1631.11 687.799 1618.32 696.416 1618.56 696.247 1606.02 705.496 1606.17 705.38 1593.8 715.051 1593.87 714.992 1581.58 724.874C1578.62 727.253 1574.29 726.783 1571.92 723.823 1569.54 720.864 1570.01 716.537 1572.97 714.158ZM1771.82 629.218 1816.32 668.772 1759.98 688.042C1756.39 689.27 1752.48 687.354 1751.25 683.761 1750.02 680.169 1751.94 676.26 1755.53 675.032L1800.72 659.576 1798.38 671.22 1762.68 639.495C1759.84 636.973 1759.59 632.627 1762.11 629.789 1764.63 626.951 1768.98 626.696 1771.82 629.218Z" fill="#FF5050"/><path d="M1288.56 1422.27 1303.67 1418.49 1303.41 1418.56 1318.09 1414.27 1317.73 1414.39 1324.79 1411.9 1324.45 1412.03 1331.24 1409.24 1330.83 1409.42 1337.3 1406.25 1336.83 1406.5 1342.93 1402.9 1342.7 1403.05 1348.92 1399.03 1348.86 1399.07 1355.46 1394.71 1355.26 1394.85 1361.85 1390.16 1361.5 1390.42 1367.67 1385.4 1367.16 1385.86 1372.52 1380.52 1372.02 1381.07 1374.27 1378.28 1373.89 1378.8 1375.79 1375.93 1375.4 1376.61 1376.89 1373.66 1376.53 1374.53 1377.57 1371.51 1377.3 1372.56 1377.84 1369.47 1377.74 1370.67 1377.73 1367.5 1377.83 1368.66 1377.21 1365.07 1377.38 1365.8 1376.16 1361.55 1376.32 1362.02 1374.56 1357.24 1374.7 1357.6 1372.46 1352.42 1372.59 1352.71 1369.94 1347.27 1370.07 1347.53 1367.06 1341.97 1367.27 1342.34 1360.42 1331.39 1360.69 1331.78 1356.98 1326.66 1357.21 1326.97 1353.39 1322.27 1353.7 1322.63 1349.82 1318.49 1350.26 1318.92 1346.4 1315.47 1347.07 1315.99 1343.29 1313.37 1344.36 1313.98 1340.7 1312.32 1342.45 1312.85 1338.99 1312.29 1341.51 1312.23 1338.31 1312.9 1340.4 1312.09 1337.35 1313.9 1338.4 1313.13 1335.34 1315.85 1335.98 1315.2 1332.91 1318.77 1333.31 1318.25 1330.22 1322.61 1330.48 1322.21 1327.39 1327.29 1327.56 1326.98 1324.46 1332.73 1324.59 1332.49 1321.47 1338.84 1321.56 1338.65 1318.44 1345.55 1318.51 1345.4 1315.39 1352.78 1315.43 1352.66 1312.3 1360.47 1312.36 1360.34 1306.08 1376.99 1306.12 1376.87 1299.84 1394.49 1299.85 1394.44 1298.03 1399.68 1285.04 1395.17 1286.88 1389.89 1293.19 1372.19 1299.51 1355.42 1302.7 1347.49 1305.88 1339.96 1309.08 1332.89 1312.3 1326.32 1315.55 1320.29 1318.86 1314.85 1322.28 1310.03 1325.87 1305.87 1329.77 1302.41 1334.36 1299.68 1339.93 1298.51 1345.55 1299.42 1350.61 1301.72 1355.25 1304.93 1359.66 1308.87 1363.9 1313.41 1367.99 1318.43 1371.96 1323.9 1379.04 1335.23 1382.23 1341.1 1385.02 1346.81 1387.39 1352.31 1389.31 1357.51 1390.7 1362.37 1391.48 1366.89 1391.49 1371.25 1390.75 1375.49 1389.36 1379.47 1387.47 1383.19 1385.18 1386.66 1382.49 1389.99 1376.62 1395.84 1370.01 1401.23 1363.14 1406.12 1356.41 1410.56 1350.04 1414.67 1343.59 1418.48 1336.68 1421.86 1329.52 1424.81 1322.13 1427.42 1307.14 1431.79 1291.91 1435.61ZM1332.28 1371.58 1287.06 1410.31 1275.61 1351.88C1274.88 1348.15 1277.31 1344.54 1281.03 1343.81 1284.76 1343.08 1288.37 1345.51 1289.1 1349.24L1298.28 1396.1 1287.07 1392.2 1323.34 1361.14C1326.22 1358.67 1330.56 1359.01 1333.03 1361.89 1335.5 1364.78 1335.17 1369.12 1332.28 1371.58Z" fill="#FF5050"/><path d="M1916.51 689.2 1931.36 707.424 1938.71 717.012 1945.88 727.053 1952.79 737.698 1959.37 749.075 1965.52 761.311 1971.17 774.522 1976.25 788.75 1980.81 803.867 1984.92 819.738 1988.66 836.237 1992.11 853.235 1995.35 870.609 1999.13 892.472C1999.77 896.214 1997.26 899.771 1993.52 900.417 1989.78 901.063 1986.22 898.554 1985.58 894.813L1981.81 872.994 1981.82 873.082 1978.61 855.807 1978.63 855.916 1975.2 839.05 1975.24 839.203 1971.53 822.882 1971.58 823.084 1967.53 807.445 1967.6 807.705 1963.14 792.883 1963.25 793.212 1958.29 779.345 1958.45 779.736 1952.96 766.914 1953.14 767.3 1947.17 755.432 1947.36 755.783 1940.98 744.733 1941.16 745.037 1934.43 734.669 1934.6 734.919 1927.59 725.096 1927.73 725.286 1920.51 715.872 1920.63 716.031 1905.85 697.885C1903.45 694.942 1903.89 690.611 1906.83 688.213 1909.78 685.814 1914.11 686.256 1916.51 689.2ZM2015.48 851.301 1994.67 907.088 1956.36 861.515C1953.91 858.609 1954.29 854.272 1957.19 851.829 1960.1 849.385 1964.44 849.76 1966.88 852.666L1997.61 889.218 1985.91 891.24 2002.6 846.496C2003.93 842.938 2007.89 841.13 2011.44 842.457 2015 843.784 2016.81 847.743 2015.48 851.301Z" fill="#FF5050"/><path d="M-5.79079 97.028 2.31609 84.3597 10.5706 71.8159 19.0785 59.5937 27.9513 47.8903 37.3073 36.9048 47.2715 26.8434 57.8877 17.9954 63.6284 13.9869 69.5183 10.411 75.6178 7.25005 81.9777 4.4609 94.8504 0.118039 108.302-2.96174 122.12-4.97765 136.208-6.15711 150.503-6.71975 179.157-6.82835C182.954-6.84274 186.043-3.77639 186.058 0.0205453 186.072 3.81748 183.006 6.90716 179.209 6.92155L150.678 7.02969 150.922 7.02442 136.901 7.57627 137.204 7.55763 123.477 8.70682 123.896 8.65876 110.56 10.6044 111.102 10.503 98.2555 13.4442 98.9188 13.2569 86.6596 17.3928 87.2231 17.1746 81.3443 19.7528 81.7464 19.5607 76.0511 22.5122 76.4557 22.2849 70.9521 25.6263 71.3201 25.3864 65.9999 29.1012 66.4656 28.7456 56.3269 37.1956 56.8102 36.752 47.2588 46.3967 47.6079 46.0167 38.5458 56.657 38.7904 56.3528 30.1198 67.7895 30.2838 67.5638 21.9069 79.5978 22.0074 79.4493 13.8263 91.8816 13.874 91.808 5.79079 104.439C3.74418 107.638-0.507548 108.571-3.70572 106.525-6.90388 104.478-7.8374 100.226-5.79079 97.028ZM179.16-20.5784C190.551-20.5909 199.795-11.367 199.808 0.0239011 199.82 11.4148 190.596 20.6591 179.205 20.6716 167.815 20.6841 158.57 11.4602 158.558 0.0693039 158.545-11.3216 167.769-20.5658 179.16-20.5784Z" fill="#6699FF" transform="matrix(0.0810026 -0.996714 -0.996714 -0.0810026 2166.67 954.64)"/><path d="M2010.18 902.301 2014.63 881.234 2017.27 870.576 2020.38 859.94 2024.11 849.34 2028.62 838.817 2034.07 828.422 2040.59 818.218 2048.25 808.294 2056.88 798.669 2066.34 789.301 2076.46 780.143 2087.12 771.151 2098.18 762.28 2120.84 744.828C2123.85 742.511 2128.16 743.071 2130.48 746.079 2132.8 749.087 2132.24 753.404 2129.23 755.721L2106.63 773.132 2106.73 773.048 2095.79 781.824 2095.92 781.716 2085.42 790.577 2085.6 790.421 2075.67 799.395 2075.9 799.179 2066.7 808.294 2066.98 808.001 2058.65 817.286 2058.98 816.894 2051.67 826.376 2052.01 825.881 2045.81 835.58 2046.11 835.067 2040.92 844.964 2041.15 844.482 2036.83 854.548 2037 854.121 2033.41 864.328 2033.52 863.972 2030.51 874.292 2030.59 874.019 2028.01 884.424 2028.06 884.193 2023.63 905.145C2022.85 908.86 2019.2 911.235 2015.48 910.449 2011.77 909.664 2009.39 906.016 2010.18 902.301ZM2112.45 733.935C2121.47 726.984 2134.42 728.664 2141.37 737.689 2148.32 746.713 2146.64 759.663 2137.62 766.614 2128.6 773.565 2115.65 771.885 2108.69 762.861 2101.74 753.836 2103.42 740.886 2112.45 733.935Z" fill="#6699FF"/><path d="M2117.32 659.993 2105.79 649.76 2105.98 649.923 2094.35 640.335 2094.63 640.558 2088.75 636.207 2089.03 636.406 2083.09 632.458 2083.46 632.689 2077.44 629.224 2077.92 629.475 2071.81 626.573 2072.06 626.688 2065.59 623.931 2065.66 623.959 2058.72 621.091 2058.96 621.184 2051.8 618.529 2052.24 618.675 2045.09 616.558 2045.81 616.73 2038.92 615.474 2039.72 615.572 2036.44 615.369 2037.16 615.376 2034.04 615.51 2034.92 615.415 2031.98 615.927 2033.02 615.661 2030.29 616.592 2031.42 616.087 2028.93 617.476 2030.04 616.706 2027.82 618.594 2028.7 617.697 2026.55 620.339 2027.01 619.706 2024.75 623.241 2025.01 622.797 2022.7 627.094 2022.87 626.751 2020.56 631.678 2020.69 631.389 2018.44 636.814 2018.55 636.55 2016.42 642.343 2016.56 641.949 2012.92 654.111 2013.03 653.675 2011.63 659.782 2011.7 659.431 2010.66 665.38 2010.73 664.947 2010.1 670.606 2010.14 670.046 2010 675.284 2009.98 674.522 2010.37 679.209 2010.19 678.136 2011.18 682.139 2010.62 680.639 2012.26 683.827 2010.88 681.994 2013.24 684.236 2011.43 682.997 2014.5 684.445 2013.21 683.987 2016.92 684.905 2015.94 684.737 2020.25 685.16 2019.52 685.127 2024.39 685.09 2023.85 685.115 2029.23 684.655 2028.83 684.701 2034.68 683.851 2034.38 683.903 2040.66 682.7 2040.42 682.749 2047.09 681.228 2046.9 681.273 2053.91 679.469 2053.77 679.508 2061.07 677.457 2060.92 677.503 2076.26 672.8 2076.13 672.842 2092.16 667.573 2092.1 667.594 2095.59 666.413 2100 679.435 2096.49 680.626 2080.36 685.926 2064.87 690.674 2057.41 692.767 2050.24 694.613 2043.36 696.182 2036.81 697.436 2030.61 698.337 2024.76 698.838 2019.26 698.879 2014.1 698.372 2009.24 697.17 2004.56 694.955 2000.56 691.148 1998.02 686.211 1996.71 680.896 1996.24 675.286 1996.41 669.384 1997.08 663.228 1998.19 656.887 1999.68 650.386 2003.44 637.809 2005.68 631.688 2008.04 625.986 2010.5 620.743 2013.03 616.051 2015.63 611.97 2018.43 608.536 2021.64 605.8 2025.26 603.777 2029.09 602.472 2033 601.792 2036.93 601.623 2040.98 601.874 2048.64 603.268 2056.36 605.557 2063.86 608.336 2070.95 611.267 2077.58 614.093 2084.06 617.171 2090.51 620.881 2096.78 625.047 2102.95 629.609 2114.82 639.392 2126.45 649.707ZM2052.38 656.643 2110.71 668.543 2071.64 713.468C2069.15 716.333 2064.81 716.636 2061.94 714.144 2059.08 711.652 2058.77 707.31 2061.27 704.445L2092.61 668.412 2096.42 679.66 2049.63 670.116C2045.91 669.357 2043.51 665.726 2044.26 662.006 2045.02 658.285 2048.65 655.884 2052.38 656.643Z" fill="#C00000"/><path d="M-4.20461 72.9757 21.1271 53.3944 34.3321 43.8788 48.0519 34.8012 62.4577 26.3166 77.6984 18.597 93.9171 11.8165 111.24 6.15185 129.698 1.7284 149.132-1.56048 169.391-3.88713 190.335-5.41985 211.821-6.32211 233.717-6.75441 264.443-6.81283C268.24-6.82005 271.324-3.74786 271.331 0.049087 271.338 3.84604 268.266 6.92993 264.469 6.93715L233.805 6.99545 233.927 6.99412 212.169 7.4237 212.321 7.41899 191.018 8.31356 191.232 8.30128 170.536 9.81584 170.819 9.78928 150.883 12.0788 151.246 12.0273 132.221 15.2469 132.676 15.1539 114.715 19.4584 115.249 19.3072 98.4521 24.8001 98.9671 24.6086 83.2332 31.1864 83.6879 30.9765 68.8653 38.4843 69.2478 38.2751 55.1846 46.5579 55.4892 46.3676 42.0337 55.2703 42.2594 55.1144 29.2595 64.4822 29.4448 64.3439 4.20461 83.8544C1.20053 86.1766-3.11724 85.6238-5.43938 82.6197-7.76152 79.6156-7.2087 75.2978-4.20461 72.9757ZM226.613-29.8669 278.1 0.0362169 226.727 30.1349C223.451 32.0543 219.239 30.9545 217.32 27.6784 215.4 24.4024 216.5 20.1906 219.776 18.2712L260.98-5.86972 261.003 6.00721 219.707-17.9768C216.424-19.8838 215.308-24.0913 217.215-27.3747 219.122-30.6581 223.33-31.7739 226.613-29.8669Z" fill="#FF5050" transform="matrix(-0.0643323 -0.997929 -0.997929 0.0643323 1847.97 1940.26)"/><path d="M1990.13 2021.28 1989.14 2021.57 1975.02 2025.38 1960.91 2028.8 1946.83 2031.61 1932.82 2033.57 1918.92 2034.46 1905.28 2034.03 1898.39 2033.24 1891.66 2032.03 1885.02 2030.38 1878.42 2028.29 1865.87 2023.11 1853.65 2016.63 1841.81 2009.14 1830.27 2000.85 1818.97 1991.99 1807.84 1982.77 1796.84 1973.4C1793.95 1970.94 1793.6 1966.6 1796.06 1963.71 1798.52 1960.82 1802.86 1960.47 1805.75 1962.93L1816.72 1972.27 1816.65 1972.21 1827.67 1981.34 1827.52 1981.23 1838.64 1989.94 1838.4 1989.77 1849.66 1997.85 1849.33 1997.62 1860.78 2004.87 1860.32 2004.61 1872.02 2010.81 1871.42 2010.52 1883.4 2015.47 1882.85 2015.27 1888.96 2017.2 1888.55 2017.08 1894.75 2018.63 1894.31 2018.53 1900.61 2019.66 1900.18 2019.6 1906.57 2020.34 1906 2020.3 1919.02 2020.7 1918.37 2020.71 1931.68 2019.86 1931.17 2019.91 1944.72 2018.02 1944.33 2018.08 1958.08 2015.35 1957.81 2015.41 1971.7 2012.04 1971.52 2012.09 1985.51 2008.3 1985.43 2008.33 1986.37 2008.06C1990.02 2007.02 1993.82 2009.14 1994.86 2012.79 1995.9 2016.44 1993.78 2020.25 1990.13 2021.28ZM1943.7 1996.15 2001.37 2010.94 1960.11 2053.87C1957.48 2056.6 1953.13 2056.69 1950.39 2054.06 1947.66 2051.43 1947.57 2047.08 1950.2 2044.34L1983.29 2009.91 1986.54 2021.33 1940.28 2009.47C1936.61 2008.53 1934.39 2004.78 1935.33 2001.11 1936.27 1997.43 1940.02 1995.21 1943.7 1996.15Z" fill="#FF5050"/><path d="M2345.94 1424.07 2362.2 1423.42 2378.41 1422.97 2394.44 1422.93 2410.17 1423.5 2425.47 1424.9 2440.14 1427.35 2447.34 1429.07 2454.29 1431.13 2461.04 1433.58 2467.55 1436.45 2473.79 1439.75 2479.75 1443.44 2485.42 1447.49 2490.89 1451.92 2500.93 1461.45 2510.21 1471.99 2518.85 1483.25 2527 1495.05 2542.36 1519.25C2544.4 1522.46 2543.45 1526.71 2540.24 1528.74 2537.03 1530.78 2532.79 1529.83 2530.75 1526.62L2515.47 1502.53 2515.62 1502.76 2507.64 1491.21 2507.83 1491.48 2499.45 1480.54 2499.74 1480.91 2490.81 1470.77 2491.23 1471.21 2481.62 1462.08 2482.03 1462.44 2476.93 1458.31 2477.26 1458.56 2471.94 1454.76 2472.31 1455.01 2466.75 1451.56 2467.16 1451.8 2461.35 1448.72 2461.79 1448.94 2455.7 1446.26 2456.13 1446.43 2449.79 1444.13 2450.18 1444.26 2443.61 1442.31 2443.97 1442.4 2437.17 1440.78 2437.64 1440.87 2423.46 1438.51 2423.96 1438.57 2409.1 1437.21 2409.48 1437.23 2394.08 1436.67 2394.34 1436.68 2378.53 1436.72 2378.7 1436.72 2362.62 1437.16 2362.71 1437.16 2346.49 1437.81C2342.69 1437.96 2339.49 1435.01 2339.34 1431.21 2339.19 1427.42 2342.15 1424.22 2345.94 1424.07ZM2554.01 1511.94C2560.08 1521.58 2557.19 1534.31 2547.55 1540.39 2537.92 1546.46 2525.18 1543.57 2519.11 1533.93 2513.04 1524.3 2515.92 1511.56 2525.56 1505.49 2535.2 1499.41 2547.93 1502.3 2554.01 1511.94Z" fill="#6699FF"/><path d="M2314.88 1444.64 2305.16 1431.67 2295.64 1418.67 2286.55 1405.69 2278.15 1392.74 2270.67 1379.86 2264.4 1367.11 2261.74 1360.66 2259.51 1354.28 2257.7 1347.92 2256.37 1341.57 2255.55 1335.27 2255.22 1329.05 2255.36 1322.93 2255.93 1316.8 2258.17 1305.17 2261.68 1293.8 2266.15 1282.77 2271.33 1271.98 2282.65 1251.17C2284.46 1247.83 2288.64 1246.6 2291.97 1248.41 2295.31 1250.22 2296.54 1254.4 2294.73 1257.73L2283.5 1278.4 2283.65 1278.09 2278.64 1288.52 2278.82 1288.13 2274.53 1298.69 2274.73 1298.14 2271.42 1308.86 2271.6 1308.13 2269.5 1319.06 2269.59 1318.41 2269.07 1323.96 2269.1 1323.48 2268.98 1329.1 2268.97 1328.59 2269.27 1334.28 2269.22 1333.75 2269.97 1339.53 2269.88 1339.01 2271.11 1344.86 2271 1344.4 2272.68 1350.33 2272.55 1349.93 2274.66 1355.94 2274.53 1355.59 2277.03 1361.67 2276.84 1361.25 2282.9 1373.58 2282.68 1373.16 2289.96 1385.69 2289.78 1385.4 2298.02 1398.1 2297.89 1397.9 2306.86 1410.73 2306.77 1410.6 2316.23 1423.51 2316.19 1423.45 2325.89 1436.4C2328.16 1439.44 2327.54 1443.75 2324.51 1446.02 2321.47 1448.3 2317.16 1447.68 2314.88 1444.64ZM2270.58 1244.57C2276.04 1234.57 2288.56 1230.89 2298.56 1236.34 2308.57 1241.8 2312.25 1254.32 2306.8 1264.32 2301.34 1274.32 2288.81 1278.01 2278.81 1272.56 2268.81 1267.1 2265.13 1254.57 2270.58 1244.57Z" fill="#6699FF"/><path d="M2302.12 1442.64 2300.6 1456.75 2298.92 1470.79 2296.92 1484.62 2294.45 1498.1 2291.32 1511.09 2287.38 1523.46 2282.45 1534.96 2279.48 1540.5 2276.22 1545.71 2272.63 1550.61 2268.67 1555.27 2260.21 1563.45 2250.81 1570.66 2240.74 1576.98 2230.18 1582.61 2219.25 1587.72 2197.09 1596.97C2193.58 1598.43 2189.56 1596.78 2188.09 1593.27 2186.63 1589.77 2188.28 1585.74 2191.79 1584.28L2213.82 1575.08 2213.55 1575.2 2224.19 1570.23 2223.87 1570.38 2234.06 1564.96 2233.64 1565.21 2243.22 1559.19 2242.7 1559.55 2251.53 1552.78 2250.93 1553.29 2258.87 1545.62 2258.4 1546.12 2261.98 1541.9 2261.68 1542.28 2264.98 1537.78 2264.7 1538.19 2267.7 1533.4 2267.47 1533.8 2270.19 1528.72 2269.93 1529.27 2274.61 1518.35 2274.38 1518.96 2278.15 1507.15 2278.01 1507.63 2281.03 1495.06 2280.96 1495.43 2283.38 1482.26 2283.33 1482.52 2285.3 1468.91 2285.28 1469.07 2286.95 1455.16 2286.94 1455.24 2288.45 1441.17C2288.86 1437.4 2292.25 1434.66 2296.02 1435.07 2299.8 1435.48 2302.53 1438.87 2302.12 1442.64ZM2202.36 1609.67C2191.84 1614.04 2179.77 1609.06 2175.39 1598.55 2171.02 1588.03 2176 1575.96 2186.51 1571.58 2197.03 1567.21 2209.1 1572.19 2213.48 1582.7 2217.85 1593.22 2212.88 1605.29 2202.36 1609.67Z" fill="#6699FF"/><path d="M2157.92 1736.55 2158.2 1747.07 2158.13 1759.43 2157.6 1772 2156.43 1784.83 2154.47 1797.95 2151.56 1811.39 2147.55 1825.18 2142.35 1839.29 2136.09 1853.64 2128.94 1868.2 2121.04 1882.94 2112.56 1897.82 2103.63 1912.81 2085.12 1942.88C2083.12 1946.11 2078.89 1947.12 2075.66 1945.12 2072.42 1943.13 2071.42 1938.9 2073.41 1935.67L2091.9 1905.65 2091.85 1905.74 2100.71 1890.85 2100.64 1890.96 2109.05 1876.21 2108.96 1876.37 2116.76 1861.82 2116.65 1862.03 2123.68 1847.72 2123.55 1848 2129.67 1833.97 2129.52 1834.34 2134.57 1820.65 2134.42 1821.11 2138.3 1807.78 2138.18 1808.25 2140.99 1795.26 2140.91 1795.7 2142.8 1782.99 2142.76 1783.38 2143.89 1770.92 2143.87 1771.25 2144.39 1758.98 2144.38 1759.23 2144.45 1747.1 2144.45 1747.32 2144.18 1736.91C2144.08 1733.11 2147.07 1729.95 2150.87 1729.85 2154.66 1729.75 2157.82 1732.75 2157.92 1736.55ZM2122.05 1775.29 2150.69 1723.09 2182.04 1773.71C2184.03 1776.94 2183.04 1781.17 2179.81 1783.17 2176.58 1785.17 2172.34 1784.18 2170.35 1780.95L2145.2 1740.35 2157.08 1740.03 2134.11 1781.9C2132.28 1785.23 2128.1 1786.45 2124.78 1784.63 2121.45 1782.8 2120.23 1778.62 2122.05 1775.29Z" fill="#C00000"/><path d="M2045.31 1907.35 2044.63 1896.84 2044.21 1884.49 2044.26 1871.91 2044.92 1859.05 2046.37 1845.86 2048.75 1832.31 2052.23 1818.38 2056.88 1804.08 2062.58 1789.49 2069.16 1774.66 2076.48 1759.63 2084.37 1744.43 2092.71 1729.1 2110.04 1698.34C2111.91 1695.04 2116.1 1693.87 2119.41 1695.73 2122.72 1697.59 2123.89 1701.79 2122.02 1705.09L2104.71 1735.81 2104.76 1735.72 2096.48 1750.94 2096.54 1750.83 2088.72 1765.89 2088.8 1765.72 2081.58 1780.57 2081.68 1780.35 2075.21 1794.93 2075.33 1794.64 2069.76 1808.9 2069.89 1808.52 2065.38 1822.4 2065.51 1821.94 2062.15 1835.4 2062.25 1834.93 2059.95 1848.02 2060.01 1847.58 2058.61 1860.35 2058.64 1859.95 2058 1872.45 2058.01 1872.12 2057.96 1884.41 2057.96 1884.15 2058.36 1896.27 2058.35 1896.06 2059.03 1906.45C2059.28 1910.24 2056.41 1913.51 2052.62 1913.76 2048.83 1914.01 2045.56 1911.14 2045.31 1907.35ZM2079.65 1867.24 2053.06 1920.51 2019.77 1871.15C2017.65 1868 2018.48 1863.73 2021.63 1861.61 2024.78 1859.48 2029.05 1860.31 2031.17 1863.46L2057.87 1903.06 2046.02 1903.83 2067.34 1861.1C2069.04 1857.7 2073.17 1856.32 2076.56 1858.02 2079.96 1859.71 2081.34 1863.84 2079.65 1867.24Z" fill="#C00000"/><path d="M2142.94 2002.2 2146.13 2017.28 2146.07 2017.04 2149.73 2031.66 2149.63 2031.31 2151.78 2038.31 2151.67 2037.98 2154.11 2044.69 2153.94 2044.28 2156.73 2050.65 2156.49 2050.16 2159.68 2056.13 2159.54 2055.88 2163.11 2061.95 2163.07 2061.88 2166.94 2068.31 2166.81 2068.09 2170.99 2074.49 2170.72 2074.11 2175.21 2080.06 2174.73 2079.49 2179.53 2084.6 2178.94 2084.04 2181.46 2086.15 2180.88 2085.72 2183.48 2087.47 2182.71 2087.02 2185.38 2088.36 2184.39 2087.96 2187.14 2088.83 2185.93 2088.56 2188.75 2088.93 2187.41 2088.89 2190.31 2088.69 2189.07 2088.89 2192.37 2088.04 2191.62 2088.27 2195.54 2086.77 2195.07 2086.98 2199.48 2084.9 2199.14 2085.07 2203.93 2082.48 2203.65 2082.64 2208.68 2079.61 2208.44 2079.76 2213.59 2076.36 2213.25 2076.6 2223.41 2068.98 2223.05 2069.26 2227.81 2065.18 2227.54 2065.42 2231.92 2061.26 2231.61 2061.57 2235.47 2057.39 2235.11 2057.82 2238.34 2053.69 2237.9 2054.31 2240.37 2050.31 2239.88 2051.28 2241.46 2047.47 2241.02 2049.02 2241.6 2045.48 2241.61 2047.77 2241.05 2044.56 2241.77 2046.63 2240.17 2043.65 2240.93 2044.78 2238.49 2041.84 2239.18 2042.56 2235.97 2039.66 2236.53 2040.11 2232.59 2037.25 2233.04 2037.55 2228.44 2034.72 2228.79 2034.92 2223.58 2032.13 2223.85 2032.27 2218.09 2029.5 2218.31 2029.6 2212.04 2026.87 2212.22 2026.94 2205.51 2024.22 2205.65 2024.28 2198.55 2021.58 2198.71 2021.64 2183.57 2016.3 2183.7 2016.35 2167.68 2011.05 2167.74 2011.07 2164.24 2009.95 2168.42 1996.86 2171.96 1997.99 2188.08 2003.31 2203.36 2008.7 2210.6 2011.45 2217.47 2014.23 2223.93 2017.05 2229.94 2019.94 2235.47 2022.9 2240.47 2025.97 2244.91 2029.21 2248.76 2032.68 2251.95 2036.54 2254.41 2041.1 2255.36 2046.54 2254.47 2052.02 2252.36 2057.07 2249.4 2061.86 2245.76 2066.51 2241.56 2071.06 2236.9 2075.5 2231.84 2079.84 2221.34 2087.72 2215.9 2091.31 2210.61 2094.5 2205.52 2097.25 2200.7 2099.52 2196.17 2101.26 2191.89 2102.36 2187.68 2102.65 2183.56 2102.12 2179.71 2100.9 2176.16 2099.12 2172.9 2096.92 2169.79 2094.31 2164.46 2088.64 2159.61 2082.21 2155.23 2075.52 2151.27 2068.95 2147.62 2062.73 2144.24 2056.41 2141.26 2049.59 2138.69 2042.51 2136.44 2035.17 2132.7 2020.25 2129.49 2005.05ZM2193.18 2043.49 2153.33 1999.25 2211.46 1986.34C2215.17 1985.52 2218.84 1987.86 2219.66 1991.57 2220.48 1995.27 2218.15 1998.94 2214.44 1999.77L2167.82 2010.12 2171.44 1998.81 2203.4 2034.29C2205.94 2037.11 2205.71 2041.46 2202.89 2044 2200.07 2046.54 2195.72 2046.31 2193.18 2043.49Z" fill="#C00000"/><path d="M-5.28441 73.8188 10.9879 54.2659 19.5065 44.7237 28.3818 35.5953 37.7418 27.0258 47.6991 19.1859 58.3625 12.256 69.8147 6.43451 82.027 1.88499 94.8333-1.48386 108.113-3.85462 121.774-5.40867 135.727-6.31948 149.902-6.75454 178.409-6.83879C182.206-6.85001 185.293-3.78107 185.304 0.0158669 185.315 3.81281 182.246 6.89993 178.449 6.91116L150.038 6.99512 150.229 6.99192 136.267 7.42041 136.504 7.40905 122.834 8.30136 123.164 8.2719 109.884 9.78262 110.315 9.71968 97.5226 12.0034 98.0634 11.8842 85.8558 15.0956 86.5068 14.8893 74.9813 19.1829 75.6966 18.869 64.9184 24.348 65.5493 23.984 55.4533 30.5451 55.96 30.1821 46.4487 37.6709 46.8382 37.3401 37.8143 45.6019 38.1009 45.3237 29.4669 54.2039 29.6663 53.9898 21.3246 63.3339 21.4804 63.1532 5.28441 82.6144C2.85557 85.5329-1.4793 85.9298-4.3978 83.501-7.3163 81.0721-7.71325 76.7373-5.28441 73.8188ZM178.368-20.5887C189.759-20.6224 199.02-11.4156 199.054-0.0247699 199.088 11.3661 189.881 20.6274 178.49 20.6611 167.099 20.6948 157.838 11.488 157.804 0.0971406 157.771-11.2937 166.977-20.5551 178.368-20.5887Z" fill="#6699FF" transform="matrix(-0.231711 -0.972785 -0.972785 0.231711 1684.45 1346.98)"/><path d="M1596.23 1414.79 1602.54 1438.16 1608.53 1461.54 1613.84 1484.86 1618.12 1507.98 1619.77 1519.54 1621.02 1530.99 1621.83 1542.38 1622.16 1553.69 1621.95 1564.91 1621.16 1576.04 1619.73 1587.05 1617.63 1597.94 1614.82 1608.66 1611.35 1619.2 1607.26 1629.55 1602.6 1639.74 1597.42 1649.76 1591.78 1659.64 1585.71 1669.39 1579.23 1679.05 1565.41 1697.94 1550.56 1716.54 1535.09 1734.9 1519.33 1753.11C1516.84 1755.98 1512.5 1756.29 1509.63 1753.8 1506.76 1751.32 1506.44 1746.98 1508.93 1744.11L1524.66 1725.93 1524.6 1726 1539.99 1707.75 1539.87 1707.89 1554.57 1689.47 1554.4 1689.7 1568.05 1671.04 1567.89 1671.27 1574.22 1661.83 1574.1 1662.02 1580.04 1652.48 1579.9 1652.71 1585.41 1643.07 1585.27 1643.33 1590.31 1633.58 1590.16 1633.87 1594.68 1624 1594.53 1624.33 1598.49 1614.33 1598.35 1614.7 1601.7 1604.56 1601.58 1604.97 1604.27 1594.67 1604.17 1595.11 1606.19 1584.66 1606.12 1585.08 1607.5 1574.47 1607.46 1574.87 1608.22 1564.12 1608.2 1564.48 1608.41 1553.6 1608.41 1553.92 1608.09 1542.92 1608.11 1543.21 1607.31 1532.1 1607.34 1532.36 1606.11 1521.14 1606.14 1521.37 1604.53 1510.06 1604.57 1510.34 1600.35 1487.5 1600.4 1487.78 1595.14 1464.69 1595.19 1464.87 1589.23 1441.62 1589.25 1441.71 1582.95 1418.38C1581.96 1414.71 1584.13 1410.94 1587.8 1409.95 1591.46 1408.96 1595.24 1411.13 1596.23 1414.79ZM1529.72 1762.11C1522.27 1770.72 1509.24 1771.66 1500.63 1764.2 1492.02 1756.74 1491.08 1743.72 1498.53 1735.11 1505.99 1726.5 1519.02 1725.56 1527.63 1733.01 1536.24 1740.47 1537.18 1753.49 1529.72 1762.11Z" fill="#6699FF"/><path d="M-5.15422 97.8752 6.21442 84.996 17.7856 72.2483 29.7029 59.8369 42.1134 47.9693 55.1667 36.8582 69.0117 26.7231 83.7123 17.8407 91.5694 13.8634 99.6322 10.3146 107.964 7.18444 116.601 4.43849 134.274 0.11606 152.747-2.95024 171.807-4.96611 191.323-6.1506 211.187-6.71739 251.292-6.82759C255.089-6.83802 258.175-3.76845 258.186 0.0284943 258.196 3.82544 255.126 6.91193 251.33 6.92236L211.313 7.03231 211.491 7.02954 191.826 7.59066 192.046 7.58083 172.793 8.74931 173.1 8.7238 154.396 10.7021 154.798 10.6475 136.781 13.638 137.288 13.534 120.094 17.7393 120.544 17.613 112.299 20.2344 112.634 20.1184 104.646 23.1194 104.998 22.9761 97.2785 26.3736 97.6139 26.215 90.1522 29.9922 90.6025 29.7426 76.3827 38.3344 76.8882 37.9976 63.492 47.8042 63.8873 47.4919 51.1774 58.3108 51.4726 58.0445 39.3118 69.6732 39.5194 69.466 27.7705 81.7021 27.902 81.5612 16.4276 94.2022 16.4913 94.1311 5.15422 106.975C2.6415 109.821-1.70309 110.092-4.54968 107.579-7.39628 105.066-7.66694 100.722-5.15422 97.8752ZM251.353-20.5776C262.743-20.5544 271.959-11.3015 271.936 0.0893459 271.912 11.4802 262.66 20.6955 251.269 20.6723 239.878 20.6492 230.663 11.3963 230.686 0.00542388 230.709-11.3854 239.962-20.6007 251.353-20.5776Z" fill="#6699FF" transform="matrix(0.146031 -0.98928 -0.98928 -0.146031 1923.81 1591.21)"/><path d="M-3.79409 48.2436 16.5914 34.7531 27.2465 28.1799 38.3219 21.9064 49.9553 16.0405 62.2624 10.7038 75.3541 6.0182 89.3278 2.10618 104.205-0.946031 119.856-3.21363 136.164-4.81699 153.017-5.87287 170.302-6.49429 187.915-6.79199 223.568-6.85002C227.365-6.8562 230.448-3.78317 230.454 0.0137811 230.461 3.81073 227.387 6.89378 223.591 6.89996L187.99 6.95791 188.095 6.95694 170.6 7.25264 170.731 7.24918 153.602 7.86496 153.785 7.85594 137.145 8.89849 137.388 8.87895 121.359 10.455 121.672 10.4169 106.375 12.6331 106.771 12.5638 92.3292 15.5268 92.8009 15.4126 79.2952 19.1935 79.7585 19.046 67.1077 23.5738 67.5261 23.4084 55.6081 28.5764 55.9683 28.4077 44.6609 34.1091 44.954 33.9523 34.1352 40.0805 34.3564 39.9497 23.9039 46.398 24.0883 46.2801 3.79409 59.7102C0.627687 61.8056-3.63786 60.9374-5.73328 57.771-7.8287 54.6046-6.96049 50.339-3.79409 48.2436ZM223.546-20.6C234.937-20.6185 244.186-11.3995 244.204-0.00859939 244.223 11.3823 235.004 20.6314 223.613 20.6499 212.222 20.6685 202.973 11.4494 202.954 0.0585421 202.936-11.3323 212.155-20.5815 223.546-20.6Z" fill="#6699FF" transform="matrix(0.0923897 0.995723 0.995723 -0.0923897 1732.51 1637.24)"/><path d="M1817 1575.62 1812.17 1546.85 1810.25 1532.26 1808.94 1517.59 1808.47 1502.81 1809.07 1487.93 1810.95 1472.96 1814.35 1457.94 1819.37 1442.96 1825.84 1428.09 1833.52 1413.33 1842.2 1398.66 1851.67 1384.07 1861.72 1369.52 1882.7 1340.66C1884.93 1337.58 1889.23 1336.9 1892.3 1339.14 1895.37 1341.37 1896.05 1345.67 1893.82 1348.74L1872.89 1377.54 1872.99 1377.41 1863.04 1391.8 1863.15 1391.63 1853.81 1406.03 1853.96 1405.79 1845.45 1420.18 1845.63 1419.85 1838.15 1434.23 1838.35 1433.8 1832.1 1448.17 1832.31 1447.62 1827.49 1461.98 1827.68 1461.31 1824.44 1475.67 1824.55 1475.01 1822.75 1489.36 1822.8 1488.78 1822.22 1503.12 1822.22 1502.63 1822.68 1516.96 1822.65 1516.57 1823.93 1530.9 1823.9 1530.61 1825.79 1544.93 1825.75 1544.69 1830.56 1573.34C1831.19 1577.08 1828.66 1580.63 1824.92 1581.26 1821.17 1581.89 1817.63 1579.36 1817 1575.62ZM1871.58 1332.57C1878.27 1323.36 1891.17 1321.32 1900.38 1328.01 1909.6 1334.71 1911.64 1347.61 1904.94 1356.82 1898.25 1366.04 1885.35 1368.08 1876.14 1361.38 1866.92 1354.69 1864.88 1341.79 1871.58 1332.57Z" fill="#6699FF"/><path d="M-5.50316 112.943 5.51632 98.2272 16.7268 83.6683 28.2687 69.4982 40.2876 55.9499 52.9337 43.2603 66.2936 31.7313 73.405 26.3884 80.7097 21.462 88.2828 16.9429 96.1364 12.868 104.258 9.27086 112.612 6.13984 121.174 3.44329 129.99 1.13047 147.906-2.37505 166.456-4.68792 185.432-6.0456 204.712-6.6941 224.169-6.87378 230.063-6.85778C233.86-6.84747 236.929-3.76108 236.919 0.0358651 236.909 3.83281 233.822 6.90248 230.025 6.89217L224.173 6.87628 224.255 6.87602 204.923 7.05454 205.09 7.05095 186.024 7.69226 186.284 7.67862 167.617 9.01411 167.977 8.97881 149.843 11.2399 150.312 11.1647 132.844 14.5828 133.268 14.4856 124.825 16.7008 125.146 16.6083 116.918 19.1995 117.266 19.0798 109.272 22.0759 109.643 21.9243 101.898 25.3542 102.281 25.1706 94.7967 29.0537 95.1534 28.855 87.9189 33.172 88.2401 32.9681 81.2385 37.6901 81.5241 37.4867 74.7388 42.5846 75.1008 42.293 62.1125 53.5013 62.4906 53.1493 50.1679 65.5145 50.4411 65.2239 38.6507 78.5147 38.8382 78.2941 27.4471 92.2791 27.5639 92.1317 16.439 106.579 16.4949 106.506 5.50316 121.185C3.22732 124.224-1.08147 124.843-4.12078 122.567-7.16009 120.291-7.77901 115.983-5.50316 112.943ZM192.34-30.0863 243.688 0.0542441 192.177 29.9155C188.892 31.8197 184.685 30.7005 182.781 27.4156 180.877 24.1307 181.996 19.924 185.281 18.0198L226.596-5.93066 226.564 5.94625 185.379-18.2282C182.105-20.1502 181.008-24.3629 182.93-27.6374 184.853-30.912 189.065-32.0083 192.34-30.0863Z" fill="#C00000" transform="matrix(-0.20105 -0.979581 -0.979581 0.20105 2728.85 1518.01)"/><path d="M2611.23 1640.99 2606.34 1662.57 2603.48 1673.47 2600.13 1684.32 2596.15 1695.12 2591.36 1705.8 2585.62 1716.31 2578.77 1726.58 2570.77 1736.52 2561.77 1746.11 2551.93 1755.4 2541.41 1764.44 2530.34 1773.29 2518.86 1781.99 2506.37 1791.07C2503.3 1793.31 2499 1792.63 2496.77 1789.56 2494.54 1786.49 2495.22 1782.19 2498.29 1779.95L2510.72 1770.91 2510.61 1771 2521.96 1762.38 2521.82 1762.49 2532.72 1753.77 2532.54 1753.93 2542.85 1745.07 2542.61 1745.29 2552.18 1736.25 2551.89 1736.55 2560.57 1727.3 2560.23 1727.69 2567.87 1718.2 2567.5 1718.7 2574.01 1708.94 2573.7 1709.45 2579.17 1699.44 2578.93 1699.93 2583.51 1689.71 2583.33 1690.14 2587.17 1679.74 2587.05 1680.1 2590.29 1669.56 2590.21 1669.83 2593.01 1659.19 2592.96 1659.42 2597.82 1637.95C2598.65 1634.25 2602.34 1631.93 2606.04 1632.77 2609.74 1633.6 2612.07 1637.29 2611.23 1640.99ZM2550.53 1787.55 2491.29 1793.54 2515.25 1739.03C2516.77 1735.55 2520.83 1733.97 2524.31 1735.5 2527.78 1737.03 2529.36 1741.08 2527.83 1744.56L2508.62 1788.28 2501.64 1778.67 2549.15 1773.87C2552.93 1773.49 2556.3 1776.25 2556.68 1780.02 2557.07 1783.8 2554.31 1787.17 2550.53 1787.55Z" fill="#C00000"/><path d="M2535.69 1581.56 2512.63 1578.47 2501.02 1576.5 2489.48 1574.03 2478.05 1570.9 2466.77 1566.91 2455.73 1561.91 2445 1555.73 2434.71 1548.32 2424.89 1539.83 2415.46 1530.46 2406.35 1520.36 2397.51 1509.7 2388.85 1498.61 2380.07 1486.8C2377.81 1483.75 2378.45 1479.44 2381.49 1477.18 2384.54 1474.91 2388.85 1475.55 2391.11 1478.6L2399.84 1490.34 2399.74 1490.21 2408.28 1501.16 2408.15 1501 2416.84 1511.48 2416.66 1511.26 2425.54 1521.11 2425.28 1520.84 2434.41 1529.91 2434.05 1529.58 2443.47 1537.71 2443 1537.34 2452.76 1544.37 2452.17 1543.99 2462.3 1549.83 2461.71 1549.52 2472.18 1554.27 2471.63 1554.05 2482.4 1557.85 2481.93 1557.7 2492.93 1560.72 2492.55 1560.63 2503.75 1563.03 2503.47 1562.97 2514.81 1564.9 2514.57 1564.86 2537.51 1567.93C2541.28 1568.43 2543.92 1571.89 2543.42 1575.66 2542.91 1579.42 2539.45 1582.06 2535.69 1581.56ZM2384.04 1530.92 2377.46 1471.74 2432.21 1495.14C2435.7 1496.63 2437.32 1500.67 2435.83 1504.16 2434.34 1507.65 2430.3 1509.28 2426.81 1507.78L2382.89 1489.02 2392.43 1481.94 2397.71 1529.4C2398.13 1533.17 2395.41 1536.57 2391.64 1536.99 2387.86 1537.41 2384.46 1534.69 2384.04 1530.92Z" fill="#C00000"/><path d="M2437.58 1767.27 2423.5 1755.46 2409.57 1743.45 2396.01 1731.09 2383.05 1718.21 2370.92 1704.68 2359.9 1690.38 2354.8 1682.79 2350.11 1674.99 2345.8 1666.91 2341.92 1658.54 2338.5 1649.89 2335.52 1640.99 2332.96 1631.87 2330.76 1622.49 2327.42 1603.38 2325.21 1583.58 2323.92 1563.3 2323.3 1542.69 2323.13 1521.87 2323.14 1514.6C2323.15 1510.8 2326.24 1507.73 2330.04 1507.74 2333.83 1507.75 2336.9 1510.83 2336.89 1514.63L2336.88 1521.87 2336.88 1521.79 2337.05 1542.5 2337.04 1542.35 2337.66 1562.78 2337.65 1562.54 2338.92 1582.54 2338.9 1582.22 2341.06 1601.64 2341 1601.22 2344.27 1619.93 2344.19 1619.55 2346.31 1628.59 2346.23 1628.3 2348.71 1637.11 2348.61 1636.79 2351.48 1645.35 2351.35 1645.01 2354.64 1653.3 2354.48 1652.94 2358.2 1660.96 2358.03 1660.61 2362.16 1668.36 2361.98 1668.05 2366.5 1675.55 2366.32 1675.27 2371.19 1682.53 2370.93 1682.17 2381.65 1696.08 2381.33 1695.69 2393.16 1708.89 2392.88 1708.6 2405.6 1721.23 2405.39 1721.03 2418.77 1733.23 2418.62 1733.1 2432.45 1745.02 2432.37 1744.96 2446.42 1756.73C2449.33 1759.17 2449.71 1763.51 2447.27 1766.42 2444.83 1769.33 2440.49 1769.71 2437.58 1767.27ZM2299.93 1552.33 2330.05 1500.97 2359.93 1552.47C2361.83 1555.76 2360.72 1559.96 2357.43 1561.87 2354.15 1563.77 2349.94 1562.65 2348.03 1559.37L2324.07 1518.06 2335.95 1518.09 2311.79 1559.28C2309.87 1562.56 2305.65 1563.66 2302.38 1561.73 2299.1 1559.81 2298.01 1555.6 2299.93 1552.33Z" fill="#FF5050"/><path d="M5.24058 60.4534 15.2677 51.0685 25.7051 41.9618 36.5649 33.2618 47.9911 25.1134 60.1071 17.6828 73.0297 11.1414 86.8539 5.66782 101.577 1.39549 117.046-1.77414 133.134-4.01126 149.732-5.48202 166.731-6.34632 184.034-6.75994 218.978-6.84039C222.775-6.84913 225.86-3.77818 225.869 0.0187665 225.878 3.81571 222.807 6.90083 219.01 6.90957L184.14 6.98985 184.288 6.9879 167.152 7.39754 167.337 7.39064 150.56 8.24368 150.817 8.22572 134.519 9.66997 134.859 9.63128 119.158 11.8145 119.591 11.7401 104.608 14.8102 105.144 14.6778 90.9982 18.7824 91.6132 18.572 78.3846 23.8098 78.9586 23.5515 66.5673 29.824 67.0565 29.5507 55.3829 36.7099 55.7804 36.4468 44.7049 44.3451 45.0116 44.1131 34.4146 52.6026 34.6361 52.4174 24.398 61.3503 24.576 61.1894 14.6365 70.4923C11.8643 73.0869 7.51367 72.9429 4.91907 70.1708 2.32446 67.3986 2.46841 63.048 5.24058 60.4534ZM58.0269 61.5561-0.0232649 74.7965 17.0253 17.7485C18.1125 14.1105 21.943 12.0427 25.581 13.1299 29.219 14.2171 31.2868 18.0476 30.1996 21.6856L16.5257 67.4414 8.40971 58.77 54.9692 48.1504C58.6711 47.3061 62.3566 49.6226 63.2009 53.3244 64.0453 57.0263 61.7288 60.7118 58.0269 61.5561Z" fill="#FF5050" transform="matrix(0.99703 0.0770172 0.0770172 -0.99703 2175.43 1797.01)"/><path d="M2225.1 1683.54 2234.27 1684.27 2245.9 1685.56 2257.66 1687.33 2269.59 1689.71 2281.72 1692.88 2294.04 1696.98 2306.55 1702.16 2319.22 1708.5 2332 1715.86 2344.86 1724.09 2357.8 1733.04 2370.79 1742.55 2383.83 1752.49 2409.91 1772.99C2412.89 1775.34 2413.41 1779.66 2411.06 1782.65 2408.71 1785.63 2404.39 1786.15 2401.41 1783.8L2375.38 1763.33 2375.46 1763.39 2362.51 1753.53 2362.62 1753.6 2349.75 1744.19 2349.9 1744.29 2337.14 1735.47 2337.35 1735.61 2324.72 1727.53 2324.99 1727.7 2312.53 1720.51 2312.89 1720.71 2300.62 1714.57 2301.07 1714.77 2289 1709.78 2289.46 1709.95 2277.59 1705.99 2278.02 1706.12 2266.31 1703.06 2266.7 1703.15 2255.12 1700.84 2255.45 1700.9 2243.99 1699.18 2244.24 1699.22 2232.86 1697.95 2233.08 1697.97 2224.01 1697.25C2220.22 1696.95 2217.4 1693.64 2217.7 1689.85 2218 1686.07 2221.31 1683.24 2225.1 1683.54ZM2259.85 1723.29 2210.95 1689.32 2264.59 1663.47C2268.01 1661.82 2272.12 1663.26 2273.77 1666.68 2275.42 1670.1 2273.98 1674.21 2270.56 1675.86L2227.54 1696.59 2228.48 1684.75 2267.7 1711.99C2270.81 1714.16 2271.59 1718.45 2269.42 1721.56 2267.25 1724.68 2262.97 1725.45 2259.85 1723.29Z" fill="#FF5050"/><path d="M1842.46 1913.02 1858.69 1908.36 1873.56 1904.64 1888.53 1901.57 1903.62 1899.38 1918.85 1898.3 1934.2 1898.58 1949.65 1900.46 1965.09 1904.08 1980.44 1909.25 1995.69 1915.72 2010.86 1923.26 2025.95 1931.64 2041 1940.64 2070.84 1959.58C2074.05 1961.61 2075 1965.86 2072.96 1969.07 2070.93 1972.27 2066.68 1973.22 2063.47 1971.19L2033.71 1952.3 2033.86 1952.39 2018.99 1943.49 2019.18 1943.6 2004.32 1935.36 2004.6 1935.5 1989.76 1928.12 1990.13 1928.3 1975.31 1922.01 1975.8 1922.19 1961.01 1917.21 1961.64 1917.39 1946.88 1913.93 1947.62 1914.06 1932.89 1912.27 1933.6 1912.32 1918.9 1912.05 1919.51 1912.04 1904.85 1913.08 1905.35 1913.02 1890.7 1915.15 1891.1 1915.08 1876.47 1918.08 1876.76 1918.01 1862.14 1921.67 1862.37 1921.6 1846.25 1926.24C1842.6 1927.28 1838.8 1925.18 1837.75 1921.53 1836.7 1917.88 1838.81 1914.07 1842.46 1913.02ZM1888.96 1938.03 1831.24 1923.4 1872.39 1880.36C1875.01 1877.61 1879.36 1877.52 1882.11 1880.14 1884.85 1882.76 1884.95 1887.12 1882.32 1889.86L1849.32 1924.38 1846.04 1912.96 1892.34 1924.7C1896.02 1925.63 1898.24 1929.37 1897.31 1933.05 1896.38 1936.73 1892.64 1938.96 1888.96 1938.03Z" fill="#C00000"/><path d="M2634.5 1268.07 2613.05 1293.29 2601.75 1305.68 2589.87 1317.68 2577.21 1329.14 2563.59 1339.9 2548.84 1349.8 2532.81 1358.65 2515.46 1366.33 2496.95 1372.91 2477.48 1378.56 2457.21 1383.45 2436.31 1387.74 2414.94 1391.58 2384.99 1396.34C2381.24 1396.94 2377.71 1394.38 2377.12 1390.63 2376.52 1386.88 2379.08 1383.36 2382.83 1382.76L2412.71 1378.01 2412.58 1378.03 2433.8 1374.22 2433.63 1374.25 2454.33 1370.01 2454.1 1370.06 2474.1 1365.23 2473.8 1365.31 2492.92 1359.76 2492.53 1359.88 2510.61 1353.46 2510.13 1353.65 2526.98 1346.2 2526.43 1346.47 2541.94 1337.91 2541.43 1338.22 2555.71 1328.64 2555.27 1328.95 2568.5 1318.5 2568.15 1318.79 2580.5 1307.61 2580.23 1307.87 2591.88 1296.11 2591.68 1296.31 2602.81 1284.11 2602.65 1284.29 2624.03 1259.16C2626.49 1256.27 2630.82 1255.92 2633.72 1258.38 2636.61 1260.84 2636.96 1265.18 2634.5 1268.07ZM2425.94 1413.24 2370.43 1391.69 2416.51 1353.99C2419.45 1351.58 2423.78 1352.01 2426.19 1354.95 2428.59 1357.89 2428.16 1362.22 2425.22 1364.63L2388.26 1394.87 2386.4 1383.14 2430.91 1400.43C2434.45 1401.8 2436.21 1405.78 2434.83 1409.32 2433.46 1412.86 2429.48 1414.62 2425.94 1413.24Z" fill="#C00000"/><path d="M-4.70788 77.3361 17.1836 56.7653 28.6128 46.7535 40.4992 37.1932 52.9985 28.244 66.2459 20.0873 80.37 12.9092 95.4773 6.90378 111.573 2.21465 128.495-1.26659 146.106-3.7252 164.285-5.34241 182.91-6.29318 201.873-6.74831 226.585-6.80542C230.381-6.8142 233.467-3.74328 233.475 0.0536675 233.484 3.85061 230.413 6.93576 226.616 6.94454L201.98 7.00148 202.129 6.99952 183.332 7.45064 183.518 7.44368 165.115 8.3831 165.374 8.36499 147.496 9.95548 147.837 9.91649 130.615 12.3208 131.05 12.2458 114.615 15.6268 115.153 15.4934 99.6365 20.0137 100.253 19.8018 85.7428 25.57 86.318 25.3102 72.726 32.2178 73.2159 31.9431 60.4112 39.8273 60.8088 39.563 48.6602 48.261 48.9668 48.0283 37.343 57.3774 37.5643 57.1916 26.3342 67.029 26.512 66.8677 4.70788 87.3564C1.94086 89.9565-2.41004 89.8212-5.01014 87.0541-7.61023 84.2871-7.4749 79.9362-4.70788 77.3361ZM188.745-29.844 240.245 0.038022 188.884 30.1578C185.609 32.0785 181.396 30.9805 179.476 27.7052 177.555 24.4299 178.653 20.2176 181.928 18.2969L223.123-5.8609 223.15 6.01603 181.845-17.9511C178.56-19.8567 177.443-24.0638 179.348-27.3479 181.254-30.6321 185.461-31.7496 188.745-29.844Z" fill="#C00000" transform="matrix(-0.681625 -0.731702 -0.731702 0.681625 2717.88 1154.76)"/><path d="M-5.1748 108.796 7.28565 94.5503 19.9615 80.4573 33.0097 66.7433 46.5906 53.6373 60.8674 41.3731 75.9361 30.2408 83.9344 25.0963 92.1471 20.3546 100.651 16.0104 109.459 12.098 118.562 8.64659 127.926 5.64221 137.526 3.0537 147.4 0.835939 167.542-2.53792 188.405-4.76495 209.779-6.07405 231.521-6.70013 253.488-6.8738 261.921-6.8542C265.718-6.84537 268.789-3.76018 268.78 0.0367642 268.772 3.83371 265.686 6.90459 261.889 6.89576L253.491 6.87624 253.562 6.87604 231.702 7.04887 231.845 7.04624 210.286 7.66705 210.509 7.65704 189.401 8.94984 189.71 8.92387 169.205 11.1127 169.611 11.057 149.858 14.3658 150.229 14.2931 140.681 16.4375 140.964 16.3676 131.662 18.8759 131.972 18.7843 122.933 21.6846 123.27 21.5668 114.512 24.8871 114.866 24.7417 106.403 28.5007 106.74 28.3401 98.5595 32.5191 98.8694 32.3506 90.9524 36.9216 91.2339 36.7499 83.5614 41.6849 83.9274 41.4323 69.2408 52.2823 69.6355 51.9676 55.7014 63.9376 55.9956 63.6697 42.6634 76.5356 42.8701 76.3275 29.9895 89.8654 30.1203 89.7241 17.5406 103.71 17.6039 103.639 5.1748 117.849C2.67501 120.707-1.66831 120.997-4.52627 118.497-7.38423 115.997-7.67459 111.654-5.1748 108.796ZM224.189-30.068 275.55 0.0525014 224.05 29.9338C220.766 31.8394 216.559 30.7218 214.653 27.4376 212.748 24.1535 213.865 19.9464 217.149 18.0408L258.455-5.92574 258.428 5.95119 217.234-18.2071C213.958-20.1279 212.86-24.3402 214.781-27.6155 216.702-30.8907 220.914-31.9888 224.189-30.068Z" fill="#C00000" transform="matrix(0.0916737 0.995789 0.995789 -0.0916737 2577.16 1241.93)"/><path d="M2523.89 962.174 2515.93 981.838 2511.53 991.756 2506.67 1001.62 2501.2 1011.39 2494.98 1021.03 2487.87 1030.47 2479.74 1039.65 2470.54 1048.49 2460.43 1056.99 2449.54 1065.19 2438.01 1073.16 2425.98 1080.94 2413.57 1088.58 2399.95 1096.63C2396.68 1098.57 2392.47 1097.48 2390.54 1094.22 2388.6 1090.95 2389.68 1086.73 2392.95 1084.8L2406.52 1076.77 2406.41 1076.84 2418.71 1069.27 2418.58 1069.35 2430.46 1061.67 2430.28 1061.79 2441.61 1053.96 2441.38 1054.12 2452.01 1046.11 2451.73 1046.34 2461.53 1038.11 2461.18 1038.42 2470.01 1029.93 2469.63 1030.33 2477.4 1021.56 2477.05 1021.98 2483.85 1012.96 2483.57 1013.36 2489.53 1004.12 2489.31 1004.49 2494.58 995.06 2494.42 995.377 2499.13 985.8 2499.02 986.048 2503.32 976.361 2503.23 976.574 2511.15 957.017C2512.57 953.497 2516.58 951.798 2520.1 953.223 2523.62 954.647 2525.32 958.655 2523.89 962.174ZM2444.25 1097.3 2384.71 1097.66 2413.7 1045.66C2415.55 1042.34 2419.74 1041.15 2423.05 1043 2426.37 1044.85 2427.56 1049.03 2425.71 1052.35L2402.46 1094.06 2396.41 1083.84 2444.16 1083.55C2447.96 1083.52 2451.06 1086.58 2451.08 1090.38 2451.1 1094.18 2448.05 1097.27 2444.25 1097.3Z" fill="#FF5050"/><path d="M2473.31 958.614 2453.08 970.466 2432.65 982.056 2411.9 993.073 2390.7 1003.2 2368.98 1012.09 2357.79 1016 2346.45 1019.48 2334.92 1022.48 2323.17 1024.97 2311.2 1026.92 2298.98 1028.26 2286.55 1028.99 2273.92 1029.12 2261.11 1028.7 2248.15 1027.77 2235.03 1026.37 2221.74 1024.54 2194.92 1019.78 2167.67 1013.78 2140.14 1006.87 2112.44 999.355 2097.78 995.235C2094.13 994.207 2092 990.411 2093.03 986.755 2094.05 983.1 2097.85 980.97 2101.51 981.998L2116.13 986.11 2116.07 986.093 2143.68 993.581 2143.55 993.548 2170.92 1000.42 2170.73 1000.37 2197.74 1006.32 2197.47 1006.27 2224.01 1010.98 2223.75 1010.94 2236.8 1012.74 2236.59 1012.71 2249.49 1014.09 2249.25 1014.06 2261.96 1014.98 2261.7 1014.96 2274.22 1015.37 2273.92 1015.37 2286.24 1015.24 2285.91 1015.25 2298.01 1014.55 2297.65 1014.58 2309.51 1013.27 2309.17 1013.31 2320.81 1011.43 2320.48 1011.49 2331.91 1009.06 2331.61 1009.13 2342.85 1006.21 2342.57 1006.29 2353.63 1002.9 2353.37 1002.98 2364.27 999.166 2363.94 999.292 2385.31 990.547 2384.95 990.706 2405.84 980.728 2405.58 980.859 2426.12 969.957 2425.95 970.049 2446.25 958.53 2446.17 958.578 2466.35 946.751C2469.63 944.831 2473.84 945.931 2475.76 949.207 2477.68 952.482 2476.58 956.694 2473.31 958.614ZM2127.9 1027.73 2086.51 984.923 2144.14 969.963C2147.82 969.009 2151.57 971.215 2152.52 974.89 2153.48 978.565 2151.27 982.318 2147.6 983.272L2101.37 995.271 2104.59 983.837 2137.78 1018.17C2140.42 1020.9 2140.35 1025.25 2137.62 1027.89 2134.89 1030.53 2130.54 1030.45 2127.9 1027.73Z" fill="#FF5050"/><path d="M1875.7 680.644 1864.89 693.523 1853.91 706.257 1842.63 718.627 1830.93 730.417 1818.69 741.401 1805.77 751.349 1792.13 759.964 1784.85 763.78 1777.41 767.138 1769.74 770.047 1761.8 772.544 1745.69 776.277 1728.93 778.658 1711.73 779.913 1694.18 780.278 1676.39 779.983 1658.46 779.254 1654.1 779.025C1650.31 778.825 1647.4 775.59 1647.6 771.799 1647.8 768.007 1651.03 765.094 1654.82 765.294L1659.14 765.52 1659.06 765.517 1676.87 766.241 1676.7 766.236 1694.28 766.527 1694.02 766.528 1711.26 766.17 1710.91 766.186 1727.7 764.962 1727.23 765.012 1743.47 762.705 1742.88 762.814 1758.44 759.209 1757.93 759.348 1765.42 756.99 1765.05 757.121 1772.33 754.357 1771.94 754.518 1779.01 751.331 1778.64 751.508 1785.5 747.915 1785.02 748.191 1798.15 739.894 1797.63 740.259 1810.09 730.664 1809.7 730.994 1821.6 720.315 1821.31 720.59 1832.76 709.046 1832.56 709.256 1843.68 697.062 1843.56 697.203 1854.45 684.576 1854.39 684.647 1865.17 671.804C1867.62 668.895 1871.95 668.517 1874.86 670.958 1877.77 673.4 1878.15 677.736 1875.7 680.644ZM1690.62 804.1 1640.84 771.444 1693.77 744.181C1697.15 742.442 1701.29 743.769 1703.03 747.145 1704.77 750.521 1703.44 754.666 1700.07 756.405L1657.61 778.271 1658.23 766.41 1698.17 792.603C1701.34 794.686 1702.23 798.948 1700.14 802.122 1698.06 805.297 1693.8 806.183 1690.62 804.1Z" fill="#FF5050"/><path d="M-6.23134 144.409 2.39438 125.903 11.1578 107.62 20.1702 89.8444 29.5488 72.8604 39.3835 57.0065 44.575 49.4993 49.9132 42.4088 55.4477 35.7287 61.1994 29.497 67.1904 23.7538 73.4381 18.546 79.9331 13.9249 86.6369 9.8885 93.5203 6.40561 100.559 3.43878 107.732 0.948213 115.097-1.12968 129.844-4.08343 144.957-5.82044 160.233-6.64595 175.577-6.87359 177.278-6.86617C181.075-6.8496 184.14-3.75816 184.123 0.038759 184.106 3.83568 181.015 6.90027 177.218 6.8837L175.583 6.87657 175.715 6.87588 160.572 7.10054 160.841 7.09128 145.906 7.89831 146.32 7.86336 131.698 9.54394 132.264 9.455 118.059 12.3003 118.575 12.1759 111.662 14.1264 112.05 14.0043 105.28 16.3551 105.695 16.1957 99.0811 18.9833 99.5148 18.7824 93.0704 22.0432 93.5128 21.7986 87.2508 25.5689 87.6902 25.2809 81.6237 29.5972 82.04 29.2763 76.1777 34.1628 76.5334 33.8448 70.8665 39.2773 71.1609 38.9773 65.6764 44.9193 65.9185 44.6426 60.6035 51.0578 60.8019 50.8067 55.6432 57.6587 55.8054 57.4341 50.7901 64.6865 50.9777 64.4002 41.3251 79.9606 41.5012 79.6598 32.2656 96.3849 32.3791 96.1705 23.4562 113.769 23.524 113.632 14.8097 131.813 14.8414 131.746 6.23134 150.218C4.62724 153.659 0.536997 155.149-2.90448 153.545-6.34595 151.941-7.83544 147.85-6.23134 144.409ZM139.593-30.1568 190.892 0.0682903 139.332 29.8446C136.044 31.7435 131.839 30.6173 129.94 27.3293 128.041 24.0412 129.167 19.8364 132.455 17.9375L173.81-5.94477 173.758 5.93208 132.613-18.3101C129.342-20.2376 128.253-24.4521 130.18-27.7234 132.108-30.9948 136.322-32.0842 139.593-30.1568Z" fill="#C00000" transform="matrix(-0.842893 0.538081 0.538081 0.842893 2082.81 514.186)"/><path d="M-4.07902 60.97 18.4627 44.3554 30.2305 36.2697 42.4612 28.5535 55.3082 21.3388 68.9021 14.7734 83.3684 9.00667 98.8165 4.18984 115.269 0.430177 132.583-2.36363 150.624-4.3392 169.269-5.64024 188.391-6.40592 207.876-6.77272 247.316-6.84422C251.113-6.8511 254.197-3.77865 254.204 0.0183036 254.211 3.81526 251.138 6.89887 247.341 6.90576L207.959 6.97715 208.076 6.97594 188.723 7.34027 188.869 7.33599 169.921 8.09468 170.124 8.08351 151.717 9.36801 151.986 9.34384 134.254 11.2856 134.601 11.2387 117.679 13.9692 118.116 13.8842 102.14 17.5349 102.655 17.396 87.7145 22.0545 88.2138 21.8774 74.2192 27.4561 74.6633 27.2606 61.4793 33.628 61.8558 33.4316 49.3473 40.4563 49.6492 40.2764 37.6811 47.8269 37.9062 47.6787 26.3434 55.6235 26.529 55.4914 4.07902 72.0384C1.02258 74.2911-3.2814 73.6396-5.53418 70.5832-7.78697 67.5267-7.13547 63.2228-4.07902 60.97ZM247.292-20.5942C258.682-20.6148 267.933-11.3975 267.954-0.006623 267.975 11.3842 258.757 20.6351 247.366 20.6557 235.975 20.6764 226.725 11.459 226.704 0.0681567 226.683-11.3227 235.901-20.5735 247.292-20.5942Z" fill="#6699FF" transform="matrix(0.980422 0.196908 0.196908 -0.980422 2033.04 1066.08)"/><path d="M1641.8 1088.79 1631.32 1076.52 1620.98 1064.08 1611 1051.35 1601.58 1038.24 1592.96 1024.62 1585.35 1010.4 1579.02 995.542 1576.35 987.696 1574.11 979.72 1572.3 971.551 1570.89 963.147 1569.21 946.146 1568.82 928.573 1569.48 910.604 1570.98 892.328 1573.1 873.835 1575.62 855.218 1576.38 850.04C1576.93 846.283 1580.42 843.682 1584.17 844.231 1587.93 844.78 1590.53 848.27 1589.98 852.027L1589.23 857.17 1589.24 857.101 1586.73 875.613 1586.75 875.471 1584.65 893.783 1584.67 893.562 1583.2 911.573 1583.21 911.265 1582.57 928.875 1582.57 928.467 1582.95 945.576 1582.92 945.057 1584.55 961.565 1584.49 961.1 1585.83 969.098 1585.76 968.748 1587.49 976.558 1587.4 976.188 1589.54 983.801 1589.43 983.446 1591.95 990.871 1591.77 990.389 1597.88 1004.73 1597.61 1004.18 1604.96 1017.91 1604.71 1017.48 1613.09 1030.71 1612.87 1030.38 1622.08 1043.22 1621.91 1042.98 1631.74 1055.52 1631.62 1055.37 1641.86 1067.7 1641.8 1067.62 1652.26 1079.86C1654.72 1082.74 1654.38 1087.08 1651.5 1089.55 1648.61 1092.02 1644.27 1091.68 1641.8 1088.79ZM1548.03 884.088 1585.15 837.533 1607.41 892.758C1608.83 896.28 1607.12 900.285 1603.6 901.705 1600.08 903.124 1596.07 901.419 1594.65 897.898L1576.8 853.603 1588.56 855.32 1558.79 892.66C1556.42 895.629 1552.09 896.117 1549.12 893.75 1546.16 891.382 1545.67 887.057 1548.03 884.088Z" fill="#FF5050"/><path d="M-5.15286 64.8321 10.1744 47.4787 18.2113 38.9962 26.5882 30.8782 35.426 23.2542 44.8289 16.2784 54.896 10.114 65.7007 4.93897 77.2126 0.898124 89.2762-2.09203 101.782-4.19556 114.643-5.57423 127.78-6.38221 141.126-6.76814 154.351-6.80497C158.148-6.81554 161.235-3.74608 161.245 0.050861 161.256 3.8478 158.186 6.93441 154.389 6.94498L141.254 6.98156 141.434 6.97871 128.289 7.35882 128.512 7.34872 115.643 8.14026 115.954 8.11407 103.452 9.45418 103.859 9.3981 91.8159 11.4239 92.3295 11.3172 80.8366 14.166 81.4596 13.9799 70.6089 17.7886 71.3017 17.5021 61.1545 22.3623 61.7748 22.0249 52.2699 27.8451 52.7759 27.5034 43.8215 34.1465 44.216 33.8307 35.7204 41.1595 36.0141 40.8909 27.8855 48.7682 28.0918 48.5597 20.2385 56.8485 20.4006 56.6712 5.15286 73.9346C2.63928 76.7804-1.70539 77.0498-4.55123 74.5362-7.39707 72.0226-7.66643 67.678-5.15286 64.8321ZM116.501-29.8256 168.015 0.0320095 116.668 30.1761C113.394 32.0984 109.181 31.0023 107.259 27.7279 105.336 24.4535 106.432 20.2408 109.707 18.3185L150.89-5.8588 150.923 6.01811 109.606-17.9294C106.321-19.8335 105.201-24.04 107.105-27.3251 109.009-30.6101 113.216-31.7297 116.501-29.8256Z" fill="#FF5050" transform="matrix(0.233063 0.972462 0.972462 -0.233063 1538.12 1158.88)"/><path d="M1688.34 1096.68 1704.32 1098.93 1720.31 1101.4 1736.21 1104.32 1751.95 1107.91 1767.43 1112.4 1782.56 1118.01 1797.14 1124.95 1804.34 1129.06 1811.3 1133.55 1818.07 1138.47 1824.69 1143.83 1837.21 1155.46 1849.15 1168.36 1860.55 1182.26 1871.54 1196.94 1882.2 1212.2 1892.64 1227.82 1895.5 1232.2C1897.58 1235.38 1896.69 1239.64 1893.51 1241.72 1890.33 1243.79 1886.07 1242.9 1883.99 1239.72L1881.15 1235.37 1881.19 1235.43 1870.81 1219.9 1870.89 1220.02 1860.33 1204.91 1860.46 1205.09 1849.63 1190.62 1849.82 1190.86 1838.65 1177.24 1838.91 1177.55 1827.29 1164.99 1827.66 1165.35 1815.51 1154.06 1815.86 1154.37 1809.56 1149.27 1809.84 1149.49 1803.37 1144.78 1803.68 1145 1797.04 1140.71 1797.36 1140.9 1790.55 1137.01 1791 1137.25 1776.93 1130.56 1777.49 1130.8 1762.89 1125.37 1763.37 1125.53 1748.32 1121.17 1748.7 1121.27 1733.3 1117.76 1733.59 1117.82 1717.92 1114.94 1718.11 1114.98 1702.26 1112.52 1702.36 1112.54 1686.42 1110.3C1682.66 1109.77 1680.04 1106.29 1680.57 1102.53 1681.1 1098.77 1684.58 1096.15 1688.34 1096.68ZM1894.18 1187.92 1897.21 1247.38 1843.96 1220.75C1840.56 1219.05 1839.19 1214.92 1840.89 1211.53 1842.58 1208.13 1846.71 1206.76 1850.11 1208.45L1892.82 1229.81 1882.88 1236.31 1880.45 1188.62C1880.26 1184.83 1883.17 1181.59 1886.97 1181.4 1890.76 1181.21 1893.99 1184.13 1894.18 1187.92Z" fill="#FF5050"/><path d="M1889.3 1576.36 1900.92 1573.1 1913.58 1570.03 1926.42 1567.47 1939.5 1565.62 1952.87 1564.66 1966.53 1564.8 1980.49 1566.21 1994.7 1569 2009.05 1573.04 2023.52 1578.11 2038.08 1584.05 2052.72 1590.65 2067.42 1597.76 2096.78 1612.75C2100.16 1614.48 2101.5 1618.62 2099.78 1622 2098.05 1625.38 2093.91 1626.72 2090.53 1625L2061.24 1610.04 2061.37 1610.11 2046.82 1603.07 2046.98 1603.15 2032.54 1596.63 2032.78 1596.73 2018.49 1590.91 2018.81 1591.03 2004.7 1586.08 2005.12 1586.22 1991.24 1582.31 1991.77 1582.44 1978.15 1579.76 1978.79 1579.85 1965.46 1578.51 1966.08 1578.54 1953.01 1578.42 1953.57 1578.4 1940.72 1579.32 1941.19 1579.27 1928.53 1581.06 1928.91 1581 1916.4 1583.49 1916.68 1583.42 1904.28 1586.44 1904.52 1586.37 1893.01 1589.6C1889.36 1590.62 1885.56 1588.49 1884.54 1584.83 1883.51 1581.18 1885.65 1577.38 1889.3 1576.36ZM1935.64 1601.67 1878.02 1586.66 1919.45 1543.89C1922.09 1541.17 1926.44 1541.1 1929.17 1543.74 1931.9 1546.38 1931.97 1550.74 1929.32 1553.46L1896.1 1587.76 1892.89 1576.32 1939.1 1588.37C1942.78 1589.32 1944.98 1593.08 1944.02 1596.75 1943.07 1600.43 1939.31 1602.63 1935.64 1601.67Z" fill="#C00000"/><path d="M4.25599 66.147 13.8003 55.9124 23.6443 46.0719 33.8916 36.6665 44.6828 27.8497 56.1405 19.799 68.3815 12.6998 81.4979 6.74975 95.4756 2.10285 110.151-1.34233 125.397-3.77127 141.109-5.36638 157.184-6.30282 173.535-6.75065 206.505-6.8376C210.302-6.84761 213.388-3.7777 213.398 0.0192446 213.408 3.81619 210.338 6.90234 206.541 6.91235L173.657 6.99908 173.827 6.99653 157.667 7.43913 157.878 7.43007 142.056 8.35175 142.351 8.32823 126.98 9.88868 127.368 9.83822 112.561 12.1971 113.051 12.1008 98.9207 15.4179 99.5184 15.2488 86.1782 19.6837 86.8495 19.4207 74.3742 25.08 74.9831 24.7663 63.2974 31.5434 63.8009 31.2214 52.792 38.9567 53.1893 38.6554 42.7446 47.1892 43.0436 46.9302 33.05 56.1028 33.2617 55.9 23.6066 65.5517 23.774 65.3783 14.3119 75.5247C11.7223 78.3016 7.37194 78.4534 4.59508 75.8638 1.81822 73.2742 1.66641 68.9238 4.25599 66.147ZM56.9953 63.6627-0.0217318 80.8145 13.1137 22.7405C13.9513 19.0371 17.6326 16.7139 21.336 17.5515 25.0394 18.3892 27.3625 22.0705 26.5249 25.7739L15.9896 72.3525 7.30348 64.2523 53.0344 50.4956C56.6704 49.4018 60.5047 51.4627 61.5985 55.0987 62.6922 58.7347 60.6314 62.569 56.9953 63.6627Z" fill="#C00000" transform="matrix(0.981447 -0.191732 -0.191732 -0.981447 1890.1 1701.71)"/><path d="M2538 652.834C2538 646.298 2543.3 641 2549.83 641L2597.17 641C2603.7 641 2609 646.298 2609 652.834L2609 701.166C2609 707.702 2603.7 713 2597.17 713L2549.83 713C2543.3 713 2538 707.702 2538 701.166Z" stroke="#000000" stroke-width="13.75" stroke-miterlimit="8" fill="#33CC33" fill-rule="evenodd"/><path d="M2565 686C2565 679.373 2570.37 674 2577 674L2625 674C2631.63 674 2637 679.373 2637 686L2637 734C2637 740.627 2631.63 746 2625 746L2577 746C2570.37 746 2565 740.627 2565 734Z" stroke="#000000" stroke-width="13.75" stroke-miterlimit="8" fill="#33CC33" fill-rule="evenodd"/><path d="M2522 719.834C2522 713.298 2527.3 708 2533.83 708L2581.17 708C2587.7 708 2593 713.298 2593 719.834L2593 768.166C2593 774.702 2587.7 780 2581.17 780L2533.83 780C2527.3 780 2522 774.702 2522 768.166Z" stroke="#000000" stroke-width="13.75" stroke-miterlimit="8" fill="#33CC33" fill-rule="evenodd"/><path d="M2492 700C2492 693.372 2497.37 688 2504 688L2552 688C2558.63 688 2564 693.372 2564 700L2564 748C2564 754.627 2558.63 760 2552 760L2504 760C2497.37 760 2492 754.627 2492 748Z" stroke="#000000" stroke-width="13.75" stroke-miterlimit="8" fill="#33CC33" fill-rule="evenodd"/><path d="M1131.59 645.266 1335.84 808.774C1341.77 813.52 1342.72 822.173 1337.98 828.101 1333.23 834.029 1324.58 834.988 1318.65 830.242L1114.41 666.734C1108.48 661.988 1107.52 653.335 1112.27 647.407 1117.01 641.478 1125.66 640.52 1131.59 645.266ZM1305.75 725.438 1348.55 836.562 1230.75 819.12C1223.24 818.008 1218.05 811.016 1219.16 803.504 1220.27 795.992 1227.27 790.804 1234.78 791.916L1329.26 805.906 1314.41 824.45 1280.08 735.322C1277.36 728.235 1280.89 720.278 1287.97 717.549 1295.06 714.819 1303.02 718.351 1305.75 725.438Z"/><text font-family="Arial,Arial_MSFontService,sans-serif" font-weight="400" font-size="92" transform="matrix(1 0 0 1 904.363 511)">Random </text><text font-family="Arial,Arial_MSFontService,sans-serif" font-weight="400" font-size="92" transform="matrix(1 0 0 1 794.936 621)">thalamic input</text><path d="M2888 560.5C2888 530.4 2913.52 506 2945 506 2976.48 506 3002 530.4 3002 560.5 3002 590.599 2976.48 615 2945 615 2913.52 615 2888 590.599 2888 560.5Z" fill="#6699FF" fill-rule="evenodd"/><text font-family="Arial,Arial_MSFontService,sans-serif" font-weight="400" font-size="92" transform="matrix(1 0 0 1 3059.85 394)">Excitatory RS neuron</text><text font-family="Arial,Arial_MSFontService,sans-serif" font-weight="400" font-size="92" transform="matrix(1 0 0 1 3059.85 577)">Inhibitory FS neuron</text><rect x="2888" y="1036" width="114" height="62.9999" fill="#FFC000"/><text font-family="Arial,Arial_MSFontService,sans-serif" font-weight="400" font-size="92" transform="matrix(1 0 0 1 3059.85 1093)">Reinforced synapse</text><path d="M2938 1188.5C2938 1183.25 2942.25 1179 2947.5 1179L2986.5 1179C2991.75 1179 2996 1183.25 2996 1188.5L2996 1226.5C2996 1231.75 2991.75 1236 2986.5 1236L2947.5 1236C2942.25 1236 2938 1231.75 2938 1226.5Z" stroke="#000000" stroke-width="13.75" stroke-miterlimit="8" fill="#33CC33" fill-rule="evenodd"/><path d="M2960 1214.5C2960 1209.25 2964.25 1205 2969.5 1205L3007.5 1205C3012.75 1205 3017 1209.25 3017 1214.5L3017 1252.5C3017 1257.75 3012.75 1262 3007.5 1262L2969.5 1262C2964.25 1262 2960 1257.75 2960 1252.5Z" stroke="#000000" stroke-width="13.75" stroke-miterlimit="8" fill="#33CC33" fill-rule="evenodd"/><path d="M2926 1241.5C2926 1236.25 2930.25 1232 2935.5 1232L2973.5 1232C2978.75 1232 2983 1236.25 2983 1241.5L2983 1279.5C2983 1284.75 2978.75 1289 2973.5 1289L2935.5 1289C2930.25 1289 2926 1284.75 2926 1279.5Z" stroke="#000000" stroke-width="13.75" stroke-miterlimit="8" fill="#33CC33" fill-rule="evenodd"/><path d="M2902 1225.5C2902 1220.25 2906.25 1216 2911.5 1216L2949.5 1216C2954.75 1216 2959 1220.25 2959 1225.5L2959 1263.5C2959 1268.75 2954.75 1273 2949.5 1273L2911.5 1273C2906.25 1273 2902 1268.75 2902 1263.5Z" stroke="#000000" stroke-width="13.75" stroke-miterlimit="8" fill="#33CC33" fill-rule="evenodd"/><text font-family="Arial,Arial_MSFontService,sans-serif" font-weight="400" font-size="92" transform="matrix(1 0 0 1 3084.05 1257)">Dopamine (DA)</text><path d="M2892 918.5C2892 888.4 2917.52 864 2949 864 2980.48 864 3006 888.4 3006 918.5 3006 948.6 2980.48 973 2949 973 2917.52 973 2892 948.6 2892 918.5Z" fill="#3333FF" fill-rule="evenodd"/><text font-family="Arial,Arial_MSFontService,sans-serif" font-weight="400" font-size="92" transform="matrix(1 0 0 1 3064.32 753)">Excitatory BU neuron</text><text font-family="Arial,Arial_MSFontService,sans-serif" font-weight="400" font-size="92" transform="matrix(1 0 0 1 3064.32 936)">Inhibitory AC neuron </text><path d="M1579.78 800.928C1554.49 803.227 1488.71 816.097 1486.76 792.769 1484.8 769.441 1542.77 663.259 1568.06 660.96 1593.35 658.661 1638.15 755.752 1638.52 778.975 1638.89 802.197 1605.07 798.629 1579.78 800.928Z" fill="#FF5050" fill-rule="evenodd"/><path d="M1904.33 749.629C1879.04 751.928 1813.27 764.798 1811.31 741.47 1809.36 718.142 1867.32 611.96 1892.61 609.661 1917.91 607.362 1962.7 704.453 1963.07 727.676 1963.44 750.898 1929.63 747.33 1904.33 749.629Z" fill="#FF5050" fill-rule="evenodd"/><path d="M1266.51 1517.7C1241.21 1520 1175.44 1532.87 1173.49 1509.54 1171.53 1486.21 1229.49 1380.03 1254.79 1377.73 1280.08 1375.43 1324.88 1472.52 1325.25 1495.75 1325.62 1518.97 1291.8 1515.4 1266.51 1517.7Z" fill="#FF5050" fill-rule="evenodd"/><path d="M1461.98 1853.02C1436.69 1855.32 1370.91 1868.19 1368.96 1844.87 1367.01 1821.54 1424.97 1715.36 1450.26 1713.06 1475.56 1710.76 1520.35 1807.85 1520.72 1831.07 1521.09 1854.29 1487.27 1850.73 1461.98 1853.02Z" fill="#FF5050" fill-rule="evenodd"/><path d="M1783.47 2032.32C1758.17 2034.62 1692.4 2047.49 1690.44 2024.16 1688.49 2000.83 1746.45 1894.65 1771.75 1892.35 1797.04 1890.05 1841.84 1987.14 1842.21 2010.37 1842.58 2033.59 1808.76 2030.02 1783.47 2032.32Z" fill="#FF5050" fill-rule="evenodd"/><path d="M2434.78 1856.29C2409.48 1858.59 2343.71 1871.46 2341.76 1848.13 2339.8 1824.8 2397.77 1718.62 2423.06 1716.32 2448.35 1714.02 2493.15 1811.11 2493.52 1834.34 2493.89 1857.56 2460.07 1853.99 2434.78 1856.29Z" fill="#FF5050" fill-rule="evenodd"/><path d="M1980 1313.5C1954.7 1315.8 1888.93 1328.67 1886.97 1305.34 1885.02 1282.01 1942.98 1175.83 1968.28 1173.53 1993.57 1171.23 2038.37 1268.32 2038.74 1291.55 2039.1 1314.77 2005.29 1311.2 1980 1313.5Z" fill="#FF5050" fill-rule="evenodd"/><path d="M2374.3 1228.04C2349.01 1230.34 2283.24 1243.21 2281.28 1219.88 2279.33 1196.55 2337.29 1090.37 2362.58 1088.07 2387.88 1085.77 2432.67 1182.87 2433.04 1206.09 2433.41 1229.31 2399.6 1225.74 2374.3 1228.04Z" fill="#FF5050" fill-rule="evenodd"/><path d="M2488.13 988.328C2462.84 990.627 2397.06 1003.5 2395.11 980.169 2393.16 956.841 2451.12 850.66 2476.41 848.361 2501.71 846.062 2546.5 943.152 2546.87 966.375 2547.24 989.598 2513.43 986.029 2488.13 988.328Z" fill="#FF5050" fill-rule="evenodd"/><path d="M1666.99 1146.86C1641.69 1149.16 1575.92 1162.03 1573.97 1138.7 1572.01 1115.37 1629.97 1009.19 1655.27 1006.89 1680.56 1004.59 1725.36 1101.68 1725.73 1124.9 1726.1 1148.13 1692.28 1144.56 1666.99 1146.86Z" fill="#FF5050" fill-rule="evenodd"/><path d="M1356.01 1155.62C1330.71 1157.91 1264.94 1170.78 1262.98 1147.46 1261.03 1124.13 1318.99 1017.95 1344.29 1015.65 1369.58 1013.35 1414.38 1110.44 1414.75 1133.66 1415.11 1156.89 1381.3 1153.32 1356.01 1155.62Z" fill="#C00000" fill-rule="evenodd"/><path d="M2194.31 708.638C2169.02 710.937 2103.24 723.807 2101.29 700.479 2099.33 677.151 2157.3 570.97 2182.59 568.671 2207.88 566.372 2252.68 663.462 2253.05 686.685 2253.42 709.908 2219.6 706.339 2194.31 708.638Z" fill="#C00000" fill-rule="evenodd"/><path d="M2672.2 1277.11C2646.9 1279.4 2581.13 1292.27 2579.17 1268.95 2577.22 1245.62 2635.18 1139.44 2660.48 1137.14 2685.77 1134.84 2730.57 1231.93 2730.93 1255.15 2731.3 1278.37 2697.49 1274.81 2672.2 1277.11Z" fill="#C00000" fill-rule="evenodd"/><path d="M2597.82 1660.78C2572.52 1663.08 2506.75 1675.95 2504.8 1652.62 2502.84 1629.3 2560.8 1523.11 2586.1 1520.82 2611.39 1518.52 2656.19 1615.61 2656.56 1638.83 2656.93 1662.05 2623.11 1658.48 2597.82 1660.78Z" fill="#C00000" fill-rule="evenodd"/><path d="M2147.41 1716.84C2122.11 1719.14 2056.34 1732.01 2054.38 1708.68 2052.43 1685.35 2110.39 1579.17 2135.69 1576.87 2160.98 1574.57 2205.78 1671.66 2206.15 1694.88 2206.51 1718.11 2172.7 1714.54 2147.41 1716.84Z" fill="#C00000" fill-rule="evenodd"/><path d="M2095.77 2046.98C2070.48 2049.28 2004.7 2062.15 2002.75 2038.82 2000.8 2015.5 2058.76 1909.32 2084.05 1907.02 2109.34 1904.72 2154.14 2001.81 2154.51 2025.03 2154.88 2048.25 2121.06 2044.68 2095.77 2046.98Z" fill="#C00000" fill-rule="evenodd"/><path d="M2963.4 779.238C2943.06 781.088 2890.15 791.44 2888.58 772.676 2887.01 753.912 2933.63 668.505 2953.98 666.655 2974.32 664.806 3010.35 742.901 3010.65 761.58 3010.95 780.26 2983.75 777.389 2963.4 779.238Z" fill="#C00000" fill-rule="evenodd"/><path d="M2435 582.5C2435 577.253 2439.25 573 2444.5 573L2482.5 573C2487.75 573 2492 577.253 2492 582.5L2492 620.5C2492 625.747 2487.75 630 2482.5 630L2444.5 630C2439.25 630 2435 625.747 2435 620.5Z" stroke="#000000" stroke-width="13.75" stroke-miterlimit="8" fill="#FFC000" fill-rule="evenodd"/><path d="M2457 608.5C2457 603.254 2461.25 599 2466.5 599L2504.5 599C2509.75 599 2514 603.254 2514 608.5L2514 646.5C2514 651.747 2509.75 656 2504.5 656L2466.5 656C2461.25 656 2457 651.747 2457 646.5Z" stroke="#000000" stroke-width="13.75" stroke-miterlimit="8" fill="#FFC000" fill-rule="evenodd"/><path d="M2423 635.5C2423 630.253 2427.25 626 2432.5 626L2470.5 626C2475.75 626 2480 630.253 2480 635.5L2480 673.5C2480 678.747 2475.75 683 2470.5 683L2432.5 683C2427.25 683 2423 678.747 2423 673.5Z" stroke="#000000" stroke-width="13.75" stroke-miterlimit="8" fill="#FFC000" fill-rule="evenodd"/><path d="M2399 619.5C2399 614.254 2403.25 610 2408.5 610L2446.5 610C2451.75 610 2456 614.254 2456 619.5L2456 657.5C2456 662.747 2451.75 667 2446.5 667L2408.5 667C2403.25 667 2399 662.747 2399 657.5Z" stroke="#000000" stroke-width="13.75" stroke-miterlimit="8" fill="#FFC000" fill-rule="evenodd"/><path d="M2616 769.5C2616 764.253 2620.25 760 2625.5 760L2663.5 760C2668.75 760 2673 764.253 2673 769.5L2673 808.5C2673 813.747 2668.75 818 2663.5 818L2625.5 818C2620.25 818 2616 813.747 2616 808.5Z" stroke="#000000" stroke-width="13.75" stroke-miterlimit="8" fill="#00B0F0" fill-rule="evenodd"/><path d="M2638 796.5C2638 791.253 2642.25 787 2647.5 787L2685.5 787C2690.75 787 2695 791.253 2695 796.5L2695 834.5C2695 839.747 2690.75 844 2685.5 844L2647.5 844C2642.25 844 2638 839.747 2638 834.5Z" stroke="#000000" stroke-width="13.75" stroke-miterlimit="8" fill="#00B0F0" fill-rule="evenodd"/><path d="M2603 823.5C2603 818.253 2607.25 814 2612.5 814L2650.5 814C2655.75 814 2660 818.253 2660 823.5L2660 861.5C2660 866.747 2655.75 871 2650.5 871L2612.5 871C2607.25 871 2603 866.747 2603 861.5Z" stroke="#000000" stroke-width="13.75" stroke-miterlimit="8" fill="#00B0F0" fill-rule="evenodd"/><path d="M2579 807.5C2579 802.253 2583.25 798 2588.5 798L2626.5 798C2631.75 798 2636 802.253 2636 807.5L2636 845.5C2636 850.747 2631.75 855 2626.5 855L2588.5 855C2583.25 855 2579 850.747 2579 845.5Z" stroke="#000000" stroke-width="13.75" stroke-miterlimit="8" fill="#00B0F0" fill-rule="evenodd"/><path d="M2939 1357.67C2939 1352.33 2943.33 1348 2948.67 1348L2987.33 1348C2992.67 1348 2997 1352.33 2997 1357.67L2997 1396.33C2997 1401.67 2992.67 1406 2987.33 1406L2948.67 1406C2943.33 1406 2939 1401.67 2939 1396.33Z" stroke="#000000" stroke-width="13.75" stroke-miterlimit="8" fill="#FFC000" fill-rule="evenodd"/><path d="M2961 1384.5C2961 1379.25 2965.25 1375 2970.5 1375L3008.5 1375C3013.75 1375 3018 1379.25 3018 1384.5L3018 1422.5C3018 1427.75 3013.75 1432 3008.5 1432L2970.5 1432C2965.25 1432 2961 1427.75 2961 1422.5Z" stroke="#000000" stroke-width="13.75" stroke-miterlimit="8" fill="#FFC000" fill-rule="evenodd"/><path d="M2927 1411.5C2927 1406.25 2931.25 1402 2936.5 1402L2974.5 1402C2979.75 1402 2984 1406.25 2984 1411.5L2984 1449.5C2984 1454.75 2979.75 1459 2974.5 1459L2936.5 1459C2931.25 1459 2927 1454.75 2927 1449.5Z" stroke="#000000" stroke-width="13.75" stroke-miterlimit="8" fill="#FFC000" fill-rule="evenodd"/><path d="M2903 1395.5C2903 1390.25 2907.25 1386 2912.5 1386L2950.5 1386C2955.75 1386 2960 1390.25 2960 1395.5L2960 1433.5C2960 1438.75 2955.75 1443 2950.5 1443L2912.5 1443C2907.25 1443 2903 1438.75 2903 1433.5Z" stroke="#000000" stroke-width="13.75" stroke-miterlimit="8" fill="#FFC000" fill-rule="evenodd"/><path d="M2937 1527.5C2937 1522.25 2941.25 1518 2946.5 1518L2984.5 1518C2989.75 1518 2994 1522.25 2994 1527.5L2994 1565.5C2994 1570.75 2989.75 1575 2984.5 1575L2946.5 1575C2941.25 1575 2937 1570.75 2937 1565.5Z" stroke="#000000" stroke-width="13.75" stroke-miterlimit="8" fill="#00B0F0" fill-rule="evenodd"/><path d="M2959 1553.5C2959 1548.25 2963.25 1544 2968.5 1544L3006.5 1544C3011.75 1544 3016 1548.25 3016 1553.5L3016 1591.5C3016 1596.75 3011.75 1601 3006.5 1601L2968.5 1601C2963.25 1601 2959 1596.75 2959 1591.5Z" stroke="#000000" stroke-width="13.75" stroke-miterlimit="8" fill="#00B0F0" fill-rule="evenodd"/><path d="M2925 1580.5C2925 1575.25 2929.25 1571 2934.5 1571L2972.5 1571C2977.75 1571 2982 1575.25 2982 1580.5L2982 1619.5C2982 1624.75 2977.75 1629 2972.5 1629L2934.5 1629C2929.25 1629 2925 1624.75 2925 1619.5Z" stroke="#000000" stroke-width="13.75" stroke-miterlimit="8" fill="#00B0F0" fill-rule="evenodd"/><path d="M2901 1564.5C2901 1559.25 2905.25 1555 2910.5 1555L2948.5 1555C2953.75 1555 2958 1559.25 2958 1564.5L2958 1603.5C2958 1608.75 2953.75 1613 2948.5 1613L2910.5 1613C2905.25 1613 2901 1608.75 2901 1603.5Z" stroke="#000000" stroke-width="13.75" stroke-miterlimit="8" fill="#00B0F0" fill-rule="evenodd"/><text font-family="Arial,Arial_MSFontService,sans-serif" font-weight="400" font-size="92" transform="matrix(1 0 0 1 3095.63 1426)">Noradrenaline (NE)</text><text font-family="Arial,Arial_MSFontService,sans-serif" font-weight="400" font-size="92" transform="matrix(1 0 0 1 3114.88 1605)">Acetylcholine (</text><text font-family="Arial,Arial_MSFontService,sans-serif" font-weight="400" font-size="92" transform="matrix(1 0 0 1 3711.28 1605)">ACh</text><text font-family="Arial,Arial_MSFontService,sans-serif" font-weight="400" font-size="92" transform="matrix(1 0 0 1 3890.03 1605)">)</text></g></svg>