<svg width="2620" height="2185" xmlns="http://www.w3.org/2000/svg" xmlns:xlink="http://www.w3.org/1999/xlink" xml:space="preserve" overflow="hidden"><defs><clipPath id="clip0"><rect x="1780" y="197" width="2620" height="2185"/></clipPath></defs><g clip-path="url(#clip0)" transform="translate(-1780 -197)"><rect x="1780" y="197" width="2620" height="2167" fill="#FFFFFF"/><g><g><g><g><path d="M1780 197 4400 197 4400 2162 1780 2162Z" fill="#FFFFFF"/></g><path d="M1780 197 4400 197 4400 2162 1780 2162Z" fill="#FFFFFF"/><path d="M2121.54 1942.11 4152.04 1942.11 4152.04 641.464 2121.54 641.464Z" fill="#FFFFFF"/><path d="M2121.54 1942.11 4152.04 1942.11" stroke="#262626" stroke-width="9.35714" stroke-linecap="square" stroke-linejoin="round" stroke-miterlimit="10" fill="none"/><path d="M2121.54 1942.11 2121.54 1921.8" stroke="#262626" stroke-width="9.35714" stroke-linecap="square" stroke-linejoin="round" stroke-miterlimit="10" fill="none"/><path d="M2375.35 1942.11 2375.35 1921.8" stroke="#262626" stroke-width="9.35714" stroke-linecap="square" stroke-linejoin="round" stroke-miterlimit="10" fill="none"/><path d="M2629.16 1942.11 2629.16 1921.8" stroke="#262626" stroke-width="9.35714" stroke-linecap="square" stroke-linejoin="round" stroke-miterlimit="10" fill="none"/><path d="M2882.97 1942.11 2882.97 1921.8" stroke="#262626" stroke-width="9.35714" stroke-linecap="square" stroke-linejoin="round" stroke-miterlimit="10" fill="none"/><path d="M3136.79 1942.11 3136.79 1921.8" stroke="#262626" stroke-width="9.35714" stroke-linecap="square" stroke-linejoin="round" stroke-miterlimit="10" fill="none"/><path d="M3390.6 1942.11 3390.6 1921.8" stroke="#262626" stroke-width="9.35714" stroke-linecap="square" stroke-linejoin="round" stroke-miterlimit="10" fill="none"/><path d="M3644.41 1942.11 3644.41 1921.8" stroke="#262626" stroke-width="9.35714" stroke-linecap="square" stroke-linejoin="round" stroke-miterlimit="10" fill="none"/><path d="M3898.22 1942.11 3898.22 1921.8" stroke="#262626" stroke-width="9.35714" stroke-linecap="square" stroke-linejoin="round" stroke-miterlimit="10" fill="none"/><path d="M4152.04 1942.11 4152.04 1921.8" stroke="#262626" stroke-width="9.35714" stroke-linecap="square" stroke-linejoin="round" stroke-miterlimit="10" fill="none"/><text fill="#262626" font-family="Arial,Arial_MSFontService,sans-serif" font-weight="400" font-size="16" transform="matrix(4.67857 0 0 4.67857 2100.48 2040)">0</text><text fill="#262626" font-family="Arial,Arial_MSFontService,sans-serif" font-weight="400" font-size="16" transform="matrix(4.67857 0 0 4.67857 2312.19 2040)">500</text><text fill="#262626" font-family="Arial,Arial_MSFontService,sans-serif" font-weight="400" font-size="16" transform="matrix(4.67857 0 0 4.67857 2544.95 2040)">1000</text><text fill="#262626" font-family="Arial,Arial_MSFontService,sans-serif" font-weight="400" font-size="16" transform="matrix(4.67857 0 0 4.67857 2798.76 2040)">1500</text><text fill="#262626" font-family="Arial,Arial_MSFontService,sans-serif" font-weight="400" font-size="16" transform="matrix(4.67857 0 0 4.67857 3052.57 2040)">2000</text><text fill="#262626" font-family="Arial,Arial_MSFontService,sans-serif" font-weight="400" font-size="16" transform="matrix(4.67857 0 0 4.67857 3306.38 2040)">2500</text><text fill="#262626" font-family="Arial,Arial_MSFontService,sans-serif" font-weight="400" font-size="16" transform="matrix(4.67857 0 0 4.67857 3560.2 2040)">3000</text><text fill="#262626" font-family="Arial,Arial_MSFontService,sans-serif" font-weight="400" font-size="16" transform="matrix(4.67857 0 0 4.67857 3814.01 2040)">3500</text><text fill="#262626" font-family="Arial,Arial_MSFontService,sans-serif" font-weight="400" font-size="16" transform="matrix(4.67857 0 0 4.67857 4067.82 2040)">4000</text><text fill="#262626" font-family="Arial,Arial_MSFontService,sans-serif" font-weight="700" font-size="18" transform="matrix(4.67857 0 0 4.67857 2977.72 2143)">Time </text><text fill="#262626" font-family="Arial,Arial_MSFontService,sans-serif" font-weight="700" font-size="18" transform="matrix(4.67857 0 0 4.67857 3206.97 2143)">(</text><text fill="#262626" font-family="Arial,Arial_MSFontService,sans-serif" font-weight="700" font-size="18" transform="matrix(4.67857 0 0 4.67857 3235.04 2143)">s</text><text fill="#262626" font-family="Arial,Arial_MSFontService,sans-serif" font-weight="700" font-size="18" transform="matrix(4.67857 0 0 4.67857 3281.82 2143)">)</text><path d="M2121.54 1942.11 2121.54 641.464" stroke="#262626" stroke-width="9.35714" stroke-linecap="square" stroke-linejoin="round" stroke-miterlimit="10" fill="none"/><path d="M2121.54 1942.11 2141.84 1942.11" stroke="#262626" stroke-width="9.35714" stroke-linecap="square" stroke-linejoin="round" stroke-miterlimit="10" fill="none"/><path d="M2121.54 1779.53 2141.84 1779.53" stroke="#262626" stroke-width="9.35714" stroke-linecap="square" stroke-linejoin="round" stroke-miterlimit="10" fill="none"/><path d="M2121.54 1616.95 2141.84 1616.95" stroke="#262626" stroke-width="9.35714" stroke-linecap="square" stroke-linejoin="round" stroke-miterlimit="10" fill="none"/><path d="M2121.54 1454.37 2141.84 1454.37" stroke="#262626" stroke-width="9.35714" stroke-linecap="square" stroke-linejoin="round" stroke-miterlimit="10" fill="none"/><path d="M2121.54 1291.79 2141.84 1291.79" stroke="#262626" stroke-width="9.35714" stroke-linecap="square" stroke-linejoin="round" stroke-miterlimit="10" fill="none"/><path d="M2121.54 1129.21 2141.84 1129.21" stroke="#262626" stroke-width="9.35714" stroke-linecap="square" stroke-linejoin="round" stroke-miterlimit="10" fill="none"/><path d="M2121.54 966.625 2141.84 966.625" stroke="#262626" stroke-width="9.35714" stroke-linecap="square" stroke-linejoin="round" stroke-miterlimit="10" fill="none"/><path d="M2121.54 804.045 2141.84 804.045" stroke="#262626" stroke-width="9.35714" stroke-linecap="square" stroke-linejoin="round" stroke-miterlimit="10" fill="none"/><path d="M2121.54 641.464 2141.84 641.464" stroke="#262626" stroke-width="9.35714" stroke-linecap="square" stroke-linejoin="round" stroke-miterlimit="10" fill="none"/><text fill="#262626" font-family="Arial,Arial_MSFontService,sans-serif" font-weight="400" font-size="16" transform="matrix(4.67857 0 0 4.67857 2051.98 1968)">0</text><text fill="#262626" font-family="Arial,Arial_MSFontService,sans-serif" font-weight="400" font-size="16" transform="matrix(4.67857 0 0 4.67857 1986.48 1805)">0</text><text fill="#262626" font-family="Arial,Arial_MSFontService,sans-serif" font-weight="400" font-size="16" transform="matrix(4.67857 0 0 4.67857 2028.59 1805)">.</text><text fill="#262626" font-family="Arial,Arial_MSFontService,sans-serif" font-weight="400" font-size="16" transform="matrix(4.67857 0 0 4.67857 2047.3 1805)">5</text><text fill="#262626" font-family="Arial,Arial_MSFontService,sans-serif" font-weight="400" font-size="16" transform="matrix(4.67857 0 0 4.67857 2051.98 1643)">1</text><text fill="#262626" font-family="Arial,Arial_MSFontService,sans-serif" font-weight="400" font-size="16" transform="matrix(4.67857 0 0 4.67857 1986.48 1480)">1</text><text fill="#262626" font-family="Arial,Arial_MSFontService,sans-serif" font-weight="400" font-size="16" transform="matrix(4.67857 0 0 4.67857 2028.59 1480)">.</text><text fill="#262626" font-family="Arial,Arial_MSFontService,sans-serif" font-weight="400" font-size="16" transform="matrix(4.67857 0 0 4.67857 2047.3 1480)">5</text><text fill="#262626" font-family="Arial,Arial_MSFontService,sans-serif" font-weight="400" font-size="16" transform="matrix(4.67857 0 0 4.67857 2051.98 1318)">2</text><text fill="#262626" font-family="Arial,Arial_MSFontService,sans-serif" font-weight="400" font-size="16" transform="matrix(4.67857 0 0 4.67857 1986.48 1155)">2</text><text fill="#262626" font-family="Arial,Arial_MSFontService,sans-serif" font-weight="400" font-size="16" transform="matrix(4.67857 0 0 4.67857 2028.59 1155)">.</text><text fill="#262626" font-family="Arial,Arial_MSFontService,sans-serif" font-weight="400" font-size="16" transform="matrix(4.67857 0 0 4.67857 2047.3 1155)">5</text><text fill="#262626" font-family="Arial,Arial_MSFontService,sans-serif" font-weight="400" font-size="16" transform="matrix(4.67857 0 0 4.67857 2051.98 992)">3</text><text fill="#262626" font-family="Arial,Arial_MSFontService,sans-serif" font-weight="400" font-size="16" transform="matrix(4.67857 0 0 4.67857 1986.48 830)">3</text><text fill="#262626" font-family="Arial,Arial_MSFontService,sans-serif" font-weight="400" font-size="16" transform="matrix(4.67857 0 0 4.67857 2028.59 830)">.</text><text fill="#262626" font-family="Arial,Arial_MSFontService,sans-serif" font-weight="400" font-size="16" transform="matrix(4.67857 0 0 4.67857 2047.3 830)">5</text><text fill="#262626" font-family="Arial,Arial_MSFontService,sans-serif" font-weight="400" font-size="16" transform="matrix(4.67857 0 0 4.67857 2051.98 667)">4</text><text fill="#262626" font-family="Arial,Arial_MSFontService,sans-serif" font-weight="700" font-size="18" transform="matrix(2.8648e-16 -4.67857 4.67857 2.8648e-16 1949.05 1640)">Synaptic strength</text><path d="M2121.54 1942.11 2123.09 1942.11 2123.1 1942.11 2126.99 1911.31 2126.99 1911.31 2126.99 1911.31 2127.57 1907.88 2128.2 1942.11 2130.89 1939.03 2130.89 1939.03 2133.89 1887.12 2134.79 1887.22 2134.79 1887.22 2135.27 1888.13 2137.49 1882.72 2138.69 1884.63 2138.69 1884.63 2140.47 1884.54 2141.91 1942.11 2142.59 1942.11 2142.59 1942.11 2146.49 1942.11 2146.49 1942.11 2150.38 1941.98 2150.39 1941.98 2150.39 1941.98 2150.63 1941.97 2150.9 1942.11 2154.29 1942.11 2154.29 1942.11 2158.18 1941.09 2158.18 1941.09 2158.18 1941.09 2160.02 1937.89 2160.78 1942.11 2162.08 1941.46 2162.08 1941.46 2165.98 1940.59 2165.98 1940.59 2165.98 1940.59 2166.25 1942.11 2168.38 1924.82 2169.88 1935.65 2169.88 1935.65 2170.54 1939.29 2173.78 1937.52 2173.78 1937.52 2177.63 1937.76 2177.67 1937.42 2177.68 1937.42 2177.68 1937.39 2179.01 1934.13 2181.57 1937.44 2181.58 1937.44 2181.58 1937.47 2182.76 1939.77 2185.48 1913.81 2185.48 1913.81 2189.37 1739.23 2189.38 1739.23 2191.22 1738.79 2193.27 1742.51 2193.27 1742.51 2193.27 1742.51 2194.65 1743.31 2197.17 1735.34 2197.17 1735.34 2197.17 1735.34 2198.81 1493.08 2201.07 1505.84 2201.07 1505.84 2203.36 1505.28 2204.97 1513.69 2204.97 1513.69 2204.97 1513.69 2206.04 1512.25 2208.14 1525.7 2208.87 1525.62 2208.87 1525.62 2209.16 1525.61 2212.62 1541.34 2212.77 1540.87 2212.77 1540.87 2216.66 1523.97 2216.67 1523.97 2216.67 1523.97 2219 1447.54 2220.57 1455.78 2220.57 1455.78 2220.73 1456.17 2224.46 998.547 2224.46 998.547 2224.46 998.547 2228.14 721.773 2228.36 733.136 2228.36 733.136 2230.41 735.22 2232.26 733.747 2232.26 733.747 2233.63 736.86 2236.16 725.849 2236.16 725.849 2236.16 725.849 2239.32 726.923 2240.06 723.928 2240.06 723.928 2240.06 723.928 2241.23 715.947 2243.96 716.329 2243.96 716.329 2244.63 641.464 2247.86 641.464 2247.86 641.464 2251.76 641.464 2251.76 641.464 2255.65 641.464 2255.65 641.464 2259.55 641.464 2259.55 641.464 2263.45 641.464 2263.45 641.464 2265.2 689.228 2267.35 659.599 2267.35 659.599 2271.25 667.743 2271.25 667.743 2275.13 670.486 2275.15 670.355 2275.15 670.355 2279.05 656.335 2279.05 656.335 2279.05 656.335 2281.04 656.341 2281.76 641.464 2282.95 641.464 2282.95 641.464 2286.84 641.464 2286.85 641.464 2290.74 641.572 2290.74 641.572 2290.74 641.572 2294.64 649.715 2294.64 649.715 2294.64 649.715 2297.26 650.007 2298.54 649.645 2298.54 649.645 2298.54 649.645 2301.2 649.533 2302.44 650.01 2302.44 650.01 2302.44 650.01 2305.65 647.813 2306.34 733.856 2306.34 733.856 2306.34 733.856 2310.24 767.209 2310.24 767.209 2310.24 767.209 2311.15 767.324 2314.13 735.963 2314.14 735.963 2314.14 735.963 2314.27 735.484 2318.03 746.987 2318.04 746.987 2318.04 746.987 2321.93 751.109 2321.93 751.109 2321.93 751.109 2321.96 751.109 2325.83 676.976 2325.83 676.976 2325.83 676.976 2326.18 641.464 2329.73 641.464 2329.73 641.464 2333.63 641.582 2333.63 641.582 2333.63 641.582 2335.65 647.278 2337.53 646.978 2337.53 646.978 2340.05 646.96 2341.42 647.038 2341.43 647.038 2341.43 647.038 2344.16 650.96 2345.13 641.464 2345.33 641.464 2345.33 641.464 2349.23 642.196 2349.23 642.196 2350.12 642.387 2353.08 641.904 2353.12 641.906 2353.13 641.906 2354.03 641.929 2354.09 641.464 2357.02 641.464 2357.02 641.464 2360.92 643.433 2360.92 643.433 2360.92 643.433 2362.65 645.237 2363.52 641.464 2364.82 641.464 2364.82 641.464 2368.72 644.128 2368.72 644.128 2368.72 644.128 2372.62 644.209 2372.62 644.209 2372.62 644.209 2373.61 644.179 2376.52 656.585 2376.52 656.585 2376.52 656.585 2379.01 656.672 2380.41 642.485 2380.42 642.485 2380.42 642.485 2382.87 642.26 2384.31 646.009 2384.32 646.009 2384.32 646.009 2385.43 645.955 2387.02 647.282 2388.21 647.244 2388.21 647.244 2388.82 647.241 2391.05 648.058 2392.11 648.02 2392.11 648.02 2393.57 641.464 2396.01 641.464 2396.01 641.464 2399.91 641.488 2399.91 641.488 2399.91 641.488 2403.81 641.489 2403.81 641.489 2403.81 641.489 2404.03 641.489 2404.35 641.464 2407.71 641.464 2407.71 641.464 2411.6 641.944 2411.61 641.944 2411.61 641.944 2412.39 641.948 2413.13 641.464 2415.51 641.464 2415.51 641.464 2417.67 647.76 2419.4 647.669 2419.4 647.67 2423.3 650.798 2423.3 650.798 2426.93 650.849 2427.2 649.801 2427.2 649.801 2427.92 641.464 2428.72 657.513 2431.1 641.464 2431.1 641.464 2434.32 642.556 2435 642.3 2435 642.3 2435.15 641.464 2436.59 644.954 2438.9 641.464 2438.9 641.464 2442.8 642.437 2442.8 642.437 2442.8 642.437 2444.94 642.485 2445.08 641.464 2446.7 642.016 2446.7 642.016 2450.26 642.025 2450.37 641.464 2450.59 641.464 2450.6 641.464 2454.49 641.472 2454.49 641.472 2454.49 641.472 2456.06 641.47 2458.39 644.687 2458.39 644.687 2458.39 644.687 2459.38 644.718 2460.44 641.464 2462.29 641.656 2462.29 641.656 2462.94 641.464 2466.19 663.497 2466.19 663.497 2466.19 663.497 2468.11 667.294 2470.09 663.58 2470.09 663.58 2470.45 663.546 2473.98 664.393 2473.99 664.393 2473.99 664.393 2475.82 664.266 2477.35 665.596 2477.89 664.909 2477.89 664.909 2480.39 664.232 2481.78 668.072 2481.79 668.072 2481.79 668.072 2483.45 685.854 2485.68 669.759 2485.68 669.759 2489.58 644.532 2489.58 644.532 2489.58 644.532 2490.81 641.464 2493.48 641.558 2493.48 641.558 2497.38 642.378 2497.38 642.378 2497.38 642.379 2498.83 642.417 2501.27 642.113 2501.28 642.113 2501.28 642.112 2501.86 642.08 2505.18 655.86 2505.18 655.86 2507.5 656.119 2509.08 655.502 2509.08 655.502 2512.98 655.317 2512.98 655.317 2512.98 655.317 2516.87 641.847 2516.87 641.847 2516.88 641.847 2516.95 641.464 2520.77 649.652 2520.77 649.652 2520.77 649.652 2520.93 649.682 2521.74 641.464 2524.67 643.163 2524.67 643.163 2525.22 648.602 2525.97 641.464 2528.57 641.464 2528.57 641.464 2532.47 647.271 2532.47 647.271 2532.47 647.271 2535.21 647.881 2535.9 641.464 2536.37 641.464 2536.37 641.464 2540.27 732.76 2540.27 732.76 2540.27 732.76 2543.14 736.115 2544.17 735.266 2544.17 735.266 2545.24 735.154 2547.73 742.469 2548.06 741.104 2548.07 741.104 2550.56 727.613 2551.96 730.553 2551.96 730.553 2554.83 735.865 2555.86 726.073 2555.86 726.073 2555.86 726.073 2558.14 695.153 2559.76 695.198 2559.76 695.198 2562.67 682.465 2563.66 685.209 2563.66 685.209 2564.63 683.525 2567.56 716.722 2567.56 716.722 2567.56 716.722 2567.64 716.723 2570.07 715.973 2571.46 715.977 2571.46 715.977 2572.6 715.98 2575.35 715.972 2575.36 715.972 2575.36 715.972 2576.06 715.969 2578.21 716.049 2579.26 716.044 2579.26 716.044 2581.36 713.889 2583.15 714.197 2583.15 714.197 2584.44 699.367 2587.05 740.027 2587.05 740.027 2589.3 740.041 2590.95 706.788 2590.95 706.788 2590.95 706.788 2594.85 706.094 2594.85 706.094 2594.85 706.094 2598.75 703.898 2598.75 703.898 2598.75 703.898 2598.9 703.778 2602.65 709.281 2602.65 709.281 2602.65 709.281 2606.55 710.31 2606.55 710.31 2606.55 710.31 2609.48 707.399 2610.44 718.349 2610.45 718.349 2610.45 718.349 2614.34 719.63 2614.34 719.63 2614.35 719.63 2614.75 719.638 2616.58 719.226 2618.24 719.271 2618.24 719.271 2620.09 718.71 2622.14 729.845 2622.14 729.845 2622.14 729.845 2626.04 731.836 2626.04 731.836 2626.04 731.836 2629.94 732.244 2629.94 732.244 2629.94 732.244 2630.7 732.266 2633.82 719.669 2633.84 729.987 2633.84 729.987 2637.73 750.132 2637.74 750.132 2637.74 750.132 2640.41 750.143 2641.63 746.705 2641.64 746.705 2641.64 746.705 2644.46 698.552 2645.54 700.626 2645.54 700.626 2647.85 697.775 2649.43 773.833 2649.43 773.833 2649.43 773.833 2652 774.018 2653.33 772.359 2653.33 772.359 2653.33 772.339 2655.69 727.196 2657.23 727.353 2657.23 727.353 2661.13 731.519 2661.13 731.519 2665.03 734.034 2665.03 734.034 2668.27 734.074 2668.93 734.052 2668.93 734.052 2670.13 734.006 2671.55 739.577 2672.83 739.429 2672.83 739.429 2674.61 742.933 2676.72 665.69 2676.73 665.69 2676.73 665.69 2680.62 660.947 2680.62 660.947 2680.63 660.947 2683.69 660.943 2684.52 666.703 2684.52 666.703 2684.52 666.703 2688.14 668.607 2688.42 667.682 2688.42 667.682 2692.32 666.021 2692.32 666.021 2692.32 666.021 2692.37 666.02 2694.43 672.626 2696.22 669.922 2696.22 669.922 2697.43 641.464 2700.12 641.464 2700.12 641.464 2704.02 661.185 2704.02 661.185 2704.02 661.185 2704.32 661.295 2707.51 641.464 2707.92 641.464 2707.92 641.464 2711.81 641.464 2711.82 641.464 2715.71 641.464 2715.71 641.464 2719.61 642.05 2719.61 642.05 2719.61 642.05 2723.19 641.995 2723.51 642.026 2723.51 642.026 2726.27 642.238 2726.45 641.464 2727.41 641.464 2727.41 641.464 2731.31 648.118 2731.31 648.118 2731.31 648.118 2733.81 648.394 2734.89 641.464 2735.21 641.464 2735.21 641.464 2739.11 641.464 2739.11 641.464 2742.43 642.591 2743.01 641.464 2743.01 641.464 2746.9 648.676 2746.9 648.676 2747.84 702.232 2748.43 641.464 2750.8 641.464 2750.8 641.464 2753.97 647.265 2754.7 647.245 2754.7 647.245 2758.6 646.75 2758.6 646.75 2758.6 646.75 2762.5 644.633 2762.5 644.633 2762.5 644.633 2766.4 643.475 2766.4 643.475 2766.4 643.475 2766.91 643.4 2768.41 644.548 2770.3 643.5 2770.3 643.5 2772.71 643.565 2774.19 643.207 2774.2 643.207 2774.2 643.207 2776.32 641.464 2777.97 727.805 2778.09 727.73 2778.1 727.73 2780.68 725.876 2781.99 725.963 2781.99 725.963 2782.35 725.967 2785.89 725.376 2785.89 725.376 2785.89 725.376 2785.94 725.354 2789.79 725.385 2789.79 725.385 2789.79 725.385 2791.35 723.747 2793.69 731.947 2793.69 731.947 2793.69 731.947 2794.68 735.879 2797.59 698.683 2797.59 698.683 2797.59 698.683 2801.48 677.542 2801.49 677.542 2801.49 677.542 2802.12 677.625 2805.38 676.052 2805.39 676.052 2805.39 676.052 2809.28 675.83 2809.29 675.83 2809.29 675.83 2810.4 675.928 2811.56 664.554 2813.18 664.594 2813.18 664.593 2814.32 664.564 2817.08 665.15 2817.08 665.15 2817.08 665.15 2818.24 665.159 2820.98 664.96 2820.98 664.96 2823.81 667.414 2824.85 641.464 2824.88 641.464 2824.88 641.464 2828.78 641.464 2828.78 641.464 2832.68 641.904 2832.68 641.904 2832.68 641.904 2834.51 641.998 2835.81 641.464 2836.58 641.464 2836.58 641.464 2840.47 666.831 2840.48 666.831 2840.48 666.831 2840.56 666.835 2844.37 655.667 2844.38 655.667 2844.38 655.667 2848.27 653.654 2848.27 653.654 2848.27 653.654 2849.48 651.636 2852.17 652.197 2852.17 652.197 2854.04 652.201 2856.07 644.871 2856.07 644.871 2856.07 644.871 2856.82 641.464 2859.97 641.464 2859.97 641.464 2860.15 641.466 2863.87 641.464 2863.87 641.464 2867.76 641.588 2867.77 641.588 2867.77 641.588 2869.06 641.63 2871.67 641.606 2871.67 641.606 2875.56 643.959 2875.57 643.959 2875.57 643.959 2876.76 644.049 2879.46 641.805 2879.46 641.805 2879.46 641.805 2880.91 641.763 2883.36 647.359 2883.36 647.359 2883.36 647.359 2885.25 649.679 2886.26 641.464 2887.26 641.508 2887.26 641.508 2887.87 641.575 2888.66 641.464 2891.16 641.468 2891.16 641.468 2894.11 641.469 2894.16 641.464 2895.06 641.464 2895.06 641.464 2898.96 641.464 2898.96 641.464 2902.86 641.464 2902.86 641.464 2906.76 641.883 2906.76 641.883 2909.76 651.409 2910.3 641.464 2910.65 641.464 2910.65 641.464 2914.55 641.464 2914.55 641.464 2918.45 641.464 2918.45 641.464 2921.26 642.859 2922.35 641.464 2922.35 641.464 2926.25 650.476 2926.25 650.476 2926.25 650.476 2926.46 650.48 2927.29 641.464 2930.15 641.464 2930.15 641.464 2934.05 641.464 2934.05 641.464 2936.74 643.527 2937.95 641.464 2937.95 641.464 2941.84 642.451 2941.84 642.451 2941.85 642.451 2945.74 658.604 2945.74 658.604 2945.74 658.604 2949.64 658.841 2949.64 658.841 2949.64 658.841 2953.13 658.852 2953.54 657.174 2953.54 657.174 2953.54 657.174 2953.72 641.464 2957.44 641.464 2957.44 641.464 2961.34 641.464 2961.34 641.464 2965.24 641.464 2965.24 641.464 2967.61 641.478 2969.14 641.464 2969.14 641.464 2973.03 641.6 2973.04 641.6 2973.04 641.601 2975.36 641.656 2976.93 641.639 2976.93 641.639 2980.83 641.956 2980.83 641.956 2982.06 641.464 2984.73 649.767 2984.73 649.767 2986.01 649.91 2988.63 649.893 2988.63 649.893 2992.53 648.043 2992.53 648.043 2992.53 648.043 2995.63 641.464 2996.43 641.464 2996.43 641.464 3000.33 641.464 3000.33 641.464 3004.23 641.464 3004.23 641.464 3006.53 641.476 3008.12 641.464 3008.12 641.464 3012.02 648.649 3012.02 648.649 3012.02 648.649 3012.93 646.736 3013.35 783.013 3015.92 776.441 3015.92 776.441 3019.82 773.492 3019.82 773.492 3019.82 773.492 3022.65 747.249 3023.72 752.651 3023.72 752.651 3027.32 753.401 3027.62 751.752 3027.62 751.752 3027.62 751.752 3031.51 734.264 3031.52 734.264 3031.52 734.264 3032.86 734.174 3035.41 738.288 3035.42 738.288 3035.42 738.288 3039.31 741.271 3039.31 741.271 3039.32 741.271 3043.21 741.894 3043.21 741.894 3043.21 741.894 3047.11 743.397 3047.11 743.397 3047.11 743.397 3049 743.684 3051.01 743.364 3051.01 743.364 3051.01 743.364 3054.91 743.316 3054.91 743.316 3054.91 743.315 3055.74 743.277 3058.54 749.391 3058.81 749.383 3058.81 749.383 3059.99 749.373 3062.58 753.09 3062.71 752.584 3062.71 752.584 3063.74 751.116 3066.61 752.815 3066.61 752.815 3066.61 752.815 3070.51 755.25 3070.51 755.25 3070.51 755.25 3071.73 757.186 3073.67 741.459 3074.4 741.715 3074.41 741.715 3074.69 741.817 3078.3 739.421 3078.3 739.421 3078.3 739.421 3082.12 707.825 3082.2 708.742 3082.2 708.742 3084.18 714.214 3086.1 702.033 3086.1 702.033 3086.1 702.033 3088.38 701.949 3090 703.351 3090 703.351 3090 703.351 3090.97 703.176 3093.9 709.375 3093.9 709.375 3093.9 709.375 3094.7 711.058 3097.76 649.309 3097.8 649.31 3097.8 649.31 3100.26 649.323 3101.69 649.28 3101.7 649.28 3101.7 649.28 3102.54 649.275 3104.54 650.487 3105.6 650.325 3105.6 650.325 3107.66 650.256 3109.49 650.693 3109.49 650.693 3109.49 650.693 3113.39 656.339 3113.39 656.339 3113.39 656.339 3115.2 657.797 3117.29 657.099 3117.29 657.099 3118.51 656.843 3121.19 661.656 3121.19 661.656 3121.19 661.656 3122.84 657.88 3125.08 670.193 3125.09 670.193 3125.09 670.193 3126.19 670.394 3128.98 666.428 3128.99 666.428 3128.99 666.399 3130.14 641.464 3132.89 651.093 3132.89 651.109 3136.18 652.946 3136.79 652.619 3136.79 652.618 3139.22 660.315 3140.68 642.866 3140.68 642.866 3140.73 641.464 3144.58 641.464 3144.58 641.464 3148.48 648.577 3148.48 648.577 3148.48 648.577 3149.37 651.865 3152.38 651.124 3152.38 651.124 3152.73 651.13 3154.32 641.464 3156.28 641.473 3156.28 641.473 3157.24 641.464 3160.18 641.464 3160.18 641.464 3164.08 642.109 3164.08 642.109 3164.08 642.109 3165.23 642.137 3166.35 641.464 3167.98 641.464 3167.98 641.464 3171.88 641.464 3171.88 641.464 3175.77 641.947 3175.77 641.947 3175.77 641.947 3177.08 642.105 3179.67 642.007 3179.67 642.007 3180.11 641.464 3182.49 642.961 3183.57 641.464 3183.57 641.464 3187.47 655.851 3187.47 655.851 3187.47 655.851 3188.07 655.942 3191.37 645.003 3191.37 645.003 3191.37 645.003 3191.39 641.464 3195.27 643.49 3195.27 643.49 3199.16 644.659 3199.17 644.659 3199.17 644.659 3203.06 646.046 3203.06 646.046 3203.07 646.046 3203.27 646.029 3206.96 646.387 3206.96 646.387 3206.96 646.387 3207.71 641.464 3210.86 645.136 3210.86 645.138 3214.76 645.775 3214.76 645.775 3214.76 645.779 3216.08 646.216 3217.48 641.464 3218.66 641.464 3218.66 641.464 3222.56 641.464 3222.56 641.464 3226.46 641.676 3226.46 641.676 3226.46 641.676 3230.36 642.778 3230.36 642.778 3230.36 642.778 3233.23 642.525 3234.25 644.523 3234.26 644.523 3234.26 644.523 3235.04 644.905 3235.9 641.464 3238.15 641.464 3238.15 641.464 3240.98 644.961 3242.05 644.803 3242.05 644.803 3242.45 644.792 3245.95 654.434 3245.95 654.434 3245.95 654.434 3247.21 654.511 3249.85 653.573 3249.85 653.573 3249.85 653.573 3252 653.745 3253 641.464 3253.75 641.464 3253.75 641.464 3257.22 642.719 3257.65 642.648 3257.65 642.648 3261.54 642.038 3261.55 642.038 3261.55 642.038 3262.78 641.464 3265.45 641.464 3265.45 641.464 3269.35 641.464 3269.35 641.464 3273.24 641.464 3273.24 641.464 3274.23 641.759 3277.14 641.464 3277.14 641.464 3281.04 641.464 3281.04 641.464 3284.94 641.464 3284.94 641.464 3288.83 642.614 3288.84 642.614 3288.84 642.616 3292.73 646.523 3292.74 646.523 3292.74 646.523 3296.58 646.772 3296.64 646.504 3296.64 646.504 3297.65 641.464 3300.54 643.667 3300.54 643.667 3301.7 643.817 3304.43 643.081 3304.43 643.081 3304.43 643.081 3305.39 643.43 3308.33 641.664 3308.33 641.664 3308.33 641.664 3310.37 641.671 3310.4 641.464 3312.23 641.464 3312.23 641.464 3316.13 649.569 3316.13 649.569 3316.13 649.569 3319.89 649.252 3320.03 649.67 3320.03 649.67 3320.03 649.67 3323.93 650.954 3323.93 650.954 3323.93 650.954 3325.55 651.666 3326.36 641.464 3327.83 641.464 3327.83 641.464 3331.73 641.464 3331.73 641.464 3335.62 641.943 3335.62 641.943 3335.63 641.943 3339.52 643.998 3339.52 643.998 3339.52 643.998 3342.97 643.72 3343.42 644.873 3343.42 644.873 3343.42 644.873 3345.52 645.751 3347.32 645.715 3347.32 645.715 3350.46 645.994 3351.22 641.753 3351.22 641.753 3351.22 641.753 3351.32 641.464 3355.12 641.485 3355.12 641.485 3359.01 641.637 3359.02 641.637 3359.02 641.637 3360.19 646.843 3362.32 641.464 3362.92 641.464 3362.92 641.464 3366.81 642.967 3366.82 642.967 3366.82 642.974 3368.93 641.723 3370.71 650.24 3370.71 650.24 3370.71 650.243 3374.61 650.501 3374.61 650.501 3374.61 650.501 3375.35 650.501 3378 649.661 3378.51 649.665 3378.51 649.665 3382.41 650.828 3382.41 650.828 3386.31 657.17 3386.31 657.17 3386.31 657.17 3388.04 660.611 3390.21 658.642 3390.21 658.642 3390.82 658.62 3392.17 665.642 3394.11 664.568 3394.11 664.568 3396.52 664.401 3398 664.982 3398.01 664.982 3398.01 664.982 3399.52 665.081 3401.9 663.471 3401.9 663.471 3401.9 663.471 3405.07 641.464 3405.8 641.464 3405.8 641.464 3409.7 641.681 3409.7 641.681 3409.7 641.681 3411.8 642.224 3411.96 641.464 3413.6 641.464 3413.6 641.464 3417.5 703.221 3417.5 703.221 3417.5 703.221 3420.88 704.316 3421.4 704.166 3421.4 704.166 3424.13 704.265 3425.29 700.147 3425.3 700.147 3425.3 700.147 3429.02 690.847 3429.2 691.174 3429.2 691.174 3430 688.069 3433.09 741.306 3433.1 741.306 3433.1 741.306 3436.75 741.44 3436.99 741.362 3436.99 741.362 3439.23 741.126 3440.89 741.219 3440.89 741.219 3444.19 742.589 3444.79 703.945 3444.79 703.945 3444.79 703.945 3448.69 644.683 3448.69 644.683 3448.69 644.682 3451.92 644.606 3452.59 644.63 3452.59 644.63 3452.65 644.631 3453.53 641.464 3456.49 643.414 3456.49 643.414 3456.82 643.56 3459.72 641.464 3460.39 641.464 3460.39 641.464 3462.97 641.758 3464.29 641.464 3464.29 641.464 3468.18 641.464 3468.18 641.464 3472.08 642.646 3472.08 642.646 3472.08 642.646 3474.34 643.624 3474.98 641.464 3475.98 641.464 3475.98 641.464 3479.88 641.464 3479.88 641.464 3483.21 668.181 3483.78 668.077 3483.78 668.077 3486.44 668.028 3487.68 668.132 3487.68 668.132 3487.68 668.132 3490.52 668.119 3491.57 668.135 3491.58 668.135 3491.58 668.135 3495.47 675.456 3495.48 675.456 3495.48 675.456 3499.37 677.299 3499.37 677.299 3499.38 677.299 3503.27 680.683 3503.27 680.683 3503.27 680.683 3507.17 681.18 3507.17 681.18 3507.17 681.18 3507.97 681.217 3509.7 680.968 3511.07 681.175 3511.07 681.175 3511.71 681.186 3514.97 679.05 3514.97 679.05 3514.97 679.05 3515.32 678.932 3517.62 685.94 3518.87 685.256 3518.87 685.256 3521.19 687.125 3522.76 680.359 3522.77 680.359 3522.77 680.359 3524.66 680.379 3526.66 663.587 3526.67 663.587 3526.67 663.585 3530.56 663.076 3530.56 663.076 3530.57 663.07 3534.46 662.288 3534.46 662.288 3536.13 662.413 3537.3 662.027 3538.36 662.056 3538.36 662.056 3541.21 662.059 3542.26 661.662 3542.26 661.662 3542.26 661.662 3544.05 659.488 3546.16 670.941 3546.16 670.941 3546.16 670.941 3548.4 667.344 3550.06 707.325 3550.06 707.325 3550.06 707.325 3553.96 714.691 3553.96 714.691 3553.96 714.691 3557.8 718.294 3557.86 717.847 3557.86 717.847 3561.75 701.736 3561.76 701.736 3561.76 701.736 3563.19 694.678 3565.65 757.417 3565.65 757.417 3565.66 757.417 3567.58 757.431 3569.55 757.372 3569.55 757.372 3569.55 757.372 3570.53 757.37 3573.42 758.224 3573.45 758.19 3573.45 758.19 3577.35 757.231 3577.35 757.231 3577.35 757.231 3577.79 757.23 3581.25 759.182 3581.25 759.182 3581.25 759.182 3584.59 763.268 3585.15 761.155 3585.15 761.155 3589.04 737.43 3589.05 737.43 3589.05 737.43 3589.64 737.385 3592.94 742.625 3592.95 742.625 3592.95 742.625 3596.84 742.631 3596.85 742.631 3596.85 742.631 3598.97 742.631 3600.74 742.227 3600.74 742.227 3600.74 742.227 3604.64 740.903 3604.64 740.903 3604.64 740.903 3607.56 739.252 3608.54 742.086 3608.54 742.086 3608.54 742.091 3612.44 747.045 3612.44 747.045 3612.44 747.047 3616.34 747.612 3616.34 747.612 3616.87 747.613 3618.96 747.269 3620.24 747.289 3620.24 747.289 3624.14 749.346 3624.14 749.346 3624.14 749.346 3625.61 749.351 3628.03 748.778 3628.04 748.778 3628.04 748.778 3630.43 748.845 3631.93 734.01 3631.93 734.01 3631.93 734.01 3635.83 715.809 3635.83 715.809 3635.83 715.809 3639.73 703.441 3639.73 703.441 3639.73 703.441 3640.68 703.434 3643.63 704.086 3643.63 704.086 3643.63 704.086 3646.62 704.09 3647.53 704.049 3647.53 704.049 3647.53 704.049 3648.48 704.092 3651.43 685.658 3651.43 685.658 3651.43 685.658 3655.32 676.671 3655.33 676.671 3655.33 676.671 3658.67 647.829 3659.23 649.286 3659.23 649.286 3659.76 649.755 3661.91 641.464 3663.12 641.464 3663.13 641.464 3667.02 646.66 3667.02 646.66 3667.02 646.66 3670.92 647.04 3670.92 647.04 3670.92 647.04 3671.06 647.041 3672.6 641.464 3674.82 641.464 3674.82 641.464 3678.72 642.332 3678.72 642.332 3678.72 642.332 3682.02 644.139 3682.62 643.968 3682.62 643.968 3682.67 643.96 3684.87 649.36 3686.52 647.999 3686.52 647.998 3689.02 648.022 3690.41 645.224 3690.42 645.224 3690.42 645.221 3692.98 641.464 3694.32 641.464 3694.32 641.464 3698.21 641.464 3698.21 641.464 3702.11 641.603 3702.11 641.603 3702.11 641.603 3706.01 641.721 3706.01 641.721 3706.01 641.721 3708.92 641.723 3709.91 641.577 3709.91 641.577 3709.91 641.577 3712.67 643.985 3713.2 641.464 3713.81 641.464 3713.81 641.464 3717.71 643.245 3717.71 643.245 3717.71 643.245 3721.61 650.646 3721.61 650.646 3721.61 650.646 3725.5 651.281 3725.51 651.281 3725.51 651.281 3728.58 651.48 3729.4 651.479 3729.4 651.479 3729.91 651.505 3733.3 651.152 3733.3 651.152 3733.3 651.152 3734.89 654.861 3736.91 645.469 3737.2 646.308 3737.2 646.308 3740.28 647.711 3741.1 647.705 3741.1 647.705 3742.1 647.703 3745 649.174 3745 649.174 3745 649.174 3745.46 649.177 3748.9 646.93 3748.9 646.93 3748.9 646.93 3750.87 641.464 3752.8 646.387 3752.8 646.387 3756.28 646.469 3756.7 646.469 3756.7 646.469 3760.46 646.673 3760.59 646.458 3760.6 646.458 3760.6 646.458 3763.76 641.464 3764.49 641.464 3764.49 641.464 3768.39 641.464 3768.39 641.464 3772.29 641.464 3772.29 641.464 3774.28 641.621 3776.19 641.464 3776.19 641.464 3779.73 649.421 3780.09 647.121 3780.09 647.121 3780.64 641.464 3783.99 641.464 3783.99 641.464 3787.89 644.266 3787.89 644.266 3787.89 644.266 3790.48 641.464 3791.78 704.972 3791.79 704.972 3791.79 704.972 3795.39 706.499 3795.68 705.72 3795.68 705.72 3799.58 688.01 3799.58 688.01 3799.58 688.01 3803.48 684.5 3803.48 684.5 3803.48 684.5 3807.38 658.541 3807.38 658.541 3807.38 658.541 3809.71 657.395 3811.28 664.526 3811.28 664.526 3811.28 664.526 3815.18 665.554 3815.18 665.554 3815.18 665.554 3818.68 671.641 3819.08 671.076 3819.08 671.076 3822.97 666.11 3822.98 666.11 3822.98 666.11 3824.62 659.798 3826.88 662.007 3826.88 662.007 3830.77 662.201 3830.77 662.201 3830.77 662.201 3834.67 662.407 3834.67 662.407 3834.67 662.407 3836.01 662.469 3837.41 659.275 3838.57 661.423 3838.57 661.423 3840.05 661.458 3842.4 641.464 3842.47 641.464 3842.47 641.464 3846.37 641.464 3846.37 641.464 3850.26 646.803 3850.27 646.803 3850.27 646.806 3851.92 647.057 3854.17 645.771 3854.17 645.771 3855 645.667 3858.06 649.034 3858.07 649.034 3861.96 653.109 3861.96 653.109 3861.96 653.109 3865.01 654.063 3865.86 650.114 3865.86 650.114 3865.86 650.114 3866.4 641.464 3869.76 641.765 3869.76 641.765 3871.19 641.759 3873.66 645.597 3873.66 645.597 3873.66 645.597 3877.56 655.196 3877.56 655.196 3877.56 655.196 3879.55 655.577 3880.61 641.464 3881.46 641.464 3881.46 641.464 3885.35 642.936 3885.36 642.936 3885.36 642.936 3887.34 643.416 3889.25 642.808 3889.26 642.808 3889.26 642.808 3889.34 642.802 3893.15 643.736 3893.15 643.736 3893.15 643.736 3897.05 643.741 3897.05 643.741 3897.05 643.741 3899.96 643.484 3900.95 644.556 3900.95 644.556 3900.95 644.556 3901.23 644.587 3901.59 641.464 3904.85 642.602 3904.85 642.602 3905.18 641.464 3908.75 647.61 3908.75 647.61 3908.75 647.61 3909.92 648.201 3910.62 641.464 3912.65 641.464 3912.65 641.464 3915.53 641.469 3916.55 641.464 3916.55 641.464 3918.18 641.464 3920.45 641.464 3920.45 641.464 3924.34 641.788 3924.35 641.788 3924.35 641.813 3928.24 645.228 3928.24 645.228 3928.24 645.229 3930.02 650.971 3930.77 641.464 3932.14 641.464 3932.14 641.464 3936.04 641.464 3936.04 641.464 3939.94 641.508 3939.94 641.508 3939.94 641.508 3941.88 641.497 3943.84 643.03 3943.84 643.03 3943.84 643.03 3945.81 645.74 3947.74 644.416 3947.74 644.416 3947.98 644.396 3949.49 645.11" stroke="#000000" stroke-width="15.5951" stroke-linejoin="round" stroke-miterlimit="10" fill="none" fill-rule="evenodd"/><path d="M2121.54 1942.11 2123.09 1942.11 2123.1 1942.11 2126.99 1911.31 2126.99 1911.31 2126.99 1911.31 2127.57 1907.88 2128.2 1942.11 2130.89 1939.03 2130.89 1939.03 2133.89 1887.12 2134.79 1887.22 2134.79 1887.22 2135.27 1888.13 2137.49 1882.72 2138.69 1884.63 2138.69 1884.63 2140.47 1884.54 2141.91 1942.11 2142.59 1942.11 2142.59 1942.11 2146.49 1942.11 2146.49 1942.11 2150.38 1941.98 2150.39 1941.98 2150.39 1941.98 2150.63 1941.97 2150.9 1942.11 2154.29 1942.11 2154.29 1942.11 2158.18 1941.09 2158.18 1941.09 2158.18 1941.09 2160.02 1937.89 2160.78 1942.11 2162.08 1941.46 2162.08 1941.46 2165.98 1940.59 2165.98 1940.59 2165.98 1940.59 2166.25 1942.11 2168.38 1924.82 2169.88 1935.65 2169.88 1935.65 2170.54 1939.29 2173.78 1937.52 2173.78 1937.52 2177.63 1937.76 2177.67 1937.42 2177.68 1937.42 2177.68 1937.39 2179.01 1934.13 2181.57 1937.44 2181.58 1937.44 2181.58 1937.47 2182.76 1939.77 2185.48 1913.81 2185.48 1913.81 2189.37 1739.23 2189.38 1739.23 2191.22 1738.79 2193.27 1742.51 2193.27 1742.51 2193.27 1742.51 2194.65 1743.31 2197.17 1735.34 2197.17 1735.34 2197.17 1735.34 2198.81 1493.08 2201.07 1505.84 2201.07 1505.84 2203.36 1505.28 2204.97 1513.69 2204.97 1513.69 2204.97 1513.69 2206.04 1512.25 2208.14 1525.7 2208.87 1525.62 2208.87 1525.62 2209.16 1525.61 2212.62 1541.34 2212.77 1540.87 2212.77 1540.87 2216.66 1523.97 2216.67 1523.97 2216.67 1523.97 2219 1447.54 2220.57 1455.78 2220.57 1455.78 2220.73 1456.17 2224.46 998.547 2224.46 998.547 2224.46 998.547 2228.14 721.773 2228.36 733.136 2228.36 733.136 2230.41 735.22 2232.26 733.747 2232.26 733.747 2233.63 736.86 2236.16 725.849 2236.16 725.849 2236.16 725.849 2239.32 726.923 2240.06 723.928 2240.06 723.928 2240.06 723.928 2241.23 715.947 2243.96 716.329 2243.96 716.329 2244.63 641.464 2247.86 641.468 2247.86 641.468 2249.04 641.464 2251.75 696.734 2251.76 696.734 2251.76 696.734 2252.93 641.464 2255.65 725.929 2255.65 725.929 2255.65 725.929 2256.64 726.145 2257.67 724.253 2259.55 725.509 2259.55 725.509 2261.32 723.648 2263.45 759.205 2263.45 759.205 2263.45 759.219 2264.35 758.543 2267.35 1023.74 2267.35 1023.74 2270.62 967.058 2271.25 1229.81 2271.25 1229.81 2275.15 1485.19 2275.15 1485.19 2275.15 1485.19 2275.41 1485.32 2278.3 1481.03 2279.05 1485.28 2279.05 1485.28 2280.12 1488.87 2282.94 1441.19 2282.95 1441.19 2282.95 1441.19 2285.77 1437.4 2286.84 1451.56 2286.84 1451.56 2286.85 1451.56 2288.58 1450.64 2290.48 1477.03 2290.74 1476.98 2290.74 1476.98 2294.64 1384.65 2294.64 1384.65 2294.64 1384.65 2297.97 1365.46 2298.54 1419.09 2298.54 1419.09 2298.54 1419.09 2302.41 1525.37 2302.44 1525.31 2302.44 1525.31 2304.31 1496.14 2305.1 1759.96 2306.34 1759.64 2306.34 1759.64 2309.07 1756.02 2309.9 1850.6 2310.24 1846.76 2310.24 1846.76 2311.15 1593.96 2314.14 1697.52 2314.14 1697.52 2317.62 1697.49 2318.03 1698.77 2318.04 1698.77 2318.04 1698.77 2318.64 1699.48 2319.68 1663.82 2321.93 1678.97 2321.93 1678.97 2325.26 1687.16 2325.83 1643.05 2325.83 1643.05 2325.83 1643.05 2327.07 1641.95 2328.95 1643.16 2329.73 1642.57 2329.73 1642.57 2330.93 1642.04 2333.63 1716.49 2333.63 1716.49 2333.63 1716.49 2337.44 1717.63 2337.53 1717.57 2337.53 1717.57 2339.12 1716.24 2340.83 1721.23 2341.43 1719.84 2341.43 1719.84 2345.33 1691.03 2345.33 1691.03 2348.01 1687.61 2349.23 1826.62 2349.23 1826.62 2353.12 1828.45 2353.12 1828.45 2353.13 1828.45 2355.11 1828.46 2357.02 1796.84 2357.02 1796.84 2357.02 1796.84 2360.92 1796.59 2360.92 1796.59 2360.92 1796.59 2363.59 1693.26 2364.82 1703.72 2364.82 1703.72 2367.89 1714.5 2368.72 1702.33 2368.72 1702.33 2368.72 1702.33 2371.89 1540.04 2372.62 1551.55 2372.62 1551.55 2373.3 1554.22 2376.52 1410.44 2376.52 1410.44 2376.52 1410.44 2378.82 1297.29 2380.42 1299.34 2380.42 1299.34 2384.31 1304.89 2384.32 1304.89 2384.32 1304.89 2386.42 1300.18 2387.48 1687.21 2388.21 1682.55 2388.21 1682.55 2389.63 1621.06 2392.11 1621.94 2392.11 1621.94 2394.58 1619.12 2396.01 1626.22 2396.01 1626.22 2396.01 1626.22 2399.11 1540.94 2399.78 1742.49 2399.91 1740.18 2399.91 1740.18 2400.98 1734.63 2401.24 1942.11 2403.81 1941.39 2403.81 1941.39 2405.07 1942.11 2407.7 1939.53 2407.71 1939.53 2407.71 1939.53 2408.18 1939.43 2409.27 1942.11 2411.61 1941.96 2411.61 1941.96 2411.62 1941.94 2411.63 1942.11 2415.51 1942.11 2415.51 1942.11 2416.39 1941.98 2419.4 1942.11 2419.4 1942.11 2421.05 1941.43 2423.3 1942.11 2423.3 1942.11 2427.2 1917.35 2427.2 1917.35 2429.54 1915.35 2430.85 1920.14 2431.1 1920.12 2431.1 1920.12 2431.88 1920.69 2435 1892.8 2435 1892.8 2435 1892.8 2437.99 1716.34 2438.9 1719.14 2438.9 1719.14 2442.68 1735.86 2442.8 1735.83 2442.8 1735.83 2442.98 1735.8 2446.69 1743.68 2446.7 1743.68 2446.7 1743.68 2449.68 1782.97 2450.59 1781.19 2450.6 1781.19 2450.67 1781.15 2452.91 1783.5 2454.49 1782.56 2454.49 1782.56 2456.15 1942.11 2458.39 1942.11 2458.39 1942.11 2462.29 1931.33 2462.29 1931.33 2462.29 1931.33 2462.31 1930.54 2464.5 1938.73 2466.19 1935.19 2466.19 1935.19 2466.63 1934.85 2468.32 1935.93 2470.09 1934.99 2470.09 1934.99 2470.46 1934.98 2470.89 1942.11 2473.99 1938.37 2473.99 1938.37 2474.02 1938.35 2475.35 1942.11 2477.89 1942.11 2477.89 1942.11 2481.78 1941.53 2481.79 1941.53 2481.79 1941.53 2485.68 1937.16 2485.68 1937.16 2485.68 1937.16 2486.8 1936.76 2489.58 1938.88 2489.58 1938.88 2489.58 1938.88 2490.25 1937.37 2491.18 1942.11 2493.48 1941.89 2493.48 1941.89 2495.78 1907.4 2496.29 1942.11 2497.38 1942.11 2497.38 1942.11 2500.75 1937.59 2501.28 1941.74 2501.28 1941.76 2501.38 1942.11 2505.18 1938.77 2505.18 1938.77 2508.7 1934.66 2509.08 1935.83 2509.08 1935.83 2510.69 1936.79 2512.98 1914.67 2512.98 1914.67 2512.98 1914.67 2514.13 1914.59 2516.87 1926.67 2516.87 1926.67 2516.88 1926.67 2517.23 1926.71 2519.6 1924.39 2520.77 1924.8 2520.77 1924.8 2521.87 1921.58 2524.67 1927.78 2524.67 1927.78 2524.67 1927.78 2526.4 1934.48 2528.57 1928.3 2528.57 1928.3 2528.64 1928.27 2531.41 1942.11 2532.47 1942.11 2532.47 1942.11 2535.45 1940.79 2536.37 1942.11 2536.37 1942.11 2540.27 1930.7 2540.27 1930.7 2540.27 1930.7 2542.79 1866.61 2544.17 1885.69 2544.17 1885.69 2544.64 1886.93 2546.07 1857.6 2548.06 1870.57 2548.07 1870.57 2550.39 1869.59 2551.96 1877.28 2551.96 1877.28 2551.96 1877.28 2552.89 1877.6 2554.7 1860.29 2555.86 1862.18 2555.86 1862.18 2558.82 1861.46 2559.76 1862.72 2559.76 1862.72 2559.76 1862.72 2562.32 1867.17 2563.66 1832.13 2563.66 1832.13 2563.66 1832.13 2564.93 1805.58 2567.1 1877.05 2567.56 1876.39 2567.56 1876.39 2568.6 1875.81 2570.61 1883.91 2571.46 1883.46 2571.46 1883.46 2571.61 1883.38 2574.75 1937.67 2575.36 1931.27 2575.36 1931.23 2579.25 1833.23 2579.26 1833.23 2579.26 1833.23 2580.47 1833.19 2583.15 1836.45 2583.15 1836.45 2585.04 1831.74 2587.05 1889.77 2587.05 1889.77 2590.36 1894.81 2590.95 1891.63 2590.95 1891.63 2594.03 1880.58 2594.85 1882.12 2594.85 1882.12 2598.75 1892.04 2598.75 1892.04 2598.75 1892.04 2600.47 1893.38 2602.65 1888.99 2602.65 1888.99 2602.65 1888.99 2606.55 1645.04 2606.55 1645.04 2606.55 1645.04 2610.44 1507.19 2610.45 1507.19 2610.45 1507.19 2610.98 1506.25 2613.33 1510.5 2614.34 1507.77 2614.35 1507.77 2618.24 1302.9 2618.24 1302.9 2618.24 1302.9 2618.84 1302.72 2621.3 1381.33 2622.14 1377.25 2622.14 1377.25 2624.99 1343.83 2626.04 1360.53 2626.04 1360.53 2626.71 1360.61 2629.11 1332.49 2629.94 1333.06 2629.94 1333.06 2633.26 1339.19 2633.84 1339.18 2633.84 1339.18 2637.73 1334.5 2637.74 1334.5 2637.74 1334.5 2637.89 1328.15 2639.88 1440.67 2641.64 1405.19 2641.64 1405.19 2644.74 1385.2 2645.54 1385.21 2645.54 1385.21 2648.69 1397.85 2649.43 1397.63 2649.43 1397.63 2649.68 1397.6 2653.33 1430.75 2653.33 1430.75 2653.33 1430.77 2655.55 1440.88 2657.23 1435.7 2657.23 1435.69 2658.39 1391.38 2661.13 1438.69 2661.13 1438.69 2665.03 1445.6 2665.03 1445.6 2668.13 1444.17 2668.93 1449.73 2668.93 1449.73 2668.93 1449.73 2670.55 1460.32 2672.83 1458.68 2672.83 1458.68 2673.11 1458.67 2674.77 1470.03 2676.73 1464.62 2676.73 1464.62 2677.67 1465 2680.62 1317.88 2680.62 1317.88 2680.63 1317.88 2684.52 1310.27 2684.52 1310.27 2684.52 1310.27 2686.92 1270.62 2688.42 1284.63 2688.42 1284.63 2692.32 1316.91 2692.32 1316.91 2692.32 1316.91 2693.16 1316.78 2696.22 1324.68 2696.22 1324.68 2696.22 1324.68 2697.87 1351.2 2700.12 1246.6 2700.12 1246.6 2700.12 1246.6 2704.02 1004.47 2704.02 1004.47 2704.02 1004.47 2707.91 803.434 2707.92 803.434 2707.92 803.434 2709.8 798.069 2711.81 1091.63 2711.81 1091.63 2711.82 1091.63 2712.32 1092.74 2715.02 1011.01 2715.71 1011.22 2715.71 1011.22 2718.14 1010.96 2718.71 1016.38 2719.61 1015.37 2719.61 1015.37 2723.51 990.365 2723.51 990.365 2723.51 990.365 2727.41 986.799 2727.41 986.799 2727.41 986.799 2728.8 996.422 2730.19 641.464 2731.31 641.464 2731.31 641.464 2732.86 642.448 2735.21 641.464 2735.21 641.464 2739.1 726.765 2739.11 726.765 2739.11 726.971 2741.21 730.908 2742.57 641.464 2743.01 641.464 2743.01 641.464 2746.9 641.464 2746.9 641.464 2750.8 652.04 2750.8 652.04 2750.8 652.04 2751.76 641.464 2754.7 1069.02 2754.7 1069.02 2754.7 1069.02 2757.17 1074.69 2758.6 1028.25 2758.6 1028.25 2758.6 1028.25 2759.24 1026.98 2762.5 1198.79 2762.5 1198.79 2762.5 1198.79 2762.52 1198.8 2764.17 1020.95 2766.4 1081 2766.4 1081 2767.51 981.438 2770.3 998.718 2770.3 998.718 2773.27 980.766 2773.81 1181.39 2774.2 1175.31 2774.2 1175.31 2775.24 1138.12 2776.7 1261.46 2778.09 1167.22 2778.1 1167.22 2781.99 924.09 2781.99 924.09 2781.99 924.09 2783.25 784.617 2785.89 842.656 2785.89 842.656 2788.45 883.475 2789.79 862.75 2789.79 862.75 2790.9 851.888 2793.69 862.67 2793.69 862.67 2794.91 867.697 2796.36 641.464 2797.59 707.551 2797.59 707.551 2800.41 731.263 2800.5 641.464 2801.49 641.986 2801.49 641.986 2803.44 641.464 2805.38 1051.1 2805.39 1051.1 2805.39 1051.1 2809.28 1168.04 2809.29 1168.04 2809.29 1168.04 2813.18 1291.13 2813.18 1291.13 2813.18 1291.19 2815.37 1296.65 2817.08 1285.58 2817.08 1285.58 2817.08 1285.53 2817.17 1284.86 2820.98 1467.97 2820.98 1467.97 2823.44 1838.6 2824.88 1832.34 2824.88 1832.34 2826.03 1829.92 2827.08 1942.11 2828.78 1942.11 2828.78 1942.11 2832.01 1929.58 2832.68 1942.11 2832.68 1942.11 2836.58 1939.65 2836.58 1939.65 2836.58 1939.65 2837.98 1890.31 2840.48 1898.55 2840.48 1898.55 2841.23 1873.97 2844.37 1931.74 2844.38 1931.74 2844.38 1931.74 2846.82 1931.67 2847.44 1942.11 2848.27 1942.11 2848.27 1942.11 2852.17 1759.39 2852.17 1759.39 2852.17 1759.39 2852.51 1758.25 2853.09 1846.83 2856.07 1827.54 2856.07 1827.54 2857.6 1942.11 2859.97 1743.3 2859.97 1743.3 2859.97 1743.3 2860.75 1711.29 2863.87 1726.92 2863.87 1726.92 2864.69 1724.37 2867.65 1781.07 2867.77 1780.96 2867.77 1780.96 2871.66 1777.77 2871.67 1777.77 2871.67 1777.77 2872.4 1781.49 2875.56 1745.5 2875.57 1745.5 2875.57 1745.5 2875.81 1745.45 2879.46 1753.48 2879.46 1753.48 2879.46 1753.48 2881.43 1755.65 2883.36 1714.59 2883.36 1714.59 2883.36 1714.59 2887.26 1405.53 2887.26 1405.53 2887.26 1405.53 2888.45 1049.38 2891.16 1053.76 2891.16 1053.76 2892.92 1063.88 2894.38 927.607 2895.06 930.97 2895.06 930.977 2898.96 949.485 2898.96 949.485 2901.41 950.091 2902.86 929.224 2902.86 929.224 2903.73 929.558 2904.49 928.682 2906.76 929.357 2906.76 929.357 2908.44 934.514 2910.65 842.081 2910.65 842.081 2910.65 842.081 2914.55 642.998 2914.55 642.998 2914.55 642.998 2914.65 641.464 2918.45 644.958 2918.45 644.958 2918.45 644.958 2920.38 645.726 2922.33 644.876 2922.35 645.039 2922.35 645.039 2922.69 641.464 2924.09 831.853 2926.25 797.026 2926.25 797.026 2926.58 797.531 2929.56 763.493 2930.15 764.243 2930.15 764.243 2934.05 930.879 2934.05 930.879 2934.05 930.879 2936.08 914.127 2937.94 955.218 2937.95 955.218 2937.95 955.218 2938.85 959.664 2941.72 862.125 2941.84 863.394 2941.85 863.394 2942.61 894.938 2945.74 844.832 2945.74 844.832 2945.74 844.832 2946.83 823.628 2949.64 835.098 2949.64 835.098 2949.75 834.878 2953.54 838.459 2953.54 838.459 2953.54 838.459 2957.44 893.674 2957.44 893.674 2957.44 893.674 2957.56 893.752 2961.33 866.109 2961.34 866.109 2961.34 866.109 2964.39 641.464 2965.24 641.464 2965.24 641.464 2967.38 660.01 2969.14 649.45 2969.14 649.45 2970.36 649.284 2973.03 659.73 2973.04 659.73 2973.04 659.766 2976.05 667.497 2976.93 662.226 2976.93 662.211 2977.18 641.464 2980.83 641.464 2980.83 641.464 2983.62 645.168 2984.73 641.464 2984.73 641.464 2988.63 706.246 2988.63 706.246 2988.63 706.246 2992.13 710.019 2992.53 705.972 2992.53 705.972 2992.53 705.972 2992.86 641.464 2996.43 641.464 2996.43 641.464 3000.21 676.72 3000.33 675.673 3000.33 675.673 3002.13 701.835 3003.62 641.464 3004.23 641.599 3004.23 641.599 3004.65 641.464 3008.12 642.623 3008.12 642.623 3008.12 642.623 3009.04 656.764 3009.44 641.464 3012.02 641.513 3012.02 641.513 3014.53 654.992 3015.6 641.464 3015.92 641.464 3015.92 641.464 3019.82 654.076 3019.82 654.076 3019.82 654.076 3021.04 658.549 3021.99 641.464 3023.72 647.341 3023.72 647.341 3024.36 641.464 3025.63 675.527 3027.62 665.083 3027.62 665.083 3029.9 1009.04 3031.52 978.678 3031.52 978.678 3035.41 783.222 3035.42 783.222 3035.42 783.222 3037.36 745.434 3039.31 746.04 3039.32 746.04 3039.68 748.57 3040.77 641.464 3043.21 641.464 3043.21 641.464 3047.11 854.091 3047.11 854.091 3047.11 854.091 3049.91 1221.76 3051.01 1214.4 3051.01 1213.31 3054.79 1174.43 3054.91 1174.45 3054.91 1174.46 3058.81 1174.65 3058.81 1174.65 3059.04 1174.96 3062.71 1074.27 3062.71 1074.27 3063.41 1074.98 3065.59 1073.07 3066.61 1073.65 3066.61 1073.65 3070.44 1113.52 3070.51 1113.51 3070.51 1113.51 3074.4 1112.73 3074.4 1112.73 3074.41 1112.73 3075 1112.71 3078.3 1116.77 3078.3 1116.77 3078.3 1116.77 3080.44 1117.47 3082.2 1115.42 3082.2 1115.42 3082.2 1115.42 3086.1 1114.91 3086.1 1114.91 3086.1 1114.91 3086.45 1114.88 3087.97 1146.55 3090 1142.7 3090 1142.7 3090.26 1142.62 3092.36 1148.52 3093.9 1146.18 3093.9 1146.18 3094.67 1146.08 3097.79 1150.74 3097.8 1150.74 3097.8 1150.74 3099.87 1275.5 3101.7 1271.14 3101.7 1271.14 3104.27 1271.17 3105.59 1252.65 3105.6 1252.65 3105.6 1252.65 3106.28 1251.56 3108.49 1287.9 3109.49 1287.48 3109.49 1287.48 3109.84 1287.44 3113.39 1289.56 3113.39 1289.56 3113.39 1289.56 3114.46 1289.89 3117.29 1169.19 3117.29 1169.19 3117.29 1169.19 3121.04 1168.33 3121.19 1169.66 3121.19 1169.66 3121.19 1169.66 3125.08 1379.14 3125.09 1379.14 3125.09 1379.14 3128 1442.44 3128.99 1441.17 3128.99 1441.17 3131.46 1442.27 3132.88 1399.91 3132.89 1399.91 3132.89 1399.94 3135.17 1403.38 3136.78 1384.16 3136.79 1384.16 3136.79 1384.16 3140.68 1279.73 3140.68 1279.73 3141.47 1279.7 3144.58 1297.94 3144.58 1297.94 3146.78 1305.63 3148.08 1292.62 3148.48 1293.39 3148.48 1293.39 3148.58 1293.14 3150.23 1395.82 3152.38 1355.95 3152.38 1355.95 3153.28 1355.8 3154.89 1356.1 3156.28 1356.04 3156.28 1356.04 3159.67 1355.26 3160.18 1355.34 3160.18 1355.34 3163.32 1368.23 3164.08 1340.55 3164.08 1340.55 3164.08 1340.55 3167.97 1208.66 3167.98 1208.66 3167.98 1208.66 3171.43 1204.09 3171.87 1353.92 3171.88 1353.92 3171.88 1353.92 3172.35 1355.79 3175.11 1285.6 3175.77 1285.66 3175.77 1285.66 3177.08 1289.85 3178.76 1253.86 3179.67 1264.51 3179.67 1264.51 3183.57 1215.19 3183.57 1215.19 3183.57 1215.19 3184.3 1214.18 3187.47 1240.9 3187.47 1240.9 3187.47 1240.9 3190.99 1246.92 3191.37 1246.13 3191.37 1246.13 3193.45 1242.17 3195.24 1393.7 3195.27 1393.41 3195.27 1393.41 3199.16 1292.52 3199.17 1292.52 3199.17 1292.52 3203.06 1223.29 3203.06 1223.29 3203.07 1223.29 3203.43 1221.44 3206.96 1341.99 3206.96 1341.99 3206.96 1341.99 3210.86 1345.2 3210.86 1345.2 3210.86 1345.23 3214.05 1070.59 3214.76 1369.33 3214.76 1369.33 3214.76 1369.37 3217.77 1375.7 3218.66 1374.85 3218.66 1374.85 3220.48 1374.63 3222.16 1378.78 3222.56 1377.91 3222.56 1377.91 3222.77 1377.66 3226.46 1396.53 3226.46 1396.53 3226.46 1396.53 3230.36 1402.12 3230.36 1402.12 3230.36 1402.12 3234.25 1416.54 3234.26 1416.54 3234.26 1416.54 3236.62 1417.56 3238.15 1410.8 3238.15 1410.8 3238.15 1410.8 3239.69 1405.42 3242.05 1408.55 3242.05 1408.55 3244.21 1423.96 3245.78 1381.05 3245.95 1388.87 3245.95 1388.87 3249.85 1457.3 3249.85 1457.3 3249.85 1457.3 3251.07 1458.21 3253.75 1384.44 3253.75 1384.44 3253.75 1384.44 3256.6 1264.56 3257.65 1304.67 3257.65 1304.67 3257.99 1306.76 3261 1237.65 3261.55 1239.54 3261.55 1239.54 3264.34 1245.91 3265.45 1242.97 3265.45 1242.97 3266.32 1265.8 3269.35 1260.79 3269.35 1260.79 3269.98 1261.12 3273.08 1207.45 3273.24 1208.86 3273.24 1208.86 3275.7 1213.65 3277.14 1211.9 3277.14 1211.9 3279.56 1099.08 3281.04 1101.14 3281.04 1101.14 3283.23 1100.37 3284.94 1155.58 3284.94 1155.58 3284.94 1155.58 3287.87 1156.23 3288.83 1041.97 3288.84 1041.97 3288.84 1041.96 3291.71 1014.73 3292.73 1256.13 3292.74 1256.13 3292.74 1256.16 3296.64 1283.75 3296.64 1283.75 3300.54 1289.96 3300.54 1289.96 3303.68 1301.6 3304.43 1294.69 3304.43 1294.69 3307.15 1152.3 3308.33 1165.55 3308.33 1165.55 3309.95 1168.84 3311.72 1068.58 3312.23 1074.18 3312.23 1074.18 3312.97 1083.08 3316.13 998.531 3316.13 998.531 3316.13 998.531 3318.44 990.866 3319.66 999.002 3320.03 992.722 3320.03 992.722 3323.78 876.554 3323.93 877.023 3323.93 877.023 3324.65 880.201 3327.83 720.551 3327.83 720.551 3327.83 720.551 3328.23 708.535 3330.23 834.365 3331.73 826.028 3331.73 826.028 3334.54 926.592 3335.62 797.766 3335.62 797.766 3335.63 797.766 3336.1 790.704 3337.48 1082.63 3339.52 1022.42 3339.52 1022.42 3342.76 955.846 3343.42 979.064 3343.42 979.064 3344.43 641.464 3347.32 641.464 3347.32 641.464 3348.52 945.959 3351.22 787.033 3351.22 787.033 3355.12 918.833 3355.12 918.833 3355.12 918.833 3357.01 1065.1 3359.01 906.792 3359.02 906.792 3359.02 906.792 3361.74 979.573 3362.91 901.771 3362.92 901.771 3362.92 901.771 3365.41 920.475 3366.55 888.353 3366.82 889.928 3366.82 889.949 3370.71 1042.67 3370.71 1042.67 3370.71 1042.69 3371.24 1044.04 3373.65 641.464 3374.61 641.464 3374.61 641.464 3378.51 641.464 3378.51 641.464 3382.41 887.18 3382.41 887.18 3384.75 1065.19 3386.31 1063.89 3386.31 1063.89 3386.86 1064.57 3389.91 928.999 3390.21 938.209 3390.21 938.209 3391.31 975.535 3392.51 926.518 3394.11 962.302 3394.11 962.302 3394.86 971.764 3397.11 775.489 3398.01 784.424 3398.01 784.424 3398.67 791.566 3401.9 732.514 3401.9 732.514 3401.9 732.514 3403.78 681.718 3405.8 1084.29 3405.8 1084.29 3405.8 1084.29 3407.15 1083.24 3409.7 1441.4 3409.7 1441.4 3409.7 1441.4 3413.6 1654.76 3413.6 1654.76 3413.6 1654.76 3417.5 1659.18 3417.5 1659.18 3417.5 1659.18 3419.51 1547.07 3421.4 1707.87 3421.4 1707.87 3421.4 1707.87 3424.43 1717.48 3425.3 1716.04 3425.3 1716.04 3427.02 1686.03 3428.05 1942.11 3429.2 1942.11 3429.2 1942.11 3433.09 1936.83 3433.1 1936.83 3433.1 1936.83 3435.06 1761.9 3436.99 1845.28 3436.99 1845.28 3437.54 1847.77 3440.38 1839.23 3440.89 1842.16 3440.89 1842.16 3444.79 1855.84 3444.79 1855.84 3444.79 1855.84 3447.08 1942.11 3448.69 1886.75 3448.69 1886.45 3449.3 1878.99 3452.58 1892.44 3452.59 1892.44 3452.59 1892.47 3452.75 1942.11 3456.49 1919.44 3456.49 1919.44 3457.16 1917.88 3460.39 1942.11 3460.39 1942.11 3464.28 1846.99 3464.29 1846.99 3464.29 1846.99 3464.63 1846.86 3468.18 1869.23 3468.18 1869.23 3468.18 1869.23 3469.79 1869.7 3472.08 1853.15 3472.08 1853.15 3472.08 1853.15 3475.98 1797.34 3475.98 1797.34 3475.98 1797.34 3479.77 1695.82 3479.88 1695.97 3479.88 1695.97 3483.78 1762.33 3483.78 1762.33 3483.78 1762.33 3485.5 1756.14 3487.68 1862.53 3487.68 1862.53 3487.68 1862.53 3490.96 1942.11 3491.58 1942.11 3491.58 1942.11 3494.12 1940.47 3495.48 1942.11 3495.48 1942.11 3497.44 1941.75 3499.37 1942.11 3499.38 1942.11 3502.18 1941.27 3503.27 1942.11 3503.27 1942.11 3507.17 1942.11 3507.17 1942.11 3511.02 1942.11 3511.07 1942.11 3511.07 1942.11 3513.02 1941.46 3514.97 1942.11 3514.97 1942.11 3518.86 1941.88 3518.87 1941.88 3518.87 1941.88 3522.76 1938.58 3522.77 1938.58 3522.77 1938.58 3523.12 1942.11 3526.25 1625.66 3526.67 1633.86 3526.67 1634.13 3528.65 1682.47 3530.56 1679.86 3530.57 1679.86 3532.52 1677.85 3534.46 1794.69 3534.46 1794.69 3535.07 1794.29 3537.53 1797.45 3538.36 1797.11 3538.36 1797.11 3540.16 1928.05 3542.26 1913.89 3542.26 1913.89 3543.72 1913.13 3546.16 1926.24 3546.16 1926.24 3546.16 1926.24 3547.92 1927.37 3550.06 1902.16 3550.06 1902.16 3550.06 1902.16 3552.62 1858.03 3553.96 1858.6 3553.96 1858.6 3557.86 1859.62 3557.86 1859.62 3557.86 1859.62 3560.86 1859.89 3561.75 1817.39 3561.76 1817.39 3561.76 1817.39 3565.65 1723.85 3565.65 1723.85 3565.66 1723.85 3567.42 1693.39 3569.55 1697.86 3569.55 1697.86 3569.57 1697.85 3572.08 1701.24 3573.45 1699.39 3573.45 1699.39 3574.11 1699.66 3577.27 1646.95 3577.35 1647.08 3577.35 1647.08 3578.65 1648.16 3580.97 1614.07 3581.25 1615.04 3581.25 1615.04 3584.59 1600.16 3585.15 1686.73 3585.15 1686.73 3585.15 1686.73 3585.94 1708.56 3588.74 1645.27 3589.05 1646.5 3589.05 1646.5 3589.3 1647.11 3592.94 1589.98 3592.95 1589.98 3592.95 1589.98 3593.48 1589.83 3596.84 1775.71 3596.85 1775.71 3596.85 1775.71 3600.74 1811.28 3600.74 1811.28 3600.74 1811.28 3603.53 1825.33 3604.64 1762.78 3604.64 1762.78 3604.64 1762.78 3605.29 1711.31 3608.54 1801.12 3608.54 1801.12 3608.54 1801.12 3611.88 1803.88 3612.44 1803.82 3612.44 1803.82 3612.64 1803.82 3614.33 1886.79 3616.34 1809.9 3616.34 1809.9 3616.68 1809.86 3619.75 1816.56 3620.24 1815.33 3620.24 1815.33 3621.89 1812.66 3623.52 1832.12 3624.14 1830.52 3624.14 1830.52 3626.37 1830.15 3628.03 1832 3628.04 1832 3628.04 1832 3631.93 1890.41 3631.93 1890.41 3631.93 1890.41 3632.96 1892.33 3635.83 1888.68 3635.83 1888.68 3635.83 1888.68 3639.73 1471.34 3639.73 1471.34 3639.73 1471.34 3643.63 1449.86 3643.63 1449.86 3643.63 1449.86 3647.26 737.642 3647.53 737.809 3647.53 737.809 3648.87 737.471 3651.43 813.386 3651.43 813.386 3651.43 813.386 3651.99 814.391 3655.32 789.489 3655.33 789.489 3655.33 789.489 3657.2 641.464 3659.23 642.707 3659.23 642.707 3661.65 644.167 3662.27 641.464 3663.12 641.464 3663.13 641.464 3666.59 747.309 3667.02 744.204 3667.02 744.204 3667.47 721.302 3670.29 1081.78 3670.92 1004.16 3670.92 1004.16 3674.82 865.056 3674.82 865.056 3674.82 865.056 3678.72 831.368 3678.72 831.368 3678.72 831.368 3681.59 826.475 3682.62 829.13 3682.62 829.13 3684.01 810.909 3686.51 830.88 3686.52 830.88 3686.52 830.897 3687.19 847.087 3689.21 747.933 3690.42 772.524 3690.42 772.51 3691.66 737.315 3694.32 741.253 3694.32 741.253 3694.49 741.25 3698.21 867.56 3698.21 867.56 3702.1 908.224 3702.11 908.096 3702.11 908.096 3703.86 708.507 3706.01 810.736 3706.01 810.736 3706.45 811.345 3708.46 641.464 3709.91 641.464 3709.91 641.464 3713.81 658.025 3713.81 658.025 3713.81 658.025 3714.24 641.464 3717.71 667.095 3717.71 667.095 3717.71 667.095 3721.61 685.589 3721.61 685.589 3721.61 685.589 3724.2 688.324 3725.51 687.995 3725.51 687.995 3726.07 641.464 3729.4 641.5 3729.4 641.5 3733.3 651.956 3733.3 651.956 3733.3 651.956 3735.73 666.311 3737.2 665.705 3737.2 665.705 3741.1 659.466 3741.1 659.466 3741.1 659.466 3742.89 659.471 3743.5 641.464 3745 641.464 3745 641.464 3748.9 641.464 3748.9 641.464 3751.3 641.465 3752.8 641.464 3752.8 641.464 3756.69 785.686 3756.7 785.686 3756.7 785.686 3760.59 791.471 3760.6 791.471 3760.6 791.471 3761.33 784.941 3763.83 834.327 3764.49 833.702 3764.49 833.688 3766.03 836.772 3767.44 641.464 3768.39 641.464 3768.39 641.464 3772.29 655.419 3772.29 655.419 3774.13 789.838 3776.19 775.018 3776.19 775.018 3779.57 730.634 3780.09 806.367 3780.09 806.367 3780.09 806.367 3783.05 824.496 3783.99 824.281 3783.99 824.281 3785.05 825.461 3787.89 805.218 3787.89 805.218 3787.89 805.218 3787.95 805.083 3791.78 1015.23 3791.79 1015.23 3791.79 1015.23 3795.22 1022.34 3795.68 1016.66 3795.68 1016.66 3798.09 879.942 3799.58 880.171 3799.58 880.171 3799.71 880.223 3803.08 820.546 3803.48 827.048 3803.48 827.048 3804.39 829.379 3807.38 662.67 3807.38 662.67 3807.38 662.67 3807.52 641.464 3811.28 641.464 3811.28 641.464 3814.86 642.945 3815.18 642.922 3815.18 642.922 3816.55 656.102 3817.5 641.464 3819.08 641.464 3819.08 641.464 3822.97 1334.62 3822.98 1334.62 3822.98 1334.62 3825.16 1331.17 3826.87 1336.88 3826.88 1336.88 3826.88 1336.88 3829.89 1337.33 3830.77 1336.72 3830.77 1336.72 3830.77 1336.72 3832.99 1339.19 3834.36 1128.8 3834.67 1128.87 3834.67 1128.87 3835.24 1033.27 3838.57 1371.02 3838.57 1371.02 3838.57 1371.02 3842.47 1458.01 3842.47 1458.01 3842.47 1458.01 3843.1 1459.05 3846.36 1300.74 3846.37 1300.74 3846.37 1300.7 3846.93 1239.36 3850.26 1416.12 3850.27 1416.12 3850.27 1416.14 3852.03 1411.5 3852.42 1425.49 3854.17 1420.58 3854.17 1420.58 3855.33 1418.16 3858.06 1555.53 3858.07 1555.53 3861.96 1818.21 3861.96 1818.21 3861.96 1818.21 3865.86 1860.51 3865.86 1860.51 3865.86 1860.51 3869.56 1866.26 3869.76 1855.79 3869.76 1855.79 3869.76 1855.79 3869.95 1851.08 3872.08 1903.82 3873.66 1900.18 3873.66 1900.18 3877.56 1738.13 3877.56 1738.13 3877.56 1738.13 3880.71 1727.03 3881.36 1942.11 3881.46 1942.11 3881.46 1942.11 3885.36 1942.11 3885.36 1942.11 3886.82 1941.62 3889.26 1942.11 3889.26 1942.11 3892.7 1937.11 3893.15 1942.11 3893.15 1942.11 3895.4 1932.54 3897.05 1933.4 3897.05 1933.4 3897.98 1932.94 3899.86 1942.11 3900.95 1942.11 3900.95 1942.11 3903.77 1934.45 3904.85 1942.11 3904.85 1942.11 3908.75 1830.27 3908.75 1830.27 3908.75 1830.27 3910.79 1723.97 3912.65 1811.47 3912.65 1811.47 3913.76 1813.97 3916.31 1777.84 3916.55 1783.18 3916.55 1783.18 3917.53 1791.02 3920.45 1788.79 3920.45 1788.79 3923.01 1758.17 3924.35 1760.29 3924.35 1760.3 3926.3 1714.2 3926.54 1821.83 3928.24 1766.52 3928.24 1766.5 3929.89 641.464 3932.14 641.464 3932.14 641.464 3936.04 642.576 3936.04 642.576 3938.72 760.239 3939.94 760.034 3939.94 760.034 3943.84 760.157 3943.84 760.157 3943.84 760.157 3947.74 766.338 3947.74 766.338 3947.74 766.338 3949.49 766.964" stroke="#C00000" stroke-width="15.5951" stroke-linejoin="round" stroke-miterlimit="10" fill="none" fill-rule="evenodd"/><text font-family="Arial,Arial_MSFontService,sans-serif" font-weight="400" font-size="19" transform="matrix(4.67857 0 0 4.67857 2513.93 413)">E</text><text font-family="Arial,Arial_MSFontService,sans-serif" font-weight="400" font-size="19" transform="matrix(4.67857 0 0 4.67857 2574.75 413)">:</text><text font-family="Arial,Arial_MSFontService,sans-serif" font-weight="400" font-size="19" transform="matrix(4.67857 0 0 4.67857 2598.14 413)">RS</text><text font-family="Arial,Arial_MSFontService,sans-serif" font-weight="400" font-size="19" transform="matrix(4.67857 0 0 4.67857 2724.46 413)">-</text><text font-family="Arial,Arial_MSFontService,sans-serif" font-weight="400" font-size="19" transform="matrix(4.67857 0 0 4.67857 2752.53 413)">BU</text><text font-family="Arial,Arial_MSFontService,sans-serif" font-weight="400" font-size="19" transform="matrix(4.67857 0 0 4.67857 2874.18 413)">, </text><text font-family="Arial,Arial_MSFontService,sans-serif" font-weight="400" font-size="19" transform="matrix(4.67857 0 0 4.67857 2920.96 413)">I</text><text font-family="Arial,Arial_MSFontService,sans-serif" font-weight="400" font-size="19" transform="matrix(4.67857 0 0 4.67857 2949.03 413)">:</text><text font-family="Arial,Arial_MSFontService,sans-serif" font-weight="400" font-size="19" transform="matrix(4.67857 0 0 4.67857 2972.43 413)">FS </text><text font-family="Arial,Arial_MSFontService,sans-serif" font-weight="400" font-size="19" transform="matrix(4.67857 0 0 4.67857 3112.78 413)">(</text><text font-family="Arial,Arial_MSFontService,sans-serif" font-weight="400" font-size="19" transform="matrix(4.67857 0 0 4.67857 3140.86 413)">DA</text><text font-family="Arial,Arial_MSFontService,sans-serif" font-weight="400" font-size="19" transform="matrix(4.67857 0 0 4.67857 3267.18 413)">-</text><text font-family="Arial,Arial_MSFontService,sans-serif" font-weight="400" font-size="19" transform="matrix(4.67857 0 0 4.67857 3295.25 413)">stdp </text><text font-family="Arial,Arial_MSFontService,sans-serif" font-weight="400" font-size="19" transform="matrix(4.67857 0 0 4.67857 3491.75 413)">+ </text><text font-family="Arial,Arial_MSFontService,sans-serif" font-weight="400" font-size="19" transform="matrix(4.67857 0 0 4.67857 3566.61 413)">NA </text><text font-family="Arial,Arial_MSFontService,sans-serif" font-weight="400" font-size="19" transform="matrix(4.67857 0 0 4.67857 3706.96 413)">+ </text><text font-family="Arial,Arial_MSFontService,sans-serif" font-weight="400" font-size="19" transform="matrix(4.67857 0 0 4.67857 3781.82 413)">ACh</text><text font-family="Arial,Arial_MSFontService,sans-serif" font-weight="400" font-size="19" transform="matrix(4.67857 0 0 4.67857 3954.93 413)">)</text><path d="M2313.31 380.091 2499.93 380.091" stroke="#000000" stroke-width="15.5951" stroke-linejoin="round" stroke-miterlimit="10" fill="none"/><text font-family="Arial,Arial_MSFontService,sans-serif" font-weight="400" font-size="19" transform="matrix(4.67857 0 0 4.67857 2513.93 519)">E</text><text font-family="Arial,Arial_MSFontService,sans-serif" font-weight="400" font-size="19" transform="matrix(4.67857 0 0 4.67857 2574.75 519)">:</text><text font-family="Arial,Arial_MSFontService,sans-serif" font-weight="400" font-size="19" transform="matrix(4.67857 0 0 4.67857 2598.14 519)">BU</text><text font-family="Arial,Arial_MSFontService,sans-serif" font-weight="400" font-size="19" transform="matrix(4.67857 0 0 4.67857 2719.78 519)">, </text><text font-family="Arial,Arial_MSFontService,sans-serif" font-weight="400" font-size="19" transform="matrix(4.67857 0 0 4.67857 2766.57 519)">I</text><text font-family="Arial,Arial_MSFontService,sans-serif" font-weight="400" font-size="19" transform="matrix(4.67857 0 0 4.67857 2794.64 519)">:</text><text font-family="Arial,Arial_MSFontService,sans-serif" font-weight="400" font-size="19" transform="matrix(4.67857 0 0 4.67857 2818.03 519)">FS </text><text font-family="Arial,Arial_MSFontService,sans-serif" font-weight="400" font-size="19" transform="matrix(4.67857 0 0 4.67857 2958.39 519)">(</text><text font-family="Arial,Arial_MSFontService,sans-serif" font-weight="400" font-size="19" transform="matrix(4.67857 0 0 4.67857 2986.46 519)">DA</text><text font-family="Arial,Arial_MSFontService,sans-serif" font-weight="400" font-size="19" transform="matrix(4.67857 0 0 4.67857 3112.78 519)">-</text><text font-family="Arial,Arial_MSFontService,sans-serif" font-weight="400" font-size="19" transform="matrix(4.67857 0 0 4.67857 3140.86 519)">stdp</text><text font-family="Arial,Arial_MSFontService,sans-serif" font-weight="400" font-size="19" transform="matrix(4.67857 0 0 4.67857 3313.96 519)">)</text><path d="M2313.31 486.444 2499.93 486.444" stroke="#C00000" stroke-width="15.5951" stroke-linejoin="round" stroke-miterlimit="10" fill="none"/></g></g></g><rect x="2121" y="616" width="129" height="1329" fill="#F9B232" fill-opacity="0.501961"/><rect x="2250" y="616" width="1718" height="1329" fill="#8ED8F8" fill-opacity="0.501961"/><path d="M3968 2199C3968 2220.82 3953.59 2238.5 3935.81 2238.5L3141.19 2238.5C3123.41 2238.5 3109 2256.18 3109 2278 3109 2256.18 3094.59 2238.5 3076.81 2238.5L2282.19 2238.5C2264.41 2238.5 2250 2220.81 2250 2199" stroke="#8ED8F8" stroke-width="13.75" stroke-miterlimit="8" fill="none" fill-rule="evenodd"/><path d="M2250 2199C2250 2220.82 2235.59 2238.5 2217.81 2238.5L2217.69 2238.5C2199.91 2238.5 2185.5 2256.19 2185.5 2278 2185.5 2256.19 2171.09 2238.5 2153.31 2238.5L2153.19 2238.5C2135.41 2238.5 2121 2220.82 2121 2199" stroke="#F9B232" stroke-width="13.75" stroke-miterlimit="8" fill="none" fill-rule="evenodd"/><text fill="#F9B232" font-family="Arial,Arial_MSFontService,sans-serif" font-weight="700" font-size="55" transform="matrix(1 0 0 1 2088.07 2334)">NA(BU)</text><text fill="#8ED8F8" font-family="Arial,Arial_MSFontService,sans-serif" font-weight="700" font-size="55" transform="matrix(1 0 0 1 2995.81 2336)">ACh</text><text fill="#8ED8F8" font-family="Arial,Arial_MSFontService,sans-serif" font-weight="700" font-size="55" transform="matrix(1 0 0 1 3108.68 2336)">(RS)</text></g></svg>