<svg width="3456" height="1523" xmlns="http://www.w3.org/2000/svg" xmlns:xlink="http://www.w3.org/1999/xlink" xml:space="preserve" overflow="hidden"><defs><clipPath id="clip0"><rect x="232" y="476" width="3456" height="1523"/></clipPath><clipPath id="clip1"><rect x="2075" y="476" width="1264" height="1523"/></clipPath><clipPath id="clip2"><rect x="2075" y="476" width="1264" height="1523"/></clipPath></defs><g clip-path="url(#clip0)" transform="translate(-232 -476)"><rect x="232" y="476" width="3456" height="1523" fill="#FFFFFF"/><g><g><g><g><path d="M0 0 2030.67 0 2030.67 1523 0 1523Z" fill="#FFFFFF" transform="matrix(1.00066 0 0 1 232 476)"/></g><path d="M0 0 2030.67 0 2030.67 1523 0 1523Z" fill="#FFFFFF" transform="matrix(1.00066 0 0 1 232 476)"/><path d="M264.712 1352.57 1838.48 1352.57 1838.48 344.488 264.712 344.488Z" fill="#FFFFFF" transform="matrix(1.00066 0 0 1 232 476)"/><path d="M264.712 1352.57 1838.48 1352.57" stroke="#262626" stroke-width="7.25238" stroke-linecap="square" stroke-linejoin="round" stroke-miterlimit="10" fill="none" transform="matrix(1.00066 0 0 1 232 476)"/><path d="M264.712 1352.57 264.712 1336.83" stroke="#262626" stroke-width="7.25238" stroke-linecap="square" stroke-linejoin="round" stroke-miterlimit="10" fill="none" transform="matrix(1.00066 0 0 1 232 476)"/><path d="M461.433 1352.57 461.433 1336.83" stroke="#262626" stroke-width="7.25238" stroke-linecap="square" stroke-linejoin="round" stroke-miterlimit="10" fill="none" transform="matrix(1.00066 0 0 1 232 476)"/><path d="M658.154 1352.57 658.154 1336.83" stroke="#262626" stroke-width="7.25238" stroke-linecap="square" stroke-linejoin="round" stroke-miterlimit="10" fill="none" transform="matrix(1.00066 0 0 1 232 476)"/><path d="M854.874 1352.57 854.874 1336.83" stroke="#262626" stroke-width="7.25238" stroke-linecap="square" stroke-linejoin="round" stroke-miterlimit="10" fill="none" transform="matrix(1.00066 0 0 1 232 476)"/><path d="M1051.6 1352.57 1051.6 1336.83" stroke="#262626" stroke-width="7.25238" stroke-linecap="square" stroke-linejoin="round" stroke-miterlimit="10" fill="none" transform="matrix(1.00066 0 0 1 232 476)"/><path d="M1248.32 1352.57 1248.32 1336.83" stroke="#262626" stroke-width="7.25238" stroke-linecap="square" stroke-linejoin="round" stroke-miterlimit="10" fill="none" transform="matrix(1.00066 0 0 1 232 476)"/><path d="M1445.04 1352.57 1445.04 1336.83" stroke="#262626" stroke-width="7.25238" stroke-linecap="square" stroke-linejoin="round" stroke-miterlimit="10" fill="none" transform="matrix(1.00066 0 0 1 232 476)"/><path d="M1641.76 1352.57 1641.76 1336.83" stroke="#262626" stroke-width="7.25238" stroke-linecap="square" stroke-linejoin="round" stroke-miterlimit="10" fill="none" transform="matrix(1.00066 0 0 1 232 476)"/><path d="M1838.48 1352.57 1838.48 1336.83" stroke="#262626" stroke-width="7.25238" stroke-linecap="square" stroke-linejoin="round" stroke-miterlimit="10" fill="none" transform="matrix(1.00066 0 0 1 232 476)"/><text fill="#262626" font-family="Arial,Arial_MSFontService,sans-serif" font-weight="400" font-size="16" transform="matrix(3.62857 0 0 3.62619 480.557 1904)">0</text><text fill="#262626" font-family="Arial,Arial_MSFontService,sans-serif" font-weight="400" font-size="16" transform="matrix(3.62857 0 0 3.62619 644.75 1904)">500</text><text fill="#262626" font-family="Arial,Arial_MSFontService,sans-serif" font-weight="400" font-size="16" transform="matrix(3.62857 0 0 3.62619 825.271 1904)">1000</text><text fill="#262626" font-family="Arial,Arial_MSFontService,sans-serif" font-weight="400" font-size="16" transform="matrix(3.62857 0 0 3.62619 1022.12 1904)">1500</text><text fill="#262626" font-family="Arial,Arial_MSFontService,sans-serif" font-weight="400" font-size="16" transform="matrix(3.62857 0 0 3.62619 1218.97 1904)">2000</text><text fill="#262626" font-family="Arial,Arial_MSFontService,sans-serif" font-weight="400" font-size="16" transform="matrix(3.62857 0 0 3.62619 1415.82 1904)">2500</text><text fill="#262626" font-family="Arial,Arial_MSFontService,sans-serif" font-weight="400" font-size="16" transform="matrix(3.62857 0 0 3.62619 1612.67 1904)">3000</text><text fill="#262626" font-family="Arial,Arial_MSFontService,sans-serif" font-weight="400" font-size="16" transform="matrix(3.62857 0 0 3.62619 1809.52 1904)">3500</text><text fill="#262626" font-family="Arial,Arial_MSFontService,sans-serif" font-weight="400" font-size="16" transform="matrix(3.62857 0 0 3.62619 2006.37 1904)">4000</text><text fill="#262626" font-family="Arial,Arial_MSFontService,sans-serif" font-weight="700" font-size="18" transform="matrix(3.62857 0 0 3.62619 1160.92 1984)">Time </text><text fill="#262626" font-family="Arial,Arial_MSFontService,sans-serif" font-weight="700" font-size="18" transform="matrix(3.62857 0 0 3.62619 1338.71 1984)">(</text><text fill="#262626" font-family="Arial,Arial_MSFontService,sans-serif" font-weight="700" font-size="18" transform="matrix(3.62857 0 0 3.62619 1360.49 1984)">s</text><text fill="#262626" font-family="Arial,Arial_MSFontService,sans-serif" font-weight="700" font-size="18" transform="matrix(3.62857 0 0 3.62619 1396.77 1984)">)</text><path d="M264.712 1352.57 264.712 344.488" stroke="#262626" stroke-width="7.25238" stroke-linecap="square" stroke-linejoin="round" stroke-miterlimit="10" fill="none" transform="matrix(1.00066 0 0 1 232 476)"/><path d="M264.712 1352.57 280.45 1352.57" stroke="#262626" stroke-width="7.25238" stroke-linecap="square" stroke-linejoin="round" stroke-miterlimit="10" fill="none" transform="matrix(1.00066 0 0 1 232 476)"/><path d="M264.712 1226.56 280.45 1226.56" stroke="#262626" stroke-width="7.25238" stroke-linecap="square" stroke-linejoin="round" stroke-miterlimit="10" fill="none" transform="matrix(1.00066 0 0 1 232 476)"/><path d="M264.712 1100.55 280.45 1100.55" stroke="#262626" stroke-width="7.25238" stroke-linecap="square" stroke-linejoin="round" stroke-miterlimit="10" fill="none" transform="matrix(1.00066 0 0 1 232 476)"/><path d="M264.712 974.539 280.45 974.539" stroke="#262626" stroke-width="7.25238" stroke-linecap="square" stroke-linejoin="round" stroke-miterlimit="10" fill="none" transform="matrix(1.00066 0 0 1 232 476)"/><path d="M264.712 848.528 280.45 848.528" stroke="#262626" stroke-width="7.25238" stroke-linecap="square" stroke-linejoin="round" stroke-miterlimit="10" fill="none" transform="matrix(1.00066 0 0 1 232 476)"/><path d="M264.712 722.518 280.45 722.518" stroke="#262626" stroke-width="7.25238" stroke-linecap="square" stroke-linejoin="round" stroke-miterlimit="10" fill="none" transform="matrix(1.00066 0 0 1 232 476)"/><path d="M264.712 596.508 280.45 596.508" stroke="#262626" stroke-width="7.25238" stroke-linecap="square" stroke-linejoin="round" stroke-miterlimit="10" fill="none" transform="matrix(1.00066 0 0 1 232 476)"/><path d="M264.712 470.498 280.45 470.498" stroke="#262626" stroke-width="7.25238" stroke-linecap="square" stroke-linejoin="round" stroke-miterlimit="10" fill="none" transform="matrix(1.00066 0 0 1 232 476)"/><path d="M264.712 344.488 280.45 344.488" stroke="#262626" stroke-width="7.25238" stroke-linecap="square" stroke-linejoin="round" stroke-miterlimit="10" fill="none" transform="matrix(1.00066 0 0 1 232 476)"/><text fill="#262626" font-family="Arial,Arial_MSFontService,sans-serif" font-weight="400" font-size="16" transform="matrix(3.62857 0 0 3.62619 442.941 1849)">0</text><text fill="#262626" font-family="Arial,Arial_MSFontService,sans-serif" font-weight="400" font-size="16" transform="matrix(3.62857 0 0 3.62619 392.141 1723)">0</text><text fill="#262626" font-family="Arial,Arial_MSFontService,sans-serif" font-weight="400" font-size="16" transform="matrix(3.62857 0 0 3.62619 424.798 1723)">.</text><text fill="#262626" font-family="Arial,Arial_MSFontService,sans-serif" font-weight="400" font-size="16" transform="matrix(3.62857 0 0 3.62619 439.312 1723)">5</text><text fill="#262626" font-family="Arial,Arial_MSFontService,sans-serif" font-weight="400" font-size="16" transform="matrix(3.62857 0 0 3.62619 442.941 1596)">1</text><text fill="#262626" font-family="Arial,Arial_MSFontService,sans-serif" font-weight="400" font-size="16" transform="matrix(3.62857 0 0 3.62619 392.141 1470)">1</text><text fill="#262626" font-family="Arial,Arial_MSFontService,sans-serif" font-weight="400" font-size="16" transform="matrix(3.62857 0 0 3.62619 424.798 1470)">.</text><text fill="#262626" font-family="Arial,Arial_MSFontService,sans-serif" font-weight="400" font-size="16" transform="matrix(3.62857 0 0 3.62619 439.312 1470)">5</text><text fill="#262626" font-family="Arial,Arial_MSFontService,sans-serif" font-weight="400" font-size="16" transform="matrix(3.62857 0 0 3.62619 442.941 1344)">2</text><text fill="#262626" font-family="Arial,Arial_MSFontService,sans-serif" font-weight="400" font-size="16" transform="matrix(3.62857 0 0 3.62619 392.141 1218)">2</text><text fill="#262626" font-family="Arial,Arial_MSFontService,sans-serif" font-weight="400" font-size="16" transform="matrix(3.62857 0 0 3.62619 424.798 1218)">.</text><text fill="#262626" font-family="Arial,Arial_MSFontService,sans-serif" font-weight="400" font-size="16" transform="matrix(3.62857 0 0 3.62619 439.312 1218)">5</text><text fill="#262626" font-family="Arial,Arial_MSFontService,sans-serif" font-weight="400" font-size="16" transform="matrix(3.62857 0 0 3.62619 442.941 1092)">3</text><text fill="#262626" font-family="Arial,Arial_MSFontService,sans-serif" font-weight="400" font-size="16" transform="matrix(3.62857 0 0 3.62619 392.141 966)">3</text><text fill="#262626" font-family="Arial,Arial_MSFontService,sans-serif" font-weight="400" font-size="16" transform="matrix(3.62857 0 0 3.62619 424.798 966)">.</text><text fill="#262626" font-family="Arial,Arial_MSFontService,sans-serif" font-weight="400" font-size="16" transform="matrix(3.62857 0 0 3.62619 439.312 966)">5</text><text fill="#262626" font-family="Arial,Arial_MSFontService,sans-serif" font-weight="400" font-size="16" transform="matrix(3.62857 0 0 3.62619 442.941 840)">4</text><text fill="#262626" font-family="Arial,Arial_MSFontService,sans-serif" font-weight="700" font-size="18" transform="matrix(2.22186e-16 -3.62619 3.62857 2.2204e-16 363.112 1595)">Synaptic strength</text><path d="M264.712 1352.57 265.92 1352.57 265.921 1352.57 268.941 1328.7 268.942 1328.7 268.943 1328.7 269.386 1326.04 269.878 1352.57 271.964 1350.18 271.965 1350.18 274.284 1309.95 274.986 1310.03 274.986 1310.03 275.358 1310.74 277.078 1306.54 278.008 1308.02 278.008 1308.02 279.383 1307.95 280.501 1352.57 281.029 1352.57 281.03 1352.57 284.051 1352.57 284.052 1352.57 287.071 1352.47 287.073 1352.47 287.073 1352.47 287.264 1352.46 287.472 1352.57 290.095 1352.57 290.096 1352.57 293.114 1351.78 293.117 1351.78 293.117 1351.78 294.543 1349.3 295.129 1352.57 296.139 1352.07 296.139 1352.07 299.158 1351.4 299.16 1351.4 299.161 1351.4 299.366 1352.57 301.019 1339.17 302.182 1347.56 302.183 1347.56 302.695 1350.39 305.204 1349.01 305.204 1349.01 308.187 1349.2 308.223 1348.94 308.226 1348.94 308.227 1348.91 309.261 1346.39 311.244 1348.95 311.248 1348.95 311.248 1348.97 312.165 1350.76 314.27 1330.63 314.27 1330.63 317.291 1195.32 317.292 1195.32 318.72 1194.99 320.313 1197.87 320.313 1197.87 320.314 1197.87 321.379 1198.49 323.335 1192.31 323.335 1192.31 323.335 1192.31 324.606 1004.55 326.357 1014.44 326.357 1014.44 328.131 1014 329.378 1020.52 329.379 1020.52 329.379 1020.52 330.208 1019.4 331.833 1029.83 332.401 1029.77 332.401 1029.77 332.624 1029.76 335.311 1041.95 335.422 1041.59 335.423 1041.59 338.443 1028.49 338.444 1028.49 338.444 1028.49 340.257 969.246 341.466 975.634 341.466 975.634 341.59 975.937 344.486 621.25 344.488 621.25 344.488 621.25 347.335 406.732 347.51 415.539 347.51 415.539 349.093 417.155 350.531 416.013 350.532 416.013 351.596 418.426 353.551 409.891 353.554 409.891 353.554 409.891 356.006 410.724 356.573 408.403 356.575 408.403 356.575 408.403 357.485 402.217 359.597 402.513 359.597 402.513 360.121 344.488 362.619 344.488 362.619 344.488 365.641 344.488 365.641 344.488 368.662 344.488 368.663 344.488 371.684 344.488 371.685 344.488 374.706 344.488 374.706 344.488 376.064 381.508 377.728 358.544 377.728 358.544 380.75 364.856 380.75 364.856 383.755 366.982 383.772 366.88 383.772 366.88 386.793 356.014 386.793 356.014 386.794 356.014 388.339 356.018 388.894 344.488 389.815 344.488 389.816 344.488 392.837 344.488 392.837 344.488 395.858 344.571 395.859 344.571 395.859 344.571 398.879 350.883 398.881 350.883 398.881 350.883 400.906 351.109 401.901 350.829 401.903 350.829 401.903 350.829 403.967 350.742 404.922 351.111 404.924 351.111 404.925 351.111 407.409 349.409 407.944 416.098 407.946 416.098 407.947 416.098 410.966 441.948 410.968 441.948 410.968 441.948 411.674 442.038 413.988 417.73 413.99 417.73 413.99 417.73 414.09 417.359 417.009 426.275 417.011 426.275 417.012 426.275 420.031 429.47 420.034 429.47 420.034 429.47 420.051 429.47 423.052 372.012 423.055 372.012 423.056 372.012 423.324 344.488 426.077 344.488 426.078 344.488 429.096 344.579 429.099 344.579 429.099 344.579 430.666 348.994 432.121 348.762 432.121 348.762 434.077 348.748 435.139 348.808 435.142 348.808 435.143 348.808 437.26 351.848 438.015 344.488 438.164 344.488 438.165 344.488 441.186 345.055 441.187 345.055 441.879 345.203 444.172 344.829 444.208 344.831 444.209 344.831 444.912 344.848 444.959 344.488 447.23 344.488 447.23 344.488 450.251 346.014 450.252 346.014 450.252 346.014 451.593 347.412 452.262 344.488 453.273 344.488 453.274 344.488 456.294 346.552 456.295 346.552 456.296 346.552 459.316 346.616 459.317 346.616 459.318 346.616 460.083 346.592 462.337 356.208 462.339 356.208 462.34 356.208 464.273 356.275 465.359 345.279 465.361 345.279 465.361 345.279 467.26 345.104 468.381 348.011 468.383 348.011 468.383 348.011 469.25 347.968 470.482 348.997 471.404 348.968 471.405 348.968 471.871 348.966 473.606 349.598 474.426 349.569 474.427 349.569 475.557 344.488 477.448 344.488 477.448 344.488 480.467 344.506 480.47 344.506 480.471 344.506 483.489 344.507 483.492 344.507 483.492 344.507 483.666 344.507 483.914 344.488 486.514 344.488 486.514 344.488 489.532 344.86 489.535 344.86 489.536 344.86 490.146 344.863 490.713 344.488 492.557 344.488 492.558 344.488 494.234 349.368 495.579 349.297 495.579 349.298 498.601 351.722 498.602 351.722 501.414 351.762 501.623 350.95 501.623 350.95 502.178 344.488 502.799 356.927 504.645 344.488 504.645 344.488 507.139 345.334 507.666 345.136 507.667 345.136 507.784 344.488 508.897 347.193 510.688 344.488 510.689 344.488 513.709 345.242 513.71 345.242 513.71 345.242 515.374 345.279 515.476 344.488 516.732 344.916 516.732 344.916 519.493 344.922 519.579 344.488 519.754 344.488 519.754 344.488 522.774 344.494 522.775 344.494 522.776 344.494 523.986 344.492 525.796 346.986 525.798 346.986 525.798 346.986 526.563 347.01 527.381 344.488 528.819 344.637 528.819 344.637 529.325 344.488 531.839 361.565 531.841 361.565 531.841 361.565 533.33 364.508 534.863 361.629 534.863 361.629 535.14 361.603 537.882 362.26 537.885 362.26 537.885 362.26 539.307 362.161 540.491 363.192 540.906 362.659 540.907 362.659 542.848 362.135 543.926 365.111 543.928 365.111 543.929 365.111 545.22 378.893 546.95 366.419 546.95 366.419 549.969 346.866 549.972 346.866 549.972 346.866 550.925 344.488 552.994 344.561 552.994 344.561 556.012 345.197 556.016 345.197 556.016 345.197 557.141 345.226 559.034 344.991 559.037 344.991 559.038 344.99 559.486 344.966 562.059 355.645 562.06 355.645 563.857 355.846 565.081 355.368 565.081 355.368 568.102 355.225 568.103 355.225 568.103 355.225 571.124 344.785 571.125 344.785 571.125 344.785 571.179 344.488 574.146 350.834 574.147 350.834 574.147 350.834 574.268 350.857 574.897 344.488 577.168 345.804 577.169 345.804 577.592 350.02 578.175 344.488 580.19 344.488 580.191 344.488 583.211 348.988 583.212 348.988 583.212 348.988 585.335 349.462 585.87 344.488 586.234 344.488 586.234 344.488 589.254 415.248 589.255 415.248 589.256 415.248 591.481 417.849 592.278 417.191 592.278 417.191 593.11 417.103 595.037 422.773 595.299 421.715 595.3 421.715 597.229 411.259 598.321 413.537 598.322 413.537 600.542 417.654 601.341 410.065 601.343 410.065 601.343 410.065 603.111 386.1 604.365 386.135 604.365 386.135 606.621 376.267 607.386 378.393 607.387 378.393 608.139 377.088 610.405 402.818 610.409 402.818 610.409 402.818 610.468 402.819 612.353 402.237 613.43 402.24 613.431 402.24 614.312 402.242 616.449 402.236 616.452 402.236 616.453 402.236 616.995 402.234 618.66 402.296 619.474 402.292 619.474 402.292 621.107 400.622 622.496 400.86 622.496 400.86 623.495 389.366 625.517 420.881 625.518 420.881 627.257 420.891 628.539 395.118 628.539 395.118 628.54 395.118 631.561 394.581 631.561 394.581 631.562 394.581 634.583 392.878 634.583 392.878 634.584 392.878 634.7 392.785 637.604 397.05 637.605 397.05 637.605 397.05 640.626 397.848 640.627 397.848 640.627 397.848 642.9 395.592 643.647 404.078 643.648 404.078 643.649 404.078 646.669 405.071 646.67 405.071 646.671 405.071 646.984 405.077 648.4 404.758 649.692 404.793 649.693 404.793 651.123 404.358 652.712 412.989 652.714 412.989 652.715 412.989 655.734 414.532 655.736 414.532 655.736 414.532 658.755 414.848 658.758 414.848 658.758 414.848 659.349 414.865 661.761 405.102 661.779 413.099 661.78 413.099 664.799 428.713 664.801 428.713 664.802 428.713 666.876 428.721 667.82 426.056 667.823 426.056 667.823 426.056 670.012 388.734 670.845 390.342 670.846 390.342 672.64 388.132 673.864 447.082 673.867 447.082 673.867 447.082 675.858 447.225 676.885 445.94 676.889 445.94 676.889 445.924 678.719 410.936 679.91 411.058 679.911 411.058 682.932 414.286 682.933 414.286 685.954 416.235 685.954 416.235 688.468 416.267 688.976 416.25 688.977 416.25 689.904 416.214 691.006 420.532 691.998 420.417 691.998 420.417 693.378 423.132 695.019 363.265 695.019 363.265 695.02 363.265 698.04 359.588 698.041 359.588 698.042 359.588 700.417 359.585 701.062 364.05 701.063 364.05 701.063 364.05 703.867 365.525 704.085 364.808 704.085 364.808 707.106 363.521 707.107 363.521 707.107 363.521 707.145 363.52 708.738 368.641 710.129 366.544 710.129 366.544 711.064 344.488 713.15 344.488 713.151 344.488 716.17 359.773 716.172 359.773 716.173 359.773 716.41 359.858 718.881 344.488 719.194 344.488 719.194 344.488 722.216 344.488 722.216 344.488 725.238 344.488 725.238 344.488 728.257 344.942 728.26 344.942 728.26 344.942 731.031 344.899 731.281 344.924 731.282 344.924 733.423 345.087 733.56 344.488 734.303 344.488 734.304 344.488 737.322 349.645 737.325 349.645 737.325 349.645 739.266 349.859 740.1 344.488 740.347 344.488 740.347 344.488 743.369 344.488 743.369 344.488 745.942 345.362 746.391 344.488 746.391 344.488 749.412 350.078 749.413 350.078 750.136 391.587 750.593 344.488 752.434 344.488 752.435 344.488 754.885 348.984 755.456 348.968 755.456 348.968 758.477 348.585 758.478 348.585 758.478 348.585 761.499 346.944 761.5 346.944 761.5 346.944 764.521 346.046 764.522 346.046 764.522 346.046 764.922 345.988 766.082 346.878 767.543 346.066 767.544 346.066 769.415 346.116 770.564 345.839 770.565 345.839 770.566 345.839 772.208 344.488 773.487 411.408 773.587 411.349 773.587 411.349 775.588 409.912 776.609 409.98 776.609 409.98 776.886 409.983 779.629 409.525 779.63 409.525 779.631 409.525 779.664 409.508 782.65 409.532 782.653 409.532 782.653 409.532 783.858 408.263 785.672 414.618 785.674 414.618 785.675 414.618 786.443 417.666 788.693 388.836 788.696 388.836 788.697 388.836 791.715 372.451 791.718 372.451 791.718 372.451 792.207 372.515 794.737 371.296 794.74 371.296 794.74 371.296 797.759 371.124 797.761 371.124 797.762 371.124 798.628 371.2 799.521 362.384 800.784 362.415 800.784 362.414 801.665 362.392 803.802 362.846 803.805 362.846 803.806 362.846 804.699 362.853 806.827 362.698 806.828 362.698 809.023 364.601 809.829 344.488 809.849 344.488 809.849 344.488 812.871 344.488 812.871 344.488 815.892 344.829 815.892 344.829 815.893 344.829 817.312 344.902 818.32 344.488 818.914 344.488 818.915 344.488 821.935 364.149 821.936 364.149 821.937 364.149 822.002 364.152 824.957 355.496 824.958 355.496 824.959 355.496 827.978 353.936 827.98 353.936 827.98 353.936 828.915 352.372 831.002 352.807 831.002 352.807 832.452 352.81 834.022 347.128 834.023 347.128 834.024 347.128 834.604 344.488 837.045 344.488 837.046 344.488 837.185 344.489 840.067 344.488 840.067 344.488 843.087 344.584 843.089 344.584 843.09 344.584 844.09 344.617 846.111 344.598 846.111 344.598 849.13 346.422 849.133 346.422 849.133 346.422 850.062 346.492 852.152 344.752 852.154 344.752 852.155 344.752 853.273 344.72 855.173 349.057 855.176 349.057 855.177 349.057 856.641 350.855 857.424 344.488 858.198 344.522 858.198 344.522 858.667 344.574 859.285 344.488 861.22 344.491 861.221 344.491 863.502 344.492 863.542 344.488 864.242 344.488 864.242 344.488 867.264 344.488 867.264 344.488 870.286 344.488 870.286 344.488 873.307 344.812 873.307 344.812 875.636 352.196 876.053 344.488 876.329 344.488 876.329 344.488 879.351 344.488 879.351 344.488 882.373 344.488 882.373 344.488 884.552 345.569 885.394 344.488 885.395 344.488 888.415 351.473 888.417 351.473 888.417 351.473 888.58 351.476 889.222 344.488 891.438 344.488 891.438 344.488 894.46 344.488 894.46 344.488 896.544 346.086 897.482 344.488 897.482 344.488 900.502 345.253 900.504 345.253 900.504 345.253 903.523 357.773 903.525 357.773 903.526 357.773 906.545 357.956 906.547 357.956 906.548 357.956 909.248 357.965 909.567 356.664 909.569 356.664 909.569 356.664 909.704 344.488 912.591 344.488 912.591 344.488 915.613 344.488 915.613 344.488 918.635 344.488 918.635 344.488 920.473 344.499 921.656 344.488 921.657 344.488 924.675 344.594 924.678 344.594 924.679 344.594 926.477 344.637 927.7 344.624 927.7 344.624 930.722 344.87 930.722 344.87 931.67 344.488 933.744 350.923 933.744 350.923 934.731 351.034 936.766 351.021 936.766 351.021 939.787 349.587 939.787 349.587 939.788 349.587 942.191 344.488 942.809 344.488 942.81 344.488 945.831 344.488 945.831 344.488 948.853 344.488 948.853 344.488 950.642 344.497 951.875 344.488 951.875 344.488 954.895 350.057 954.897 350.057 954.897 350.057 955.595 348.574 955.926 454.198 957.918 449.103 957.919 449.103 960.938 446.818 960.94 446.818 960.941 446.818 963.13 426.478 963.962 430.665 963.962 430.665 966.749 431.246 966.982 429.968 966.984 429.968 966.984 429.968 970.003 416.414 970.005 416.414 970.006 416.414 971.046 416.344 973.025 419.532 973.028 419.532 973.028 419.532 976.046 421.845 976.049 421.845 976.05 421.845 979.068 422.328 979.071 422.328 979.072 422.328 982.09 423.492 982.093 423.492 982.093 423.492 983.553 423.715 985.111 423.467 985.115 423.467 985.115 423.467 988.133 423.429 988.136 423.429 988.137 423.429 988.778 423.399 990.946 428.138 991.159 428.132 991.159 428.132 992.071 428.124 994.078 431.005 994.18 430.613 994.18 430.613 994.979 429.475 997.202 430.792 997.202 430.792 997.203 430.792 1000.22 432.68 1000.22 432.68 1000.22 432.68 1001.17 434.18 1002.68 421.99 1003.25 422.189 1003.25 422.189 1003.47 422.268 1006.27 420.411 1006.27 420.411 1006.27 420.411 1009.23 395.922 1009.29 396.633 1009.29 396.633 1010.82 400.874 1012.31 391.433 1012.31 391.433 1012.31 391.433 1014.08 391.367 1015.33 392.454 1015.33 392.454 1015.33 392.454 1016.09 392.318 1018.35 397.123 1018.35 397.123 1018.36 397.123 1018.97 398.428 1021.35 350.568 1021.38 350.569 1021.38 350.569 1023.28 350.579 1024.4 350.546 1024.4 350.546 1024.4 350.546 1025.05 350.542 1026.6 351.482 1027.42 351.356 1027.42 351.356 1029.02 351.302 1030.44 351.641 1030.44 351.641 1030.44 351.641 1033.46 356.017 1033.46 356.017 1033.46 356.017 1034.86 357.147 1036.49 356.606 1036.49 356.606 1037.43 356.408 1039.5 360.138 1039.51 360.138 1039.51 360.138 1040.79 357.212 1042.53 366.755 1042.53 366.755 1042.53 366.755 1043.38 366.91 1045.55 363.836 1045.55 363.836 1045.55 363.814 1046.44 344.488 1048.57 351.951 1048.57 351.963 1051.12 353.387 1051.59 353.134 1051.6 353.133 1053.48 359.098 1054.62 345.575 1054.62 345.575 1054.65 344.488 1057.64 344.488 1057.64 344.488 1060.66 350.001 1060.66 350.001 1060.66 350.001 1061.35 352.549 1063.68 351.975 1063.68 351.975 1063.95 351.98 1065.18 344.488 1066.7 344.495 1066.7 344.495 1067.45 344.488 1069.73 344.488 1069.73 344.488 1072.75 344.988 1072.75 344.988 1072.75 344.988 1073.64 345.009 1074.51 344.488 1075.77 344.488 1075.77 344.488 1078.79 344.488 1078.79 344.488 1081.81 344.862 1081.81 344.862 1081.81 344.862 1082.83 344.985 1084.83 344.909 1084.84 344.909 1085.17 344.488 1087.02 345.648 1087.86 344.488 1087.86 344.488 1090.88 355.639 1090.88 355.639 1090.88 355.639 1091.34 355.709 1093.9 347.231 1093.9 347.231 1093.9 347.231 1093.92 344.488 1096.92 346.059 1096.92 346.059 1099.94 346.964 1099.94 346.964 1099.94 346.964 1102.96 348.04 1102.97 348.04 1102.97 348.04 1103.13 348.026 1105.98 348.304 1105.99 348.304 1105.99 348.304 1106.57 344.488 1109.01 347.334 1109.01 347.336 1112.03 347.829 1112.03 347.829 1112.03 347.832 1113.05 348.171 1114.14 344.488 1115.05 344.488 1115.05 344.488 1118.08 344.488 1118.08 344.488 1121.1 344.652 1121.1 344.652 1121.1 344.652 1124.12 345.506 1124.12 345.506 1124.12 345.506 1126.34 345.31 1127.14 346.858 1127.14 346.858 1127.14 346.858 1127.75 347.155 1128.42 344.488 1130.16 344.488 1130.16 344.488 1132.35 347.198 1133.18 347.076 1133.18 347.076 1133.49 347.067 1136.2 354.541 1136.21 354.541 1136.21 354.541 1137.18 354.6 1139.23 353.873 1139.23 353.873 1139.23 353.873 1140.89 354.007 1141.67 344.488 1142.25 344.488 1142.25 344.488 1144.94 345.461 1145.27 345.406 1145.27 345.406 1148.29 344.933 1148.29 344.933 1148.29 344.933 1149.25 344.488 1151.32 344.488 1151.32 344.488 1154.34 344.488 1154.34 344.488 1157.36 344.488 1157.36 344.488 1158.12 344.717 1160.38 344.488 1160.38 344.488 1163.4 344.488 1163.4 344.488 1166.42 344.488 1166.42 344.488 1169.44 345.379 1169.45 345.379 1169.45 345.38 1172.46 348.409 1172.47 348.409 1172.47 348.409 1175.45 348.602 1175.49 348.394 1175.49 348.394 1176.28 344.488 1178.51 346.196 1178.51 346.196 1179.42 346.311 1181.53 345.741 1181.53 345.741 1181.53 345.741 1182.28 346.012 1184.55 344.643 1184.56 344.643 1184.56 344.643 1186.14 344.648 1186.16 344.488 1187.58 344.488 1187.58 344.488 1190.6 350.77 1190.6 350.77 1190.6 350.77 1193.51 350.524 1193.62 350.848 1193.62 350.848 1193.62 350.848 1196.64 351.843 1196.64 351.843 1196.64 351.843 1197.9 352.395 1198.53 344.488 1199.66 344.488 1199.66 344.488 1202.69 344.488 1202.69 344.488 1205.71 344.859 1205.71 344.859 1205.71 344.859 1208.73 346.452 1208.73 346.452 1208.73 346.452 1211.4 346.236 1211.75 347.13 1211.75 347.13 1211.75 347.13 1213.37 347.81 1214.77 347.782 1214.77 347.782 1217.21 347.999 1217.79 344.712 1217.8 344.712 1217.8 344.712 1217.87 344.488 1220.82 344.504 1220.82 344.504 1223.84 344.622 1223.84 344.622 1223.84 344.622 1224.74 348.657 1226.4 344.488 1226.86 344.488 1226.86 344.488 1229.88 345.652 1229.88 345.652 1229.88 345.659 1231.52 344.689 1232.9 351.29 1232.9 351.29 1232.9 351.292 1235.92 351.492 1235.93 351.492 1235.93 351.492 1236.5 351.492 1238.55 350.841 1238.95 350.844 1238.95 350.844 1241.97 351.746 1241.97 351.746 1244.99 356.661 1244.99 356.661 1244.99 356.661 1246.33 359.328 1248.01 357.802 1248.01 357.802 1248.49 357.785 1249.54 363.227 1251.04 362.395 1251.04 362.395 1252.91 362.266 1254.06 362.715 1254.06 362.715 1254.06 362.715 1255.23 362.793 1257.08 361.545 1257.08 361.545 1257.08 361.545 1259.53 344.488 1260.1 344.488 1260.1 344.488 1263.12 344.656 1263.12 344.656 1263.12 344.656 1264.75 345.077 1264.88 344.488 1266.14 344.488 1266.14 344.488 1269.16 392.354 1269.17 392.354 1269.17 392.354 1271.79 393.202 1272.19 393.086 1272.19 393.086 1274.31 393.162 1275.21 389.971 1275.21 389.971 1275.21 389.971 1278.1 382.762 1278.23 383.016 1278.23 383.016 1278.85 380.61 1281.25 421.872 1281.25 421.872 1281.25 421.872 1284.08 421.976 1284.28 421.915 1284.28 421.915 1286.01 421.732 1287.3 421.805 1287.3 421.805 1289.85 422.866 1290.32 392.914 1290.32 392.914 1290.32 392.914 1293.34 346.982 1293.34 346.982 1293.34 346.982 1295.84 346.923 1296.36 346.942 1296.36 346.942 1296.41 346.943 1297.09 344.488 1299.38 345.999 1299.39 345.999 1299.64 346.112 1301.89 344.488 1302.41 344.488 1302.41 344.488 1304.41 344.716 1305.43 344.488 1305.43 344.488 1308.45 344.488 1308.45 344.488 1311.47 345.404 1311.47 345.404 1311.47 345.404 1313.22 346.162 1313.72 344.488 1314.49 344.488 1314.49 344.488 1317.52 344.488 1317.52 344.488 1320.1 365.195 1320.54 365.115 1320.54 365.115 1322.6 365.076 1323.56 365.157 1323.56 365.157 1323.56 365.157 1325.76 365.147 1326.58 365.16 1326.58 365.16 1326.58 365.16 1329.6 370.834 1329.6 370.834 1329.6 370.834 1332.62 372.262 1332.62 372.262 1332.62 372.262 1335.64 374.885 1335.65 374.885 1335.65 374.885 1338.67 375.27 1338.67 375.27 1338.67 375.27 1339.28 375.299 1340.63 375.106 1341.69 375.267 1341.69 375.267 1342.19 375.275 1344.71 373.619 1344.71 373.619 1344.71 373.619 1344.98 373.528 1346.76 378.96 1347.73 378.429 1347.73 378.429 1349.53 379.878 1350.75 374.634 1350.76 374.634 1350.76 374.634 1352.22 374.65 1353.77 361.635 1353.78 361.635 1353.78 361.633 1356.8 361.238 1356.8 361.238 1356.8 361.234 1359.82 360.627 1359.82 360.627 1361.12 360.724 1362.02 360.426 1362.84 360.448 1362.84 360.448 1365.05 360.451 1365.86 360.142 1365.86 360.142 1365.86 360.142 1367.25 358.458 1368.89 367.335 1368.89 367.335 1368.89 367.335 1370.62 364.546 1371.91 395.534 1371.91 395.534 1371.91 395.534 1374.93 401.244 1374.93 401.244 1374.93 401.244 1377.91 404.036 1377.95 403.689 1377.95 403.689 1380.97 391.203 1380.97 391.203 1380.97 391.203 1382.08 385.732 1383.99 434.358 1384 434.358 1384 434.358 1385.49 434.369 1387.02 434.324 1387.02 434.324 1387.02 434.324 1387.78 434.323 1390.01 434.985 1390.04 434.958 1390.04 434.958 1393.06 434.215 1393.06 434.215 1393.06 434.215 1393.4 434.214 1396.08 435.727 1396.08 435.727 1396.08 435.727 1398.67 438.893 1399.1 437.256 1399.11 437.256 1402.12 418.867 1402.13 418.867 1402.13 418.867 1402.58 418.833 1405.15 422.894 1405.15 422.894 1405.15 422.894 1408.17 422.899 1408.17 422.899 1408.17 422.899 1409.82 422.899 1411.19 422.585 1411.19 422.585 1411.19 422.585 1414.21 421.559 1414.21 421.559 1414.21 421.559 1416.48 420.28 1417.23 422.477 1417.24 422.477 1417.24 422.48 1420.25 426.32 1420.26 426.32 1420.26 426.321 1423.28 426.759 1423.28 426.759 1423.69 426.76 1425.31 426.494 1426.3 426.509 1426.3 426.509 1429.32 428.103 1429.32 428.103 1429.32 428.103 1430.47 428.107 1432.34 427.663 1432.34 427.663 1432.34 427.663 1434.2 427.715 1435.37 416.217 1435.37 416.217 1435.37 416.217 1438.39 402.11 1438.39 402.11 1438.39 402.11 1441.41 392.524 1441.41 392.524 1441.41 392.524 1442.15 392.519 1444.43 393.024 1444.43 393.024 1444.43 393.024 1446.75 393.027 1447.45 392.996 1447.45 392.996 1447.45 392.996 1448.19 393.028 1450.47 378.741 1450.48 378.741 1450.48 378.741 1453.5 371.775 1453.5 371.775 1453.5 371.775 1456.08 349.421 1456.52 350.55 1456.52 350.55 1456.93 350.914 1458.6 344.488 1459.54 344.488 1459.54 344.488 1462.56 348.515 1462.56 348.515 1462.56 348.515 1465.58 348.81 1465.58 348.81 1465.59 348.81 1465.69 348.81 1466.88 344.488 1468.61 344.488 1468.61 344.488 1471.63 345.16 1471.63 345.16 1471.63 345.16 1474.19 346.561 1474.65 346.428 1474.65 346.428 1474.69 346.422 1476.4 350.608 1477.67 349.553 1477.67 349.552 1479.61 349.571 1480.69 347.402 1480.69 347.402 1480.69 347.4 1482.68 344.488 1483.72 344.488 1483.72 344.488 1486.74 344.488 1486.74 344.488 1489.76 344.596 1489.76 344.596 1489.76 344.596 1492.78 344.687 1492.78 344.687 1492.78 344.687 1495.04 344.689 1495.8 344.575 1495.8 344.575 1495.8 344.575 1497.94 346.441 1498.35 344.488 1498.83 344.488 1498.83 344.488 1501.85 345.868 1501.85 345.868 1501.85 345.868 1504.87 351.604 1504.87 351.604 1504.87 351.604 1507.89 352.097 1507.89 352.097 1507.89 352.097 1510.27 352.251 1510.91 352.25 1510.91 352.25 1511.3 352.27 1513.93 351.997 1513.93 351.997 1513.93 351.997 1515.17 354.871 1516.73 347.592 1516.96 348.242 1516.96 348.242 1519.34 349.33 1519.98 349.325 1519.98 349.325 1520.75 349.324 1523 350.464 1523 350.464 1523 350.464 1523.36 350.466 1526.02 348.724 1526.02 348.724 1526.02 348.724 1527.55 344.488 1529.04 348.304 1529.04 348.304 1531.74 348.367 1532.07 348.367 1532.07 348.367 1534.99 348.525 1535.08 348.358 1535.09 348.358 1535.09 348.358 1537.54 344.488 1538.11 344.488 1538.11 344.488 1541.13 344.488 1541.13 344.488 1544.15 344.488 1544.15 344.488 1545.69 344.61 1547.17 344.488 1547.17 344.488 1549.92 350.655 1550.2 348.872 1550.2 348.872 1550.62 344.488 1553.22 344.488 1553.22 344.488 1556.24 346.659 1556.24 346.659 1556.24 346.659 1558.25 344.488 1559.26 393.711 1559.26 393.711 1559.26 393.711 1562.06 394.894 1562.28 394.29 1562.28 394.29 1565.3 380.564 1565.31 380.564 1565.31 380.564 1568.33 377.843 1568.33 377.843 1568.33 377.843 1571.35 357.724 1571.35 357.724 1571.35 357.724 1573.16 356.836 1574.37 362.363 1574.37 362.363 1574.37 362.363 1577.39 363.159 1577.39 363.159 1577.39 363.159 1580.1 367.877 1580.41 367.439 1580.41 367.439 1583.43 363.59 1583.44 363.59 1583.44 363.59 1584.71 358.698 1586.46 360.41 1586.46 360.41 1589.48 360.56 1589.48 360.56 1589.48 360.56 1592.5 360.72 1592.5 360.72 1592.5 360.72 1593.54 360.768 1594.62 358.292 1595.52 359.957 1595.52 359.957 1596.67 359.985 1598.49 344.488 1598.54 344.488 1598.55 344.488 1601.57 344.488 1601.57 344.488 1604.59 348.626 1604.59 348.626 1604.59 348.628 1605.87 348.822 1607.61 347.826 1607.61 347.826 1608.26 347.746 1610.63 350.355 1610.63 350.355 1613.65 353.513 1613.65 353.513 1613.65 353.513 1616.01 354.253 1616.68 351.192 1616.68 351.192 1616.68 351.192 1617.09 344.488 1619.7 344.721 1619.7 344.721 1620.81 344.717 1622.72 347.691 1622.72 347.691 1622.72 347.691 1625.74 355.131 1625.74 355.131 1625.74 355.131 1627.29 355.426 1628.1 344.488 1628.76 344.488 1628.76 344.488 1631.78 345.629 1631.79 345.629 1631.79 345.629 1633.32 346.001 1634.81 345.53 1634.81 345.53 1634.81 345.53 1634.87 345.525 1637.83 346.249 1637.83 346.249 1637.83 346.249 1640.85 346.253 1640.85 346.253 1640.85 346.253 1643.1 346.053 1643.87 346.885 1643.87 346.885 1643.87 346.885 1644.09 346.909 1644.37 344.488 1646.89 345.37 1646.89 345.37 1647.15 344.488 1649.91 349.252 1649.92 349.252 1649.92 349.252 1650.82 349.71 1651.37 344.488 1652.94 344.488 1652.94 344.488 1655.17 344.492 1655.96 344.488 1655.96 344.488 1657.22 344.488 1658.98 344.488 1658.98 344.488 1662 344.739 1662 344.739 1662 344.759 1665.02 347.405 1665.03 347.405 1665.03 347.406 1666.4 351.856 1666.98 344.488 1668.05 344.488 1668.05 344.488 1671.07 344.488 1671.07 344.488 1674.09 344.522 1674.09 344.522 1674.09 344.522 1675.6 344.514 1677.11 345.701 1677.11 345.701 1677.11 345.701 1678.64 347.802 1680.13 346.776 1680.13 346.776 1680.32 346.76 1681.5 347.314" stroke="#000000" stroke-width="12.0872" stroke-linejoin="round" stroke-miterlimit="10" fill="none" fill-rule="evenodd" transform="matrix(1.00066 0 0 1 232 476)"/><path d="M264.712 1352.57 265.92 1352.26 265.92 1352.26 265.921 1352.26 268.288 1343.1 268.942 1345.33 268.943 1345.33 271.963 1349.92 271.964 1349.92 271.965 1349.92 274.084 1351.21 274.984 1345.19 274.986 1345.19 274.986 1345.19 276.432 1342.88 278.008 1342.89 278.008 1342.89 279.175 1342.51 281.028 1344.25 281.029 1344.25 281.03 1344.25 281.48 1344.88 284.05 1337.87 284.051 1337.87 284.052 1337.87 284.675 1336.84 287.071 1342.84 287.073 1342.84 287.073 1342.84 290.093 1343.28 290.095 1343.28 290.096 1343.28 290.526 1343.29 293.114 1327.26 293.117 1327.26 293.117 1327.26 296.136 1326.04 296.139 1326.04 296.139 1326.04 299.158 1324.72 299.16 1324.72 299.161 1324.72 300.7 1324.93 302.179 1324.18 302.182 1324.18 302.183 1324.18 305.201 1322.6 305.204 1322.6 305.204 1322.6 305.933 1322.57 307.223 1323.11 308.226 1322.91 308.227 1322.91 309.655 1322.92 311.244 1322.88 311.248 1322.88 311.248 1322.88 312.995 1322.59 313.743 1325.19 314.27 1324.91 314.27 1324.91 314.53 1324.85 317.291 1325.61 317.292 1325.61 320.313 1328.84 320.313 1328.84 320.314 1328.84 321.493 1328.94 323.335 1319.11 323.335 1319.11 323.335 1319.11 326.097 1319.01 326.357 1319.04 326.357 1319.04 326.553 1319.05 329.378 1317.01 329.379 1317.01 329.379 1317.01 331.341 1317.27 332.399 1316.21 332.401 1316.21 332.401 1316.21 334.135 1315.51 335.421 1316.69 335.422 1316.69 335.423 1316.69 338.443 1318.45 338.444 1318.45 338.444 1318.45 339.556 1317.57 341.465 1324.9 341.466 1324.9 341.466 1324.9 342.507 1325.43 344.488 1325.33 344.488 1325.33 345.8 1325.33 347.508 1325.37 347.51 1325.37 347.51 1325.37 350.529 1334.54 350.531 1334.54 350.532 1334.54 351.91 1340.23 353.551 1324.92 353.554 1324.92 353.554 1324.92 356.573 1305.86 356.575 1305.86 356.575 1305.86 359.594 1305.58 359.597 1305.58 359.597 1305.58 362.612 1305.25 362.619 1305.25 362.619 1305.25 364.398 1305.46 365.472 1286.74 365.641 1288.16 365.641 1288.16 367.483 1290.95 368.662 1290.66 368.663 1290.66 368.958 1290.66 371.681 1292.98 371.684 1292.98 371.685 1292.98 374.703 1298.74 374.706 1298.74 374.706 1298.76 376.359 1302.09 377.728 1277.51 377.728 1277.51 378.373 1277.41 380.75 1278.85 380.75 1278.85 383.327 1280.88 383.772 1280.67 383.772 1280.67 386.749 1273.2 386.793 1273.42 386.794 1273.42 389.275 1293.8 389.815 1292.32 389.816 1292.32 391.77 1291.14 392.836 1296.78 392.837 1296.78 392.837 1296.78 393.658 1296.96 395.858 1296.04 395.859 1296.04 395.859 1296.04 398.879 1295.42 398.881 1295.42 398.881 1295.42 399.332 1295.4 401.854 1302.14 401.903 1301.92 401.903 1301.92 404.922 1293.72 404.924 1293.72 404.925 1293.72 407.323 1293.91 407.944 1292.23 407.946 1292.23 407.947 1292.23 409.652 1286.09 410.968 1286.41 410.968 1286.41 411.261 1286.26 412.174 1288.87 413.99 1287.82 413.99 1287.82 416.313 1294.86 417.009 1277.73 417.011 1277.73 417.012 1277.73 420.031 1275.99 420.034 1275.99 420.034 1275.99 420.495 1276.12 421.479 1261.87 423.055 1262.98 423.056 1262.98 423.143 1262.97 426.074 1269.75 426.077 1269.75 426.078 1269.75 429.096 1273.13 429.099 1273.13 429.099 1273.13 431.504 1273.13 432.117 1273.65 432.121 1273.65 432.121 1273.65 435.139 1274.01 435.142 1274.01 435.143 1274.01 438.164 1290.36 438.165 1290.36 438.664 1290.54 440.907 1288.82 441.186 1288.83 441.187 1288.83 442.481 1288.84 444.208 1288.02 444.208 1288.02 444.209 1288.02 446.722 1292.58 447.23 1265.72 447.23 1265.72 447.23 1265.72 450.251 1261.29 450.252 1261.29 450.252 1261.29 453.273 1258.89 453.273 1258.89 453.274 1258.89 453.395 1258.86 456.294 1266.81 456.295 1266.81 456.296 1266.81 456.578 1267.39 459.316 1250.22 459.317 1250.22 459.318 1250.22 460.78 1250.2 462.337 1253.76 462.339 1253.76 462.34 1253.76 465.359 1255.63 465.361 1255.63 465.361 1255.63 467.208 1260.44 468.383 1260.29 468.383 1260.29 469.317 1260.32 471.403 1259.37 471.404 1259.37 471.405 1259.37 474.424 1233.76 474.426 1233.76 474.427 1233.76 477.446 1220.39 477.448 1220.39 477.448 1220.39 480.467 1219.99 480.47 1219.99 480.471 1219.99 480.758 1219.75 483.489 1220.93 483.492 1220.93 483.492 1220.93 483.627 1220.93 484.583 1220.84 486.514 1220.89 486.514 1220.89 488.407 1220.44 489.532 1221 489.535 1221 489.536 1221 489.745 1221.08 492.554 1211.49 492.557 1211.49 492.558 1211.49 493.947 1211.51 495.575 1195.97 495.579 1195.97 495.579 1195.97 496.685 1195.53 497.169 1196.17 498.601 1196.01 498.602 1196.01 499.49 1196.4 501.623 1178.37 501.623 1178.37 504.644 1177.96 504.645 1177.96 504.645 1177.96 507.666 1176.96 507.666 1176.96 507.667 1176.96 508.476 1176.78 510.688 1176.78 510.689 1176.78 512.332 1176.68 513.178 1176.82 513.71 1176.8 513.71 1176.8 516.731 1175.34 516.732 1175.34 516.732 1175.34 517.872 1175.34 519.752 1175.35 519.754 1175.35 519.754 1175.35 520.764 1175.35 521.731 1174.8 522.775 1175 522.776 1175 524.128 1175.02 525.796 1174.56 525.798 1174.56 525.798 1174.56 526.441 1173.68 528.314 1182.82 528.819 1182.27 528.819 1182.27 530.446 1182.06 531.841 1182.12 531.841 1182.12 534.192 1182.78 534.863 1182.63 534.863 1182.63 535.097 1182.61 537.882 1184.39 537.885 1184.39 537.885 1184.39 540.243 1183.53 540.853 1187.19 540.906 1186.96 540.907 1186.96 543.926 1181.15 543.928 1181.15 543.929 1181.15 546.947 1125.69 546.95 1125.69 546.95 1125.69 549.28 1098.06 549.972 1103.7 549.972 1103.7 552.99 1105.7 552.994 1105.7 552.994 1105.7 556.012 1108.6 556.016 1108.6 556.016 1108.6 558.919 1108.74 559.037 1108.71 559.038 1108.71 561.221 1110.2 562.059 1107.59 562.06 1107.59 563.318 969.656 565.081 970.55 565.081 970.55 566.049 972.069 568.102 966.112 568.103 966.112 568.103 966.112 570.939 957.357 571.125 957.899 571.125 957.899 574.146 959.525 574.147 959.525 574.147 959.525 575.944 959.713 577.168 959.296 577.168 959.296 577.169 959.296 580.189 959.264 580.19 959.264 580.191 959.264 583.211 959.262 583.212 959.262 583.212 959.262 583.821 959.262 585.237 959.858 586.234 959.402 586.234 959.402 589.254 945.187 589.255 945.187 589.256 945.187 589.463 945.187 591.745 945.873 592.278 945.495 592.278 945.495 592.976 945.385 595.297 974.03 595.299 974.03 595.3 974.03 598.319 975.692 598.321 975.692 598.322 975.692 601.341 976.643 601.343 976.643 601.343 976.643 604.24 979.077 604.365 979.034 604.365 979.034 605.294 978.94 607.384 980.249 607.386 980.249 607.387 980.249 609.032 981.04 610.405 953.774 610.409 953.774 610.409 953.774 613.427 926.106 613.43 926.106 613.431 926.106 614.966 924.809 616.449 928.003 616.452 928.003 616.453 928.003 619.47 930.918 619.474 930.918 619.474 930.925 621.217 931.641 622.496 921.753 622.496 921.753 625.517 920.644 625.518 920.644 626.297 919.599 628.539 989.947 628.539 989.947 628.54 989.947 631.561 993.147 631.561 993.147 631.562 993.147 634.22 995.468 634.583 995.428 634.584 995.428 637.604 995.16 637.605 995.16 637.605 995.16 637.789 995.158 640.626 1005.8 640.627 1005.8 640.627 1005.8 641.07 1005.97 643.647 999.863 643.648 999.863 643.649 999.863 646.248 988.875 646.67 988.954 646.671 988.954 648.896 988.997 649.692 988.964 649.693 988.964 652.712 994.976 652.714 994.976 652.715 994.976 655.372 1000.73 655.736 999.516 655.736 999.516 658.146 994.767 658.758 995.603 658.758 995.603 660.522 993.763 661.777 999.849 661.779 999.849 661.78 999.849 664.799 1001.12 664.801 1001.12 664.802 1001.12 667.82 1004.47 667.823 1004.47 667.823 1004.47 670.842 1005 670.845 1005 670.846 1005 671.475 1005.01 673.864 1004.91 673.867 1004.91 673.867 1004.91 675.595 1004.91 676.885 1005.2 676.889 1005.2 676.889 1005.21 679.769 1007.21 679.91 1005.94 679.911 1005.91 681.303 990.064 682.932 990.097 682.933 990.097 684.022 990.114 685.954 988.192 685.954 988.192 686.733 988.404 688.751 982.39 688.976 982.412 688.977 982.412 691.997 989.776 691.998 989.776 691.998 989.776 693.095 989.788 695.019 978.346 695.019 978.346 695.02 978.346 695.943 978.288 698.04 979.19 698.041 979.19 698.042 979.19 701.062 979.357 701.063 979.357 701.063 979.357 703.289 978.243 704.084 979.888 704.085 979.888 704.085 979.888 704.898 980.107 706.303 978.898 707.107 978.931 707.107 978.931 707.664 978.934 710.127 972.883 710.129 972.883 710.129 972.883 711.594 972.785 713.149 980.051 713.15 980.051 713.151 980.051 714.297 980.251 716.17 979.935 716.172 979.935 716.173 979.935 717.917 979.747 718.444 982.156 719.194 981.772 719.194 981.772 721.43 980.44 722.214 983.629 722.216 983.629 722.216 983.629 723.984 983.958 725.196 956.628 725.238 956.877 725.238 956.877 728.257 967.553 728.26 967.553 728.26 967.553 731.279 973.712 731.281 973.712 731.282 973.712 731.845 973.75 734.3 949.562 734.303 949.562 734.304 949.562 737.322 943.86 737.325 943.86 737.325 943.86 740.343 942.428 740.347 942.428 740.347 942.428 742.374 941.978 743.369 942.315 743.369 942.325 744.923 944.988 746.391 944.005 746.391 944.005 749.098 943.974 749.412 944.004 749.413 944.004 749.747 944.018 752.434 942.537 752.434 942.537 752.435 942.537 753.827 942.338 755.455 942.732 755.456 942.732 755.456 942.732 756.333 942.521 758.477 946.32 758.478 946.32 758.478 946.32 761.499 946.659 761.5 946.659 761.5 946.659 761.975 946.687 764.521 930.868 764.522 930.868 764.522 930.868 767.542 930.821 767.543 930.821 767.544 930.821 767.802 930.817 770.198 932.63 770.565 932.619 770.566 932.619 771.374 932.614 773.585 933.039 773.587 933.039 773.587 933.039 774.038 933.041 776.607 931.478 776.609 931.478 776.609 931.478 777.162 931.53 779.629 931.468 779.63 931.468 779.631 931.468 780.718 931.467 782.65 932.826 782.653 932.826 782.653 932.826 784.318 934.72 785.672 931.017 785.674 931.017 785.675 931.017 788.693 919.957 788.696 919.957 788.697 919.957 790.916 910.876 791.718 911.549 791.718 911.549 794.497 911.923 794.74 911.87 794.74 911.87 794.808 911.86 797.759 912.257 797.761 912.257 797.762 912.257 800.78 912.761 800.784 912.761 800.784 912.761 801.138 912.763 802.791 887.367 803.805 892.454 803.806 892.458 806.579 892.875 806.827 892.791 806.828 892.791 809.849 885.573 809.849 885.573 811.934 887.948 812.87 883.226 812.871 883.226 812.871 883.226 815.892 876.378 815.892 876.378 815.893 876.378 817.352 876.39 818.914 875.182 818.914 875.182 818.915 875.182 821.935 874.518 821.936 874.518 821.937 874.518 824.957 872.488 824.958 872.488 824.959 872.488 827.978 867.582 827.98 867.582 827.98 867.582 829.627 867.167 831 873.653 831.002 873.653 831.002 873.653 833.117 873.963 834.022 873.63 834.023 873.63 834.024 873.63 837.044 873.563 837.045 873.563 837.046 873.563 839.617 873.294 840.065 873.94 840.067 873.94 840.067 873.94 843.087 874.981 843.089 874.981 843.09 874.981 843.775 875.01 845.526 874.818 846.111 874.824 846.111 874.824 849.13 878.695 849.133 878.695 849.133 878.695 850.527 880.798 851.518 857.402 852.154 857.604 852.155 857.604 855.173 859.352 855.176 859.352 855.177 859.352 857.577 865.16 858.198 862.925 858.198 862.925 861.216 854.039 861.22 854.039 861.221 854.039 861.866 854.032 862.617 854.084 864.242 854.065 864.242 854.065 865.277 854.065 867.264 854.078 867.264 854.078 867.665 853.97 870.286 858.596 870.286 858.596 872.327 856.084 873.307 861.249 873.307 861.249 876.329 865.024 876.329 865.024 876.329 865.024 879.138 866.463 879.351 866.328 879.351 866.328 879.464 866.281 882.372 873.171 882.373 873.171 882.373 873.171 884.674 874.416 885.394 874.356 885.395 874.356 886.389 874.345 888.415 876.976 888.417 876.976 888.417 876.976 891.437 877.022 891.438 877.022 891.438 877.022 891.563 877.022 894.458 851.682 894.46 851.682 894.46 851.682 897.169 850.761 897.482 851.143 897.482 851.143 899.931 854.443 900.504 854.061 900.504 854.061 903.315 853.944 903.523 854.614 903.525 854.614 903.526 854.614 906.545 855.968 906.547 855.968 906.548 855.968 909.567 856.306 909.569 856.306 909.569 856.306 909.645 856.306 912.588 847.936 912.591 847.936 912.591 847.936 915.61 847.91 915.613 847.91 915.613 847.91 918.293 847.33 918.631 848.78 918.635 848.78 918.635 848.78 918.946 849.363 920.874 747.215 921.656 747.596 921.657 747.596 921.685 747.594 924.675 777.368 924.678 777.368 924.679 777.368 925.658 777.385 927.637 777.293 927.7 777.314 927.7 777.315 928.703 777.43 930.722 766.888 930.722 766.888 933.744 750.952 933.744 750.952 935.644 751.498 936.765 717.121 936.766 717.121 936.766 717.121 938.5 716.186 939.787 716.427 939.788 716.427 942.809 716.468 942.809 716.468 942.81 716.468 945.83 716.506 945.831 716.506 945.831 716.506 948.852 718.72 948.853 718.72 948.853 718.72 951.873 737.099 951.875 737.099 951.875 737.099 954.895 739.433 954.897 739.433 954.897 739.433 957.917 744.992 957.918 744.992 957.919 744.992 960.938 748.518 960.94 748.518 960.941 748.518 962.823 753.061 963.96 742.359 963.962 742.359 963.962 742.359 966.037 740.062 966.984 741.755 966.984 741.755 967.052 741.761 970.003 741.071 970.005 741.071 970.006 741.071 971.734 741.07 973.025 741.582 973.028 741.582 973.028 741.582 974.205 741.697 976.046 741.318 976.049 741.318 976.05 741.318 978.726 741.314 979.068 741.399 979.071 741.399 979.072 741.399 982.09 741.552 982.093 741.552 982.093 741.552 982.912 741.558 985.111 729.628 985.115 729.628 985.115 729.628 986.956 729.604 988.133 731.418 988.136 731.418 988.137 731.42 990.38 731.63 990.966 731.014 991.159 731.067 991.159 731.067 994.18 733.271 994.18 733.271 997.202 733.32 997.202 733.32 997.203 733.32 997.446 733.32 1000.22 733.289 1000.22 733.289 1000.22 733.289 1002.36 733.271 1003.24 733.944 1003.25 733.944 1003.25 733.944 1004.55 734.024 1006.27 733.905 1006.27 733.905 1006.27 733.905 1008.41 729.777 1009.29 735.925 1009.29 735.925 1009.29 735.925 1010.47 735.96 1011.86 735.813 1012.31 735.813 1012.31 735.813 1012.5 735.811 1015.33 735.83 1015.33 735.83 1015.33 735.83 1018.35 735.831 1018.35 735.831 1018.36 735.831 1019.07 735.831 1021.37 719.193 1021.38 719.193 1021.38 719.193 1024.4 714.057 1024.4 714.057 1024.4 714.057 1027.42 694.864 1027.42 694.864 1027.42 694.864 1029.09 694.7 1030.44 702.632 1030.44 702.632 1030.44 702.632 1031.79 703.547 1033.46 703.429 1033.46 703.429 1035.98 704.161 1036.48 703.245 1036.49 703.245 1036.49 703.245 1036.61 703.23 1037.75 706.887 1039.51 706.422 1039.51 706.422 1041.98 706.419 1042.31 709.754 1042.53 709.09 1042.53 709.09 1045.25 696.334 1045.55 699.128 1045.55 699.153 1048.57 701.53 1048.57 701.53 1048.57 701.53 1051.59 702.184 1051.59 702.184 1051.6 702.184 1053.03 702.18 1053.37 702.349 1054.62 702.318 1054.62 702.318 1055.52 702.305 1057.64 702.56 1057.64 702.56 1059.05 702.563 1060.66 702.489 1060.66 702.489 1060.66 702.489 1060.79 702.488 1063.68 702.771 1063.68 702.771 1063.68 702.771 1064.72 703.187 1066.7 699.398 1066.7 699.398 1066.7 699.398 1069.72 669.057 1069.73 669.057 1069.73 669.057 1071.66 669.024 1072.75 671.435 1072.75 671.435 1072.75 671.435 1074.37 672.566 1075.77 641.363 1075.77 641.363 1075.77 641.363 1076.11 641.243 1078.79 642.187 1078.79 642.187 1078.79 642.187 1080.84 645.446 1081.81 645.408 1081.81 645.408 1084.02 644.273 1084.83 673.062 1084.83 673.062 1084.84 673.062 1085.26 672.102 1087.85 684.988 1087.86 684.988 1087.86 684.988 1090.05 684.837 1090.88 686.674 1090.88 686.674 1090.88 686.674 1091.63 686.895 1093.9 676.359 1093.9 676.359 1093.9 676.359 1095.14 676.186 1096.92 677.595 1096.92 677.595 1096.92 677.595 1099.94 677.638 1099.94 677.638 1099.94 677.638 1100.64 677.644 1102.96 677.358 1102.97 677.358 1102.97 677.358 1103.64 677.351 1105.98 677.994 1105.99 677.994 1105.99 677.994 1106.81 678.026 1108.11 677.14 1109.01 677.233 1109.01 677.233 1112.03 677.246 1112.03 677.246 1112.03 677.246 1115.05 677.457 1115.05 677.457 1118.08 682.947 1118.08 682.947 1120.68 683.274 1121.1 682.632 1121.1 682.632 1121.1 682.632 1121.94 682.044 1124.12 688.025 1124.12 688.025 1124.12 688.025 1125.74 687.818 1127.14 688.516 1127.14 688.516 1127.14 688.516 1127.91 688.528 1130.16 688.518 1130.16 688.518 1131.92 688.24 1133.18 688.749 1133.18 688.749 1133.18 688.749 1134.63 688.758 1136.21 688.754 1136.21 688.754 1136.56 688.754 1138.64 689.718 1139.23 689.691 1139.23 689.691 1140.06 689.683 1142.25 695.98 1142.25 695.98 1142.25 695.98 1145.27 699.463 1145.27 699.463 1145.27 699.463 1145.35 699.472 1148.29 684.308 1148.29 684.308 1148.29 684.308 1151.31 683.134 1151.32 683.134 1151.32 683.134 1153.94 658.41 1154.34 658.63 1154.34 658.63 1154.65 658.699 1157.36 655.315 1157.36 655.315 1157.36 655.315 1160.38 597.616 1160.38 597.616 1160.38 597.616 1163.4 518.389 1163.4 518.389 1163.4 518.389 1165.19 518.169 1166.42 518.198 1166.42 518.198 1166.92 518.197 1169.44 519.072 1169.45 519.072 1169.45 519.072 1172.04 520.719 1172.46 518.156 1172.47 518.156 1172.47 518.13 1175.49 487.038 1175.49 487.038 1175.74 487.038 1177.92 487.665 1178.51 487.178 1178.51 487.178 1180.12 487.232 1181.53 459.188 1181.53 459.188 1181.53 459.188 1184.55 458.527 1184.56 458.527 1184.56 458.527 1187.33 457.814 1187.58 458.67 1187.58 458.67 1187.58 458.67 1190.37 459.619 1190.6 459.598 1190.6 459.598 1193.62 455.753 1193.62 455.753 1193.62 455.753 1194.63 344.488 1196.64 344.499 1196.64 344.499 1198.7 344.488 1199.66 345.431 1199.66 345.431 1199.66 345.431 1201.86 346.161 1202.69 346.155 1202.69 346.155 1203.96 346.154 1205.64 347.891 1205.71 347.836 1205.71 347.836 1208.73 346.042 1208.73 346.042 1208.73 346.042 1209.08 344.488 1211.75 344.488 1211.75 344.488 1214.77 348.232 1214.77 348.232 1214.77 348.232 1217.37 348.02 1217.79 351.571 1217.8 351.571 1217.8 351.571 1220.81 354.852 1220.82 354.852 1220.82 354.852 1223.36 356.162 1223.84 355.872 1223.84 355.872 1225.57 344.488 1226.86 344.534 1226.86 344.534 1229.23 347.164 1229.88 346.945 1229.88 346.945 1231.65 347.311 1232.31 344.488 1232.9 344.488 1232.9 344.488 1235.92 345.516 1235.93 345.516 1235.93 345.516 1237.79 345.357 1238.95 351.484 1238.95 351.484 1241.27 353.337 1241.97 353.335 1241.97 353.335 1244.99 353.39 1244.99 353.39 1244.99 353.39 1245.14 353.39 1248.01 352.712 1248.01 352.712 1248.01 352.712 1251.03 352.69 1251.04 352.69 1251.04 352.69 1251.2 352.69 1254.06 347.765 1254.06 347.765 1254.06 347.765 1254.85 347.729 1257.08 348.694 1257.08 348.694 1257.08 348.694 1260.1 348.74 1260.1 348.74 1260.1 348.74 1261.59 348.755 1262.18 344.488 1263.12 344.488 1263.12 344.488 1266.14 344.506 1266.14 344.506 1266.14 344.506 1267.34 344.512 1268.09 344.488 1269.17 344.488 1269.17 344.488 1272.19 344.488 1272.19 344.488 1275.21 344.488 1275.21 344.488 1277.36 368.712 1278.23 365.939 1278.23 365.939 1281.25 361.217 1281.25 361.217 1281.25 361.217 1283.47 344.488 1284.28 347.829 1284.28 347.829 1286.37 351.123 1287.29 347.236 1287.3 347.236 1287.3 347.236 1287.53 344.488 1290.32 344.488 1290.32 344.488 1293.34 344.488 1293.34 344.488 1296.36 345.127 1296.36 345.127 1296.36 345.137 1299.38 349.156 1299.39 349.156 1300.62 348.635 1301.59 368.016 1302.41 366.722 1302.41 366.722 1303.74 344.488 1305.43 344.502 1305.43 344.502 1306.1 346.399 1307.62 344.488 1308.45 344.488 1308.45 344.488 1309.77 344.79 1311.47 344.488 1311.47 344.488 1313.03 351.501 1314.49 349.636 1314.49 349.636 1317.51 347.884 1317.52 347.884 1317.52 347.884 1319.15 347.63 1320.54 349.721 1320.54 349.721 1320.54 349.721 1322.78 349.816 1323.56 349.815 1323.56 349.815 1326.04 350.739 1326.58 347.877 1326.58 347.877 1326.58 347.877 1326.75 344.488 1329.6 344.488 1329.6 344.488 1332.62 345.018 1332.62 345.018 1332.62 345.018 1333.74 345.025 1333.87 344.488 1335.65 344.488 1335.65 344.488 1338.67 347.696 1338.67 347.696 1338.67 347.696 1341.69 348.335 1341.69 348.335 1341.69 348.335 1344.71 348.703 1344.71 348.703 1344.71 348.703 1345.08 348.704 1347.73 348.027 1347.73 348.027 1347.73 348.027 1348.91 344.488 1350.76 344.488 1350.76 344.488 1353.77 349.738 1353.78 349.738 1353.78 349.738 1354.76 349.738 1356.8 350.928 1356.8 350.928 1356.8 350.932 1356.95 351.071 1357.7 344.488 1359.82 344.748 1359.82 344.748 1362.84 346.001 1362.84 346.001 1364.22 346.004 1365.7 344.488 1365.86 344.488 1365.86 344.488 1368.89 344.488 1368.89 344.488 1371.91 344.488 1371.91 344.488 1374.93 344.515 1374.93 344.515 1374.93 344.515 1376.97 344.558 1377.95 344.489 1377.95 344.489 1377.95 344.489 1378.06 344.488 1380.97 344.488 1380.97 344.488 1383.56 345.338 1384 345.333 1384 345.333 1384.23 345.347 1384.65 344.488 1387.02 344.488 1387.02 344.488 1388.77 345.029 1390.04 344.488 1390.04 344.488 1393.06 344.992 1393.06 344.992 1393.06 344.992 1394.95 345.02 1395.32 344.488 1396.08 344.488 1396.08 344.488 1399.1 348.115 1399.1 348.115 1399.11 348.115 1402.12 350.524 1402.13 350.524 1402.13 350.524 1403.08 350.607 1404.87 350.523 1405.15 350.523 1405.15 350.523 1405.9 350.524 1408.14 344.488 1408.17 344.488 1408.17 344.488 1411.19 344.64 1411.19 344.64 1411.19 344.64 1412.7 344.641 1412.75 344.488 1414.21 344.488 1414.21 344.488 1417.23 347.395 1417.24 347.395 1417.24 347.397 1418.79 347.648 1420.26 347.646 1420.26 347.646 1421.77 347.689 1422.23 344.488 1423.28 344.488 1423.28 344.488 1426.3 344.488 1426.3 344.488 1428.71 347.561 1429.32 347.549 1429.32 347.549 1430.68 350.483 1432.34 350.404 1432.34 350.404 1434.7 352.729 1435.24 344.488 1435.37 344.488 1435.37 344.488 1438.39 402.766 1438.39 402.766 1438.39 402.766 1438.84 403.123 1441.41 367.279 1441.41 367.279 1441.41 367.279 1444.43 353.996 1444.43 353.996 1444.43 353.996 1447.45 353.534 1447.45 353.534 1447.45 353.534 1448.6 352.57 1449.63 357.271 1450.48 356.962 1450.48 356.962 1453.5 356.915 1453.5 356.915 1453.5 356.915 1454.82 355.866 1456.04 358.025 1456.52 357.775 1456.52 357.775 1457.88 357.68 1459.54 360.469 1459.54 360.469 1459.54 360.469 1462.56 365.494 1462.56 365.494 1462.56 365.494 1463.98 365.97 1465.58 350.083 1465.58 350.083 1465.59 350.083 1467.09 349.964 1467.93 352.424 1468.61 351.723 1468.61 351.723 1470.54 350.615 1471.63 351.416 1471.63 351.416 1473.83 352.038 1474.65 351.967 1474.65 351.967 1476.09 344.488 1477.67 346.834 1477.67 346.844 1480.55 347.821 1480.69 347.82 1480.69 347.82 1480.75 347.82 1483.72 351.082 1483.72 351.082 1484.9 351.553 1485.68 344.488 1486.74 344.488 1486.74 344.488 1489.76 344.488 1489.76 344.488 1492.4 347.656 1492.78 347.374 1492.78 347.374 1493.66 347.223 1495.8 347.266 1495.8 347.266 1496.77 347.266 1498.82 352.567 1498.83 352.567 1498.83 352.567 1501.46 355.411 1501.85 355.406 1501.85 355.406 1501.95 355.405 1502.68 359.435 1504.87 358.669 1504.87 358.669 1505.38 358.668 1507.89 365.33 1507.89 365.33 1507.89 365.33 1510.91 365.633 1510.91 365.633 1510.91 365.633 1513.93 371.683 1513.93 371.683 1513.93 371.683 1515.24 372.048 1516.95 369.738 1516.96 369.738 1516.96 369.738 1518.53 369.586 1519.98 371.263 1519.98 371.263 1519.98 371.263 1523 373.305 1523 373.305 1523 373.305 1524.94 384.96 1526.02 376.823 1526.02 376.823 1529.04 357.754 1529.04 357.754 1529.04 357.754 1530.04 344.488 1532.07 344.888 1532.07 344.888 1535.08 349.658 1535.09 349.658 1535.09 349.658 1535.63 344.488 1538.11 351.093 1538.11 351.093 1538.11 351.099 1541.13 354.146 1541.13 354.146 1541.13 354.146 1544.15 358.723 1544.15 358.723 1547.17 361.069 1547.17 361.069 1550.2 362.673 1550.2 362.673 1550.2 362.673 1551.36 362.686 1552.91 362.55 1553.22 362.55 1553.22 362.55 1553.29 362.55 1555.98 344.488 1556.24 344.488 1556.24 344.488 1559.26 362.588 1559.26 362.588 1559.26 362.588 1561.48 365.721 1562.28 363.253 1562.28 363.253 1562.66 344.488 1565.31 349.743 1565.31 349.743 1568.33 356.817 1568.33 356.817 1568.33 356.817 1570.25 356.837 1571.35 356.774 1571.35 356.774 1571.35 356.774 1573.58 356.226 1574.37 358.466 1574.37 358.466 1574.37 358.466 1576.51 359.526 1577.39 359.426 1577.39 359.426 1580.41 362.541 1580.41 362.541 1580.41 362.541 1583.41 362.924 1583.44 362.921 1583.44 362.921 1584.07 362.693 1586.46 369.361 1586.46 369.361 1586.46 369.361 1588.27 369.393 1589.48 369.181 1589.48 369.181 1589.48 369.181 1592.5 361.71 1592.5 361.71 1592.5 361.71 1593.51 361.623 1595.52 361.627 1595.52 361.627 1595.7 361.627 1598.54 348.333 1598.54 348.333 1598.55 348.333 1599.05 348.33 1601.56 348.334 1601.57 348.334 1601.57 348.334 1602.13 348.334 1603.63 344.488 1604.59 344.488 1604.59 344.488 1607.61 344.488 1607.61 344.488 1610.22 344.493 1610.63 344.488 1610.63 344.488 1613.65 345.28 1613.65 345.28 1613.65 345.28 1615.39 345.268 1615.41 345.286 1616.68 345.271 1616.68 345.271 1618.35 345.396 1618.48 344.488 1619.7 344.488 1619.7 344.488 1621.76 344.488 1622.72 344.488 1622.72 344.488 1625.74 346.937 1625.74 346.937 1625.74 346.937 1628.76 346.942 1628.76 346.942 1628.76 346.942 1629.63 346.942 1631.78 346.901 1631.79 346.901 1631.79 346.901 1634.81 344.914 1634.81 344.914 1634.81 344.914 1636.04 344.488 1637.83 344.514 1637.83 344.514 1640.53 344.537 1640.75 344.488 1640.85 344.488 1640.85 344.488 1643.87 347.314 1643.87 347.314 1643.87 347.314 1646.85 348.449 1646.89 348.038 1646.89 348.038 1647.69 344.488 1649.92 344.488 1649.92 344.488 1652.94 345.529 1652.94 345.529 1652.94 345.529 1655.96 345.891 1655.96 345.891 1655.96 345.891 1658.5 345.975 1658.98 344.963 1658.98 344.963 1658.98 344.963 1662 344.543 1662 344.543 1662 344.543 1663.44 344.544 1665.02 344.518 1665.03 344.518 1665.03 344.518 1665.77 344.488 1668.05 363.765 1668.05 363.765 1670.04 364.11 1671.07 346.981 1671.07 346.981 1673.02 352.065 1673.81 344.488 1674.09 344.488 1674.09 344.488 1675.29 346.519 1677.11 344.936 1677.11 344.936 1677.41 345.971 1677.89 344.488 1680.13 344.488 1680.13 344.488 1681.5 344.488" stroke="#6699FF" stroke-width="12.0872" stroke-linejoin="round" stroke-miterlimit="10" fill="none" fill-rule="evenodd" transform="matrix(1.00066 0 0 1 232 476)"/><text font-family="Arial,Arial_MSFontService,sans-serif" font-weight="400" font-size="19" transform="matrix(3.62857 0 0 3.62619 801.213 643)">E</text><text font-family="Arial,Arial_MSFontService,sans-serif" font-weight="400" font-size="19" transform="matrix(3.62857 0 0 3.62619 848.385 643)">:</text><text font-family="Arial,Arial_MSFontService,sans-serif" font-weight="400" font-size="19" transform="matrix(3.62857 0 0 3.62619 866.528 643)">RS</text><text font-family="Arial,Arial_MSFontService,sans-serif" font-weight="400" font-size="19" transform="matrix(3.62857 0 0 3.62619 964.499 643)">-</text><text font-family="Arial,Arial_MSFontService,sans-serif" font-weight="400" font-size="19" transform="matrix(3.62857 0 0 3.62619 986.27 643)">BU</text><text font-family="Arial,Arial_MSFontService,sans-serif" font-weight="400" font-size="19" transform="matrix(3.62857 0 0 3.62619 1080.61 643)">, </text><text font-family="Arial,Arial_MSFontService,sans-serif" font-weight="400" font-size="19" transform="matrix(3.62857 0 0 3.62619 1116.9 643)">I</text><text font-family="Arial,Arial_MSFontService,sans-serif" font-weight="400" font-size="19" transform="matrix(3.62857 0 0 3.62619 1138.67 643)">:</text><text font-family="Arial,Arial_MSFontService,sans-serif" font-weight="400" font-size="19" transform="matrix(3.62857 0 0 3.62619 1156.81 643)">FS </text><text font-family="Arial,Arial_MSFontService,sans-serif" font-weight="400" font-size="19" transform="matrix(3.62857 0 0 3.62619 1265.67 643)">(</text><text font-family="Arial,Arial_MSFontService,sans-serif" font-weight="400" font-size="19" transform="matrix(3.62857 0 0 3.62619 1287.44 643)">DA</text><text font-family="Arial,Arial_MSFontService,sans-serif" font-weight="400" font-size="19" transform="matrix(3.62857 0 0 3.62619 1385.41 643)">-</text><text font-family="Arial,Arial_MSFontService,sans-serif" font-weight="400" font-size="19" transform="matrix(3.62857 0 0 3.62619 1407.18 643)">stdp </text><text font-family="Arial,Arial_MSFontService,sans-serif" font-weight="400" font-size="19" transform="matrix(3.62857 0 0 3.62619 1559.58 643)">+ </text><text font-family="Arial,Arial_MSFontService,sans-serif" font-weight="400" font-size="19" transform="matrix(3.62857 0 0 3.62619 1617.64 643)">NA </text><text font-family="Arial,Arial_MSFontService,sans-serif" font-weight="400" font-size="19" transform="matrix(3.62857 0 0 3.62619 1726.5 643)">+ </text><text font-family="Arial,Arial_MSFontService,sans-serif" font-weight="400" font-size="19" transform="matrix(3.62857 0 0 3.62619 1784.56 643)">ACh</text><text font-family="Arial,Arial_MSFontService,sans-serif" font-weight="400" font-size="19" transform="matrix(3.62857 0 0 3.62619 1918.81 643)">)</text><path d="M413.345 141.907 557.991 141.907" stroke="#000000" stroke-width="12.0872" stroke-linejoin="round" stroke-miterlimit="10" fill="none" transform="matrix(1.00066 0 0 1 232 476)"/><text font-family="Arial,Arial_MSFontService,sans-serif" font-weight="400" font-size="19" transform="matrix(3.62857 0 0 3.62619 801.213 726)">E</text><text font-family="Arial,Arial_MSFontService,sans-serif" font-weight="400" font-size="19" transform="matrix(3.62857 0 0 3.62619 848.385 726)">:</text><text font-family="Arial,Arial_MSFontService,sans-serif" font-weight="400" font-size="19" transform="matrix(3.62857 0 0 3.62619 866.528 726)">RS</text><text font-family="Arial,Arial_MSFontService,sans-serif" font-weight="400" font-size="19" transform="matrix(3.62857 0 0 3.62619 964.499 726)">, </text><text font-family="Arial,Arial_MSFontService,sans-serif" font-weight="400" font-size="19" transform="matrix(3.62857 0 0 3.62619 1000.78 726)">I</text><text font-family="Arial,Arial_MSFontService,sans-serif" font-weight="400" font-size="19" transform="matrix(3.62857 0 0 3.62619 1022.56 726)">:</text><text font-family="Arial,Arial_MSFontService,sans-serif" font-weight="400" font-size="19" transform="matrix(3.62857 0 0 3.62619 1040.7 726)">FS </text><text font-family="Arial,Arial_MSFontService,sans-serif" font-weight="400" font-size="19" transform="matrix(3.62857 0 0 3.62619 1149.56 726)">(</text><text font-family="Arial,Arial_MSFontService,sans-serif" font-weight="400" font-size="19" transform="matrix(3.62857 0 0 3.62619 1171.33 726)">DA</text><text font-family="Arial,Arial_MSFontService,sans-serif" font-weight="400" font-size="19" transform="matrix(3.62857 0 0 3.62619 1269.3 726)">-</text><text font-family="Arial,Arial_MSFontService,sans-serif" font-weight="400" font-size="19" transform="matrix(3.62857 0 0 3.62619 1291.07 726)">stdp</text><text font-family="Arial,Arial_MSFontService,sans-serif" font-weight="400" font-size="19" transform="matrix(3.62857 0 0 3.62619 1425.33 726)">)</text><path d="M413.345 224.338 557.991 224.338" stroke="#6699FF" stroke-width="12.0872" stroke-linejoin="round" stroke-miterlimit="10" fill="none" transform="matrix(1.00066 0 0 1 232 476)"/></g></g></g><g clip-path="url(#clip1)"><g clip-path="url(#clip2)"><g><path d="M2538.16 1796.68C2607.62 1891.12 2677.06 1985.57 2748.85 1984 2820.64 1982.44 2900.23 1752.97 2968.9 1787.31 3037.57 1821.66 3100.77 2187.72 3160.87 2190.07 3220.95 2192.41 3279.47 1845.85 3329.42 1801.36 3379.35 1756.87 3416.81 1921.56 3460.51 1923.12 3504.21 1924.69 3547.91 1867.71 3591.6 1810.73" stroke="#172C51" stroke-width="4.67856" stroke-miterlimit="8" fill="none" fill-rule="evenodd" transform="matrix(1.00093 0 0 1 -298.494 -356.954)"/><path d="M2538.16 1449.28C2607.62 1466.37 2677.06 1483.45 2748.85 1483.17 2820.64 1482.88 2900.23 1441.37 2968.9 1447.58 3037.57 1453.8 3100.77 1520.02 3160.87 1520.45 3220.95 1520.87 3279.47 1458.18 3329.42 1450.13 3379.35 1442.08 3416.81 1471.87 3460.51 1472.15 3504.21 1472.44 3547.91 1462.13 3591.6 1451.82" stroke="#172C51" stroke-width="4.67856" stroke-miterlimit="8" fill="none" fill-rule="evenodd" transform="matrix(1.00093 0 0 1 -298.494 -356.954)"/><path d="M3.50892-8.46869e-06 3.50927 145.691C3.50928 147.63 1.93828 149.201 0.000360091 149.201-1.93757 149.201-3.50856 147.63-3.50857 145.691L-3.50892 8.46869e-06C-3.50892-1.93792-1.93794-3.50892-8.46869e-06-3.50892 1.93792-3.50892 3.50892-1.93794 3.50892-8.46869e-06ZM19.4062 119.388 0.000368441 152.655-19.4056 119.388C-20.3821 117.715-19.8167 115.566-18.1428 114.589-16.4688 113.613-14.3202 114.178-13.3438 115.852L3.03128 143.923-3.03059 143.923 13.3443 115.852C14.3208 114.178 16.4693 113.613 18.1433 114.589 19.8173 115.566 20.3827 117.714 19.4062 119.388Z" transform="matrix(1.00093 0 0 -1 2218.53 1831.62)"/><path d="M2514.69 2185.55 2658.06 2185.55C2660 2185.55 2661.57 2187.12 2661.57 2189.06 2661.57 2191 2660 2192.57 2658.06 2192.57L2514.69 2192.57C2512.75 2192.57 2511.17 2191 2511.17 2189.06 2511.17 2187.12 2512.75 2185.55 2514.69 2185.55ZM2631.77 2169.65 2665.04 2189.06 2631.77 2208.46C2630.09 2209.44 2627.94 2208.87 2626.96 2207.2 2625.99 2205.52 2626.55 2203.38 2628.23 2202.4L2656.3 2186.03 2656.3 2192.09 2628.23 2175.72C2626.55 2174.74 2625.99 2172.59 2626.96 2170.92 2627.94 2169.24 2630.09 2168.67 2631.77 2169.65Z" transform="matrix(1.00093 0 0 1 -298.494 -356.954)"/><text font-family="Arial,Arial_MSFontService,sans-serif" font-weight="400" font-size="83" transform="matrix(1.02173 0 0 1.02078 2126.8 1737)">E</text><text font-family="Arial,Arial_MSFontService,sans-serif" font-weight="400" font-size="83" transform="matrix(1.02173 0 0 1.02078 2274.81 1929)">State</text><path d="M2516.73 916.767C2586.24 1011.21 2655.76 1105.66 2727.62 1104.09 2799.48 1102.53 2879.15 873.058 2947.88 907.401 3016.62 941.745 3079.89 1307.82 3140.03 1310.16 3200.18 1312.5 3258.76 965.941 3308.75 921.451 3358.74 876.96 3396.23 1041.65 3439.97 1043.21 3483.71 1044.78 3527.45 987.796 3571.19 930.816" stroke="#172C51" stroke-width="4.67856" stroke-miterlimit="8" fill="none" fill-rule="evenodd" transform="matrix(1.00093 0 0 1 -298.494 -356.954)"/><path d="M3576.68 1104.48 3576.68 1370.01C3576.68 1373.87 3573.54 1377.02 3569.66 1377.02 3565.78 1377.02 3562.65 1373.87 3562.65 1370.01L3562.64 1104.48C3562.64 1100.6 3565.78 1097.47 3569.66 1097.47 3573.54 1097.47 3576.68 1100.6 3576.68 1104.48ZM3600.28 1331.43 3569.66 1383.93 3539.04 1331.43C3537.09 1328.08 3538.21 1323.78 3541.56 1321.84 3544.9 1319.88 3549.2 1321.01 3551.16 1324.36L3575.72 1366.46 3563.59 1366.46 3588.16 1324.36C3590.11 1321.01 3594.41 1319.88 3597.76 1321.84 3601.11 1323.78 3602.23 1328.08 3600.28 1331.43Z" fill="#FFC000" transform="matrix(1.00093 0 0 1 -298.494 -356.954)"/><path d="M3581.79 1506.67 3581.79 1746.42C3581.79 1750.3 3578.64 1753.44 3574.76 1753.44 3570.88 1753.44 3567.75 1750.3 3567.75 1746.42L3567.75 1506.67C3567.75 1502.79 3570.88 1499.65 3574.76 1499.65 3578.64 1499.65 3581.79 1502.79 3581.79 1506.67ZM3605.39 1707.85 3574.76 1760.35 3544.14 1707.85C3542.19 1704.5 3543.31 1700.21 3546.66 1698.26 3550.01 1696.3 3554.31 1697.43 3556.27 1700.78L3580.83 1742.89 3568.7 1742.89 3593.26 1700.78C3595.22 1697.43 3599.52 1696.3 3602.86 1698.26 3606.21 1700.21 3607.34 1704.5 3605.39 1707.85Z" fill="#46B1E1" transform="matrix(1.00093 0 0 1 -298.494 -356.954)"/><path d="M2687.71 1049.87C2687.71 1028.73 2705.07 1011.59 2726.5 1011.59 2747.92 1011.59 2765.29 1028.73 2765.29 1049.87 2765.29 1071.01 2747.92 1088.15 2726.5 1088.15 2705.07 1088.15 2687.71 1071.01 2687.71 1049.87Z" fill="#33CC33" fill-rule="evenodd" transform="matrix(1.00093 0 0 1 -298.494 -356.954)"/><path d="M2620.12 958 2627.1 966.973 2642.5 986.171 2650.08 995.244 2657.62 1003.91 2665.08 1012.05 2672.44 1019.59 2679.67 1026.43 2686.78 1032.49 2693.7 1037.68 2700.42 1041.94 2706.87 1045.16 2713.01 1047.32 2712 1047.04 2718.81 1048.38 2717.56 1048.25 2724.23 1048.36 2722.87 1048.47 2729.4 1047.28 2728.17 1047.62 2734.56 1045.19 2733.57 1045.66 2739.84 1042.08 2745.24 1037.93 2750.72 1032.75 2756.25 1026.61 2761.79 1019.58 2767.35 1011.76 2772.87 1003.22 2778.37 994.063 2783.85 984.369 2789.31 974.23 2800.21 952.92 2804.91 943.375C2806.63 939.898 2810.83 938.468 2814.3 940.181 2817.78 941.894 2819.21 946.1 2817.5 949.577L2812.71 959.309 2801.68 980.885 2796.07 991.281 2790.41 1001.3 2784.65 1010.86 2778.79 1019.88 2772.8 1028.3 2766.65 1036.04 2760.3 1043 2753.7 1049.11 2746.8 1054.27 2740.53 1057.85C2740.22 1058.04 2739.89 1058.19 2739.54 1058.32L2733.14 1060.74C2732.74 1060.89 2732.34 1061.02 2731.92 1061.09L2725.38 1062.27C2724.93 1062.35 2724.48 1062.39 2724.02 1062.38L2717.34 1062.28C2716.92 1062.28 2716.5 1062.23 2716.09 1062.15L2709.29 1060.81C2708.94 1060.74 2708.59 1060.65 2708.27 1060.53L2700.53 1057.69 2692.87 1053.78 2685.26 1048.9 2677.65 1043.15 2670.03 1036.63 2662.39 1029.39 2654.73 1021.53 2647.03 1013.12 2639.31 1004.24 2631.54 994.95 2616.03 975.597 2609.05 966.623C2606.67 963.566 2607.21 959.156 2610.27 956.775 2613.33 954.393 2617.74 954.942 2620.12 958ZM2614.12 1011.56 2606.02 951.323 2662.44 973.928C2666.04 975.37 2667.79 979.455 2666.34 983.052 2664.9 986.651 2660.82 988.398 2657.23 986.957L2611.98 968.826 2621.54 961.377 2628.03 1009.69C2628.54 1013.53 2625.85 1017.06 2622.01 1017.58 2618.17 1018.1 2614.63 1015.4 2614.12 1011.56ZM2766.68 967.545 2817.36 933.982 2821.63 994.61C2821.91 998.476 2818.99 1001.83 2815.13 1002.1 2811.26 1002.38 2807.9 999.463 2807.63 995.597L2804.21 946.97 2815.08 952.327 2774.44 979.246C2771.21 981.387 2766.86 980.503 2764.71 977.271 2762.57 974.04 2763.46 969.685 2766.68 967.545Z" fill="#33CC33" transform="matrix(1.00093 0 0 1 -298.494 -356.954)"/><path d="M3021.57 1414.73 3031.15 1417.82 3053.79 1424.92 3076.14 1431.53 3098.12 1437.39 3119.6 1442.26 3140.45 1445.89 3150.5 1447.17 3160.43 1448.06 3170.15 1448.53 3179.63 1448.56 3188.88 1448.14 3197.92 1447.27 3206.79 1445.98 3215.51 1444.31 3232.67 1439.9 3249.24 1434.31 3265.49 1427.75 3281.5 1420.43 3297.42 1412.59 3300.94 1410.79C3304.39 1409.03 3308.61 1410.4 3310.38 1413.85 3312.15 1417.3 3310.78 1421.52 3307.33 1423.29L3303.61 1425.18 3287.33 1433.2 3270.73 1440.77 3253.71 1447.62 3236.16 1453.5 3218.13 1458.1 3208.79 1459.88 3199.25 1461.23 3189.51 1462.16 3179.58 1462.6 3169.45 1462.56 3159.16 1462.04 3148.72 1461.09 3138.03 1459.72 3116.49 1455.94 3094.51 1450.95 3072.17 1444.99 3049.58 1438.32 3026.83 1431.17 3017.25 1428.08C3013.56 1426.88 3011.54 1422.93 3012.73 1419.24 3013.93 1415.55 3017.88 1413.53 3021.57 1414.73ZM3046.69 1462.41 3006.16 1417.11 3065.54 1404.13C3069.31 1403.29 3073.06 1405.69 3073.89 1409.48 3074.71 1413.27 3072.32 1417.01 3068.53 1417.84L3020.91 1428.25 3024.65 1416.72 3057.15 1453.05C3059.73 1455.93 3059.48 1460.36 3056.6 1462.96 3053.71 1465.54 3049.28 1465.3 3046.69 1462.41ZM3255.85 1407.33 3316.54 1410.7 3283.73 1461.87C3281.64 1465.12 3277.29 1466.07 3274.03 1463.98 3270.76 1461.89 3269.82 1457.55 3271.91 1454.28L3298.22 1413.25 3303.75 1424.05 3255.08 1421.34C3251.2 1421.13 3248.24 1417.81 3248.45 1413.94 3248.66 1410.07 3251.98 1407.11 3255.85 1407.33Z" fill="#33CC33" transform="matrix(1.00093 0 0 1 -298.494 -356.954)"/><path d="M3122.56 1450.52C3122.56 1429.67 3139.92 1412.76 3161.35 1412.76 3182.77 1412.76 3200.14 1429.67 3200.14 1450.52 3200.14 1471.38 3182.77 1488.29 3161.35 1488.29 3139.92 1488.29 3122.56 1471.38 3122.56 1450.52Z" fill="#33CC33" fill-rule="evenodd" transform="matrix(1.00093 0 0 1 -298.494 -356.954)"/><path d="M3120.44 2029.06 3123.65 2038.37 3131.32 2060.02 3135.1 2070.27 3138.87 2080.06 3142.6 2089.27 3146.27 2097.79 3149.88 2105.52 3153.43 2112.36 3156.86 2118.18 3160.13 2122.87 3163.16 2126.28 3162.32 2125.45 3165.77 2128.27 3164.2 2127.3 3167.58 2128.81 3164.97 2128.21 3168.29 2128.33 3165.37 2128.85 3168.63 2127.51 3166.72 2128.68 3169.9 2125.94 3168.92 2126.97 3172.05 2122.94 3174.6 2118.46 3177.31 2112.64 3180.1 2105.65 3182.91 2097.63 3185.7 2088.7 3188.48 2078.99 3191.25 2068.57 3193.99 2057.58 3196.73 2046.1 3202.17 2022.03 3204.62 2010.77C3205.43 2006.98 3209.18 2004.58 3212.97 2005.4 3216.76 2006.23 3219.15 2009.96 3218.33 2013.75L3215.86 2025.12 3210.39 2049.34 3207.61 2060.98 3204.81 2072.18 3201.97 2082.84 3199.1 2092.91 3196.15 2102.27 3193.13 2110.87 3190 2118.63 3186.71 2125.53 3183.14 2131.53 3180.03 2135.56C3179.73 2135.94 3179.41 2136.28 3179.05 2136.59L3175.86 2139.32C3175.3 2139.81 3174.66 2140.2 3173.96 2140.49L3170.72 2141.83C3169.79 2142.21 3168.79 2142.39 3167.79 2142.36L3164.47 2142.23C3163.57 2142.2 3162.68 2142 3161.86 2141.63L3158.47 2140.12C3157.91 2139.87 3157.38 2139.54 3156.9 2139.15L3153.45 2136.33C3153.14 2136.09 3152.85 2135.81 3152.59 2135.52L3148.61 2130.87 3144.75 2125.29 3140.95 2118.8 3137.17 2111.46 3133.38 2103.34 3129.58 2094.53 3125.76 2085.09 3121.94 2075.13 3118.09 2064.71 3110.38 2042.93 3107.17 2033.62C3105.91 2029.96 3107.86 2025.97 3111.52 2024.71 3115.19 2023.45 3119.18 2025.4 3120.44 2029.06ZM3097.41 2077.78 3109.28 2018.17 3155.31 2057.85C3158.25 2060.38 3158.58 2064.81 3156.05 2067.75 3153.52 2070.69 3149.09 2071.01 3146.16 2068.48L3109.23 2036.65 3120.69 2032.71 3111.17 2080.52C3110.41 2084.33 3106.72 2086.8 3102.91 2086.03 3099.11 2085.27 3096.64 2081.58 3097.41 2077.78ZM3173.34 2043.43 3214.44 1998.65 3233.19 2056.46C3234.38 2060.14 3232.37 2064.1 3228.69 2065.3 3224.99 2066.5 3221.04 2064.48 3219.84 2060.8L3204.8 2014.42 3216.64 2017.01 3183.69 2052.93C3181.07 2055.78 3176.63 2055.97 3173.77 2053.35 3170.91 2050.73 3170.73 2046.29 3173.34 2043.43Z" fill="#33CC33" transform="matrix(1.00093 0 0 1 -298.494 -356.954)"/><path d="M3122.56 2116.07C3122.56 2095.22 3139.92 2078.3 3161.35 2078.3 3182.77 2078.3 3200.14 2095.22 3200.14 2116.07 3200.14 2136.93 3182.77 2153.84 3161.35 2153.84 3139.92 2153.84 3122.56 2136.93 3122.56 2116.07Z" fill="#33CC33" fill-rule="evenodd" transform="matrix(1.00093 0 0 1 -298.494 -356.954)"/><text fill="#FFC000" font-family="Arial,Arial_MSFontService,sans-serif" font-weight="700" font-size="92" transform="matrix(1.02173 0 0 1.02078 3337.71 898)">+ </text><text fill="#FFC000" font-family="Arial,Arial_MSFontService,sans-serif" font-weight="700" font-size="92" transform="matrix(1.02173 0 0 1.02078 3419.45 898)">NE</text><text fill="#46B1E1" font-family="Arial,Arial_MSFontService,sans-serif" font-weight="700" font-size="92" transform="matrix(1.02173 0 0 1.02078 3348.98 1261)">+ </text><text fill="#46B1E1" font-family="Arial,Arial_MSFontService,sans-serif" font-weight="700" font-size="92" transform="matrix(1.02173 0 0 1.02078 3425.71 1261)">ACh</text><text fill="#33CC33" font-family="Arial,Arial_MSFontService,sans-serif" font-weight="700" font-size="73" transform="matrix(1.02173 0 0 1.02078 2279.02 572)">DA</text><text fill="#33CC33" font-family="Arial,Arial_MSFontService,sans-serif" font-weight="700" font-size="73" transform="matrix(1.02173 0 0 1.02078 2865.54 1034)">DA</text><text fill="#33CC33" font-family="Arial,Arial_MSFontService,sans-serif" font-weight="700" font-size="73" transform="matrix(1.02173 0 0 1.02078 2841.47 1625)">DA</text></g></g></g><text fill="#FFC000" font-family="Arial,Arial_MSFontService,sans-serif" font-weight="700" font-size="92" transform="matrix(1 0 0 1 3329.56 903)">+ NA</text><text fill="#46B1E1" font-family="Arial,Arial_MSFontService,sans-serif" font-weight="700" font-size="92" transform="matrix(1 0 0 1 3328.87 1291)">+ </text><text fill="#46B1E1" font-family="Arial,Arial_MSFontService,sans-serif" font-weight="700" font-size="92" transform="matrix(1 0 0 1 3403.97 1291)">ACh</text></g></svg>