<svg width="1012" height="854" xmlns="http://www.w3.org/2000/svg" xmlns:xlink="http://www.w3.org/1999/xlink" xml:space="preserve" overflow="hidden"><g transform="translate(-2191 -825)"><g><g><g><g><path d="M2191 825 3203 825 3203 1584 2191 1584Z" fill="#FFFFFF"/></g><path d="M2191 825 3203 825 3203 1584 2191 1584Z" fill="#FFFFFF"/><path d="M2322.56 1367.56 2324.52 1367.56 2326.49 1367.56 2328.45 1367.56 2330.41 1367.56 2332.37 1367.56 2334.34 1367.56 2336.3 1367.56 2338.26 1367.56 2340.22 1367.56 2342.19 1367.56 2344.15 1367.56 2346.11 1367.56 2348.07 1367.56 2350.04 1367.56 2352 1367.56 2353.96 1367.56 2355.92 1367.56 2357.89 1367.56 2359.85 1367.56 2361.81 1367.56 2363.77 1367.56 2365.74 1367.56 2367.7 1367.56 2369.66 1367.56 2371.62 1367.56 2373.59 1367.56 2375.55 1367.56 2377.51 1367.56 2379.47 1367.56 2381.44 1367.56 2383.4 1367.56 2385.36 1367.56 2387.33 1367.56 2389.29 1367.56 2391.25 1367.56 2393.21 1367.56 2395.17 1367.56 2397.14 1367.56 2399.1 1367.56 2401.06 1367.56 2403.03 1356.51 2404.99 1346.84 2406.95 1337.94 2408.91 1329.36 2410.87 1320.76 2412.84 1311.82 2414.8 1302.15 2416.76 1291.3 2418.73 1278.61 2420.69 1263.11 2422.65 1243.18 2424.61 1215.95 2426.57 1175.84 2428.54 1110.63 2430.5 989.07 2432.46 925.58 2434.43 1266.47 2436.39 1250.25 2438.35 1228.46 2440.31 1197.32 2442.28 1149.08 2444.24 1065.7 2446.2 925.58 2448.16 1268.96 2450.13 1255.96 2452.09 1238.74 2454.05 1214.74 2456.01 1179.07 2457.98 1121.21 2459.94 1015.14 2461.9 925.58 2463.86 1271.42 2465.83 1261.6 2467.79 1248.74 2469.75 1231.27 2471.71 1206.32 2473.68 1168.33 2475.64 1105.06 2477.6 985.223 2479.56 925.58 2481.53 1273.81 2483.49 1267.04 2485.45 1258.28 2487.41 1246.65 2489.38 1230.68 2491.34 1207.79 2493.3 1172.95 2495.27 1115.4 2497.23 1008.34 2499.19 925.58 2501.15 1276.05 2503.12 1272.11 2505.08 1267.05 2507.04 1260.47 2509 1251.75 2510.97 1239.91 2512.93 1223.29 2514.89 1198.92 2516.85 1160.92 2518.82 1096.37 2520.78 971.708 2522.74 925.58 2524.7 1278.16 2526.67 1276.86 2528.63 1275.17 2530.59 1272.98 2532.55 1270.16 2534.52 1266.48 2536.48 1261.65 2538.44 1255.25 2540.4 1246.6 2542.37 1234.64 2544.33 1217.57 2546.29 1192.1 2548.25 1151.68 2550.22 1081.51 2552.18 942.188 2554.14 925.58 2556.1 1280 2558.07 1280.99 2560.03 1282.17 2561.99 1283.56 2563.96 1285.22 2565.92 1287.19 2567.88 1289.54 2569.84 1292.31 2571.8 1295.57 2573.77 1299.37 2575.73 1303.74 2577.69 1308.69 2579.65 1314.21 2581.62 1320.24 2583.58 1326.68 2585.54 1333.37 2587.51 1340.12 2589.47 1346.73 2591.43 1353 2593.39 1358.75 2595.36 1363.88 2597.32 1368.31 2599.28 1372.03 2601.24 1375.07 2603.21 1377.49 2605.17 1379.38 2607.13 1380.82 2609.09 1381.88 2611.06 1382.65 2613.02 1383.17 2614.98 1383.5 2616.94 1383.68 2618.91 1383.75 2620.87 1383.73 2622.83 1383.63 2624.79 1383.49 2626.76 1383.3 2628.72 1383.08 2630.68 1382.84 2632.64 1382.58 2634.61 1382.3 2636.57 1382.01 2638.53 1381.72 2640.49 1381.41 2642.46 1381.11 2644.42 1380.79 2646.38 1380.48 2648.34 1380.16 2650.31 1379.84 2652.27 1379.52 2654.23 1379.19 2656.19 1378.87 2658.16 1378.54 2660.12 1378.21 2662.08 1377.88 2664.04 1377.55 2666.01 1377.23 2667.97 1376.9 2669.93 1376.57 2671.9 1376.23 2673.86 1375.9 2675.82 1375.57 2677.78 1375.24 2679.75 1374.9 2681.71 1374.57 2683.67 1374.24 2685.63 1373.9 2687.6 1373.57 2689.56 1373.23 2691.52 1372.89 2693.48 1372.56 2695.45 1372.22 2697.41 1371.88 2699.37 1371.54 2701.33 1371.2 2703.3 1370.86 2705.26 1370.52 2707.22 1370.18 2709.18 1369.83 2711.15 1369.49 2713.11 1369.14 2715.07 1368.8 2717.03 1368.45 2719 1368.1 2720.96 1367.75 2722.92 1367.4 2724.88 1367.05 2726.85 1366.7 2728.81 1366.35 2730.77 1365.99 2732.73 1365.64 2734.7 1365.28 2736.66 1364.92 2738.62 1364.56 2740.58 1364.2 2742.55 1363.84 2744.51 1363.48 2746.47 1363.11 2748.44 1362.74 2750.4 1362.37 2752.36 1362 2754.32 1361.63 2756.29 1361.26 2758.25 1360.88 2760.21 1360.5 2762.17 1360.12 2764.14 1359.74 2766.1 1359.35 2768.06 1358.97 2770.02 1358.58 2771.98 1358.18 2773.95 1357.79 2775.91 1357.39 2777.87 1356.99 2779.83 1356.59 2781.8 1356.18 2783.76 1355.77 2785.72 1355.36 2787.69 1354.95 2789.65 1354.53 2791.61 1354.1 2793.57 1353.68 2795.54 1353.25 2797.5 1352.81 2799.46 1352.37 2801.42 1351.93 2803.39 1351.48 2805.35 1351.02 2807.31 1350.57 2809.27 1350.1 2811.24 1349.63 2813.2 1349.16 2815.16 1348.68 2817.12 1348.19 2819.09 1347.69 2821.05 1347.19 2823.01 1346.68 2824.97 1346.16 2826.94 1345.64 2828.9 1345.1 2830.86 1344.56 2832.82 1344 2834.79 1343.44 2836.75 1342.86 2838.71 1342.27 2840.68 1341.67 2842.64 1341.06 2844.6 1340.43 2846.56 1339.78 2848.53 1339.12 2850.49 1338.45 2852.45 1337.75 2854.41 1337.03 2856.38 1336.29 2858.34 1335.53 2860.3 1334.74 2862.26 1333.92 2864.23 1333.07 2866.19 1332.19 2868.15 1331.27 2870.11 1330.31 2872.08 1329.31 2874.04 1328.26 2876 1327.15 2877.96 1325.98 2879.93 1324.75 2881.89 1323.43 2883.85 1322.03 2885.81 1320.53 2887.78 1318.91 2889.74 1317.17 2891.7 1315.26 2893.66 1313.18 2895.63 1310.89 2897.59 1308.34 2899.55 1305.48 2901.51 1302.24 2903.48 1298.54 2905.44 1294.25 2907.4 1289.21 2909.36 1283.17 2911.33 1275.81 2913.29 1266.6 2915.25 1254.75 2917.22 1238.93 2919.18 1216.84 2921.14 1184.11 2923.1 1131.55 2925.07 1037.02 2927.03 925.58 2928.99 1273.18 2930.95 1265.61 2932.91 1255.78 2934.88 1242.66 2936.84 1224.46 2938.8 1197.94 2940.76 1156.63 2942.73 1085.97 2944.69 947.177 2946.65 925.58 2948.61 1275.53 2950.58 1270.92 2952.54 1265 2954.5 1257.26 2956.47 1246.93 2958.43 1232.73 2960.39 1212.42 2962.35 1181.81 2964.32 1132.17 2966.28 1042.68 2968.24 925.58 2970.2 1277.61 2972.17 1275.62 2974.13 1273.06 2976.09 1269.77 2978.05 1265.48 2980.02 1259.87 2981.98 1252.38 2983.94 1242.21 2985.9 1227.99 2987.87 1207.34 2989.83 1175.76 2991.79 1123.74 2993.75 1028.24 2995.72 925.58 2997.68 1279.48 2999.64 1279.81 3001.6 1280.18 3003.57 1280.57 3005.53 1281.01 3007.49 1281.5 3009.46 1282.05 3011.42 1282.67 3013.38 1283.39 3015.34 1284.21 3017.31 1285.17 3019.27 1286.29 3021.23 1287.6 3023.19 1289.13 3025.16 1290.93 3027.12 1293.04 3029.08 1295.49 3031.04 1298.33 3033.01 1301.6 3034.97 1305.32 3036.93 1309.5 3038.89 1314.14 3040.86 1319.19 3042.82 1324.58 3044.78 1330.22 3046.74 1335.97 3048.71 1341.7 3050.67 1347.24 3052.63 1352.47 3054.59 1357.26 3056.56 1361.54 3058.52 1365.27 3060.48 1368.44 3062.44 1371.08 3064.41 1373.22 3066.37 1374.93 3068.33 1376.26 3070.29 1377.27 3072.26 1378.02 3074.22 1378.55 3076.18 1378.91 3078.15 1379.12 3080.11 1379.23 3082.07 1379.24 3084.03 1379.18 3086 1379.07 3087.96 1378.91 3089.92 1378.71 3091.88 1378.49 3093.84 1378.25 3095.81 1377.98 3097.77 1377.71 3099.73 1377.42 3101.69 1377.12 3103.66 1376.82 3105.62 1376.51 3107.58 1376.2" stroke="#C00000" stroke-width="4.819" stroke-linejoin="round" stroke-miterlimit="10" fill="none" fill-rule="evenodd"/><path d="M2322.56 1455.95 2401.06 1455.95 2401.06 1411.75 3107.58 1411.75" stroke="#C00000" stroke-width="4.819" stroke-linejoin="round" stroke-miterlimit="10" fill="none" fill-rule="evenodd"/><path d="M2322.56 1455.95 2401.06 1455.95 2401.06 1411.75 3107.58 1411.75" stroke="#000000" stroke-width="4.819" stroke-linejoin="round" stroke-miterlimit="10" fill="none" fill-rule="evenodd"/><path d="M2950.58 1455.95 3107.58 1455.95" stroke="#000000" stroke-width="7.22857" stroke-linejoin="round" stroke-miterlimit="10" fill="none"/><text font-family="Arial,Arial_MSFontService,sans-serif" font-weight="400" font-size="17" transform="matrix(1.44571 0 0 1.44571 2950.58 1487)"> 20 </text><text font-family="Arial,Arial_MSFontService,sans-serif" font-weight="400" font-size="17" transform="matrix(1.44571 0 0 1.44571 2991.06 1487)">ms</text><text fill="#C00000" font-family="Arial,Arial_MSFontService,sans-serif" font-weight="400" font-size="20" transform="matrix(1.44571 0 0 1.44571 2322.56 1357)">V</text><text fill="#C00000" font-family="Arial,Arial_MSFontService,sans-serif" font-weight="400" font-size="20" transform="matrix(1.44571 0 0 1.44571 2341.35 1357)">(</text><text fill="#C00000" font-family="Arial,Arial_MSFontService,sans-serif" font-weight="400" font-size="20" transform="matrix(1.44571 0 0 1.44571 2351.47 1357)">t</text><text fill="#C00000" font-family="Arial,Arial_MSFontService,sans-serif" font-weight="400" font-size="20" transform="matrix(1.44571 0 0 1.44571 2360.15 1357)">)</text><text font-family="Arial,Arial_MSFontService,sans-serif" font-weight="400" font-size="20" transform="matrix(1.44571 0 0 1.44571 2322.56 1445)">I</text><text font-family="Arial,Arial_MSFontService,sans-serif" font-weight="400" font-size="20" transform="matrix(1.44571 0 0 1.44571 2331.23 1445)">(</text><text font-family="Arial,Arial_MSFontService,sans-serif" font-weight="400" font-size="20" transform="matrix(1.44571 0 0 1.44571 2341.35 1445)">t</text><text font-family="Arial,Arial_MSFontService,sans-serif" font-weight="400" font-size="20" transform="matrix(1.44571 0 0 1.44571 2350.03 1445)">)</text></g></g></g><text fill="#C00000" font-family="Derailed,Derailed_MSFontService,sans-serif" font-weight="700" font-size="83" transform="matrix(1 0 0 1 2434.99 1608)">Bursting (BU)</text></g></svg>