<svg width="1012" height="857" xmlns="http://www.w3.org/2000/svg" xmlns:xlink="http://www.w3.org/1999/xlink" xml:space="preserve" overflow="hidden"><g transform="translate(-1179 -825)"><g><g><g><g><path d="M1179 825 2191 825 2191 1584 1179 1584Z" fill="#FFFFFF"/></g><path d="M1179 825 2191 825 2191 1584 1179 1584Z" fill="#FFFFFF"/><path d="M1310.56 1367.56 1312.52 1367.56 1314.49 1367.56 1316.45 1367.56 1318.41 1367.56 1320.37 1367.56 1322.34 1367.56 1324.3 1367.56 1326.26 1367.56 1328.22 1367.56 1330.19 1367.56 1332.15 1367.56 1334.11 1367.56 1336.07 1367.56 1338.04 1367.56 1340 1367.56 1341.96 1367.56 1343.92 1367.56 1345.89 1367.56 1347.85 1367.56 1349.81 1367.56 1351.77 1367.56 1353.74 1367.56 1355.7 1367.56 1357.66 1367.56 1359.62 1367.56 1361.59 1367.56 1363.55 1367.56 1365.51 1367.56 1367.47 1367.56 1369.44 1367.56 1371.4 1367.56 1373.36 1367.56 1375.33 1367.56 1377.29 1367.56 1379.25 1367.56 1381.21 1367.56 1383.17 1367.56 1385.14 1367.56 1387.1 1367.56 1389.06 1367.56 1391.03 1356.51 1392.99 1346.85 1394.95 1337.98 1396.91 1329.46 1398.87 1320.96 1400.84 1312.17 1402.8 1302.73 1404.76 1292.21 1406.73 1280.02 1408.69 1265.26 1410.65 1246.5 1412.61 1221.21 1414.57 1184.56 1416.54 1126.32 1418.5 1021.19 1420.46 925.58 1422.43 1341.3 1424.39 1337.22 1426.35 1333.16 1428.31 1329.04 1430.28 1324.79 1432.24 1320.35 1434.2 1315.62 1436.16 1310.49 1438.13 1304.84 1440.09 1298.47 1442.05 1291.14 1444.01 1282.49 1445.98 1271.98 1447.94 1258.77 1449.9 1241.46 1451.86 1217.6 1453.83 1182.5 1455.79 1126.19 1457.75 1024.17 1459.71 925.58 1461.68 1344.37 1463.64 1343.17 1465.6 1341.86 1467.56 1340.44 1469.53 1338.92 1471.49 1337.3 1473.45 1335.56 1475.41 1333.71 1477.38 1331.74 1479.34 1329.63 1481.3 1327.37 1483.27 1324.94 1485.23 1322.32 1487.19 1319.47 1489.15 1316.36 1491.12 1312.93 1493.08 1309.11 1495.04 1304.82 1497 1299.94 1498.97 1294.28 1500.93 1287.63 1502.89 1279.63 1504.85 1269.76 1506.82 1257.2 1508.78 1240.63 1510.74 1217.66 1512.7 1183.8 1514.67 1129.54 1516.63 1031.81 1518.59 925.58 1520.55 1345.42 1522.52 1345.2 1524.48 1344.8 1526.44 1344.23 1528.4 1343.52 1530.37 1342.66 1532.33 1341.67 1534.29 1340.56 1536.25 1339.32 1538.22 1337.96 1540.18 1336.49 1542.14 1334.89 1544.1 1333.18 1546.07 1331.33 1548.03 1329.33 1549.99 1327.19 1551.96 1324.87 1553.92 1322.37 1555.88 1319.63 1557.84 1316.64 1559.8 1313.34 1561.77 1309.67 1563.73 1305.54 1565.69 1300.85 1567.65 1295.43 1569.62 1289.07 1571.58 1281.45 1573.54 1272.11 1575.51 1260.31 1577.47 1244.87 1579.43 1223.72 1581.39 1193.03 1583.36 1144.92 1585.32 1060.93 1587.28 925.58 1589.24 1345.32 1591.21 1345.01 1593.17 1344.52 1595.13 1343.88 1597.09 1343.09 1599.06 1342.16 1601.02 1341.11 1602.98 1339.93 1604.94 1338.63 1606.91 1337.22 1608.87 1335.68 1610.83 1334.02 1612.79 1332.24 1614.76 1330.32 1616.72 1328.25 1618.68 1326.02 1620.64 1323.61 1622.61 1320.99 1624.57 1318.13 1626.53 1314.98 1628.49 1311.5 1630.46 1307.61 1632.42 1303.21 1634.38 1298.16 1636.34 1292.29 1638.31 1285.33 1640.27 1276.9 1642.23 1266.4 1644.19 1252.92 1646.16 1234.87 1648.12 1209.47 1650.08 1171.22 1652.05 1108.14 1654.01 989.655 1655.97 925.58 1657.93 1345.72 1659.9 1345.78 1661.86 1345.63 1663.82 1345.3 1665.78 1344.81 1667.75 1344.15 1669.71 1343.36 1671.67 1342.42 1673.63 1341.36 1675.6 1340.18 1677.56 1338.88 1679.52 1337.46 1681.48 1335.92 1683.45 1334.26 1685.41 1332.47 1687.37 1330.56 1689.33 1328.49 1691.3 1326.27 1693.26 1323.86 1695.22 1321.26 1697.18 1318.41 1699.15 1315.29 1701.11 1311.83 1703.07 1307.97 1705.03 1303.6 1707 1298.61 1708.96 1292.81 1710.92 1285.94 1712.89 1277.64 1714.85 1267.33 1716.81 1254.12 1718.77 1236.51 1720.73 1211.82 1722.7 1174.88 1724.66 1114.46 1726.62 1002.33 1728.58 925.58 1730.55 1345.65 1732.51 1345.63 1734.47 1345.41 1736.44 1345.02 1738.4 1344.47 1740.36 1343.77 1742.32 1342.92 1744.29 1341.94 1746.25 1340.83 1748.21 1339.61 1750.17 1338.26 1752.14 1336.8 1754.1 1335.21 1756.06 1333.51 1758.02 1331.68 1759.98 1329.7 1761.95 1327.58 1763.91 1325.29 1765.87 1322.8 1767.84 1320.11 1769.8 1317.15 1771.76 1313.9 1773.72 1310.29 1775.69 1306.24 1777.65 1301.64 1779.61 1296.34 1781.57 1290.14 1783.54 1282.74 1785.5 1273.71 1787.46 1262.35 1789.42 1247.57 1791.39 1227.5 1793.35 1198.66 1795.31 1154.05 1797.27 1077.68 1799.24 925.986 1801.2 925.58 1803.16 1346.09 1805.12 1346.49 1807.09 1346.66 1809.05 1346.62 1811.01 1346.38 1812.97 1345.97 1814.94 1345.39 1816.9 1344.67 1818.86 1343.8 1820.82 1342.81 1822.79 1341.69 1824.75 1340.45 1826.71 1339.1 1828.68 1337.64 1830.64 1336.06 1832.6 1334.36 1834.56 1332.54 1836.53 1330.58 1838.49 1328.48 1840.45 1326.22 1842.41 1323.78 1844.38 1321.14 1846.34 1318.25 1848.3 1315.09 1850.26 1311.58 1852.23 1307.66 1854.19 1303.24 1856.15 1298.16 1858.11 1292.26 1860.08 1285.27 1862.04 1276.8 1864 1266.25 1865.96 1252.69 1867.93 1234.54 1869.89 1208.96 1871.85 1170.4 1873.81 1106.68 1875.78 986.687 1877.74 925.58 1879.7 1345.72 1881.66 1345.77 1883.63 1345.62 1885.59 1345.29 1887.55 1344.79 1889.51 1344.13 1891.48 1343.33 1893.44 1342.39 1895.4 1341.33 1897.36 1340.14 1899.33 1338.84 1901.29 1337.41 1903.25 1335.87 1905.22 1334.21 1907.18 1332.42 1909.14 1330.5 1911.1 1328.43 1913.07 1326.21 1915.03 1323.8 1916.99 1321.18 1918.95 1318.33 1920.91 1315.2 1922.88 1311.73 1924.84 1307.86 1926.8 1303.48 1928.76 1298.47 1930.73 1292.64 1932.69 1285.74 1934.65 1277.4 1936.62 1267.03 1938.58 1253.73 1940.54 1235.97 1942.5 1211.05 1944.47 1173.68 1946.43 1112.39 1948.39 998.195 1950.35 925.58 1952.32 1345.67 1954.28 1345.67 1956.24 1345.48 1958.2 1345.11 1960.17 1344.57 1962.13 1343.88 1964.09 1343.05 1966.05 1342.09 1968.02 1340.99 1969.98 1339.78 1971.94 1338.45 1973.9 1337 1975.87 1335.43 1977.83 1333.74 1979.79 1331.92 1981.75 1329.96 1983.72 1327.86 1985.68 1325.58 1987.64 1323.13 1989.6 1320.46 1991.57 1317.54 1993.53 1314.33 1995.49 1310.76 1997.46 1306.77 1999.42 1302.24 2001.38 1297.04 2003.34 1290.97 2005.31 1283.74 2007.27 1274.93 2009.23 1263.91 2011.19 1249.64 2013.16 1230.36 2015.12 1202.87 2017.08 1160.81 2019.04 1089.82 2021.01 951.864 2022.97 925.58 2024.93 1345.94 2026.89 1346.19 2028.86 1346.23 2030.82 1346.07 2032.78 1345.73 2034.74 1345.21 2036.71 1344.55 2038.67 1343.74 2040.63 1342.79 2042.59 1341.72 2044.56 1340.53 2046.52 1339.22 2048.48 1337.8 2050.44 1336.26 2052.41 1334.6 2054.37 1332.81 2056.33 1330.9 2058.3 1328.84 2060.26 1326.63 2062.22 1324.23 2064.18 1321.64 2066.15 1318.82 2068.11 1315.72 2070.07 1312.3 2072.03 1308.48 2074 1304.17 2075.96 1299.25 2077.92 1293.55 2079.88 1286.82 2081.84 1278.7 2083.81 1268.65 2085.77 1255.83 2087.73 1238.82 2089.69 1215.14 2091.66 1179.99 2093.62 1123.17 2095.58 1019.5" stroke="#6699FF" stroke-width="4.819" stroke-linejoin="round" stroke-miterlimit="10" fill="none" fill-rule="evenodd"/><path d="M1310.56 1455.95 1389.06 1455.95 1389.06 1411.75 2095.58 1411.75" stroke="#6699FF" stroke-width="4.819" stroke-linejoin="round" stroke-miterlimit="10" fill="none" fill-rule="evenodd"/><path d="M1310.56 1455.95 1389.06 1455.95 1389.06 1411.75 2095.58 1411.75" stroke="#000000" stroke-width="4.819" stroke-linejoin="round" stroke-miterlimit="10" fill="none" fill-rule="evenodd"/><path d="M1938.58 1455.95 2095.58 1455.95" stroke="#000000" stroke-width="7.22857" stroke-linejoin="round" stroke-miterlimit="10" fill="none"/><text font-family="Arial,Arial_MSFontService,sans-serif" font-weight="400" font-size="17" transform="matrix(1.44571 0 0 1.44571 1938.58 1487)"> 20 </text><text font-family="Arial,Arial_MSFontService,sans-serif" font-weight="400" font-size="17" transform="matrix(1.44571 0 0 1.44571 1979.06 1487)">ms</text><text font-family="Arial,Arial_MSFontService,sans-serif" font-weight="400" font-size="17" transform="matrix(1.44571 0 0 1.44571 1938.58 1487)"> 20 </text><text font-family="Arial,Arial_MSFontService,sans-serif" font-weight="400" font-size="17" transform="matrix(1.44571 0 0 1.44571 1979.06 1487)">ms</text><text fill="#6699FF" font-family="Arial,Arial_MSFontService,sans-serif" font-weight="400" font-size="20" transform="matrix(1.44571 0 0 1.44571 1310.56 1357)">V</text><text fill="#6699FF" font-family="Arial,Arial_MSFontService,sans-serif" font-weight="400" font-size="20" transform="matrix(1.44571 0 0 1.44571 1329.35 1357)">(</text><text fill="#6699FF" font-family="Arial,Arial_MSFontService,sans-serif" font-weight="400" font-size="20" transform="matrix(1.44571 0 0 1.44571 1339.47 1357)">t</text><text fill="#6699FF" font-family="Arial,Arial_MSFontService,sans-serif" font-weight="400" font-size="20" transform="matrix(1.44571 0 0 1.44571 1348.15 1357)">)</text><text font-family="Arial,Arial_MSFontService,sans-serif" font-weight="400" font-size="20" transform="matrix(1.44571 0 0 1.44571 1310.56 1445)">I</text><text font-family="Arial,Arial_MSFontService,sans-serif" font-weight="400" font-size="20" transform="matrix(1.44571 0 0 1.44571 1319.23 1445)">(</text><text font-family="Arial,Arial_MSFontService,sans-serif" font-weight="400" font-size="20" transform="matrix(1.44571 0 0 1.44571 1329.35 1445)">t</text><text font-family="Arial,Arial_MSFontService,sans-serif" font-weight="400" font-size="20" transform="matrix(1.44571 0 0 1.44571 1338.03 1445)">)</text></g></g></g><text fill="#6699FF" font-family="Derailed,Derailed_MSFontService,sans-serif" font-weight="700" font-size="83" transform="matrix(1 0 0 1 1384.62 1611)">Fast spiking (FS)</text></g></svg>