<svg width="1011" height="857" xmlns="http://www.w3.org/2000/svg" xmlns:xlink="http://www.w3.org/1999/xlink" xml:space="preserve" overflow="hidden"><defs><clipPath id="clip0"><rect x="168" y="825" width="1011" height="857"/></clipPath></defs><g clip-path="url(#clip0)" transform="translate(-168 -825)"><g><g><g><g><path d="M0 0 1011 0 1011 758.25 0 758.25Z" fill="#FFFFFF" transform="matrix(1 0 0 1.00099 168 825)"/></g><path d="M0 0 1011 0 1011 758.25 0 758.25Z" fill="#FFFFFF" transform="matrix(1 0 0 1.00099 168 825)"/><path d="M131.43 542.02 133.391 542.02 135.351 542.02 137.312 542.02 139.272 542.02 141.233 542.02 143.194 542.02 145.155 542.02 147.115 542.02 149.075 542.02 151.036 542.02 152.998 542.02 154.957 542.02 156.917 542.02 158.879 542.02 160.84 542.02 162.8 542.02 164.76 542.02 166.721 542.02 168.682 542.02 170.642 542.02 172.602 542.02 174.564 542.02 176.525 542.02 178.485 542.02 180.446 542.02 182.406 542.02 184.366 542.02 186.327 542.02 188.287 542.02 190.249 542.02 192.21 542.02 194.17 542.02 196.131 542.02 198.091 542.02 200.051 542.02 202.012 542.02 203.972 542.02 205.933 542.02 207.895 542.02 209.855 542.02 211.816 530.982 213.776 521.325 215.736 512.43 217.697 503.862 219.657 495.273 221.618 486.334 223.58 476.676 225.54 465.836 227.501 453.163 229.461 437.679 231.421 417.767 233.382 390.562 235.342 350.489 237.303 285.345 239.265 163.908 241.225 100.481 243.186 520.508 245.146 521.001 247.106 521.428 249.067 521.787 251.027 522.086 252.988 522.326 254.95 522.511 256.91 522.642 258.871 522.726 260.831 522.764 262.791 522.759 264.752 522.713 266.712 522.632 268.673 522.515 270.635 522.366 272.594 522.187 274.556 521.981 276.516 521.748 278.476 521.49 280.437 521.208 282.397 520.905 284.358 520.58 286.318 520.236 288.279 519.872 290.241 519.489 292.201 519.089 294.162 518.672 296.122 518.237 298.082 517.785 300.043 517.316 302.003 516.83 303.964 516.329 305.926 515.809 307.886 515.272 309.847 514.717 311.807 514.145 313.767 513.553 315.728 512.941 317.688 512.31 319.649 511.656 321.611 510.978 323.571 510.278 325.532 509.55 327.492 508.796 329.452 508.01 331.413 507.194 333.373 506.342 335.334 505.452 337.296 504.522 339.255 503.546 341.217 502.519 343.177 501.439 345.137 500.295 347.098 499.083 349.058 497.793 351.019 496.417 352.98 494.939 354.94 493.349 356.902 491.628 358.862 489.754 360.822 487.702 362.783 485.439 364.743 482.924 366.704 480.107 368.665 476.919 370.625 473.274 372.587 469.049 374.547 464.085 376.508 458.153 378.468 450.922 380.428 441.898 382.389 430.308 384.349 414.887 386.31 393.435 388.27 361.807 390.232 311.379 392.191 221.616 394.153 100.481 396.114 527.234 398.074 533.963 400.035 539.951 401.995 545.099 403.957 549.385 405.916 552.844 407.878 555.56 409.838 557.639 411.798 559.185 413.759 560.305 415.719 561.083 417.68 561.599 419.64 561.911 421.601 562.067 423.561 562.106 425.523 562.055 427.484 561.937 429.444 561.768 431.405 561.56 433.365 561.325 435.326 561.067 437.286 560.793 439.248 560.507 441.208 560.211 443.168 559.908 445.129 559.6 447.089 559.288 449.05 558.973 451.01 558.654 452.971 558.335 454.931 558.014 456.893 557.692 458.854 557.369 460.814 557.044 462.775 556.72 464.735 556.394 466.696 556.069 468.656 555.742 470.618 555.416 472.577 555.089 474.537 554.763 476.499 554.435 478.459 554.107 480.42 553.78 482.38 553.452 484.341 553.124 486.301 552.795 488.262 552.465 490.222 552.136 492.184 551.805 494.145 551.474 496.105 551.144 498.066 550.813 500.026 550.482 501.987 550.15 503.947 549.818 505.909 549.484 507.869 549.151 509.829 548.817 511.79 548.483 513.75 548.148 515.711 547.813 517.671 547.477 519.632 547.14 521.592 546.802 523.554 546.464 525.515 546.125 527.475 545.785 529.436 545.446 531.396 545.105 533.357 544.763 535.317 544.421 537.279 544.077 539.238 543.733 541.198 543.388 543.16 543.041 545.12 542.695 547.081 542.347 549.041 541.997 551.002 541.646 552.962 541.295 554.923 540.943 556.885 540.589 558.845 540.235 560.806 539.878 562.766 539.522 564.727 539.162 566.687 538.802 568.648 538.44 570.608 538.077 572.57 537.712 574.53 537.345 576.49 536.978 578.451 536.608 580.411 536.236 582.372 535.863 584.332 535.488 586.293 535.111 588.253 534.731 590.215 534.35 592.176 533.965 594.136 533.58 596.097 533.191 598.057 532.8 600.018 532.407 601.978 532.011 603.94 531.613 605.9 531.211 607.859 530.807 609.821 530.399 611.781 529.988 613.742 529.573 615.702 529.156 617.663 528.734 619.623 528.31 621.584 527.881 623.546 527.449 625.506 527.011 627.467 526.569 629.427 526.123 631.388 525.672 633.348 525.216 635.309 524.754 637.269 524.287 639.229 523.815 641.191 523.335 643.151 522.85 645.112 522.358 647.072 521.859 649.033 521.352 650.993 520.838 652.954 520.315 654.916 519.784 656.876 519.244 658.837 518.692 660.797 518.132 662.758 517.561 664.718 516.978 666.679 516.381 668.639 515.773 670.599 515.151 672.56 514.512 674.52 513.859 676.482 513.188 678.442 512.499 680.403 511.79 682.363 511.059 684.324 510.305 686.284 509.527 688.245 508.721 690.207 507.884 692.167 507.016 694.128 506.114 696.088 505.171 698.049 504.186 700.009 503.153 701.97 502.068 703.93 500.924 705.89 499.714 707.852 498.432 709.812 497.064 711.773 495.602 713.733 494.031 715.694 492.335 717.654 490.494 719.615 488.483 721.577 486.272 723.537 483.824 725.498 481.089 727.458 478.005 729.419 474.491 731.379 470.438 733.34 465.698 735.3 460.064 737.26 453.241 739.221 444.789 741.181 434.034 743.143 419.884 745.104 400.477 747.064 372.393 749.024 328.735 750.985 253.784 752.947 104.977 754.906 100.481 756.866 527.339 758.828 534.163 760.789 540.235 762.749 545.447 764.709 549.777 766.67 553.268 768.631 556.002 770.591 558.088 772.553 559.636 774.513 560.753 776.473 561.527 778.434 562.035 780.395 562.341 782.355 562.491 784.315 562.525 786.276 562.468 788.238 562.347 790.198 562.174 792.157 561.964 794.119 561.726 796.08 561.466 798.04 561.192 800 560.904 801.961 560.607 803.921 560.303 805.882 559.994 807.844 559.682 809.804 559.366 811.764 559.048 813.725 558.728 815.686 558.407 817.646 558.085 819.606 557.761 821.568 557.436 823.529 557.113 825.489 556.788 827.449 556.462 829.41 556.137 831.371 555.81 833.331 555.484 835.292 555.157 837.252 554.83 839.212 554.502 841.174 554.175 843.135 553.847 845.095 553.518 847.055 553.19 849.016 552.861 850.977 552.532 852.937 552.202 854.897 551.873 856.859 551.542 858.82 551.212 860.78 550.881 862.74 550.549 864.701 550.218 866.661 549.886 868.622 549.552 870.584 549.219 872.544 548.885 874.503 548.551 876.465 548.216 878.426 547.881 880.386 547.545 882.346 547.208 884.307 546.872 886.269 546.532 888.228 546.194 890.188 545.855 892.15 545.515 894.111 545.174 896.071 544.832 898.031 544.49 899.992 544.148 901.952 543.802 903.913 543.457 905.875 543.112 907.835 542.765 909.794 542.417 911.756 542.068 913.717 541.718 915.677 541.367" stroke="#FF5050" stroke-width="4.81424" stroke-linejoin="round" stroke-miterlimit="10" fill="none" fill-rule="evenodd" transform="matrix(1 0 0 1.00099 168 825)"/><path d="M131.43 630.328 209.855 630.328 209.855 586.173 915.677 586.173" stroke="#FF5050" stroke-width="4.81424" stroke-linejoin="round" stroke-miterlimit="10" fill="none" fill-rule="evenodd" transform="matrix(1 0 0 1.00099 168 825)"/><path d="M131.43 630.328 209.855 630.328 209.855 586.173 915.677 586.173" stroke="#000000" stroke-width="4.81424" stroke-linejoin="round" stroke-miterlimit="10" fill="none" fill-rule="evenodd" transform="matrix(1 0 0 1.00099 168 825)"/><path d="M758.828 630.328 915.677 630.328" stroke="#000000" stroke-width="7.22143" stroke-linejoin="round" stroke-miterlimit="10" fill="none" transform="matrix(1 0 0 1.00099 168 825)"/><text font-family="Arial,Arial_MSFontService,sans-serif" font-weight="400" font-size="17" transform="matrix(1.44429 0 0 1.44571 926.828 1487)"> 20 </text><text font-family="Arial,Arial_MSFontService,sans-serif" font-weight="400" font-size="17" transform="matrix(1.44429 0 0 1.44571 967.268 1487)">ms</text><text fill="#FF5050" font-family="Arial,Arial_MSFontService,sans-serif" font-weight="400" font-size="20" transform="matrix(1.44429 0 0 1.44571 299.43 1357)">V</text><text fill="#FF5050" font-family="Arial,Arial_MSFontService,sans-serif" font-weight="400" font-size="20" transform="matrix(1.44429 0 0 1.44571 318.206 1357)">(</text><text fill="#FF5050" font-family="Arial,Arial_MSFontService,sans-serif" font-weight="400" font-size="20" transform="matrix(1.44429 0 0 1.44571 328.316 1357)">t</text><text fill="#FF5050" font-family="Arial,Arial_MSFontService,sans-serif" font-weight="400" font-size="20" transform="matrix(1.44429 0 0 1.44571 336.982 1357)">)</text><text font-family="Arial,Arial_MSFontService,sans-serif" font-weight="400" font-size="20" transform="matrix(1.44429 0 0 1.44571 299.43 1445)">I</text><text font-family="Arial,Arial_MSFontService,sans-serif" font-weight="400" font-size="20" transform="matrix(1.44429 0 0 1.44571 308.096 1445)">(</text><text font-family="Arial,Arial_MSFontService,sans-serif" font-weight="400" font-size="20" transform="matrix(1.44429 0 0 1.44571 318.206 1445)">t</text><text font-family="Arial,Arial_MSFontService,sans-serif" font-weight="400" font-size="20" transform="matrix(1.44429 0 0 1.44571 326.872 1445)">)</text></g></g></g><text fill="#FF5050" font-family="Derailed,Derailed_MSFontService,sans-serif" font-weight="700" font-size="83" transform="matrix(1 0 0 1 260.097 1611)">Regular spiking (RS)</text></g></svg>