<svg width="3667" height="1035" xmlns="http://www.w3.org/2000/svg" xmlns:xlink="http://www.w3.org/1999/xlink" xml:space="preserve" overflow="hidden"><defs><clipPath id="clip0"><rect x="339" y="479" width="3667" height="1035"/></clipPath><clipPath id="clip1"><rect x="2784" y="480" width="1223" height="1033"/></clipPath><clipPath id="clip2"><rect x="2784" y="480" width="1223" height="1033"/></clipPath><clipPath id="clip3"><rect x="2784" y="480" width="1223" height="1033"/></clipPath></defs><g clip-path="url(#clip0)" transform="translate(-339 -479)"><rect x="339" y="505" width="3667" height="1007" fill="#FFFFFF"/><g><g><g><path d="M1423.88 996.354 2646.07 996.354 2646.07 1913 1423.88 1913Z" fill="#FFFFFF" transform="matrix(1.00148 0 0 1 135.016 -517.354)"/><path d="M1423.88 996.354 2646.07 996.354 2646.07 1913 1423.88 1913Z" fill="#FFFFFF" transform="matrix(1.00148 0 0 1 135.016 -517.354)"/><path d="M1582.77 1651.6 1585.13 1651.6 1587.51 1651.6 1589.88 1651.6 1592.25 1651.6 1594.61 1651.6 1596.99 1651.6 1599.36 1651.6 1601.73 1651.6 1604.09 1651.6 1606.47 1651.6 1608.84 1651.6 1611.21 1651.6 1613.57 1651.6 1615.95 1651.6 1618.32 1651.6 1620.69 1651.6 1623.05 1651.6 1625.43 1651.6 1627.8 1651.6 1630.17 1651.6 1632.53 1651.6 1634.91 1651.6 1637.28 1651.6 1639.65 1651.6 1642.01 1651.6 1644.39 1651.6 1646.76 1651.6 1649.13 1651.6 1651.5 1651.6 1653.87 1651.6 1656.24 1651.6 1658.61 1651.6 1660.99 1651.6 1663.35 1651.6 1665.72 1651.6 1668.09 1651.6 1670.46 1651.6 1672.84 1651.6 1675.2 1651.6 1677.57 1651.6 1679.95 1638.26 1682.32 1626.59 1684.68 1615.88 1687.05 1605.59 1689.42 1595.33 1691.8 1584.71 1694.16 1573.31 1696.53 1560.6 1698.91 1545.88 1701.28 1528.06 1703.64 1505.4 1706.01 1474.86 1708.38 1430.59 1710.76 1360.26 1713.12 1233.29 1715.49 1117.82 1717.87 1619.89 1720.24 1614.96 1722.6 1610.06 1724.97 1605.08 1727.35 1599.95 1729.72 1594.59 1732.09 1588.88 1734.45 1582.68 1736.83 1575.86 1739.2 1568.16 1741.57 1559.31 1743.93 1548.86 1746.31 1536.17 1748.68 1520.22 1751.05 1499.31 1753.41 1470.5 1755.79 1428.11 1758.16 1360.1 1760.53 1236.89 1762.89 1117.82 1765.27 1623.6 1767.64 1622.15 1770.01 1620.57 1772.37 1618.85 1774.75 1617.02 1777.12 1615.06 1779.49 1612.96 1781.85 1610.72 1784.23 1608.34 1786.6 1605.8 1788.97 1603.07 1791.35 1600.13 1793.71 1596.97 1796.08 1593.53 1798.45 1589.77 1800.83 1585.63 1803.19 1581.01 1805.56 1575.83 1807.93 1569.94 1810.31 1563.1 1812.68 1555.07 1815.04 1545.41 1817.41 1533.49 1819.79 1518.32 1822.16 1498.31 1824.52 1470.57 1826.89 1429.68 1829.27 1364.15 1831.64 1246.12 1834 1117.82 1836.37 1624.87 1838.75 1624.6 1841.12 1624.12 1843.48 1623.43 1845.85 1622.57 1848.23 1621.53 1850.6 1620.34 1852.96 1619 1855.33 1617.5 1857.71 1615.86 1860.08 1614.08 1862.44 1612.15 1864.81 1610.08 1867.19 1607.85 1869.56 1605.43 1871.92 1602.85 1874.3 1600.05 1876.67 1597.03 1879.04 1593.72 1881.41 1590.11 1883.77 1586.12 1886.15 1581.69 1888.52 1576.7 1890.89 1571.04 1893.25 1564.49 1895.63 1556.81 1898 1547.61 1900.37 1536.33 1902.75 1522.08 1905.11 1503.43 1907.48 1477.89 1909.85 1440.82 1912.23 1382.72 1914.59 1281.29 1916.96 1117.82 1919.33 1624.74 1921.71 1624.37 1924.07 1623.78 1926.44 1623.01 1928.81 1622.05 1931.19 1620.93 1933.55 1619.66 1935.92 1618.24 1938.29 1616.67 1940.67 1614.96 1943.03 1613.1 1945.4 1611.1 1947.77 1608.95 1950.15 1606.63 1952.51 1604.13 1954.88 1601.44 1957.25 1598.53 1959.63 1595.36 1962 1591.91 1964.36 1588.1 1966.73 1583.9 1969.11 1579.2 1971.48 1573.89 1973.84 1567.79 1976.21 1560.7 1978.59 1552.29 1980.96 1542.11 1983.32 1529.43 1985.69 1513.15 1988.07 1491.35 1990.44 1460.68 1992.8 1414.48 1995.18 1338.3 1997.55 1195.21 1999.92 1117.82 2002.28 1625.23 2004.66 1625.3 2007.03 1625.12 2009.4 1624.72 2011.76 1624.13 2014.14 1623.33 2016.51 1622.38 2018.88 1621.24 2021.25 1619.96 2023.62 1618.54 2025.99 1616.97 2028.36 1615.25 2030.73 1613.39 2033.1 1611.39 2035.47 1609.23 2037.84 1606.92 2040.21 1604.42 2042.59 1601.74 2044.95 1598.83 2047.32 1595.69 2049.69 1592.25 2052.07 1588.48 2054.43 1584.3 2056.8 1579.64 2059.17 1574.36 2061.55 1568.33 2063.91 1561.33 2066.28 1553.03 2068.66 1543.01 2071.03 1530.56 2073.39 1514.6 2075.76 1493.33 2078.13 1463.52 2080.51 1418.9 2082.87 1345.93 2085.24 1210.52 2087.61 1117.82 2089.99 1625.14 2092.35 1625.12 2094.72 1624.85 2097.1 1624.38 2099.47 1623.72 2101.83 1622.87 2104.2 1621.85 2106.58 1620.66 2108.95 1619.32 2111.32 1617.85 2113.68 1616.22 2116.06 1614.46 2118.43 1612.53 2120.8 1610.48 2123.16 1608.27 2125.53 1605.88 2127.91 1603.32 2130.28 1600.55 2132.64 1597.55 2135.02 1594.3 2137.39 1590.72 2139.76 1586.8 2142.12 1582.44 2144.5 1577.55 2146.87 1571.99 2149.24 1565.59 2151.6 1558.1 2153.98 1549.17 2156.35 1538.26 2158.72 1524.54 2161.08 1506.69 2163.46 1482.45 2165.83 1447.62 2168.2 1393.75 2170.57 1301.52 2172.94 1118.31 2175.31 1117.82 2177.68 1625.67 2180.05 1626.16 2182.43 1626.36 2184.79 1626.31 2187.16 1626.02 2189.53 1625.53 2191.91 1624.83 2194.27 1623.96 2196.64 1622.91 2199.01 1621.71 2201.39 1620.36 2203.75 1618.86 2206.12 1617.23 2208.5 1615.47 2210.87 1613.56 2213.23 1611.51 2215.6 1609.31 2217.98 1606.94 2220.35 1604.41 2222.71 1601.68 2225.08 1598.73 2227.46 1595.54 2229.83 1592.05 2232.19 1588.24 2234.56 1584 2236.94 1579.26 2239.31 1573.92 2241.67 1567.79 2244.04 1560.66 2246.42 1552.22 2248.79 1541.99 2251.16 1529.25 2253.52 1512.88 2255.9 1490.96 2258.27 1460.06 2260.64 1413.49 2263 1336.54 2265.38 1191.62 2267.75 1117.82 2270.12 1625.23 2272.48 1625.29 2274.86 1625.11 2277.23 1624.71 2279.6 1624.1 2281.96 1623.31 2284.34 1622.34 2286.71 1621.21 2289.08 1619.93 2291.44 1618.49 2293.82 1616.92 2296.19 1615.19 2298.56 1613.33 2300.94 1611.33 2303.3 1609.17 2305.67 1606.85 2308.04 1604.35 2310.42 1601.67 2312.78 1598.76 2315.15 1595.59 2317.52 1592.15 2319.89 1588.37 2322.26 1584.18 2324.63 1579.5 2327 1574.21 2329.37 1568.16 2331.75 1561.12 2334.11 1552.79 2336.48 1542.72 2338.86 1530.19 2341.23 1514.13 2343.59 1492.68 2345.96 1462.59 2348.34 1417.45 2350.71 1343.43 2353.07 1205.52 2355.44 1117.82 2357.82 1625.17 2360.19 1625.17 2362.55 1624.94 2364.92 1624.49 2367.3 1623.84 2369.67 1623.01 2372.03 1622 2374.4 1620.84 2376.78 1619.52 2379.15 1618.05 2381.51 1616.45 2383.88 1614.7 2386.26 1612.8 2388.63 1610.76 2391 1608.56 2393.36 1606.19 2395.74 1603.66 2398.11 1600.9 2400.48 1597.95 2402.84 1594.72 2405.22 1591.19 2407.59 1587.32 2409.96 1583.01 2412.33 1578.19 2414.7 1572.72 2417.07 1566.44 2419.44 1559.11 2421.82 1550.37 2424.18 1539.73 2426.55 1526.43 2428.92 1509.19 2431.3 1485.91 2433.66 1452.71 2436.03 1401.91 2438.4 1316.18 2440.78 1149.57 2443.14 1117.82 2445.51 1625.49 2447.88 1625.8 2450.26 1625.84 2452.62 1625.65 2454.99 1625.24 2457.36 1624.61 2459.74 1623.81 2462.1 1622.84 2464.47 1621.69 2466.84 1620.4 2469.22 1618.96 2471.58 1617.38 2473.95 1615.66 2476.32 1613.8 2478.7 1611.8 2481.07 1609.64 2483.43 1607.33 2485.81 1604.84 2488.18 1602.17 2490.55 1599.27 2492.91 1596.15 2495.29 1592.74 2497.66 1589 2500.03 1584.87 2502.39 1580.25 2504.77 1575.05 2507.14 1569.11 2509.51 1562.22 2511.87 1554.09 2514.24 1544.29 2516.62 1532.15 2518.99 1516.67 2521.35 1496.12 2523.72 1467.53 2526.1 1425.08 2528.47 1356.45 2530.83 1231.25" stroke="#6699FF" stroke-width="5.81991" stroke-linejoin="round" stroke-miterlimit="10" fill="none" fill-rule="evenodd" transform="matrix(1.00148 0 0 1 135.016 -517.354)"/><path d="M1582.77 1758.35 1677.57 1758.35 1677.57 1704.97 2530.83 1704.97" stroke="#6699FF" stroke-width="5.81991" stroke-linejoin="round" stroke-miterlimit="10" fill="none" fill-rule="evenodd" transform="matrix(1.00148 0 0 1 135.016 -517.354)"/><path d="M1582.77 1758.35 1677.57 1758.35 1677.57 1704.97 2530.83 1704.97" stroke="#000000" stroke-width="5.81991" stroke-linejoin="round" stroke-miterlimit="10" fill="none" fill-rule="evenodd" transform="matrix(1.00148 0 0 1 135.016 -517.354)"/><path d="M2341.23 1758.35 2530.83 1758.35" stroke="#000000" stroke-width="8.72995" stroke-linejoin="round" stroke-miterlimit="10" fill="none" transform="matrix(1.00148 0 0 1 135.016 -517.354)"/><text font-family="Arial,Arial_MSFontService,sans-serif" font-weight="400" font-size="17" transform="matrix(1.74857 0 0 1.74599 2479.7 1278)"> 20 </text><text font-family="Arial,Arial_MSFontService,sans-serif" font-weight="400" font-size="17" transform="matrix(1.74857 0 0 1.74599 2528.66 1278)">ms</text><text font-family="Arial,Arial_MSFontService,sans-serif" font-weight="400" font-size="17" transform="matrix(1.74857 0 0 1.74599 2479.7 1278)"> 20 </text><text font-family="Arial,Arial_MSFontService,sans-serif" font-weight="400" font-size="17" transform="matrix(1.74857 0 0 1.74599 2528.66 1278)">ms</text><text fill="#6699FF" font-family="Arial,Arial_MSFontService,sans-serif" font-weight="400" font-size="20" transform="matrix(1.74857 0 0 1.74599 1720.12 1121)">V</text><text fill="#6699FF" font-family="Arial,Arial_MSFontService,sans-serif" font-weight="400" font-size="20" transform="matrix(1.74857 0 0 1.74599 1742.85 1121)">(</text><text fill="#6699FF" font-family="Arial,Arial_MSFontService,sans-serif" font-weight="400" font-size="20" transform="matrix(1.74857 0 0 1.74599 1755.09 1121)">t</text><text fill="#6699FF" font-family="Arial,Arial_MSFontService,sans-serif" font-weight="400" font-size="20" transform="matrix(1.74857 0 0 1.74599 1765.58 1121)">)</text><text font-family="Arial,Arial_MSFontService,sans-serif" font-weight="400" font-size="20" transform="matrix(1.74857 0 0 1.74599 1720.12 1228)">I</text><text font-family="Arial,Arial_MSFontService,sans-serif" font-weight="400" font-size="20" transform="matrix(1.74857 0 0 1.74599 1730.61 1228)">(</text><text font-family="Arial,Arial_MSFontService,sans-serif" font-weight="400" font-size="20" transform="matrix(1.74857 0 0 1.74599 1742.85 1228)">t</text><text font-family="Arial,Arial_MSFontService,sans-serif" font-weight="400" font-size="20" transform="matrix(1.74857 0 0 1.74599 1753.34 1228)">)</text><text fill="#6699FF" font-family="Derailed,Derailed_MSFontService,sans-serif" font-weight="700" font-size="83" transform="matrix(1.20949 0 0 1.2077 1809.69 1428)">Fast spiking </text><text fill="#6699FF" font-family="Derailed,Derailed_MSFontService,sans-serif" font-weight="700" font-size="83" transform="matrix(1.20949 0 0 1.2077 2398.71 1428)">(</text><text fill="#6699FF" font-family="Derailed,Derailed_MSFontService,sans-serif" font-weight="700" font-size="83" transform="matrix(1.20949 0 0 1.2077 2430.16 1428)">FS</text><text fill="#6699FF" font-family="Derailed,Derailed_MSFontService,sans-serif" font-weight="700" font-size="83" transform="matrix(1.20949 0 0 1.2077 2547.48 1428)">)</text></g></g></g><g><g><g><g><path d="M0 0 1222 0 1222 916.5 0 916.5Z" fill="#FFFFFF" transform="matrix(1 0 0 1.00016 339 479)"/><path d="M0 0 1222 0 1222 916.5 0 916.5Z" fill="#FFFFFF" transform="matrix(1 0 0 1.00016 339 479)"/><path d="M158.86 655.142 161.23 655.142 163.599 655.142 165.97 655.142 168.339 655.142 170.709 655.142 173.079 655.142 175.449 655.142 177.819 655.142 180.188 655.142 182.558 655.142 184.929 655.142 187.297 655.142 189.666 655.142 192.038 655.142 194.408 655.142 196.777 655.142 199.146 655.142 201.516 655.142 203.887 655.142 206.256 655.142 208.625 655.142 210.996 655.142 213.367 655.142 215.736 655.142 218.106 655.142 220.475 655.142 222.844 655.142 225.214 655.142 227.583 655.142 229.955 655.142 232.325 655.142 234.694 655.142 237.064 655.142 239.433 655.142 241.802 655.142 244.173 655.142 246.542 655.142 248.912 655.142 251.284 655.142 253.653 655.142 256.023 641.8 258.392 630.128 260.761 619.376 263.131 609.02 265.5 598.639 267.871 587.834 270.242 576.16 272.611 563.058 274.981 547.74 277.35 529.024 279.72 504.957 282.09 472.074 284.459 423.638 286.829 344.898 289.201 198.116 291.57 121.452 293.94 629.14 296.309 629.736 298.678 630.252 301.048 630.686 303.417 631.048 305.788 631.338 308.159 631.561 310.528 631.72 312.898 631.821 315.268 631.867 317.637 631.861 320.007 631.805 322.376 631.708 324.746 631.566 327.118 631.386 329.486 631.17 331.857 630.921 334.226 630.639 336.595 630.327 338.965 629.986 341.334 629.62 343.705 629.227 346.074 628.811 348.444 628.372 350.816 627.909 353.185 627.425 355.555 626.921 357.924 626.395 360.293 625.849 362.663 625.282 365.032 624.695 367.403 624.089 369.774 623.461 372.143 622.811 374.513 622.141 376.882 621.449 379.251 620.734 381.622 619.994 383.991 619.231 386.361 618.441 388.733 617.621 391.102 616.775 393.472 615.895 395.841 614.984 398.21 614.034 400.58 613.048 402.949 612.018 405.32 610.942 407.691 609.818 410.059 608.638 412.43 607.397 414.799 606.091 417.169 604.709 419.539 603.244 421.908 601.685 424.278 600.021 426.648 598.235 429.017 596.313 431.389 594.233 433.758 591.968 436.127 589.487 438.497 586.752 440.866 583.712 443.237 580.307 445.607 576.454 447.976 572.048 450.348 566.942 452.717 560.941 455.087 553.771 457.456 545.031 459.825 534.124 462.195 520.115 464.564 501.476 466.935 475.547 469.304 437.318 471.675 376.365 474.043 267.868 476.414 121.452 478.785 637.27 481.154 645.403 483.524 652.641 485.893 658.863 488.265 664.044 490.632 668.225 493.004 671.508 495.373 674.021 497.742 675.889 500.112 677.243 502.481 678.183 504.852 678.807 507.221 679.184 509.591 679.373 511.96 679.42 514.331 679.358 516.702 679.216 519.071 679.011 521.441 678.76 523.81 678.476 526.18 678.164 528.549 677.833 530.921 677.487 533.29 677.129 535.659 676.763 538.029 676.391 540.398 676.014 542.769 675.633 545.138 675.247 547.508 674.862 549.877 674.474 552.249 674.085 554.619 673.694 556.988 673.301 559.358 672.91 561.727 672.516 564.097 672.123 566.466 671.728 568.838 671.334 571.206 670.938 573.575 670.544 575.946 670.148 578.315 669.751 580.686 669.356 583.055 668.96 585.425 668.563 587.794 668.166 590.164 667.767 592.533 667.369 594.905 666.969 597.275 666.569 599.644 666.17 602.014 665.77 604.384 665.37 606.754 664.969 609.123 664.567 611.494 664.164 613.863 663.761 616.232 663.357 618.603 662.954 620.972 662.549 623.342 662.144 625.711 661.738 628.081 661.33 630.45 660.922 632.822 660.513 635.192 660.104 637.561 659.693 639.932 659.283 642.301 658.871 644.671 658.457 647.04 658.044 649.411 657.628 651.779 657.212 654.148 656.795 656.52 656.376 658.889 655.958 661.259 655.537 663.628 655.114 665.998 654.69 668.367 654.266 670.738 653.84 673.109 653.412 675.478 652.984 677.849 652.553 680.218 652.122 682.588 651.687 684.957 651.252 687.327 650.815 689.696 650.376 692.068 649.935 694.437 649.491 696.806 649.048 699.176 648.6 701.545 648.151 703.916 647.7 706.285 647.247 708.655 646.791 711.024 646.332 713.395 645.871 715.766 645.406 718.135 644.94 720.505 644.47 722.874 643.998 725.244 643.523 727.613 643.044 729.985 642.563 732.354 642.077 734.722 641.589 737.093 641.096 739.462 640.599 741.833 640.097 744.202 639.593 746.572 639.083 748.941 638.571 751.311 638.052 753.683 637.53 756.052 637 758.422 636.466 760.791 635.927 763.161 635.382 765.53 634.831 767.901 634.272 770.27 633.708 772.639 633.137 775.01 632.557 777.379 631.971 779.75 631.376 782.119 630.773 784.489 630.16 786.858 629.539 789.228 628.907 791.6 628.265 793.969 627.612 796.339 626.945 798.708 626.268 801.078 625.578 803.448 624.874 805.818 624.152 808.187 623.417 810.556 622.665 812.926 621.893 815.295 621.104 817.667 620.292 820.036 619.46 822.406 618.603 824.775 617.719 827.145 616.808 829.514 615.867 831.885 614.893 834.256 613.882 836.625 612.832 838.995 611.742 841.365 610.602 843.735 609.412 846.104 608.163 848.474 606.852 850.843 605.469 853.212 604.006 855.584 602.457 857.953 600.803 860.323 599.036 862.692 597.137 865.062 595.087 867.431 592.862 869.802 590.431 872.173 587.759 874.542 584.8 876.912 581.494 879.282 577.767 881.652 573.519 884.021 568.62 886.391 562.891 888.76 556.081 891.129 547.834 893.5 537.618 895.869 524.619 898.24 507.516 900.61 484.058 902.979 450.113 905.348 397.343 907.719 306.75 910.09 126.886 912.458 121.452 914.827 637.397 917.199 645.645 919.569 652.984 921.938 659.284 924.307 664.518 926.677 668.737 929.048 672.042 931.417 674.563 933.788 676.434 936.157 677.784 938.526 678.72 940.896 679.334 943.267 679.704 945.636 679.885 948.005 679.926 950.375 679.857 952.747 679.711 955.116 679.502 957.484 679.248 959.855 678.961 962.225 678.646 964.594 678.315 966.963 677.967 969.334 677.608 971.703 677.241 974.073 676.867 976.444 676.49 978.814 676.108 981.183 675.724 983.553 675.337 985.923 674.949 988.292 674.56 990.661 674.168 993.033 673.775 995.403 673.385 997.772 672.992 1000.14 672.598 1002.51 672.205 1004.88 671.81 1007.25 671.416 1009.62 671.021 1011.99 670.625 1014.36 670.229 1016.73 669.834 1019.1 669.437 1021.47 669.04 1023.84 668.643 1026.21 668.245 1028.58 667.848 1030.95 667.449 1033.32 667.051 1035.69 666.651 1038.06 666.252 1040.43 665.852 1042.8 665.451 1045.17 665.051 1047.54 664.65 1049.91 664.246 1052.28 663.843 1054.65 663.44 1057.02 663.036 1059.39 662.631 1061.76 662.226 1064.13 661.82 1066.5 661.413 1068.87 661.007 1071.24 660.596 1073.6 660.187 1075.97 659.777 1078.35 659.366 1080.72 658.954 1083.08 658.541 1085.45 658.127 1087.82 657.714 1090.19 657.296 1092.56 656.879 1094.93 656.462 1097.3 656.042 1099.67 655.622 1102.04 655.2 1104.41 654.777 1106.78 654.353" stroke="#FF5050" stroke-width="5.81899" stroke-linejoin="round" stroke-miterlimit="10" fill="none" fill-rule="evenodd" transform="matrix(1 0 0 1.00016 339 479)"/><path d="M158.86 761.88 253.653 761.88 253.653 708.51 1106.78 708.51" stroke="#FF5050" stroke-width="5.81899" stroke-linejoin="round" stroke-miterlimit="10" fill="none" fill-rule="evenodd" transform="matrix(1 0 0 1.00016 339 479)"/><path d="M158.86 761.88 253.653 761.88 253.653 708.51 1106.78 708.51" stroke="#000000" stroke-width="5.81899" stroke-linejoin="round" stroke-miterlimit="10" fill="none" fill-rule="evenodd" transform="matrix(1 0 0 1.00016 339 479)"/><path d="M917.199 761.88 1106.78 761.88" stroke="#000000" stroke-width="8.72857" stroke-linejoin="round" stroke-miterlimit="10" fill="none" transform="matrix(1 0 0 1.00016 339 479)"/><text font-family="Arial,Arial_MSFontService,sans-serif" font-weight="400" font-size="17" transform="matrix(1.74572 0 0 1.74599 1256.2 1278)"> 20 </text><text font-family="Arial,Arial_MSFontService,sans-serif" font-weight="400" font-size="17" transform="matrix(1.74572 0 0 1.74599 1305.08 1278)">ms</text><text fill="#FF5050" font-family="Arial,Arial_MSFontService,sans-serif" font-weight="400" font-size="20" transform="matrix(1.74572 0 0 1.74599 497.86 1121)">V</text><text fill="#FF5050" font-family="Arial,Arial_MSFontService,sans-serif" font-weight="400" font-size="20" transform="matrix(1.74572 0 0 1.74599 520.555 1121)">(</text><text fill="#FF5050" font-family="Arial,Arial_MSFontService,sans-serif" font-weight="400" font-size="20" transform="matrix(1.74572 0 0 1.74599 532.775 1121)">t</text><text fill="#FF5050" font-family="Arial,Arial_MSFontService,sans-serif" font-weight="400" font-size="20" transform="matrix(1.74572 0 0 1.74599 543.249 1121)">)</text><text font-family="Arial,Arial_MSFontService,sans-serif" font-weight="400" font-size="20" transform="matrix(1.74572 0 0 1.74599 497.86 1228)">I</text><text font-family="Arial,Arial_MSFontService,sans-serif" font-weight="400" font-size="20" transform="matrix(1.74572 0 0 1.74599 508.335 1228)">(</text><text font-family="Arial,Arial_MSFontService,sans-serif" font-weight="400" font-size="20" transform="matrix(1.74572 0 0 1.74599 520.555 1228)">t</text><text font-family="Arial,Arial_MSFontService,sans-serif" font-weight="400" font-size="20" transform="matrix(1.74572 0 0 1.74599 531.029 1228)">)</text><text fill="#FF5050" font-family="Derailed,Derailed_MSFontService,sans-serif" font-weight="700" font-size="83" transform="matrix(1.2087 0 0 1.2077 450.318 1428)">Regular spiking </text><text fill="#FF5050" font-family="Derailed,Derailed_MSFontService,sans-serif" font-weight="700" font-size="83" transform="matrix(1.2087 0 0 1.2077 1220.26 1428)">(</text><text fill="#FF5050" font-family="Derailed,Derailed_MSFontService,sans-serif" font-weight="700" font-size="83" transform="matrix(1.2087 0 0 1.2077 1251.69 1428)">RS</text><text fill="#FF5050" font-family="Derailed,Derailed_MSFontService,sans-serif" font-weight="700" font-size="83" transform="matrix(1.2087 0 0 1.2077 1379.81 1428)">)</text></g></g></g></g><g clip-path="url(#clip1)"><g clip-path="url(#clip2)"><g clip-path="url(#clip3)"><path d="M2645.11 995.99 3866.85 995.99 3866.85 1912.3 2645.11 1912.3Z" fill="#FFFFFF" transform="matrix(1.00021 0 0 1 138.346 -514.99)"/><path d="M2645.11 995.99 3866.85 995.99 3866.85 1912.3 2645.11 1912.3Z" fill="#FFFFFF" transform="matrix(1.00021 0 0 1 138.346 -514.99)"/><path d="M2803.93 1651 2806.3 1651 2808.68 1651 2811.05 1651 2813.41 1651 2815.78 1651 2818.16 1651 2820.52 1651 2822.89 1651 2825.25 1651 2827.63 1651 2830 1651 2832.37 1651 2834.73 1651 2837.11 1651 2839.48 1651 2841.84 1651 2844.21 1651 2846.59 1651 2848.95 1651 2851.32 1651 2853.69 1651 2856.06 1651 2858.43 1651 2860.8 1651 2863.16 1651 2865.54 1651 2867.91 1651 2870.27 1651 2872.64 1651 2875.02 1651 2877.38 1651 2879.75 1651 2882.13 1651 2884.49 1651 2886.86 1651 2889.23 1651 2891.59 1651 2893.97 1651 2896.34 1651 2898.7 1651 2901.08 1637.66 2903.45 1625.99 2905.81 1615.24 2908.18 1604.88 2910.55 1594.5 2912.93 1583.71 2915.29 1572.03 2917.66 1558.94 2920.04 1543.61 2922.4 1524.9 2924.77 1500.84 2927.14 1467.97 2929.5 1419.54 2931.88 1340.82 2934.25 1194.06 2936.61 1117.42 2938.99 1528.96 2941.36 1509.38 2943.72 1483.07 2946.09 1445.48 2948.47 1387.24 2950.83 1286.58 2953.2 1117.42 2955.57 1531.96 2957.94 1516.27 2960.31 1495.48 2962.68 1466.51 2965.04 1423.44 2967.42 1353.59 2969.79 1225.54 2972.15 1117.42 2974.52 1534.93 2976.9 1523.08 2979.26 1507.55 2981.63 1486.46 2984 1456.34 2986.38 1410.48 2988.74 1334.1 2991.11 1189.42 2993.47 1117.42 2995.85 1537.82 2998.22 1529.65 3000.58 1519.07 3002.95 1505.03 3005.33 1485.75 3007.7 1458.12 3010.06 1416.06 3012.44 1346.58 3014.81 1217.33 3017.17 1117.42 3019.54 1540.52 3021.92 1535.77 3024.28 1529.66 3026.65 1521.72 3029.02 1511.19 3031.39 1496.89 3033.76 1476.83 3036.13 1447.41 3038.49 1401.53 3040.87 1323.6 3043.24 1173.1 3045.6 1117.42 3047.97 1543.07 3050.35 1541.5 3052.71 1539.46 3055.08 1536.82 3057.45 1533.41 3059.83 1528.97 3062.19 1523.14 3064.56 1515.41 3066.92 1504.97 3069.3 1490.53 3071.67 1469.92 3074.03 1439.17 3076.4 1390.38 3078.78 1305.66 3081.15 1137.47 3083.51 1117.42 3085.88 1545.29 3088.26 1546.49 3090.62 1547.91 3092.99 1549.59 3095.37 1551.59 3097.73 1553.97 3100.1 1556.81 3102.47 1560.15 3104.83 1564.09 3107.21 1568.68 3109.58 1573.95 3111.94 1579.93 3114.31 1586.59 3116.69 1593.87 3119.05 1601.65 3121.42 1609.72 3123.8 1617.87 3126.16 1625.85 3128.53 1633.42 3130.9 1640.36 3133.28 1646.56 3135.64 1651.91 3138.01 1656.4 3140.37 1660.07 3142.75 1662.99 3145.12 1665.27 3147.48 1667.01 3149.85 1668.29 3152.23 1669.22 3154.6 1669.85 3156.96 1670.24 3159.33 1670.46 3161.71 1670.55 3164.07 1670.52 3166.44 1670.4 3168.8 1670.23 3171.18 1670 3173.55 1669.74 3175.92 1669.45 3178.28 1669.13 3180.66 1668.8 3183.03 1668.45 3185.39 1668.1 3187.76 1667.72 3190.14 1667.36 3192.5 1666.97 3194.87 1666.6 3197.24 1666.21 3199.61 1665.83 3201.98 1665.44 3204.35 1665.04 3206.71 1664.65 3209.09 1664.26 3211.46 1663.86 3213.82 1663.46 3216.19 1663.06 3218.57 1662.68 3220.93 1662.28 3223.3 1661.88 3225.68 1661.47 3228.04 1661.07 3230.41 1660.67 3232.78 1660.27 3235.16 1659.86 3237.52 1659.46 3239.89 1659.07 3242.25 1658.65 3244.63 1658.26 3247 1657.85 3249.37 1657.44 3251.73 1657.04 3254.11 1656.63 3256.48 1656.22 3258.84 1655.81 3261.21 1655.4 3263.59 1654.98 3265.95 1654.57 3268.32 1654.16 3270.69 1653.74 3273.06 1653.33 3275.43 1652.91 3277.8 1652.5 3280.16 1652.08 3282.54 1651.65 3284.91 1651.23 3287.27 1650.81 3289.64 1650.39 3292.02 1649.96 3294.38 1649.54 3296.75 1649.11 3299.12 1648.68 3301.49 1648.25 3303.86 1647.81 3306.23 1647.38 3308.59 1646.94 3310.97 1646.51 3313.34 1646.08 3315.7 1645.63 3318.08 1645.18 3320.45 1644.74 3322.81 1644.29 3325.18 1643.84 3327.56 1643.4 3329.93 1642.94 3332.29 1642.48 3334.66 1642.02 3337.04 1641.56 3339.4 1641.09 3341.77 1640.63 3344.14 1640.16 3346.5 1639.68 3348.88 1639.21 3351.25 1638.72 3353.61 1638.24 3355.98 1637.76 3358.36 1637.26 3360.72 1636.77 3363.09 1636.27 3365.47 1635.78 3367.83 1635.27 3370.2 1634.75 3372.57 1634.24 3374.94 1633.72 3377.31 1633.19 3379.68 1632.66 3382.04 1632.13 3384.42 1631.59 3386.79 1631.03 3389.15 1630.49 3391.52 1629.92 3393.9 1629.35 3396.26 1628.79 3398.63 1628.21 3401 1627.62 3403.38 1627.01 3405.74 1626.41 3408.11 1625.79 3410.47 1625.17 3412.85 1624.54 3415.22 1623.89 3417.58 1623.23 3419.95 1622.56 3422.33 1621.88 3424.7 1621.18 3427.06 1620.47 3429.44 1619.74 3431.81 1619.01 3434.17 1618.25 3436.54 1617.46 3438.92 1616.67 3441.28 1615.86 3443.65 1615.01 3446.02 1614.14 3448.39 1613.25 3450.76 1612.33 3453.13 1611.38 3455.49 1610.39 3457.87 1609.36 3460.24 1608.3 3462.6 1607.19 3464.97 1606.03 3467.35 1604.82 3469.71 1603.56 3472.08 1602.22 3474.45 1600.8 3476.82 1599.32 3479.19 1597.72 3481.56 1596.03 3483.92 1594.22 3486.3 1592.27 3488.67 1590.17 3491.03 1587.86 3493.4 1585.35 3495.78 1582.59 3498.15 1579.51 3500.51 1576.05 3502.88 1572.14 3505.26 1567.68 3507.62 1562.5 3509.99 1556.41 3512.35 1549.12 3514.73 1540.23 3517.1 1529.12 3519.47 1514.81 3521.84 1495.71 3524.21 1469.04 3526.58 1429.53 3528.94 1366.08 3531.32 1251.95 3533.69 1117.42 3536.05 1537.06 3538.42 1527.92 3540.79 1516.05 3543.16 1500.21 3545.53 1478.24 3547.9 1446.23 3550.26 1396.35 3552.64 1311.05 3555.01 1143.49 3557.37 1117.42 3559.74 1539.9 3562.12 1534.33 3564.48 1527.18 3566.85 1517.84 3569.23 1505.37 3571.59 1488.23 3573.96 1463.71 3576.33 1426.75 3578.71 1366.82 3581.07 1258.79 3583.44 1117.42 3585.8 1542.41 3588.18 1540.01 3590.55 1536.91 3592.92 1532.94 3595.28 1527.76 3597.66 1520.99 3600.03 1511.95 3602.39 1499.67 3604.76 1482.5 3607.14 1457.57 3609.5 1419.45 3611.87 1356.65 3614.24 1241.35 3616.61 1117.42 3618.98 1544.67 3621.35 1545.06 3623.71 1545.51 3626.09 1545.98 3628.46 1546.51 3630.82 1547.1 3633.2 1547.77 3635.57 1548.52 3637.93 1549.39 3640.3 1550.38 3642.68 1551.53 3645.04 1552.89 3647.41 1554.47 3649.78 1556.32 3652.16 1558.49 3654.52 1561.04 3656.89 1563.99 3659.25 1567.42 3661.63 1571.37 3664 1575.86 3666.36 1580.91 3668.73 1586.51 3671.11 1592.61 3673.48 1599.11 3675.84 1605.92 3678.21 1612.86 3680.59 1619.78 3682.95 1626.47 3685.32 1632.78 3687.69 1638.57 3690.06 1643.73 3692.43 1648.24 3694.8 1652.06 3697.16 1655.25 3699.54 1657.83 3701.91 1659.9 3704.27 1661.5 3706.64 1662.72 3709.02 1663.63 3711.38 1664.27 3713.75 1664.7 3716.13 1664.96 3718.49 1665.09 3720.86 1665.1 3723.23 1665.03 3725.61 1664.9 3727.97 1664.7 3730.34 1664.46 3732.7 1664.2 3735.07 1663.91 3737.45 1663.58 3739.81 1663.25 3742.18 1662.9 3744.55 1662.54 3746.93 1662.18 3749.29 1661.81 3751.66 1661.43" stroke="#C00000" stroke-width="5.81779" stroke-linejoin="round" stroke-miterlimit="10" fill="none" fill-rule="evenodd" transform="matrix(1.00021 0 0 1 138.346 -514.99)"/><path d="M2803.93 1757.71 2898.7 1757.71 2898.7 1704.35 3751.66 1704.35" stroke="#C00000" stroke-width="5.81779" stroke-linejoin="round" stroke-miterlimit="10" fill="none" fill-rule="evenodd" transform="matrix(1.00021 0 0 1 138.346 -514.99)"/><path d="M2803.93 1757.71 2898.7 1757.71 2898.7 1704.35 3751.66 1704.35" stroke="#000000" stroke-width="5.81779" stroke-linejoin="round" stroke-miterlimit="10" fill="none" fill-rule="evenodd" transform="matrix(1.00021 0 0 1 138.346 -514.99)"/><path d="M3562.12 1757.71 3751.66 1757.71" stroke="#000000" stroke-width="8.72677" stroke-linejoin="round" stroke-miterlimit="10" fill="none" transform="matrix(1.00021 0 0 1 138.346 -514.99)"/><text font-family="Arial,Arial_MSFontService,sans-serif" font-weight="400" font-size="17" transform="matrix(1.74571 0 0 1.74535 3701.2 1280)"> 20 </text><text font-family="Arial,Arial_MSFontService,sans-serif" font-weight="400" font-size="17" transform="matrix(1.74571 0 0 1.74535 3750.08 1280)">ms</text><text fill="#C00000" font-family="Arial,Arial_MSFontService,sans-serif" font-weight="400" font-size="20" transform="matrix(1.74571 0 0 1.74535 2942.86 1123)">V</text><text fill="#C00000" font-family="Arial,Arial_MSFontService,sans-serif" font-weight="400" font-size="20" transform="matrix(1.74571 0 0 1.74535 2965.55 1123)">(</text><text fill="#C00000" font-family="Arial,Arial_MSFontService,sans-serif" font-weight="400" font-size="20" transform="matrix(1.74571 0 0 1.74535 2977.77 1123)">t</text><text fill="#C00000" font-family="Arial,Arial_MSFontService,sans-serif" font-weight="400" font-size="20" transform="matrix(1.74571 0 0 1.74535 2988.25 1123)">)</text><text font-family="Arial,Arial_MSFontService,sans-serif" font-weight="400" font-size="20" transform="matrix(1.74571 0 0 1.74535 2942.86 1230)">I</text><text font-family="Arial,Arial_MSFontService,sans-serif" font-weight="400" font-size="20" transform="matrix(1.74571 0 0 1.74535 2953.33 1230)">(</text><text font-family="Arial,Arial_MSFontService,sans-serif" font-weight="400" font-size="20" transform="matrix(1.74571 0 0 1.74535 2965.55 1230)">t</text><text font-family="Arial,Arial_MSFontService,sans-serif" font-weight="400" font-size="20" transform="matrix(1.74571 0 0 1.74535 2976.03 1230)">)</text><text fill="#C00000" font-family="Derailed,Derailed_MSFontService,sans-serif" font-weight="700" font-size="83" transform="matrix(1.20751 0 0 1.20726 3078.62 1426)">Bursting </text><text fill="#C00000" font-family="Derailed,Derailed_MSFontService,sans-serif" font-weight="700" font-size="83" transform="matrix(1.20751 0 0 1.20726 3508.49 1426)">(</text><text fill="#C00000" font-family="Derailed,Derailed_MSFontService,sans-serif" font-weight="700" font-size="83" transform="matrix(1.20751 0 0 1.20726 3539.89 1426)">BU</text><text fill="#C00000" font-family="Derailed,Derailed_MSFontService,sans-serif" font-weight="700" font-size="83" transform="matrix(1.20751 0 0 1.20726 3682.38 1426)">)</text></g></g></g></g></svg>